<?xml version="1.0" encoding="UTF-8"?><svg id="Layer_1" xmlns="http://www.w3.org/2000/svg" xmlns:xlink="http://www.w3.org/1999/xlink" viewBox="0 0 432 288"><defs><style>.cls-1,.cls-2,.cls-3{clip-rule:evenodd;}.cls-1,.cls-2,.cls-3,.cls-4,.cls-5,.cls-6,.cls-7,.cls-8,.cls-9,.cls-10,.cls-11,.cls-12,.cls-13{stroke-width:0px;}.cls-1,.cls-14,.cls-15,.cls-6{fill:#5b629c;}.cls-2,.cls-16,.cls-17,.cls-9{fill:#c8355a;}.cls-3,.cls-18,.cls-19,.cls-10{fill:#a977ab;}.cls-20{clip-path:url(#clippath);}.cls-4{fill:none;}.cls-21,.cls-5,.cls-11{fill:#b8d7d7;}.cls-22,.cls-8{fill:#0e3f41;}.cls-23{clip-path:url(#clippath-4);}.cls-24{clip-path:url(#clippath-8);}.cls-25{clip-path:url(#clippath-6);}.cls-26{clip-path:url(#clippath-5);}.cls-27{clip-path:url(#clippath-22);}.cls-28{clip-path:url(#clippath-25);}.cls-29{clip-path:url(#clippath-44);}.cls-30{clip-path:url(#clippath-45);}.cls-31{clip-path:url(#clippath-40);}.cls-32{clip-path:url(#clippath-42);}.cls-33{clip-path:url(#clippath-41);}.cls-34{clip-path:url(#clippath-47);}.cls-35{clip-path:url(#clippath-43);}.cls-36{clip-path:url(#clippath-46);}.cls-37{clip-path:url(#clippath-48);}.cls-38{clip-path:url(#clippath-27);}.cls-39{clip-path:url(#clippath-29);}.cls-40{clip-path:url(#clippath-34);}.cls-41{clip-path:url(#clippath-35);}.cls-42{clip-path:url(#clippath-36);}.cls-43{clip-path:url(#clippath-37);}.cls-44{clip-path:url(#clippath-39);}.cls-45{clip-path:url(#clippath-33);}.cls-46{clip-path:url(#clippath-32);}.cls-47{clip-path:url(#clippath-30);}.cls-48{clip-path:url(#clippath-38);}.cls-49{clip-path:url(#clippath-31);}.cls-50{clip-path:url(#clippath-53);}.cls-51{clip-path:url(#clippath-54);}.cls-52{clip-path:url(#clippath-55);}.cls-53{clip-path:url(#clippath-56);}.cls-54{clip-path:url(#clippath-14);}.cls-55{clip-path:url(#clippath-12);}.cls-56{clip-path:url(#clippath-10);}.cls-57{clip-path:url(#clippath-17);}.cls-58{clip-path:url(#clippath-19);}.cls-5,.cls-15,.cls-17,.cls-19{fill-rule:evenodd;}.cls-7{fill:#191818;}.cls-12{fill:#fcb13f;}.cls-13{fill:#ecd2d2;}</style><clipPath id="clippath"><path class="cls-8" d="M325.1,205.79h-25.23v-27.39h25.23v27.39ZM300.86,204.79h23.23v-25.39h-23.23v25.39Z"/></clipPath><clipPath id="clippath-4"><rect class="cls-11" x="285.5" y="187.49" width="7.09" height="10.41"/></clipPath><clipPath id="clippath-5"><rect class="cls-11" x="56.32" y="-17.43" width="312.32" height="312.32"/></clipPath><clipPath id="clippath-6"><path class="cls-8" d="M295.62,188.14h-11.41v-8.51h11.41v8.51ZM285.21,187.14h9.41v-6.51h-9.41v6.51Z"/></clipPath><clipPath id="clippath-8"><path class="cls-8" d="M96.74,222.44h-13.68v-33.8h13.68v33.8ZM83.81,221.69h12.18s0-32.3,0-32.3h-12.18v32.3Z"/></clipPath><clipPath id="clippath-10"><path class="cls-8" d="M91.56,84.32h-12.21v-11.08h12.21v11.08ZM80.35,83.32h10.21v-9.08h-10.21v9.08Z"/></clipPath><clipPath id="clippath-12"><path class="cls-8" d="M121.4,78.98h-27.5v-13.41h27.5v13.41ZM94.9,77.98h25.5v-11.41h-25.5v11.41Z"/></clipPath><clipPath id="clippath-14"><path class="cls-8" d="M93.03,182.18h-14.25v-18.24h14.25v18.24ZM79.78,181.18h12.25v-16.24h-12.25v16.24Z"/></clipPath><clipPath id="clippath-17"><path class="cls-8" d="M121.96,222.44h-25.97v-13.76h25.97v13.76ZM96.74,221.69h24.47v-12.26h-24.47v12.26Z"/></clipPath><clipPath id="clippath-19"><path class="cls-8" d="M203.86,238.92h-17.76v-10.46h17.76v10.46ZM186.85,238.17h16.26v-8.96h-16.26v8.96Z"/></clipPath><clipPath id="clippath-22"><path class="cls-8" d="M252.11,240.04h-10.04v-18.75h10.04v18.75ZM242.83,239.29h8.54v-17.25h-8.54v17.25Z"/></clipPath><clipPath id="clippath-25"><polygon class="cls-8" points="129.68 183.91 129.53 182.92 140.94 181.24 140.94 165.17 126.3 165.17 126.3 164.17 141.94 164.17 141.94 182.1 129.68 183.91"/></clipPath><clipPath id="clippath-27"><polygon class="cls-8" points="154.15 82.95 136.83 80.65 140.45 57.82 141.44 57.97 137.98 79.8 153.31 81.83 156.54 60.07 157.53 60.22 154.15 82.95"/></clipPath><clipPath id="clippath-29"><polyline class="cls-3" points="274.61 147.71 277.58 158.42 282.34 174.99 319.79 171.16 310.62 138.64 294.71 144.6 293.64 145.43 292 140.53"/></clipPath><clipPath id="clippath-30"><rect class="cls-10" x="56.32" y="-17.43" width="312.32" height="312.32"/></clipPath><clipPath id="clippath-31"><path class="cls-1" d="M150.1,215.6v2.63c0,.06,0,.12-.02.18-.07.18-.27.26-.46.19-.14-.05-.22-.17-.22-.33,0-.13,0-.25,0-.38,0-.57,0-1.15,0-1.72,0-.33,0-.66,0-1,0-.02,0-.05,0-.07-.01-.05-.05-.08-.1-.09-.06,0-.1.02-.12.07-.01.03-.01.06-.01.09,0,1.02,0,2.05,0,3.07,0,.1-.01.19-.08.26-.1.11-.22.15-.36.12-.14-.03-.23-.13-.27-.26-.01-.04-.02-.09-.02-.14,0-.71,0-1.42,0-2.12,0-1.05,0-2.1,0-3.16,0-.08-.02-.11-.08-.13-.07-.02-.15,0-.19.06-.01.02-.01.03-.01.05,0,.38,0,.75,0,1.13,0,.28,0,.55,0,.83,0,.11-.04.2-.15.25-.1.04-.21.02-.29-.06-.05-.05-.07-.1-.07-.17,0-.71,0-1.42,0-2.13,0-.19.04-.37.14-.53.18-.28.43-.44.77-.45.43-.01.86,0,1.28,0,.44,0,.86.35.96.78.02.1.04.2.04.3,0,.66,0,1.33,0,1.99,0,.14-.06.22-.18.26-.16.05-.31-.05-.32-.22,0-.02,0-.04,0-.06,0-.64,0-1.29,0-1.93,0-.1-.09-.14-.15-.12-.06.01-.09.05-.09.11v2.68Z"/></clipPath><clipPath id="clippath-32"><rect class="cls-6" x="56.32" y="-17.43" width="312.32" height="312.32"/></clipPath><clipPath id="clippath-33"><path class="cls-1" d="M149.22,210.23c.37,0,.67.3.67.67,0,.37-.29.67-.67.67s-.66-.28-.67-.67c0-.38.29-.67.67-.68"/></clipPath><clipPath id="clippath-34"><rect class="cls-6" x="56.32" y="-17.43" width="312.32" height="312.32"/></clipPath><clipPath id="clippath-35"><path class="cls-1" d="M139.99,217.24c0,.36,0,.73,0,1.09,0,.11-.04.2-.14.26-.1.06-.21.06-.32,0-.11-.05-.15-.15-.15-.26,0-.71,0-1.42,0-2.13,0-.02,0-.04,0-.06,0-.06-.05-.09-.1-.09-.06,0-.1.04-.1.1v2.15c0,.11-.02.2-.11.27-.11.08-.23.09-.35.03-.12-.05-.16-.16-.17-.28,0-.02,0-.04,0-.06v-2.13q0-.07-.07-.07c-.26,0-.51,0-.76,0-.05,0-.06,0-.04-.05.06-.21.13-.43.2-.64.1-.31.19-.63.29-.94.08-.26.16-.52.24-.79.08-.26.16-.53.24-.79.02-.07,0-.12-.06-.14-.06-.02-.12,0-.14.08-.05.14-.09.29-.14.43-.12.36-.23.71-.35,1.07-.05.15-.1.31-.15.46-.05.16-.18.22-.33.15-.11-.05-.16-.16-.12-.28.1-.34.21-.68.31-1.02.12-.4.24-.8.36-1.2.09-.31.36-.53.68-.57.05,0,.11,0,.16,0,.35,0,.7,0,1.05,0,.19,0,.37.05.52.17.15.12.23.27.28.45.13.47.26.94.38,1.41.07.26.14.53.21.79.03.13-.06.27-.2.28-.13.01-.22-.05-.26-.18-.11-.37-.21-.74-.31-1.11l-.2-.71c-.02-.06-.03-.12-.05-.17-.02-.06-.07-.08-.12-.07-.06.02-.08.06-.07.12.08.31.16.63.24.94.09.35.18.7.27,1.05.1.41.21.82.31,1.23.01.04-.01.04-.04.04-.27,0-.54,0-.81,0-.07,0-.07,0-.07.07v1.1Z"/></clipPath><clipPath id="clippath-36"><rect class="cls-6" x="56.32" y="-17.43" width="312.32" height="312.32"/></clipPath><clipPath id="clippath-37"><path class="cls-1" d="M138.69,210.91c0-.36.28-.68.67-.68s.68.31.68.69c0,.37-.31.68-.68.67-.37,0-.68-.31-.67-.68"/></clipPath><clipPath id="clippath-38"><rect class="cls-6" x="56.32" y="-17.43" width="312.32" height="312.32"/></clipPath><clipPath id="clippath-39"><path class="cls-8" d="M131.79,200.32s-.02,0-.03,0c-.28,0-.55-.15-.77-.42-.22-.26-.43-.52-.64-.78l-.29-.36c-.12.03-.24.03-.34,0v.3c0,.18,0,.44-.13.7-.19.39-.56.59-.97.54-.48-.05-.82-.41-.86-.9-.02-.21-.03-.41-.04-.62-.22.03-.45-.03-.64-.19-.39-.3-.48-.8-.22-1.19.39-.58.82-1.1,1.29-1.55.23-.22.48-.25.63-.24.27.01.52.16.75.43l.96,1.14c.12-.02.24-.02.34,0v-.33c0-.28,0-1.14.91-1.23.34-.03.55.1.67.21.24.21.35.55.35,1.03v.31c.26-.05.52.02.74.21.38.33.44.84.14,1.21-.37.47-.77.96-1.2,1.42-.22.24-.47.29-.64.29ZM128.65,196.78l.05,1.03c.01.21.02.41.02.62,0,.05,0,.1,0,.15v-1.7l.51.37-.46-.55s-.01-.01-.02-.02c-.03.03-.07.07-.1.1Z"/></clipPath><clipPath id="clippath-40"><path class="cls-8" d="M369.14,295.39H55.82V-17.93h313.32v313.32ZM56.82,294.39h311.32V-16.93H56.82v311.32Z"/></clipPath><clipPath id="clippath-41"><path class="cls-1" d="M289.44,190.31v1.25s0,.06-.01.09c-.04.09-.13.13-.22.09-.07-.02-.1-.08-.11-.15,0-.06,0-.12,0-.18,0-.27,0-.55,0-.82,0-.16,0-.31,0-.47,0-.01,0-.02,0-.04,0-.02-.02-.04-.05-.04-.03,0-.05.01-.06.03,0,.01,0,.03,0,.04,0,.49,0,.97,0,1.46,0,.05,0,.09-.04.13-.05.05-.11.07-.17.05-.07-.01-.11-.06-.13-.12,0-.02,0-.04,0-.07,0-.34,0-.67,0-1.01,0-.5,0-1,0-1.5,0-.04,0-.05-.04-.06-.03-.01-.07,0-.09.03,0,0,0,.02,0,.02,0,.18,0,.36,0,.54,0,.13,0,.26,0,.4,0,.05-.02.09-.07.12-.05.02-.1,0-.14-.03-.02-.02-.03-.05-.03-.08,0-.34,0-.67,0-1.01,0-.09.02-.17.07-.25.08-.13.21-.21.36-.22.2,0,.41,0,.61,0,.21,0,.41.17.46.37.01.05.02.09.02.14,0,.31,0,.63,0,.94,0,.07-.03.1-.08.12-.08.02-.15-.03-.15-.1,0,0,0-.02,0-.03,0-.31,0-.61,0-.92,0-.05-.04-.07-.07-.06-.03,0-.04.02-.04.05v1.27Z"/></clipPath><clipPath id="clippath-42"><rect class="cls-6" x="56.32" y="-17.43" width="312.32" height="312.32"/></clipPath><clipPath id="clippath-43"><path class="cls-1" d="M289.03,187.76c.17,0,.32.14.32.32,0,.17-.14.32-.32.32s-.32-.13-.32-.32c0-.18.14-.32.32-.32"/></clipPath><clipPath id="clippath-44"><rect class="cls-6" x="56.32" y="-17.43" width="312.32" height="312.32"/></clipPath><clipPath id="clippath-45"><path class="cls-1" d="M289.36,196.51c0,.17,0,.35,0,.52,0,.05-.02.1-.07.12-.05.03-.1.03-.15,0-.05-.03-.07-.07-.07-.13,0-.34,0-.67,0-1.01,0,0,0-.02,0-.03,0-.03-.02-.04-.05-.04-.03,0-.05.02-.05.05v1.02c0,.05,0,.1-.05.13-.05.04-.11.04-.16.02-.06-.03-.08-.08-.08-.13,0,0,0-.02,0-.03v-1.01s0-.03-.03-.03h-.36s-.03,0-.02-.02c.03-.1.06-.2.09-.3.05-.15.09-.3.14-.45.04-.12.08-.25.12-.37.04-.13.08-.25.11-.38,0-.03,0-.06-.03-.07-.03,0-.06,0-.07.04-.02.07-.04.14-.07.21-.06.17-.11.34-.16.51-.02.07-.05.15-.07.22-.02.08-.08.1-.16.07-.05-.02-.08-.08-.06-.13.05-.16.1-.32.15-.48.06-.19.12-.38.17-.57.04-.15.17-.25.32-.27.03,0,.05,0,.08,0,.17,0,.33,0,.5,0,.09,0,.17.02.25.08.07.06.11.13.13.21.06.22.12.45.18.67.03.12.07.25.1.38.02.06-.03.13-.09.13-.06,0-.11-.02-.12-.08-.05-.17-.1-.35-.15-.53-.03-.11-.06-.22-.1-.34,0-.03-.01-.06-.02-.08,0-.03-.03-.04-.06-.03-.03,0-.04.03-.03.06.04.15.08.3.11.45.04.17.08.33.13.5.05.19.1.39.15.58,0,.02,0,.02-.02.02-.13,0-.26,0-.38,0-.03,0-.03,0-.03.03v.52Z"/></clipPath><clipPath id="clippath-46"><rect class="cls-6" x="56.32" y="-17.43" width="312.32" height="312.32"/></clipPath><clipPath id="clippath-47"><path class="cls-1" d="M288.74,193.51c0-.17.14-.32.32-.32s.32.15.32.33c0,.18-.15.32-.32.32-.17,0-.32-.14-.32-.32"/></clipPath><clipPath id="clippath-48"><rect class="cls-6" x="56.32" y="-17.43" width="312.32" height="312.32"/></clipPath><clipPath id="clippath-49"><path class="cls-4" d="M203.08,178.29s3.85.27,6.01.55c2.16.28,13.1.55,13.1.55l6.01,9.91-25.12,1.65v-12.66Z"/></clipPath><clipPath id="clippath-50"><rect class="cls-4" x="57.97" y="-17.15" width="309.32" height="311.89"/></clipPath><clipPath id="clippath-51"><rect class="cls-4" x="202.63" y="178.22" width="25.2" height="12.85"/></clipPath><clipPath id="clippath-53"><path class="cls-2" d="M203.08,178.29s3.85.27,6.01.55c2.16.28,13.1.55,13.1.55l6.01,9.91-25.12,1.65v-12.66Z"/></clipPath><clipPath id="clippath-54"><rect class="cls-9" x="57.97" y="-17.15" width="309.32" height="311.89"/></clipPath><clipPath id="clippath-55"><rect class="cls-9" x="202.63" y="178.22" width="25.2" height="12.85"/></clipPath><clipPath id="clippath-56"><rect class="cls-9" x="202.63" y="178.22" width="25.2" height="12.85"/></clipPath><clipPath id="clippath-57"><path class="cls-4" d="M203.08,178.29s3.85.27,6.01.55c2.16.28,13.1.55,13.1.55l6.01,9.91-25.12,1.65v-12.66Z"/></clipPath><clipPath id="clippath-58"><rect class="cls-4" x="57.97" y="-17.15" width="309.32" height="311.89"/></clipPath><clipPath id="clippath-59"><rect class="cls-4" x="202.63" y="178.22" width="25.2" height="12.85"/></clipPath></defs><path class="cls-9" d="M209.76,180.71l-3.4-9.33,50.24-14.27,1.26.84.57,14.39s-19.77-7.72-40.03,9.93l-8.64-1.57Z"/><path class="cls-9" d="M149.71,129.48l.44-.94c.62.56,1.69.97,2.77.97,1.45,0,2.08-.56,2.08-1.29,0-2.05-5.09-.76-5.09-3.87,0-1.29,1.01-2.4,3.21-2.4.98,0,2,.26,2.7.74l-.4.96c-.73-.47-1.56-.68-2.3-.68-1.43,0-2.04.6-2.04,1.33,0,2.05,5.08.77,5.08,3.85,0,1.28-1.03,2.39-3.25,2.39-1.28,0-2.54-.43-3.21-1.05Z"/><path class="cls-9" d="M163.49,127.65h-5.16c.14,1.12,1.04,1.86,2.3,1.86.74,0,1.37-.25,1.83-.77l.64.74c-.58.67-1.45,1.03-2.51,1.03-2.05,0-3.42-1.36-3.42-3.25s1.36-3.24,3.19-3.24,3.14,1.32,3.14,3.27c0,.1-.01.24-.02.35ZM158.33,126.82h4.08c-.12-1.07-.92-1.82-2.04-1.82s-1.92.74-2.04,1.82Z"/><path class="cls-9" d="M164.52,127.26c0-1.89,1.4-3.24,3.36-3.24,1.14,0,2.09.47,2.59,1.35l-.88.56c-.41-.62-1.03-.91-1.73-.91-1.25,0-2.18.88-2.18,2.23s.94,2.24,2.18,2.24c.7,0,1.32-.29,1.73-.91l.88.55c-.5.89-1.45,1.37-2.59,1.37-1.96,0-3.36-1.36-3.36-3.25Z"/><path class="cls-9" d="M171.37,127.26c0-1.89,1.4-3.24,3.31-3.24s3.3,1.34,3.3,3.24-1.39,3.25-3.3,3.25-3.31-1.36-3.31-3.25ZM176.82,127.26c0-1.35-.91-2.23-2.13-2.23s-2.15.88-2.15,2.23.92,2.24,2.15,2.24,2.13-.89,2.13-2.24Z"/><path class="cls-9" d="M185.61,126.78v3.66h-1.15v-3.53c0-1.25-.62-1.86-1.71-1.86-1.22,0-2.01.73-2.01,2.11v3.27h-1.15v-6.36h1.1v.96c.47-.65,1.28-1.02,2.29-1.02,1.55,0,2.64.89,2.64,2.76Z"/><path class="cls-9" d="M193.75,121.54v8.9h-1.1v-1.01c-.52.72-1.33,1.08-2.27,1.08-1.86,0-3.21-1.31-3.21-3.25s1.36-3.24,3.21-3.24c.9,0,1.69.33,2.22,1.02v-3.5h1.15ZM192.61,127.26c0-1.35-.92-2.23-2.14-2.23s-2.15.88-2.15,2.23.92,2.24,2.15,2.24,2.14-.89,2.14-2.24Z"/><path class="cls-9" d="M200.53,123.09v2.93h4.21v1.03h-4.21v3.39h-1.2v-8.4h5.92v1.04h-4.72Z"/><path class="cls-9" d="M206.78,121.54h1.15v8.9h-1.15v-8.9Z"/><path class="cls-9" d="M209.54,127.26c0-1.89,1.4-3.24,3.31-3.24s3.3,1.34,3.3,3.24-1.39,3.25-3.3,3.25-3.31-1.36-3.31-3.25ZM214.99,127.26c0-1.35-.91-2.23-2.13-2.23s-2.15.88-2.15,2.23.92,2.24,2.15,2.24,2.13-.89,2.13-2.24Z"/><path class="cls-9" d="M217.16,127.26c0-1.89,1.4-3.24,3.31-3.24s3.3,1.34,3.3,3.24-1.39,3.25-3.3,3.25-3.31-1.36-3.31-3.25ZM222.61,127.26c0-1.35-.91-2.23-2.13-2.23s-2.15.88-2.15,2.23.92,2.24,2.15,2.24,2.13-.89,2.13-2.24Z"/><path class="cls-9" d="M228.79,124.03v1.12c-.1-.01-.18-.01-.26-.01-1.23,0-2,.76-2,2.15v3.17h-1.15v-6.36h1.1v1.07c.41-.74,1.2-1.13,2.32-1.13Z"/><path class="cls-9" d="M239.04,128.34h-4.46l-.92,2.1h-1.23l3.8-8.4h1.19l3.81,8.4h-1.26l-.92-2.1ZM238.62,127.38l-1.81-4.11-1.81,4.11h3.62Z"/><path class="cls-9" d="M245.88,130.07c-.35.3-.88.44-1.39.44-1.28,0-2.02-.71-2.02-1.99v-3.49h-1.08v-.95h1.08v-1.39h1.15v1.39h1.82v.95h-1.82v3.44c0,.68.36,1.07,1,1.07.34,0,.66-.11.9-.3l.36.83Z"/><path class="cls-9" d="M250.69,124.03v1.12c-.1-.01-.18-.01-.26-.01-1.24,0-2,.76-2,2.15v3.17h-1.15v-6.36h1.1v1.07c.41-.74,1.2-1.13,2.31-1.13Z"/><path class="cls-9" d="M251.99,122.12c0-.42.33-.76.78-.76s.78.32.78.73c0,.43-.32.77-.78.77s-.78-.32-.78-.74ZM252.19,124.09h1.15v6.36h-1.15v-6.36Z"/><path class="cls-9" d="M261.46,124.09v6.36h-1.09v-.96c-.47.66-1.26,1.03-2.16,1.03-1.64,0-2.73-.9-2.73-2.77v-3.66h1.15v3.53c0,1.25.62,1.87,1.72,1.87,1.2,0,1.97-.74,1.97-2.11v-3.29h1.15Z"/><path class="cls-9" d="M274.22,126.78v3.66h-1.15v-3.53c0-1.25-.6-1.86-1.64-1.86-1.15,0-1.91.73-1.91,2.11v3.27h-1.15v-3.53c0-1.25-.6-1.86-1.64-1.86-1.15,0-1.91.73-1.91,2.11v3.27h-1.15v-6.36h1.1v.95c.46-.65,1.24-1.01,2.2-1.01s1.79.38,2.21,1.17c.48-.72,1.37-1.17,2.45-1.17,1.55,0,2.6.89,2.6,2.76Z"/><path class="cls-10" d="M287.58,79.63v1.05h-6.12v-8.43h5.95v1.05h-4.74v2.59h4.23v1.02h-4.23v2.72h4.91Z"/><path class="cls-10" d="M295.01,74.3l-2.79,6.38h-1.18l-2.79-6.38h1.2l2.19,5.12,2.24-5.12h1.13Z"/><path class="cls-10" d="M301.84,77.87h-5.18c.14,1.12,1.05,1.87,2.31,1.87.75,0,1.37-.25,1.84-.77l.64.75c-.58.67-1.46,1.04-2.52,1.04-2.06,0-3.43-1.36-3.43-3.26s1.36-3.25,3.2-3.25,3.15,1.33,3.15,3.29c0,.1-.01.24-.02.35ZM296.66,77.04h4.09c-.12-1.07-.93-1.83-2.05-1.83s-1.93.75-2.05,1.83Z"/><path class="cls-10" d="M309.52,77v3.67h-1.16v-3.54c0-1.25-.63-1.87-1.72-1.87-1.23,0-2.02.73-2.02,2.12v3.29h-1.16v-6.38h1.11v.96c.47-.65,1.29-1.02,2.3-1.02,1.55,0,2.65.89,2.65,2.77Z"/><path class="cls-10" d="M315.26,80.3c-.35.3-.88.45-1.4.45-1.29,0-2.02-.71-2.02-2v-3.5h-1.08v-.95h1.08v-1.4h1.16v1.4h1.83v.95h-1.83v3.46c0,.69.36,1.07,1,1.07.34,0,.66-.11.9-.3l.36.83Z"/><path class="cls-10" d="M325.7,80.68l-1.82-2.59c-.17.01-.35.02-.53.02h-2.08v2.56h-1.2v-8.43h3.29c2.19,0,3.52,1.11,3.52,2.94,0,1.3-.67,2.24-1.85,2.66l2,2.83h-1.31ZM325.67,75.19c0-1.2-.81-1.89-2.35-1.89h-2.05v3.79h2.05c1.54,0,2.35-.7,2.35-1.9Z"/><path class="cls-10" d="M328.06,77.49c0-1.9,1.41-3.25,3.32-3.25s3.31,1.35,3.31,3.25-1.4,3.26-3.31,3.26-3.32-1.36-3.32-3.26ZM333.53,77.49c0-1.36-.92-2.24-2.14-2.24s-2.15.88-2.15,2.24.93,2.25,2.15,2.25,2.14-.89,2.14-2.25Z"/><path class="cls-10" d="M335.71,77.49c0-1.9,1.41-3.25,3.32-3.25s3.31,1.35,3.31,3.25-1.4,3.26-3.31,3.26-3.32-1.36-3.32-3.26ZM341.18,77.49c0-1.36-.92-2.24-2.14-2.24s-2.15.88-2.15,2.24.93,2.25,2.15,2.25,2.14-.89,2.14-2.25Z"/><path class="cls-10" d="M354.55,77v3.67h-1.16v-3.54c0-1.25-.6-1.87-1.65-1.87-1.16,0-1.91.73-1.91,2.12v3.29h-1.16v-3.54c0-1.25-.6-1.87-1.65-1.87-1.16,0-1.92.73-1.92,2.12v3.29h-1.16v-6.38h1.11v.95c.46-.65,1.24-1.01,2.2-1.01s1.79.39,2.21,1.18c.48-.72,1.37-1.18,2.46-1.18,1.55,0,2.61.89,2.61,2.77Z"/><rect class="cls-10" x="302.5" y="85.57" width="1" height="61.41"/><path class="cls-22" d="M325.1,205.79h-25.23v-27.39h25.23v27.39ZM300.86,204.79h23.23v-25.39h-23.23v25.39Z"/><g class="cls-20"><path class="cls-22" d="M369.14,295.39H55.82V-17.93h313.32v313.32ZM56.82,294.39h311.32V-16.93H56.82v311.32Z"/></g><path class="cls-22" d="M309.9,239.67h-58.54v-14.22h58.54v14.22ZM252.11,238.92h57.04v-12.72h-57.04v12.72Z"/><path class="cls-22" d="M342.88,214.06h-14.61v-34.24h14.61v34.24ZM329.27,213.06h12.61v-32.24h-12.61v32.24Z"/><rect class="cls-21" x="285.5" y="187.49" width="7.09" height="10.41"/><g class="cls-23"><rect class="cls-21" x="56.32" y="-17.43" width="312.32" height="312.32"/><g class="cls-26"><rect class="cls-11" x="284.78" y="186.77" width="8.53" height="11.86"/></g></g><path class="cls-22" d="M295.62,188.14h-11.41v-8.51h11.41v8.51ZM285.21,187.14h9.41v-6.51h-9.41v6.51Z"/><g class="cls-25"><path class="cls-22" d="M369.14,295.39H55.82V-17.93h313.32v313.32ZM56.82,294.39h311.32V-16.93H56.82v311.32Z"/></g><path class="cls-22" d="M96.74,222.44h-13.68v-33.8h13.68v33.8ZM83.81,221.69h12.18s0-32.3,0-32.3h-12.18v32.3Z"/><g class="cls-24"><path class="cls-22" d="M369.01,295.26H55.95V-17.81h313.07v313.07ZM56.7,294.51h311.57V-17.06H56.7v311.57Z"/></g><path class="cls-22" d="M91.56,84.32h-12.21v-11.08h12.21v11.08ZM80.35,83.32h10.21v-9.08h-10.21v9.08Z"/><g class="cls-56"><path class="cls-22" d="M369.14,295.39H55.82V-17.93h313.32v313.32ZM56.82,294.39h311.32V-16.93H56.82v311.32Z"/></g><path class="cls-22" d="M121.4,78.98h-27.5v-13.41h27.5v13.41ZM94.9,77.98h25.5v-11.41h-25.5v11.41Z"/><g class="cls-55"><path class="cls-22" d="M369.14,295.39H55.82V-17.93h313.32v313.32ZM56.82,294.39h311.32V-16.93H56.82v311.32Z"/></g><path class="cls-22" d="M93.03,182.18h-14.25v-18.24h14.25v18.24ZM79.78,181.18h12.25v-16.24h-12.25v16.24Z"/><g class="cls-54"><path class="cls-22" d="M369.14,295.39H55.82V-17.93h313.32v313.32ZM56.82,294.39h311.32V-16.93H56.82v311.32Z"/></g><path class="cls-22" d="M121.37,134h-7.15v-10.11h7.15v10.11ZM115.22,133h5.15v-8.11h-5.15v8.11Z"/><path class="cls-22" d="M121.96,222.44h-25.97v-13.76h25.97v13.76ZM96.74,221.69h24.47v-12.26h-24.47v12.26Z"/><g class="cls-57"><path class="cls-22" d="M369.01,295.26H55.95V-17.81h313.07v313.07ZM56.7,294.51h311.57V-17.06H56.7v311.57Z"/></g><path class="cls-22" d="M203.86,238.92h-17.76v-10.46h17.76v10.46ZM186.85,238.17h16.26v-8.96h-16.26v8.96Z"/><g class="cls-58"><path class="cls-22" d="M369.01,295.26H55.95V-17.81h313.07v313.07ZM56.7,294.51h311.57V-17.06H56.7v311.57Z"/></g><rect class="cls-11" x="134.94" y="198.02" width="19.07" height="23.64"/><polygon class="cls-5" points="134.87 221.64 153.66 221.64 153.66 197.15 147.7 197.15 147.7 202.35 139.75 202.35 139.75 197.15 134.87 197.15 134.87 221.64"/><path class="cls-22" d="M203.08,210.21h-13.15v-13.64h13.15v13.64ZM190.68,209.46h11.65v-12.14h-11.65v12.14Z"/><path class="cls-22" d="M252.11,240.04h-10.04v-18.75h10.04v18.75ZM242.83,239.29h8.54v-17.25h-8.54v17.25Z"/><g class="cls-27"><path class="cls-22" d="M369.01,295.26H55.95V-17.81h313.07v313.07ZM56.7,294.51h311.57V-17.06H56.7v311.57Z"/></g><path class="cls-22" d="M227.83,239.34h-24.95v-18.05h24.95v18.05ZM203.63,238.59h23.45v-16.55h-23.45v16.55Z"/><polygon class="cls-22" points="129.68 183.91 129.53 182.92 140.94 181.24 140.94 165.17 126.3 165.17 126.3 164.17 141.94 164.17 141.94 182.1 129.68 183.91"/><g class="cls-28"><path class="cls-22" d="M369.14,295.39H55.82V-17.93h313.32v313.32ZM56.82,294.39h311.32V-16.93H56.82v311.32Z"/></g><polygon class="cls-22" points="154.15 82.95 136.83 80.65 140.45 57.82 141.44 57.97 137.98 79.8 153.31 81.83 156.54 60.07 157.53 60.22 154.15 82.95"/><g class="cls-38"><path class="cls-22" d="M369.14,295.39H55.82V-17.93h313.32v313.32ZM56.82,294.39h311.32V-16.93H56.82v311.32Z"/></g><polyline class="cls-19" points="274.61 147.71 277.58 158.42 282.34 174.99 319.79 171.16 310.62 138.64 294.71 144.6 293.64 145.43 292 140.53"/><g class="cls-39"><rect class="cls-18" x="56.32" y="-17.43" width="312.32" height="312.32"/><g class="cls-47"><rect class="cls-10" x="273.88" y="137.91" width="46.63" height="37.8"/></g></g><path class="cls-15" d="M150.1,215.6v2.63c0,.06,0,.12-.02.18-.07.18-.27.26-.46.19-.14-.05-.22-.17-.22-.33,0-.13,0-.25,0-.38,0-.57,0-1.15,0-1.72,0-.33,0-.66,0-1,0-.02,0-.05,0-.07-.01-.05-.05-.08-.1-.09-.06,0-.1.02-.12.07-.01.03-.01.06-.01.09,0,1.02,0,2.05,0,3.07,0,.1-.01.19-.08.26-.1.11-.22.15-.36.12-.14-.03-.23-.13-.27-.26-.01-.04-.02-.09-.02-.14,0-.71,0-1.42,0-2.12,0-1.05,0-2.1,0-3.16,0-.08-.02-.11-.08-.13-.07-.02-.15,0-.19.06-.01.02-.01.03-.01.05,0,.38,0,.75,0,1.13,0,.28,0,.55,0,.83,0,.11-.04.2-.15.25-.1.04-.21.02-.29-.06-.05-.05-.07-.1-.07-.17,0-.71,0-1.42,0-2.13,0-.19.04-.37.14-.53.18-.28.43-.44.77-.45.43-.01.86,0,1.28,0,.44,0,.86.35.96.78.02.1.04.2.04.3,0,.66,0,1.33,0,1.99,0,.14-.06.22-.18.26-.16.05-.31-.05-.32-.22,0-.02,0-.04,0-.06,0-.64,0-1.29,0-1.93,0-.1-.09-.14-.15-.12-.06.01-.09.05-.09.11v2.68Z"/><g class="cls-49"><rect class="cls-14" x="56.32" y="-17.43" width="312.32" height="312.32"/><g class="cls-46"><rect class="cls-6" x="146.92" y="211.07" width="4.64" height="8.29"/></g></g><path class="cls-15" d="M149.22,210.23c.37,0,.67.3.67.67,0,.37-.29.67-.67.67s-.66-.28-.67-.67c0-.38.29-.67.67-.68"/><g class="cls-45"><rect class="cls-14" x="56.32" y="-17.43" width="312.32" height="312.32"/><g class="cls-40"><rect class="cls-6" x="147.83" y="209.51" width="2.78" height="2.79"/></g></g><path class="cls-15" d="M139.99,217.24c0,.36,0,.73,0,1.09,0,.11-.04.2-.14.26-.1.06-.21.06-.32,0-.11-.05-.15-.15-.15-.26,0-.71,0-1.42,0-2.13,0-.02,0-.04,0-.06,0-.06-.05-.09-.1-.09-.06,0-.1.04-.1.1v2.15c0,.11-.02.2-.11.27-.11.08-.23.09-.35.03-.12-.05-.16-.16-.17-.28,0-.02,0-.04,0-.06v-2.13q0-.07-.07-.07c-.26,0-.51,0-.76,0-.05,0-.06,0-.04-.05.06-.21.13-.43.2-.64.1-.31.19-.63.29-.94.08-.26.16-.52.24-.79.08-.26.16-.53.24-.79.02-.07,0-.12-.06-.14-.06-.02-.12,0-.14.08-.05.14-.09.29-.14.43-.12.36-.23.71-.35,1.07-.05.15-.1.31-.15.46-.05.16-.18.22-.33.15-.11-.05-.16-.16-.12-.28.1-.34.21-.68.31-1.02.12-.4.24-.8.36-1.2.09-.31.36-.53.68-.57.05,0,.11,0,.16,0,.35,0,.7,0,1.05,0,.19,0,.37.05.52.17.15.12.23.27.28.45.13.47.26.94.38,1.41.07.26.14.53.21.79.03.13-.06.27-.2.28-.13.01-.22-.05-.26-.18-.11-.37-.21-.74-.31-1.11l-.2-.71c-.02-.06-.03-.12-.05-.17-.02-.06-.07-.08-.12-.07-.06.02-.08.06-.07.12.08.31.16.63.24.94.09.35.18.7.27,1.05.1.41.21.82.31,1.23.01.04-.01.04-.04.04-.27,0-.54,0-.81,0-.07,0-.07,0-.07.07v1.1Z"/><g class="cls-41"><rect class="cls-14" x="56.32" y="-17.43" width="312.32" height="312.32"/><g class="cls-42"><rect class="cls-6" x="136.61" y="211.11" width="5.42" height="8.25"/></g></g><path class="cls-15" d="M138.69,210.91c0-.36.28-.68.67-.68s.68.31.68.69c0,.37-.31.68-.68.67-.37,0-.68-.31-.67-.68"/><g class="cls-43"><rect class="cls-14" x="56.32" y="-17.43" width="312.32" height="312.32"/><g class="cls-48"><rect class="cls-6" x="137.97" y="209.51" width="2.8" height="2.81"/></g></g><path class="cls-22" d="M131.79,200.32s-.02,0-.03,0c-.28,0-.55-.15-.77-.42-.22-.26-.43-.52-.64-.78l-.29-.36c-.12.03-.24.03-.34,0v.3c0,.18,0,.44-.13.7-.19.39-.56.59-.97.54-.48-.05-.82-.41-.86-.9-.02-.21-.03-.41-.04-.62-.22.03-.45-.03-.64-.19-.39-.3-.48-.8-.22-1.19.39-.58.82-1.1,1.29-1.55.23-.22.48-.25.63-.24.27.01.52.16.75.43l.96,1.14c.12-.02.24-.02.34,0v-.33c0-.28,0-1.14.91-1.23.34-.03.55.1.67.21.24.21.35.55.35,1.03v.31c.26-.05.52.02.74.21.38.33.44.84.14,1.21-.37.47-.77.96-1.2,1.42-.22.24-.47.29-.64.29ZM128.65,196.78l.05,1.03c.01.21.02.41.02.62,0,.05,0,.1,0,.15v-1.7l.51.37-.46-.55s-.01-.01-.02-.02c-.03.03-.07.07-.1.1Z"/><g class="cls-44"><path class="cls-22" d="M369.14,295.39H55.82V-17.93h313.32v313.32ZM56.82,294.39h311.32V-16.93H56.82v311.32Z"/><g class="cls-31"><rect class="cls-7" x="126.49" y="195.39" width="7.55" height="5.15"/><path class="cls-8" d="M134.55,201.04h-8.55v-6.15h8.55v6.15ZM126.99,200.04h6.55v-4.15h-6.55v4.15Z"/></g></g><polygon class="cls-8" points="80.25 180.96 78.25 180.96 78.25 64.8 120.76 64.8 120.76 66.8 80.25 66.8 80.25 180.96"/><rect class="cls-8" x="137.29" y="75" width="2.29" height=".75" transform="translate(39.26 197.89) rotate(-79.58)"/><polygon class="cls-8" points="138.97 74.68 129.54 73.33 129.83 71.62 130.57 71.74 130.41 72.69 138.34 73.83 140.67 57.84 141.42 57.95 138.97 74.68"/><rect class="cls-8" x="110.73" y="77.86" width="2.79" height=".75"/><rect class="cls-8" x="127.58" y="72.68" width="2.39" height=".75"/><rect class="cls-8" x="129.81" y="68.27" width="1.38" height=".75" transform="translate(49.27 191.71) rotate(-84.32)"/><rect class="cls-8" x="101.22" y="173.26" width=".75" height="8.49"/><rect class="cls-8" x="113.84" y="225.63" width="3.3" height=".75"/><rect class="cls-8" x="119.48" y="225.63" width="2.69" height=".75"/><rect class="cls-8" x="120.45" y="226" width=".75" height="13.59"/><rect class="cls-8" x="128.84" y="226" width=".75" height="13.42"/><polygon class="cls-8" points="137.95 239.42 137.2 239.42 137.2 226.38 136.27 226.38 136.27 225.63 137.95 225.63 137.95 239.42"/><polygon class="cls-8" points="121.96 222.08 113.84 222.08 113.84 221.33 121.21 221.33 121.21 219.12 121.96 219.12 121.96 222.08"/><polygon class="cls-8" points="154.11 222.12 125.28 222.12 125.28 219.95 126.03 219.95 126.03 221.37 153.36 221.37 153.36 197.13 154.11 197.13 154.11 222.12"/><rect class="cls-8" x="125.28" y="215.2" width=".75" height="2.45"/><rect class="cls-8" x="125.65" y="215.3" width="9.23" height=".75"/><rect class="cls-8" x="125.28" y="209.12" width=".75" height="3.66"/><rect class="cls-8" x="125.65" y="200.87" width="9.23" height=".75"/><rect class="cls-8" x="134.51" y="195.11" width=".75" height="26.64"/><polygon class="cls-8" points="144.57 221.74 143.82 221.74 143.82 208.16 141.16 208.16 141.16 202.38 141.91 202.38 141.91 207.41 144.57 207.41 144.57 221.74"/><rect class="cls-8" x="138.44" y="202" width="4.27" height=".75"/><rect class="cls-8" x="144.88" y="202" width="5.12" height=".75"/><rect class="cls-8" x="146.33" y="202.38" width=".75" height="5.4"/><rect class="cls-8" x="141.27" y="207.41" width="5.7" height=".75"/><rect class="cls-8" x="79.25" y="97.19" width="21.53" height=".75"/><rect class="cls-8" x="100.4" y="91.57" width=".75" height="15.37"/><rect class="cls-8" x="79.25" y="83.45" width="13.64" height=".75"/><rect class="cls-8" x="90.37" y="82.13" width=".75" height="1.69"/><rect class="cls-8" x="90.37" y="74.34" width=".75" height="5.48"/><rect class="cls-8" x="79.25" y="73.97" width="12.5" height=".75"/><polygon class="cls-8" points="99.67 78.61 94.16 78.61 94.16 65.8 94.91 65.8 94.91 77.86 99.67 77.86 99.67 78.61"/><rect class="cls-8" x="101.91" y="77.86" width="6.62" height=".75"/><rect class="cls-8" x="103.02" y="65.8" width=".75" height="12.44"/><rect class="cls-8" x="111.74" y="65.8" width=".75" height="12.44"/><polygon class="cls-8" points="121.27 78.61 115.59 78.61 115.59 77.86 120.52 77.86 120.52 67.96 121.27 67.96 121.27 78.61"/><polygon class="cls-8" points="101.15 89.41 100.4 89.41 100.4 84.2 95.1 84.2 95.1 83.45 101.15 83.45 101.15 89.41"/><rect class="cls-8" x="100.78" y="97.19" width=".57" height=".75"/><polygon class="cls-8" points="121.53 107.06 100.78 107.06 100.78 106.31 120.78 106.31 120.78 97.94 103.6 97.94 103.6 97.19 121.53 97.19 121.53 107.06"/><rect class="cls-8" x="100.4" y="109.4" width=".75" height="21.55"/><rect class="cls-8" x="100.78" y="120.01" width="17.48" height=".75"/><rect class="cls-8" x="79.25" y="121.43" width="21.53" height=".75"/><rect class="cls-8" x="79.25" y="141.55" width="19.39" height=".75"/><rect class="cls-8" x="99.83" y="141.55" width=".94" height=".75"/><polygon class="cls-8" points="101.4 147.5 100.4 147.5 100.4 133.2 101.15 133.2 101.15 146.75 101.4 146.75 101.4 147.5"/><rect class="cls-8" x="103.56" y="146.75" width="17.09" height=".75"/><polygon class="cls-8" points="147.95 199.67 147.2 199.67 147.2 196.83 159.75 196.83 159.75 197.58 147.95 197.58 147.95 199.67"/><polygon class="cls-8" points="171.48 222.05 164.39 222.05 164.39 209.24 169.7 209.24 169.7 197.58 164.09 197.58 164.09 196.83 170.45 196.83 170.45 209.99 165.14 209.99 165.14 221.3 171.48 221.3 171.48 222.05"/><rect class="cls-8" x="173.66" y="221.3" width="19.95" height=".75"/><polygon class="cls-8" points="191.19 222.55 190.44 222.55 190.44 213.39 198.67 213.39 198.67 222.05 195.5 222.05 195.5 221.3 197.92 221.3 197.92 214.14 191.19 214.14 191.19 222.55"/><rect class="cls-8" x="190.44" y="213.07" width=".75" height=".69"/><polygon class="cls-8" points="191.19 210.9 190.44 210.9 190.44 209.97 186.07 209.97 186.07 196.78 208.67 196.78 208.67 197.53 186.82 197.53 186.82 209.22 191.81 209.22 191.81 209.97 191.19 209.97 191.19 210.9"/><rect class="cls-8" x="117.88" y="119.32" width=".75" height="2.21"/><polygon class="cls-8" points="121.02 134.08 100.78 134.08 100.78 133.33 120.27 133.33 120.27 125.07 117.88 125.07 117.88 124.1 118.63 124.1 118.63 124.32 121.02 124.32 121.02 134.08"/><rect class="cls-8" x="117.88" y="133.7" width=".75" height="1.52"/><polygon class="cls-8" points="121.02 149.14 120.27 149.14 120.27 138.86 117.88 138.86 117.88 137.84 118.63 137.84 118.63 138.11 121.34 138.11 121.34 138.86 121.02 138.86 121.02 149.14"/><rect class="cls-8" x="120.73" y="151.3" width=".75" height="13.92"/><polygon class="cls-8" points="120.93 173.91 96.38 173.91 96.38 160.62 121.11 160.62 121.11 161.37 97.13 161.37 97.13 173.16 120.18 173.16 120.18 169.91 120.93 169.91 120.93 173.91"/><polygon class="cls-8" points="120.93 181.84 101.6 181.84 101.6 181.09 120.18 181.09 120.18 173.54 120.93 173.54 120.93 181.84"/><polygon class="cls-8" points="92.63 169.04 91.88 169.04 91.88 165.05 79.25 165.05 79.25 164.3 92.63 164.3 92.63 169.04"/><rect class="cls-8" x="94.92" y="164.63" width="1.84" height=".75"/><polygon class="cls-8" points="92.63 177.37 91.88 177.37 91.88 173.09 79.25 173.09 79.25 172.34 91.88 172.34 91.88 171.33 92.63 171.33 92.63 177.37"/><polygon class="cls-8" points="92.63 181.77 78.87 181.77 78.87 180.27 79.62 180.27 79.62 181.02 91.88 181.02 91.88 179.56 92.63 179.56 92.63 181.77"/><polygon class="cls-8" points="118.63 116.75 117.88 116.75 117.88 115.78 120.27 115.78 120.27 106.69 121.02 106.69 121.02 116.53 118.63 116.53 118.63 116.75"/><polygon class="cls-8" points="118.62 94.33 117.87 94.33 117.87 92.25 120.27 92.25 120.27 83.35 101.15 83.35 101.15 84.92 100.4 84.92 100.4 82.6 121.02 82.6 121.02 92.25 121.47 92.25 121.47 93 118.62 93 118.62 94.33"/><polygon class="cls-8" points="196 209.98 193.93 209.98 193.93 209.23 194.18 209.23 194.18 197.15 194.93 197.15 194.93 209.23 196 209.23 196 209.98"/><polygon class="cls-8" points="203.08 209.98 198.11 209.98 198.11 209.23 202.33 209.23 202.33 197.15 203.08 197.15 203.08 209.98"/><polygon class="cls-8" points="223.7 209.98 218.69 209.98 218.69 197.53 213.09 197.53 213.09 196.78 219.44 196.78 219.44 209.23 223.7 209.23 223.7 209.98"/><rect class="cls-8" x="225.81" y="209.23" width="2.76" height=".75"/><polygon class="cls-8" points="253.94 222.07 234.95 222.07 234.95 209.98 230.73 209.98 230.73 209.23 235.7 209.23 235.7 221.32 253.19 221.32 253.19 220.45 253.94 220.45 253.94 222.07"/><polygon class="cls-8" points="329.38 185.39 328.63 185.39 328.63 180.01 342.1 180.01 342.1 180.76 329.38 180.76 329.38 185.39"/><rect class="cls-8" x="328.63" y="187.69" width=".75" height="6.11"/><rect class="cls-8" x="328.63" y="195.87" width=".75" height="2.76"/><polygon class="cls-8" points="329.38 206.71 328.63 206.71 328.63 200.69 329.38 200.69 329.38 205.05 341.73 205.05 341.73 197.62 329.01 197.62 329.01 196.87 342.48 196.87 342.48 205.8 329.38 205.8 329.38 206.71"/><polygon class="cls-8" points="342.48 222.75 324.68 222.75 324.68 209.66 320.51 209.66 320.51 208.91 325.43 208.91 325.43 213.14 325.65 213.14 325.65 213.89 325.43 213.89 325.43 222 341.73 222 341.73 213.93 327.86 213.93 327.86 213.18 328.63 213.18 328.63 208.87 329.38 208.87 329.38 213.18 341.73 213.18 341.73 205.42 342.48 205.42 342.48 222.75"/><polygon class="cls-8" points="324.97 205.39 320.83 205.39 320.83 204.64 324.22 204.64 324.22 179.15 313.03 179.15 313.03 200.05 312.28 200.05 312.28 178.4 324.97 178.4 324.97 205.39"/><polygon class="cls-8" points="301.03 199.91 300.28 199.91 300.28 178.4 312.65 178.4 312.65 179.15 301.03 179.15 301.03 199.91"/><rect class="cls-8" x="300.02" y="204.64" width="16.31" height=".75"/><polygon class="cls-8" points="294.37 210.3 293.62 210.3 293.62 204.64 297.81 204.64 297.81 205.39 294.37 205.39 294.37 210.3"/><polygon class="cls-8" points="325.06 222.75 316.55 222.75 316.55 209.61 312.38 209.61 312.38 208.86 318.26 208.86 318.26 209.61 317.3 209.61 317.3 222 325.06 222 325.06 222.75"/><polygon class="cls-8" points="316.92 222.75 308.33 222.75 308.33 209.61 307.32 209.61 307.32 208.86 310.17 208.86 310.17 209.61 309.08 209.61 309.08 222 316.92 222 316.92 222.75"/><polygon class="cls-8" points="306.96 222.25 300.19 222.25 300.19 208.86 305.21 208.86 305.21 209.61 300.94 209.61 300.94 221.5 306.96 221.5 306.96 222.25"/><rect class="cls-8" x="329.01" y="188.65" width="13.09" height=".75"/><polygon class="cls-8" points="296.67 222.06 290.68 222.06 290.68 221.31 293.62 221.31 293.62 212.38 294.37 212.38 294.37 221.31 296.67 221.31 296.67 222.06"/><polygon class="cls-8" points="288.44 222.06 283.86 222.06 283.86 203.77 258.05 203.77 258.05 202.18 258.8 202.18 258.8 203.02 284.61 203.02 284.61 212.66 296.67 212.66 296.67 213.41 284.61 213.41 284.61 221.31 288.44 221.31 288.44 222.06"/><rect class="cls-8" x="304.22" y="225.72" width="3.33" height=".75"/><polygon class="cls-8" points="300.92 239.52 292.13 239.52 292.13 226.47 287.85 226.47 287.85 225.72 297.05 225.72 297.05 226.47 292.88 226.47 292.88 238.77 300.17 238.77 300.17 226.47 299.19 226.47 299.19 225.72 301.91 225.72 301.91 226.47 300.92 226.47 300.92 239.52"/><polygon class="cls-8" points="284.69 239.52 251.36 239.52 251.36 221.7 252.11 221.7 252.11 225.72 256.29 225.72 256.29 226.47 252.11 226.47 252.11 238.77 259.43 238.77 259.43 226.47 258.46 226.47 258.46 225.72 264.49 225.72 264.49 226.47 260.18 226.47 260.18 238.77 267.66 238.77 267.66 226.47 266.59 226.47 266.59 225.72 269.42 225.72 269.42 226.47 268.41 226.47 268.41 238.77 275.76 238.77 275.76 226.47 271.48 226.47 271.48 225.72 280.75 225.72 280.75 226.47 276.51 226.47 276.51 238.77 283.94 238.77 283.94 226.47 282.96 226.47 282.96 225.72 285.68 225.72 285.68 226.47 284.69 226.47 284.69 239.52"/><rect class="cls-8" x="242.07" y="221.69" width=".75" height=".92"/><rect class="cls-8" x="242.07" y="224.72" width=".75" height="14.43"/><rect class="cls-8" x="230.73" y="225.77" width="11.72" height=".75"/><polygon class="cls-8" points="227.57 239.38 226.82 239.38 226.82 224.72 227.57 224.72 227.57 225.77 228.52 225.77 228.52 226.52 227.57 226.52 227.57 239.38"/><polygon class="cls-8" points="218.98 239.15 218.23 239.15 218.23 221.32 218.78 221.32 218.78 219.67 219.53 219.67 219.53 221.32 227.57 221.32 227.57 222.61 226.82 222.61 226.82 222.07 218.98 222.07 218.98 239.15"/><polygon class="cls-8" points="186.81 198.05 186.06 198.05 186.06 197.15 170.45 197.15 170.45 197.21 169.7 197.21 169.7 196.4 186.81 196.4 186.81 198.05"/><rect class="cls-8" x="121.59" y="225.63" width="5.1" height=".75"/><rect class="cls-8" x="128.76" y="225.63" width="5.24" height=".75"/><rect class="cls-8" x="137.57" y="225.63" width="1.31" height=".75"/><polygon class="cls-8" points="170.41 239.6 145.23 239.6 145.23 226.38 140.99 226.38 140.99 225.63 150.33 225.63 150.33 226.38 145.98 226.38 145.98 238.85 153.42 238.85 153.42 226.38 152.3 226.38 152.3 225.63 155.11 225.63 155.11 226.38 154.17 226.38 154.17 238.85 161.55 238.85 161.55 226.38 157.33 226.38 157.33 225.63 166.59 225.63 166.59 226.38 162.3 226.38 162.3 238.85 169.66 238.85 169.66 226.38 168.66 226.38 168.66 225.63 171.49 225.63 171.49 226.38 170.41 226.38 170.41 239.6"/><rect class="cls-8" x="173.66" y="225.63" width="9.3" height=".75"/><polygon class="cls-8" points="186.78 239.6 177.93 239.6 177.93 226 178.68 226 178.68 238.85 186.03 238.85 186.03 226.38 185.03 226.38 185.03 225.63 186.78 225.63 186.78 228.82 187.33 228.82 187.33 229.57 186.78 229.57 186.78 239.6"/><polygon class="cls-8" points="204.22 239.6 202.88 239.6 202.88 229.61 189.4 229.61 189.4 228.86 190.44 228.86 190.44 224.72 191.19 224.72 191.19 228.86 203.63 228.86 203.63 238.85 204.22 238.85 204.22 239.6"/><polygon class="cls-8" points="203.63 229.23 202.88 229.23 202.88 226.52 201.33 226.52 201.33 225.77 202.88 225.77 202.88 222.05 202.36 222.05 202.36 219.67 203.11 219.67 203.11 221.3 203.63 221.3 203.63 229.23"/><polygon class="cls-8" points="219.43 217.57 218.68 217.57 218.68 217.5 203.1 217.5 203.1 217.57 202.35 217.57 202.35 216.75 219.43 216.75 219.43 217.57"/><polygon class="cls-8" points="235.68 209.6 234.93 209.6 234.93 197.53 219.06 197.53 219.06 196.78 235.68 196.78 235.68 209.6"/><polygon class="cls-8" points="270.38 222.06 258.05 222.06 258.05 206.11 258.8 206.11 258.8 221.31 270.38 221.31 270.38 222.06"/><rect class="cls-8" x="226.82" y="197.15" width=".75" height="12.45"/><polygon class="cls-8" points="253.94 216.17 253.19 216.17 253.19 196.37 258.8 196.37 258.8 198.05 258.05 198.05 258.05 197.12 253.94 197.12 253.94 216.17"/><polygon class="cls-8" points="280.76 222.07 272.49 222.07 272.49 221.32 272.72 221.32 272.72 203.39 273.47 203.39 273.47 221.32 280.76 221.32 280.76 222.07"/><rect class="cls-8" x="282.79" y="221.32" width="1.45" height=".75"/><polygon class="cls-8" points="263.13 197.12 258.42 197.12 258.42 196.37 262.38 196.37 262.38 193.07 263.13 193.07 263.13 197.12"/><polygon class="cls-8" points="274.98 203.39 274.23 203.39 274.23 180.76 263.13 180.76 263.13 188.66 262.38 188.66 262.38 180.01 278.47 180.01 278.47 180.76 274.98 180.76 274.98 203.39"/><polygon class="cls-8" points="286.06 190.87 274.61 190.87 274.61 190.12 285.31 190.12 285.31 186.99 294.54 186.99 294.54 183.6 295.29 183.6 295.29 187.74 286.06 187.74 286.06 190.87"/><rect class="cls-8" x="280.44" y="180.01" width="6.48" height=".75"/><polygon class="cls-8" points="295.29 181.44 294.54 181.44 294.54 180.76 288.99 180.76 288.99 180.01 295.29 180.01 295.29 181.44"/><rect class="cls-8" x="290.59" y="180.39" width=".75" height="6.98"/><polygon class="cls-8" points="285.62 203.77 284.23 203.77 284.23 203.02 284.87 203.02 284.87 190.49 285.62 190.49 285.62 203.77"/><polygon class="cls-8" points="294.44 200.41 293.69 200.41 293.69 198.42 285.25 198.42 285.25 197.67 294.44 197.67 294.44 200.41"/><rect class="cls-8" x="293.62" y="203.94" width=".75" height="1.07"/><rect class="cls-8" x="284.23" y="207.23" width="9.77" height=".75"/><rect class="cls-8" x="132.41" y="194.86" width="2.85" height=".75"/><polygon class="cls-8" points="140.19 199.67 139.44 199.67 139.44 197.51 134.89 197.51 134.89 196.76 140.19 196.76 140.19 199.67"/><polygon class="cls-8" points="126.03 206.72 125.28 206.72 125.28 194.84 129.68 194.84 129.68 195.59 126.03 195.59 126.03 206.72"/><rect class="cls-8" x="292.2" y="196.12" width=".75" height="1.93"/><rect class="cls-8" x="292.2" y="189.99" width=".75" height="3.93"/><rect class="cls-8" x="292.2" y="187.37" width=".75" height=".54"/><rect class="cls-8" x="285.25" y="191.69" width="7.32" height=".75"/><polygon class="cls-8" points="235.68 197.15 234.93 197.15 234.93 196.37 253.56 196.37 253.56 197.12 235.68 197.15"/><rect class="cls-8" x="196.47" y="226" width=".55" height=".75"/><rect class="cls-8" x="190.82" y="226" width="1.24" height=".75"/><path class="cls-15" d="M289.44,190.31v1.25s0,.06-.01.09c-.04.09-.13.13-.22.09-.07-.02-.1-.08-.11-.15,0-.06,0-.12,0-.18,0-.27,0-.55,0-.82,0-.16,0-.31,0-.47,0-.01,0-.02,0-.04,0-.02-.02-.04-.05-.04-.03,0-.05.01-.06.03,0,.01,0,.03,0,.04,0,.49,0,.97,0,1.46,0,.05,0,.09-.04.13-.05.05-.11.07-.17.05-.07-.01-.11-.06-.13-.12,0-.02,0-.04,0-.07,0-.34,0-.67,0-1.01,0-.5,0-1,0-1.5,0-.04,0-.05-.04-.06-.03-.01-.07,0-.09.03,0,0,0,.02,0,.02,0,.18,0,.36,0,.54,0,.13,0,.26,0,.4,0,.05-.02.09-.07.12-.05.02-.1,0-.14-.03-.02-.02-.03-.05-.03-.08,0-.34,0-.67,0-1.01,0-.09.02-.17.07-.25.08-.13.21-.21.36-.22.2,0,.41,0,.61,0,.21,0,.41.17.46.37.01.05.02.09.02.14,0,.31,0,.63,0,.94,0,.07-.03.1-.08.12-.08.02-.15-.03-.15-.1,0,0,0-.02,0-.03,0-.31,0-.61,0-.92,0-.05-.04-.07-.07-.06-.03,0-.04.02-.04.05v1.27Z"/><g class="cls-33"><rect class="cls-14" x="56.32" y="-17.43" width="312.32" height="312.32"/><g class="cls-32"><rect class="cls-6" x="287.55" y="187.78" width="2.96" height="4.69"/></g></g><path class="cls-15" d="M289.03,187.76c.17,0,.32.14.32.32,0,.17-.14.32-.32.32s-.32-.13-.32-.32c0-.18.14-.32.32-.32"/><g class="cls-35"><rect class="cls-14" x="56.32" y="-17.43" width="312.32" height="312.32"/><g class="cls-29"><rect class="cls-6" x="287.99" y="187.04" width="2.08" height="2.08"/></g></g><path class="cls-15" d="M289.36,196.51c0,.17,0,.35,0,.52,0,.05-.02.1-.07.12-.05.03-.1.03-.15,0-.05-.03-.07-.07-.07-.13,0-.34,0-.67,0-1.01,0,0,0-.02,0-.03,0-.03-.02-.04-.05-.04-.03,0-.05.02-.05.05v1.02c0,.05,0,.1-.05.13-.05.04-.11.04-.16.02-.06-.03-.08-.08-.08-.13,0,0,0-.02,0-.03v-1.01s0-.03-.03-.03h-.36s-.03,0-.02-.02c.03-.1.06-.2.09-.3.05-.15.09-.3.14-.45.04-.12.08-.25.12-.37.04-.13.08-.25.11-.38,0-.03,0-.06-.03-.07-.03,0-.06,0-.07.04-.02.07-.04.14-.07.21-.06.17-.11.34-.16.51-.02.07-.05.15-.07.22-.02.08-.08.1-.16.07-.05-.02-.08-.08-.06-.13.05-.16.1-.32.15-.48.06-.19.12-.38.17-.57.04-.15.17-.25.32-.27.03,0,.05,0,.08,0,.17,0,.33,0,.5,0,.09,0,.17.02.25.08.07.06.11.13.13.21.06.22.12.45.18.67.03.12.07.25.1.38.02.06-.03.13-.09.13-.06,0-.11-.02-.12-.08-.05-.17-.1-.35-.15-.53-.03-.11-.06-.22-.1-.34,0-.03-.01-.06-.02-.08,0-.03-.03-.04-.06-.03-.03,0-.04.03-.03.06.04.15.08.3.11.45.04.17.08.33.13.5.05.19.1.39.15.58,0,.02,0,.02-.02.02-.13,0-.26,0-.38,0-.03,0-.03,0-.03.03v.52Z"/><g class="cls-30"><rect class="cls-14" x="56.32" y="-17.43" width="312.32" height="312.32"/><g class="cls-36"><rect class="cls-6" x="287.38" y="193.23" width="3.33" height="4.68"/></g></g><path class="cls-15" d="M288.74,193.51c0-.17.14-.32.32-.32s.32.15.32.33c0,.18-.15.32-.32.32-.17,0-.32-.14-.32-.32"/><g class="cls-34"><rect class="cls-14" x="56.32" y="-17.43" width="312.32" height="312.32"/><g class="cls-37"><rect class="cls-6" x="288.02" y="192.47" width="2.09" height="2.09"/></g></g><polygon class="cls-8" points="111.46 222.08 102.84 222.08 102.84 221.33 104.12 221.33 104.12 209.12 104.87 209.12 104.87 221.33 111.46 221.33 111.46 222.08"/><polygon class="cls-8" points="100.84 222.12 83.38 222.12 83.38 220.1 84.13 220.1 84.13 221.37 100.84 221.37 100.84 222.12"/><polygon class="cls-8" points="96.74 221.71 95.99 221.71 95.99 213.93 84.13 213.93 84.13 218 83.38 218 83.38 211.9 84.13 211.9 84.13 213.18 95.99 213.18 95.99 205.8 84.13 205.8 84.13 209.83 83.38 209.83 83.38 203.8 84.13 203.8 84.13 205.05 95.99 205.05 95.99 199.88 96.74 199.88 96.74 221.71"/><polygon class="cls-8" points="84.13 201.6 83.38 201.6 83.38 195.53 84.13 195.53 84.13 196.88 94.81 196.88 94.81 197.63 84.13 197.63 84.13 201.6"/><polygon class="cls-8" points="95.99 196.07 95.99 189.4 84.13 189.4 84.13 193.46 83.38 193.46 83.38 188.65 96.74 188.65 96.74 195.23 119.04 192.59 119.13 193.33 95.99 196.07"/><polygon class="cls-8" points="121.96 209.37 96.37 209.37 96.37 208.62 121.21 208.62 121.21 197.57 119.46 197.57 119.46 196.82 121.96 196.82 121.96 209.37"/><rect class="cls-8" x="121.21" y="208.43" width=".75" height="11.68"/><path class="cls-8" d="M96.46,189.38l-.19-.73c2.01-.53,6.7-1.74,7.3-1.74,0,0,.02,0,.02,0l-.05.75c-.42,0-4.57,1.05-7.08,1.71Z"/><path class="cls-8" d="M109.17,186.78l-.05-.75c.92-.06,8.96-.58,10.05-.34l-.17.73c-.74-.17-6.28.12-9.83.35Z"/><rect class="cls-8" x="105.73" y="186.46" width="1.38" height=".75" transform="translate(-22.52 14.77) rotate(-7.18)"/><rect class="cls-8" x="106.57" y="186.71" width=".75" height="7.66" transform="translate(-24.95 16.34) rotate(-7.83)"/><rect class="cls-8" x="95.99" y="197.15" width=".75" height="3.5"/><rect class="cls-8" x="93.26" y="196.88" width="3.1" height=".75"/><polygon class="cls-8" points="203.08 191.4 201.12 191.4 201.12 190.65 202.33 190.65 202.33 178.71 194.95 178.71 194.95 190.65 198.98 190.65 198.98 191.4 190.02 191.4 190.02 190.65 194.2 190.65 194.2 177.96 203.08 177.96 203.08 191.4"/><polygon class="cls-8" points="188 191.4 184.79 191.4 184.79 190.65 186.02 190.65 186.02 178.71 178.63 178.71 178.63 190.65 182.72 190.65 182.72 191.4 173.85 191.4 173.85 190.65 177.88 190.65 177.88 177.96 194.57 177.96 194.57 178.71 186.77 178.71 186.77 190.65 188 190.65 188 191.4"/><rect class="cls-8" x="144.88" y="177.96" width="33.38" height=".75"/><polygon class="cls-8" points="133.74 183.05 133.65 182.31 141.16 181.34 141.16 177.96 143.11 177.96 143.11 178.71 141.91 178.71 141.91 182 133.74 183.05"/><polygon class="cls-8" points="171.69 191.55 168.57 191.55 168.57 190.8 169.7 190.8 169.7 178.5 170.45 178.5 170.45 190.8 171.69 190.8 171.69 191.55"/><polygon class="cls-8" points="166.41 191.4 157.45 191.4 157.45 190.65 161.62 190.65 161.62 190.4 162.37 190.4 162.37 190.65 166.41 190.65 166.41 191.4"/><polygon class="cls-8" points="155.38 191.4 153.36 191.4 153.36 177.96 162.3 177.96 162.3 188.33 161.55 188.33 161.55 178.71 154.11 178.71 154.11 190.65 155.38 190.65 155.38 191.4"/><polygon class="cls-8" points="129.31 183.87 125.7 164.6 125.69 163.11 126.44 163.11 126.44 164.53 129.9 182.97 131.41 182.64 131.57 183.37 129.31 183.87"/><polygon class="cls-8" points="126.44 161 125.69 161 125.69 155.94 126.53 155.94 126.53 156.69 126.44 156.69 126.44 161"/><polygon class="cls-8" points="139.68 165.05 126.07 165.05 126.07 164.3 138.93 164.3 138.93 156.69 128.78 156.69 128.78 155.94 139.68 155.94 139.68 165.05"/><rect class="cls-8" x="125.69" y="151.67" width=".75" height="4.64"/><polygon class="cls-8" points="141.88 178.34 141.13 178.34 141.13 164.17 139.3 164.17 139.3 163.42 141.88 163.42 141.88 178.34"/><path class="cls-17" d="M203.08,178.29s3.85.27,6.01.55c2.16.28,13.1.55,13.1.55l6.01,9.91-25.12,1.65v-12.66Z"/><g class="cls-50"><rect class="cls-16" x="57.97" y="-17.15" width="309.32" height="311.89"/><g class="cls-51"><rect class="cls-16" x="202.63" y="178.22" width="25.2" height="12.85"/><g class="cls-52"><rect class="cls-16" x="202.63" y="178.22" width="25.2" height="12.85"/><g class="cls-53"><rect class="cls-9" x="202.76" y="177.85" width="26.55" height="14.11"/><line class="cls-9" x1="195.44" y1="183.7" x2="205.32" y2="192.51"/><line class="cls-9" x1="227.36" y1="174.47" x2="241.26" y2="186.45"/></g></g></g></g><polygon class="cls-8" points="139.68 157.46 138.93 157.46 138.93 148.62 126.44 148.62 126.44 149.78 125.69 149.78 125.69 146.71 126.44 146.71 126.44 147.87 139.68 147.87 139.68 157.46"/><polygon class="cls-8" points="128.6 68.96 119.9 68.96 119.9 66.8 117.94 66.8 117.94 64.8 121.9 64.8 121.9 66.96 128.6 66.96 128.6 68.96"/><polygon class="cls-8" points="138.59 80.83 136.77 80.6 136.82 79.85 137.32 79.85 137.46 78.71 138.2 78.8 138.05 80 138.68 80.08 138.59 80.83"/><rect class="cls-8" x="128.73" y="90.74" width="10.52" height=".75"/><polygon class="cls-8" points="126.44 95.8 125.69 95.8 125.69 86.38 126.44 86.38 126.44 90.74 126.62 90.74 126.62 91.49 126.44 91.49 126.44 95.8"/><polygon class="cls-8" points="126.44 84.27 125.69 84.27 125.69 82.7 139.07 82.7 139.07 83.45 126.44 83.45 126.44 84.27"/><rect class="cls-8" x="95.99" y="195.65" width=".75" height="6.74"/><path class="cls-8" d="M117.39,193.01c-.27-2.23-.96-6.89-.96-6.93l.74-.11s.69,4.71.97,6.95l-.74.09Z"/><polygon class="cls-8" points="126.44 144.71 125.69 144.71 125.69 135.37 126.44 135.37 126.44 139.66 139.06 139.66 139.06 140.41 126.44 140.41 126.44 144.71"/><polygon class="cls-8" points="126.44 133.19 125.69 133.19 125.69 130.44 126.44 130.44 126.44 131.66 139.3 131.66 139.3 132.41 126.44 132.41 126.44 133.19"/><polygon class="cls-8" points="126.44 128.34 125.69 128.34 125.69 119.14 126.44 119.14 126.44 123.37 138.93 123.37 138.93 115.97 126.44 115.97 126.44 117.11 125.69 117.11 125.69 114.21 126.44 114.21 126.44 115.22 139.68 115.22 139.68 124.12 126.44 124.12 126.44 128.34"/><polygon class="cls-8" points="126.44 112.04 125.69 112.04 125.69 102.77 126.44 102.77 126.44 107.03 138.88 107.03 138.88 99.67 126.44 99.67 126.44 100.74 125.69 100.74 125.69 97.81 126.44 97.81 126.44 98.92 139.63 98.92 139.63 107.78 126.44 107.78 126.44 112.04"/><rect class="cls-8" x="275.36" y="146.62" width=".75" height="8.11" transform="translate(-30.99 82.49) rotate(-16.12)"/><rect class="cls-8" x="281.07" y="169.97" width=".75" height="1.86" transform="translate(-34.75 79.04) rotate(-15.07)"/><polygon class="cls-8" points="279.33 175.7 279.25 174.96 282.14 174.64 282.01 174.06 282.74 173.89 282.9 174.58 322.51 170.5 322.59 171.25 279.33 175.7"/><rect class="cls-8" x="319.3" y="170.4" width=".75" height=".78" transform="translate(-36.02 101.2) rotate(-17.04)"/><rect class="cls-8" x="315.66" y="147.31" width=".75" height="21.55" transform="translate(-31.5 94.16) rotate(-16.15)"/><rect class="cls-8" x="318.19" y="164.58" width="8.12" height=".75" transform="translate(-33.22 96.4) rotate(-16.19)"/><rect class="cls-8" x="271.05" y="158.44" width="1.18" height=".75" transform="translate(-32.21 77.03) rotate(-15.25)"/><rect class="cls-8" x="272.75" y="158.61" width=".75" height="10.84" transform="translate(-34.48 81.07) rotate(-15.89)"/><polygon class="cls-8" points="268.2 171.35 264.92 160.37 268.9 159.2 269.11 159.92 265.85 160.88 268.71 170.44 280.08 167.39 277.26 157.54 274.24 158.4 274.03 157.68 277.77 156.62 281.01 167.92 268.2 171.35"/><polygon class="cls-8" points="329.92 167.83 328.85 162.07 341.2 159.58 341.35 160.32 329.72 162.66 330.66 167.69 329.92 167.83"/><rect class="cls-8" x="328.14" y="162.7" width="1.27" height=".75" transform="translate(-32.41 98.02) rotate(-16.17)"/><polygon class="cls-8" points="330.69 171.91 330.35 170.12 331.09 169.99 331.28 171 340.14 168.96 340.31 169.69 330.69 171.91"/><path class="cls-8" d="M219.9,181.24l-.48-.57c.17-.15,17.7-14.67,39.11-8.69l-.2.72c-21.04-5.88-38.25,8.39-38.42,8.54Z"/><polygon class="cls-8" points="227.89 189.22 221.6 179.49 222.24 179.08 228.52 188.82 227.89 189.22"/><rect class="cls-8" x="250.7" y="171.03" width=".75" height="14.61"/><path class="cls-8" d="M232.32,189.74c-3.54,0-5.84-.34-5.9-.35l.12-.74c.14.02,14.16,2.11,26.37-4.24l.35.67c-7.48,3.88-15.61,4.66-20.94,4.66Z"/><path class="cls-8" d="M225.3,184.44l-.48-.58c.1-.08,10.32-8.31,26.28-7.28l-.05.75c-15.66-1.01-25.66,7.03-25.75,7.11Z"/><polygon class="cls-8" points="310.53 240.15 110.73 240.15 110.73 227.14 76.41 227.14 76.41 179.13 79.25 179.13 79.25 181.13 78.41 181.13 78.41 225.14 112.73 225.14 112.73 238.15 308.53 238.15 308.53 227.24 306.55 227.24 306.55 221.38 341.1 221.38 341.1 181.38 340.17 181.38 340.17 179.38 343.1 179.38 343.1 223.38 308.55 223.38 308.55 225.24 310.53 225.24 310.53 240.15"/><polygon class="cls-8" points="209.77 179.2 140.44 179.2 140.44 165 138.25 165 138.25 79.26 152.46 81.26 155.35 61.04 154.68 60.97 140.35 59.4 141.09 53.03 133.77 52.09 131.49 68.97 127.86 68.97 127.86 66.97 129.75 66.97 132.06 49.85 143.3 51.3 142.57 57.63 157.62 59.26 154.16 83.51 140.25 81.56 140.25 163 142.44 163 142.44 177.2 207.08 177.2 205.1 170.69 255.28 156.45 254.42 154.14 292.51 138.83 294.1 143.87 311.21 137.1 313.85 146.23 331.41 139.06 337.41 160.36 335.49 160.9 330.09 141.76 312.55 148.93 309.9 139.77 292.84 146.52 291.25 141.49 256.98 155.27 257.91 157.78 207.61 172.06 209.77 179.2"/><polygon class="cls-8" points="342.1 181.38 339.65 181.38 339.65 171.1 341.65 171.1 341.65 179.38 342.1 179.38 342.1 181.38"/><polygon class="cls-8" points="335.71 162.1 334.96 159.01 336.9 158.54 337.19 159.74 350.3 156.97 350.71 158.93 335.71 162.1"/><polygon class="cls-8" points="341.65 172.66 339.65 172.66 339.65 168.53 351.52 165.75 350.03 159.07 347.82 159.54 347.4 157.58 351.54 156.7 353.91 167.24 341.65 170.12 341.65 172.66"/><path class="cls-8" d="M223.01,180.69l-.42-.62c.14-.09,14.13-9.39,28.86-8.02l-.07.75c-14.44-1.35-28.23,7.8-28.37,7.9Z"/><rect class="cls-8" x="246.56" y="172.28" width=".3" height="4.84" transform="translate(-8.39 12.5) rotate(-2.85)"/><polygon class="cls-8" points="245.95 177.2 245.79 172.37 246.09 172.36 246.25 177.19 245.95 177.2"/><rect class="cls-8" x="245.08" y="172.43" width=".3" height="4.82" transform="translate(-8.34 12.33) rotate(-2.83)"/><rect class="cls-8" x="244.37" y="172.51" width=".3" height="4.81" transform="translate(-12.4 18.78) rotate(-4.29)"/><polygon class="cls-8" points="226.11 183.87 223.45 179.97 223.7 179.8 226.36 183.7 226.11 183.87"/><rect class="cls-8" x="225.4" y="179.09" width=".3" height="4.67" transform="translate(-62.37 151.57) rotate(-32.89)"/><polygon class="cls-8" points="227.22 182.94 224.78 179.19 225.03 179.02 227.47 182.78 227.22 182.94"/><polygon class="cls-8" points="227.91 182.71 225.55 178.75 225.8 178.6 228.16 182.55 227.91 182.71"/><rect class="cls-8" x="227.33" y="178.01" width=".3" height="4.58" transform="translate(-60.1 140.88) rotate(-30.59)"/><polygon class="cls-8" points="229.12 182.01 226.87 178.05 227.13 177.9 229.39 181.86 229.12 182.01"/><rect class="cls-8" x="228.62" y="177.36" width=".3" height="4.54" transform="translate(-58 131.01) rotate(-28.52)"/><rect class="cls-8" x="229.23" y="177.06" width=".3" height="4.4" transform="translate(-56.89 126.39) rotate(-27.54)"/><rect class="cls-8" x="229.94" y="176.72" width=".3" height="4.38" transform="translate(-54.89 117.76) rotate(-25.76)"/><rect class="cls-8" x="230.65" y="176.41" width=".3" height="4.46" transform="translate(-54.18 115.66) rotate(-25.28)"/><polygon class="cls-8" points="232.24 180.36 230.47 176.39 230.74 176.27 232.51 180.24 232.24 180.36"/><rect class="cls-8" x="231.93" y="175.85" width=".3" height="4.28" transform="translate(-51.16 105.08) rotate(-23.05)"/><rect class="cls-8" x="232.61" y="175.57" width=".3" height="4.21" transform="translate(-49.63 100.18) rotate(-22.01)"/><rect class="cls-8" x="233.33" y="175.29" width=".3" height="4.25" transform="translate(-49.95 102.22) rotate(-22.37)"/><polygon class="cls-8" points="235.74 178.9 235.31 174.48 235.61 174.45 236.04 178.87 235.74 178.9"/><rect class="cls-8" x="243.61" y="172.6" width=".3" height="4.53" transform="translate(-17.35 27.16) rotate(-6.16)"/><rect class="cls-8" x="242.9" y="172.7" width=".3" height="4.51" transform="translate(-19.91 31.66) rotate(-7.16)"/><rect class="cls-8" x="242.14" y="172.83" width=".3" height="4.51" transform="translate(-24.41 40.07) rotate(-9)"/><rect class="cls-8" x="241.39" y="172.96" width=".3" height="4.49" transform="translate(-27.51 46.16) rotate(-10.33)"/><polygon class="cls-8" points="241.09 177.61 240.19 173.19 240.49 173.13 241.39 177.55 241.09 177.61"/><rect class="cls-8" x="239.92" y="173.27" width=".3" height="4.46" transform="translate(-31.99 55.42) rotate(-12.35)"/><rect class="cls-8" x="239.18" y="173.45" width=".3" height="4.46" transform="translate(-34.81 61.72) rotate(-13.71)"/><rect class="cls-8" x="238.43" y="173.64" width=".3" height="4.44" transform="translate(-39.55 73.44) rotate(-16.18)"/><rect class="cls-8" x="237.75" y="173.83" width=".3" height="4.41" transform="translate(-36.88 66.13) rotate(-14.7)"/><polygon class="cls-8" points="338.23 169.63 337.34 165.59 347.4 163.43 347.33 162.97 337.64 165.05 337.48 164.32 347.94 162.07 348.26 164.01 338.24 166.17 338.96 169.47 338.23 169.63"/><polygon class="cls-8" points="339.25 169.45 338.45 165.78 338.74 165.71 339.54 169.39 339.25 169.45"/><polygon class="cls-8" points="339.83 169.15 339.02 165.48 339.32 165.41 340.12 169.09 339.83 169.15"/><polygon class="cls-8" points="340.63 169.02 339.83 165.34 340.12 165.28 340.92 168.95 340.63 169.02"/><polygon class="cls-8" points="341.25 168.93 340.45 165.25 340.74 165.19 341.55 168.86 341.25 168.93"/><polygon class="cls-8" points="341.88 168.82 341.08 165.15 341.37 165.08 342.17 168.76 341.88 168.82"/><polygon class="cls-8" points="342.59 168.62 341.78 164.95 342.08 164.88 342.88 168.56 342.59 168.62"/><polygon class="cls-8" points="343.25 168.48 342.45 164.8 342.74 164.74 343.54 168.42 343.25 168.48"/><polygon class="cls-8" points="344.05 168.39 343.25 164.72 343.54 164.65 344.35 168.33 344.05 168.39"/><polygon class="cls-8" points="344.86 168.26 344.05 164.58 344.35 164.52 345.15 168.2 344.86 168.26"/><polygon class="cls-8" points="345.43 167.96 344.63 164.28 344.92 164.22 345.73 167.9 345.43 167.96"/><polygon class="cls-8" points="346.24 167.83 345.43 164.15 345.73 164.09 346.53 167.76 346.24 167.83"/><polygon class="cls-8" points="346.86 167.74 346.06 164.06 346.35 164 347.15 167.67 346.86 167.74"/><polygon class="cls-8" points="347.49 167.63 346.68 163.96 346.97 163.89 347.78 167.57 347.49 167.63"/><rect class="cls-8" x="337.79" y="160.81" width=".3" height="3.75" transform="translate(-25.98 71.96) rotate(-11.71)"/><polygon class="cls-8" points="338.85 164.41 338.08 160.62 338.38 160.56 339.14 164.35 338.85 164.41"/><rect class="cls-8" x="339.1" y="160.34" width=".3" height="3.94" transform="translate(-27.29 78.13) rotate(-12.63)"/><rect class="cls-8" x="339.82" y="160.19" width=".3" height="3.87" transform="translate(-26.26 74.13) rotate(-11.99)"/><rect class="cls-8" x="340.45" y="160.31" width=".3" height="3.75" transform="translate(-25.83 72.49) rotate(-11.71)"/><polygon class="cls-8" points="341.5 163.91 340.74 160.13 341.03 160.07 341.8 163.85 341.5 163.91"/><rect class="cls-8" x="341.76" y="159.85" width=".3" height="3.94" transform="translate(-27.11 78.7) rotate(-12.63)"/><polygon class="cls-8" points="342.88 163.56 342.08 159.77 342.37 159.71 343.18 163.5 342.88 163.56"/><rect class="cls-8" x="343.23" y="159.52" width=".3" height="3.75" transform="translate(-25.61 73.04) rotate(-11.71)"/><polygon class="cls-8" points="344.28 163.12 343.52 159.34 343.81 159.28 344.58 163.06 344.28 163.12"/><rect class="cls-8" x="344.54" y="159.05" width=".3" height="3.94" transform="translate(-26.87 79.29) rotate(-12.63)"/><rect class="cls-8" x="345.26" y="158.91" width=".3" height="3.87" transform="translate(-25.87 75.23) rotate(-11.99)"/><rect class="cls-8" x="345.88" y="159.03" width=".3" height="3.75" transform="translate(-25.45 73.56) rotate(-11.71)"/><polygon class="cls-8" points="346.94 162.63 346.17 158.84 346.47 158.78 347.23 162.57 346.94 162.63"/><polygon class="cls-8" points="136.48 66.56 135.74 66.48 136.73 56.62 136.28 56.55 135.28 66.41 134.53 66.33 135.61 55.69 137.55 55.99 136.48 66.56"/><rect class="cls-8" x="137.95" y="64.01" width=".3" height="3.76" transform="translate(59.15 196.97) rotate(-84.44)"/><rect class="cls-8" x="137.84" y="63.38" width=".3" height="3.76" transform="translate(59.67 196.27) rotate(-84.44)"/><rect class="cls-8" x="137.97" y="62.57" width=".3" height="3.76" transform="translate(60.58 195.67) rotate(-84.44)"/><rect class="cls-8" x="138.07" y="61.95" width=".3" height="3.76" transform="translate(61.29 195.21) rotate(-84.44)"/><rect class="cls-8" x="138.16" y="61.32" width=".3" height="3.76" transform="translate(61.98 194.73) rotate(-84.43)"/><rect class="cls-8" x="138.31" y="60.47" width=".3" height="4" transform="translate(63.61 194.64) rotate(-84.76)"/><polygon class="cls-8" points="140.43 62.12 136.52 61.76 136.55 61.46 140.46 61.83 140.43 62.12"/><rect class="cls-8" x="138.42" y="59.12" width=".3" height="3.76" transform="translate(64.41 193) rotate(-84.43)"/><rect class="cls-8" x="138.54" y="58.31" width=".3" height="3.76" transform="translate(65.34 192.4) rotate(-84.44)"/><polygon class="cls-8" points="140.88 59.89 136.7 59.52 136.73 59.22 140.91 59.59 140.88 59.89"/><polygon class="cls-8" points="140.88 59.08 136.82 58.71 136.85 58.42 140.91 58.78 140.88 59.08"/><rect class="cls-8" x="138.77" y="56.14" width=".3" height="3.97" transform="translate(68.28 191.12) rotate(-84.73)"/><rect class="cls-8" x="138.86" y="55.51" width=".3" height="3.97" transform="translate(68.99 190.64) rotate(-84.73)"/><polygon class="cls-8" points="134.96 65.99 131.23 65.59 131.26 65.29 135 65.69 134.96 65.99"/><polygon class="cls-8" points="135.03 65.31 131.2 64.87 131.23 64.58 135.07 65.01 135.03 65.31"/><rect class="cls-8" x="133.01" y="62.31" width=".3" height="3.94" transform="translate(56.92 190.97) rotate(-84.73)"/><rect class="cls-8" x="133.06" y="61.6" width=".3" height="3.88" transform="translate(56.25 189.47) rotate(-84.07)"/><polygon class="cls-8" points="135.31 63.31 131.58 62.91 131.61 62.61 135.34 63.02 135.31 63.31"/><polygon class="cls-8" points="135.38 62.63 131.54 62.19 131.58 61.9 135.41 62.33 135.38 62.63"/><rect class="cls-8" x="133.36" y="59.63" width=".3" height="3.94" transform="translate(59.9 188.88) rotate(-84.73)"/><rect class="cls-8" x="133.41" y="58.92" width=".3" height="3.88" transform="translate(59.23 187.41) rotate(-84.07)"/><polygon class="cls-8" points="135.41 60.43 131.68 60.02 131.71 59.72 135.44 60.13 135.41 60.43"/><polygon class="cls-8" points="135.48 59.74 131.64 59.31 131.68 59.01 135.51 59.44 135.48 59.74"/><rect class="cls-8" x="133.46" y="56.74" width=".3" height="3.94" transform="translate(62.87 186.36) rotate(-84.73)"/><rect class="cls-8" x="133.51" y="56.03" width=".3" height="3.88" transform="translate(62.21 184.93) rotate(-84.08)"/><polygon class="cls-8" points="135.76 57.75 132.02 57.34 132.06 57.04 135.79 57.45 135.76 57.75"/><polygon class="cls-8" points="135.83 57.06 131.99 56.63 132.02 56.33 135.86 56.76 135.83 57.06"/><polygon class="cls-8" points="141.2 57.24 137.14 56.88 137.17 56.58 141.23 56.94 141.2 57.24"/><rect class="cls-8" x="111.39" y="198.39" width=".3" height="3.99" transform="translate(-20.17 12.64) rotate(-5.95)"/><rect class="cls-8" x="110.66" y="198.61" width=".3" height="3.87" transform="translate(-19.53 12.11) rotate(-5.75)"/><rect class="cls-8" x="109.96" y="198.6" width=".3" height="3.78" transform="translate(-21.5 13.41) rotate(-6.35)"/><polygon class="cls-8" points="109.6 202.53 109.09 198.84 109.38 198.8 109.9 202.49 109.6 202.53"/><polygon class="cls-8" points="108.78 202.66 108.4 198.88 108.7 198.85 109.08 202.63 108.78 202.66"/><polygon class="cls-8" points="108.1 202.81 107.76 199.06 108.06 199.03 108.4 202.79 108.1 202.81"/><rect class="cls-8" x="106.44" y="199.21" width=".3" height="3.73" transform="translate(-18.52 10.97) rotate(-5.42)"/><path class="cls-8" d="M101.41,200.45l-.15-1.97,14.63-2.19.22,1.99-14.7,2.16ZM102.06,199.13l.04.47,13.19-1.94-.05-.49-13.17,1.97Z"/><rect class="cls-8" x="107.19" y="199.04" width=".3" height="3.99" transform="translate(-19.65 11.8) rotate(-5.77)"/><rect class="cls-8" x="106.46" y="199.27" width=".3" height="3.87" transform="translate(-19.62 11.69) rotate(-5.75)"/><rect class="cls-8" x="105.76" y="199.26" width=".3" height="3.78" transform="translate(-21.59 12.95) rotate(-6.35)"/><polygon class="cls-8" points="105.38 203.19 104.9 199.5 105.2 199.46 105.68 203.15 105.38 203.19"/><rect class="cls-8" x="104.39" y="199.51" width=".3" height="3.81" transform="translate(-25.37 15.35) rotate(-7.49)"/><rect class="cls-8" x="103.73" y="199.54" width=".3" height="3.77" transform="translate(-25.35 15.25) rotate(-7.48)"/><polygon class="cls-8" points="98.72 204.64 98.62 203.89 119.7 200.93 119 196.14 119.74 196.03 120.55 201.57 98.72 204.64"/><polygon class="cls-8" points="98.23 204.83 97.23 195.71 97.97 195.63 98.89 203.92 99.66 203.76 99.81 204.49 98.23 204.83"/><path class="cls-13" d="M290.65,160.74v.78h-4.53v-.61l2.57-2.48c.67-.65.79-1.04.79-1.44,0-.65-.46-1.04-1.34-1.04-.67,0-1.22.22-1.61.68l-.61-.53c.49-.6,1.32-.95,2.3-.95,1.31,0,2.16.68,2.16,1.76,0,.61-.18,1.16-1.04,1.98l-1.93,1.85h3.23Z"/><path class="cls-13" d="M296.87,159.97h-1.2v1.55h-.87v-1.55h-3.5v-.63l3.22-4.12h.97l-3.09,3.98h2.42v-1.37h.85v1.37h1.2v.77Z"/><path class="cls-13" d="M297.4,158.37c0-2.05,1.1-3.22,2.58-3.22s2.57,1.17,2.57,3.22-1.1,3.22-2.57,3.22-2.58-1.17-2.58-3.22ZM301.64,158.37c0-1.61-.68-2.42-1.67-2.42s-1.67.81-1.67,2.42.68,2.42,1.67,2.42,1.67-.81,1.67-2.42Z"/><path class="cls-13" d="M307.83,159.63c0,1.09-.77,1.96-2.39,1.96-.89,0-1.77-.29-2.31-.77l.41-.71c.42.4,1.12.67,1.89.67.95,0,1.49-.44,1.49-1.12s-.45-1.15-1.91-1.15h-1.43l.33-3.29h3.56v.78h-2.8l-.17,1.73h.7c1.88,0,2.62.78,2.62,1.9Z"/><rect class="cls-9" x="203.61" y="137.84" width="1" height="42.87"/><rect class="cls-12" x="285.52" y="198.35" width="8.24" height="8.97"/><path class="cls-8" d="M289.42,199.67c-.08,0-.15.04-.19.09l-1.84,2.45c-.06.09-.02.2.09.24.03.02.07.02.11.02h3.68s.02,0,.02,0c.13-.01.22-.1.21-.2,0-.02-.01-.05-.03-.07l-1.84-2.45c-.04-.06-.13-.09-.22-.09h0ZM289.43,200.2l1.44,1.91h-2.88l1.44-1.91ZM287.57,202.93c-.13,0-.22.1-.21.19,0,.03.01.05.03.07l1.84,2.45c.06.09.21.12.32.07.04-.02.07-.04.09-.07l1.84-2.45c.06-.09.03-.2-.08-.25-.03-.01-.06-.02-.09-.02,0,0-.02,0-.02,0h-3.68s-.01,0-.02,0h0ZM288,203.29h2.88l-1.44,1.91-1.44-1.91Z"/><rect class="cls-12" x="284.5" y="203.66" width="2.08" height="3.66"/><rect class="cls-12" x="126.03" y="195.48" width="8.41" height="5.33"/><path class="cls-8" d="M130.34,195.74c-.06,0-.12.03-.15.07l-1.43,1.9c-.05.07-.02.15.07.19.03.01.06.02.09.02h2.86s.01,0,.02,0c.1,0,.17-.08.16-.15,0-.02-.01-.04-.02-.05l-1.43-1.9s-.1-.07-.17-.07h0ZM130.35,196.16l1.12,1.49h-2.23l1.12-1.49ZM128.9,198.28c-.1,0-.17.07-.16.15,0,.02.01.04.02.06l1.43,1.9c.05.07.16.09.25.05.03-.01.05-.03.07-.05l1.43-1.9c.05-.07.02-.15-.07-.19-.02,0-.05-.02-.07-.02,0,0-.01,0-.02,0h-2.86s0,0-.01,0h0ZM129.23,198.56h2.23l-1.12,1.49-1.12-1.49Z"/></svg>