<?xml version="1.0" encoding="UTF-8"?><svg id="Layer_1" xmlns="http://www.w3.org/2000/svg" xmlns:xlink="http://www.w3.org/1999/xlink" viewBox="0 0 432 288"><defs><style>.cls-1,.cls-2,.cls-3,.cls-4,.cls-5,.cls-6,.cls-7,.cls-8{fill:none;}.cls-1,.cls-3,.cls-9,.cls-4,.cls-6,.cls-7,.cls-8{stroke:#0e3f41;stroke-miterlimit:10;}.cls-1,.cls-10,.cls-11{fill-rule:evenodd;}.cls-12,.cls-2,.cls-5,.cls-10,.cls-13,.cls-14,.cls-15,.cls-16,.cls-17,.cls-18{stroke-width:0px;}.cls-12,.cls-19,.cls-11,.cls-13{fill:#5b629c;}.cls-12,.cls-5,.cls-8{clip-rule:evenodd;}.cls-20{clip-path:url(#clippath);}.cls-21,.cls-9,.cls-10{fill:#b8d7d7;}.cls-22{clip-path:url(#clippath-1);}.cls-23{clip-path:url(#clippath-4);}.cls-24{clip-path:url(#clippath-2);}.cls-25{clip-path:url(#clippath-8);}.cls-26{clip-path:url(#clippath-6);}.cls-27{clip-path:url(#clippath-9);}.cls-3{stroke-width:.75px;}.cls-28{clip-path:url(#clippath-20);}.cls-29{clip-path:url(#clippath-21);}.cls-30{clip-path:url(#clippath-14);}.cls-31{clip-path:url(#clippath-13);}.cls-32{clip-path:url(#clippath-12);}.cls-33{clip-path:url(#clippath-10);}.cls-34{clip-path:url(#clippath-15);}.cls-35{clip-path:url(#clippath-17);}.cls-36{clip-path:url(#clippath-16);}.cls-37{clip-path:url(#clippath-19);}.cls-38{clip-path:url(#clippath-11);}.cls-39{clip-path:url(#clippath-18);}.cls-4{stroke-width:2px;}.cls-7{stroke-width:.3px;}.cls-14{fill:#191818;}.cls-15{fill:#a977ab;}.cls-16{fill:#fcb13f;}.cls-17{fill:#ecd2d2;}.cls-18{fill:#045876;}</style><clipPath id="clippath"><rect class="cls-9" x="285.5" y="191.7" width="7.09" height="6.21"/></clipPath><clipPath id="clippath-1"><rect class="cls-9" x="56.32" y="69.54" width="312.32" height="186.17"/></clipPath><clipPath id="clippath-2"><rect class="cls-6" x="284.71" y="180.13" width="10.41" height="7.51"/></clipPath><clipPath id="clippath-4"><polyline class="cls-8" points="126.3 164.67 141.44 164.67 141.44 181.67 129.61 183.42"/></clipPath><clipPath id="clippath-6"><polyline class="cls-8" points="140.94 57.9 137.4 80.23 153.73 82.39 157.03 60.15"/></clipPath><clipPath id="clippath-8"><path class="cls-12" d="M150.1,215.6v2.63c0,.06,0,.12-.02.18-.07.18-.27.26-.46.19-.14-.05-.22-.17-.22-.33,0-.13,0-.25,0-.38,0-.57,0-1.15,0-1.72,0-.33,0-.66,0-1,0-.02,0-.05,0-.07-.01-.05-.05-.08-.1-.09-.06,0-.1.02-.12.07-.01.03-.01.06-.01.09,0,1.02,0,2.05,0,3.07,0,.1-.01.19-.08.26-.1.11-.22.15-.36.12-.14-.03-.23-.13-.27-.26-.01-.04-.02-.09-.02-.14,0-.71,0-1.42,0-2.12,0-1.05,0-2.1,0-3.16,0-.08-.02-.11-.08-.13-.07-.02-.15,0-.19.06-.01.02-.01.03-.01.05,0,.38,0,.75,0,1.13,0,.28,0,.55,0,.83,0,.11-.04.2-.15.25-.1.04-.21.02-.29-.06-.05-.05-.07-.1-.07-.17,0-.71,0-1.42,0-2.13,0-.19.04-.37.14-.53.18-.28.43-.44.77-.45.43-.01.86,0,1.28,0,.44,0,.86.35.96.78.02.1.04.2.04.3,0,.66,0,1.33,0,1.99,0,.14-.06.22-.18.26-.16.05-.31-.05-.32-.22,0-.02,0-.04,0-.06,0-.64,0-1.29,0-1.93,0-.1-.09-.14-.15-.12-.06.01-.09.05-.09.11v2.68Z"/></clipPath><clipPath id="clippath-9"><rect class="cls-13" x="56.32" y="-17.43" width="312.32" height="312.32"/></clipPath><clipPath id="clippath-10"><path class="cls-12" d="M149.22,210.23c.37,0,.67.3.67.67,0,.37-.29.67-.67.67s-.66-.28-.67-.67c0-.38.29-.67.67-.68"/></clipPath><clipPath id="clippath-11"><rect class="cls-13" x="56.32" y="-17.43" width="312.32" height="312.32"/></clipPath><clipPath id="clippath-12"><path class="cls-12" d="M289.38,195.55v1.21s0,.06-.01.08c-.03.08-.13.12-.21.09-.06-.02-.1-.08-.1-.15,0-.06,0-.12,0-.17,0-.26,0-.53,0-.79,0-.15,0-.3,0-.46,0-.01,0-.02,0-.03,0-.02-.02-.04-.05-.04-.03,0-.05,0-.06.03,0,.01,0,.03,0,.04,0,.47,0,.94,0,1.41,0,.04,0,.09-.04.12-.04.05-.1.07-.17.05-.06-.01-.1-.06-.12-.12,0-.02,0-.04,0-.06,0-.32,0-.65,0-.97,0-.48,0-.97,0-1.45,0-.04,0-.05-.04-.06-.03-.01-.07,0-.09.03,0,0,0,.02,0,.02,0,.17,0,.35,0,.52,0,.13,0,.25,0,.38,0,.05-.02.09-.07.11-.04.02-.1,0-.13-.03-.02-.02-.03-.05-.03-.08,0-.33,0-.65,0-.98,0-.09.02-.17.06-.24.08-.13.2-.2.35-.21.2,0,.39,0,.59,0,.2,0,.39.16.44.36.01.05.02.09.02.14,0,.3,0,.61,0,.91,0,.06-.03.1-.08.12-.07.02-.14-.02-.15-.1,0,0,0-.02,0-.03,0-.3,0-.59,0-.89,0-.04-.04-.06-.07-.06-.03,0-.04.02-.04.05v1.23Z"/></clipPath><clipPath id="clippath-13"><rect class="cls-13" x="246.37" y="88.66" width="143.26" height="143.26"/></clipPath><clipPath id="clippath-14"><path class="cls-12" d="M288.98,193.08c.17,0,.31.14.31.31,0,.17-.13.31-.31.31s-.3-.13-.31-.31c0-.18.13-.31.31-.31"/></clipPath><clipPath id="clippath-15"><rect class="cls-13" x="246.37" y="88.66" width="143.26" height="143.26"/></clipPath><clipPath id="clippath-16"><path class="cls-12" d="M139.99,217.24c0,.36,0,.73,0,1.09,0,.11-.04.2-.14.26-.1.06-.21.06-.32,0-.11-.05-.15-.15-.15-.26,0-.71,0-1.42,0-2.13,0-.02,0-.04,0-.06,0-.06-.05-.09-.1-.09-.06,0-.1.04-.1.1v2.15c0,.11-.02.2-.11.27-.11.08-.23.09-.35.03-.12-.05-.16-.16-.17-.28,0-.02,0-.04,0-.06v-2.13q0-.07-.07-.07c-.26,0-.51,0-.76,0-.05,0-.06,0-.04-.05.06-.21.13-.43.2-.64.1-.31.19-.63.29-.94.08-.26.16-.52.24-.79.08-.26.16-.53.24-.79.02-.07,0-.12-.06-.14-.06-.02-.12,0-.14.08-.05.14-.09.29-.14.43-.12.36-.23.71-.35,1.07-.05.15-.1.31-.15.46-.05.16-.18.22-.33.15-.11-.05-.16-.16-.12-.28.1-.34.21-.68.31-1.02.12-.4.24-.8.36-1.2.09-.31.36-.53.68-.57.05,0,.11,0,.16,0,.35,0,.7,0,1.05,0,.19,0,.37.05.52.17.15.12.23.27.28.45.13.47.26.94.38,1.41.07.26.14.53.21.79.03.13-.06.27-.2.28-.13.01-.22-.05-.26-.18-.11-.37-.21-.74-.31-1.11l-.2-.71c-.02-.06-.03-.12-.05-.17-.02-.06-.07-.08-.12-.07-.06.02-.08.06-.07.12.08.31.16.63.24.94.09.35.18.7.27,1.05.1.41.21.82.31,1.23.01.04-.01.04-.04.04-.27,0-.54,0-.81,0-.07,0-.07,0-.07.07v1.1Z"/></clipPath><clipPath id="clippath-17"><rect class="cls-13" x="56.32" y="-17.43" width="312.32" height="312.32"/></clipPath><clipPath id="clippath-18"><path class="cls-12" d="M138.69,210.91c0-.36.28-.68.67-.68s.68.31.68.69c0,.37-.31.68-.68.67-.37,0-.68-.31-.67-.68"/></clipPath><clipPath id="clippath-19"><rect class="cls-13" x="56.32" y="-17.43" width="312.32" height="312.32"/></clipPath><clipPath id="clippath-20"><path class="cls-5" d="M128.2,197.83c-.08.1-.17.21-.26.3-.16.17-.36.22-.55.07-.18-.13-.23-.34-.11-.52.35-.53.76-1.02,1.22-1.46.23-.22.47-.07.65.14.34.41.69.81,1.03,1.22.05.06.1.21.17.17.45-.27.67.08.98.39,0-.49,0-.9,0-1.3,0-.34,0-.68.46-.73.32-.03.48.23.48.75,0,.4,0,.8,0,1.27.16-.15.26-.27.38-.36.17-.14.36-.14.53,0,.16.14.21.35.07.52-.38.47-.76.95-1.17,1.39-.23.24-.5.12-.69-.11-.35-.42-.69-.85-1.04-1.27-.05-.06-.07-.23-.15-.16-.41.34-.63-.05-.96-.29,0,.45,0,.83,0,1.21,0,.16,0,.33-.08.48-.1.2-.26.29-.47.26-.26-.03-.39-.21-.42-.45-.04-.5-.04-1-.06-1.53"/></clipPath><clipPath id="clippath-21"><rect class="cls-2" x="56.32" y="-17.43" width="312.32" height="312.32"/></clipPath></defs><polygon class="cls-15" points="170.07 209.6 191.26 209.6 191.26 239.15 153.74 239.15 153.66 197.15 170.07 196.77 170.07 209.6"/><rect class="cls-21" x="285.5" y="191.7" width="7.09" height="6.21"/><g class="cls-20"><rect class="cls-21" x="56.32" y="69.54" width="312.32" height="186.17"/><g class="cls-22"><rect class="cls-9" x="284.78" y="191.27" width="8.53" height="7.07"/></g><rect class="cls-6" x="56.32" y="69.54" width="312.32" height="186.17"/></g><rect class="cls-6" x="285.5" y="191.7" width="7.09" height="6.21"/><g class="cls-24"><rect class="cls-6" x="56.32" y="-17.43" width="312.32" height="312.32"/></g><rect class="cls-6" x="284.71" y="180.13" width="10.41" height="7.51"/><rect class="cls-9" x="134.94" y="198.02" width="19.07" height="23.64"/><polygon class="cls-10" points="134.87 221.64 153.66 221.64 153.66 197.15 147.7 197.15 147.7 202.35 139.75 202.35 139.75 197.15 134.87 197.15 134.87 221.64"/><g class="cls-23"><rect class="cls-6" x="56.32" y="-17.43" width="312.32" height="312.32"/></g><polyline class="cls-1" points="126.3 164.67 141.44 164.67 141.44 181.67 129.61 183.42"/><g class="cls-26"><rect class="cls-6" x="56.32" y="-17.43" width="312.32" height="312.32"/></g><polyline class="cls-1" points="140.94 57.9 137.4 80.23 153.73 82.39 157.03 60.15"/><path class="cls-11" d="M150.1,215.6v2.63c0,.06,0,.12-.02.18-.07.18-.27.26-.46.19-.14-.05-.22-.17-.22-.33,0-.13,0-.25,0-.38,0-.57,0-1.15,0-1.72,0-.33,0-.66,0-1,0-.02,0-.05,0-.07-.01-.05-.05-.08-.1-.09-.06,0-.1.02-.12.07-.01.03-.01.06-.01.09,0,1.02,0,2.05,0,3.07,0,.1-.01.19-.08.26-.1.11-.22.15-.36.12-.14-.03-.23-.13-.27-.26-.01-.04-.02-.09-.02-.14,0-.71,0-1.42,0-2.12,0-1.05,0-2.1,0-3.16,0-.08-.02-.11-.08-.13-.07-.02-.15,0-.19.06-.01.02-.01.03-.01.05,0,.38,0,.75,0,1.13,0,.28,0,.55,0,.83,0,.11-.04.2-.15.25-.1.04-.21.02-.29-.06-.05-.05-.07-.1-.07-.17,0-.71,0-1.42,0-2.13,0-.19.04-.37.14-.53.18-.28.43-.44.77-.45.43-.01.86,0,1.28,0,.44,0,.86.35.96.78.02.1.04.2.04.3,0,.66,0,1.33,0,1.99,0,.14-.06.22-.18.26-.16.05-.31-.05-.32-.22,0-.02,0-.04,0-.06,0-.64,0-1.29,0-1.93,0-.1-.09-.14-.15-.12-.06.01-.09.05-.09.11v2.68Z"/><g class="cls-25"><rect class="cls-19" x="56.32" y="-17.43" width="312.32" height="312.32"/><g class="cls-27"><rect class="cls-13" x="146.92" y="211.07" width="4.64" height="8.29"/></g></g><path class="cls-11" d="M149.22,210.23c.37,0,.67.3.67.67,0,.37-.29.67-.67.67s-.66-.28-.67-.67c0-.38.29-.67.67-.68"/><g class="cls-33"><rect class="cls-19" x="56.32" y="-17.43" width="312.32" height="312.32"/><g class="cls-38"><rect class="cls-13" x="147.83" y="209.51" width="2.78" height="2.79"/></g></g><path class="cls-11" d="M289.38,195.55v1.21s0,.06-.01.08c-.03.08-.13.12-.21.09-.06-.02-.1-.08-.1-.15,0-.06,0-.12,0-.17,0-.26,0-.53,0-.79,0-.15,0-.3,0-.46,0-.01,0-.02,0-.03,0-.02-.02-.04-.05-.04-.03,0-.05,0-.06.03,0,.01,0,.03,0,.04,0,.47,0,.94,0,1.41,0,.04,0,.09-.04.12-.04.05-.1.07-.17.05-.06-.01-.1-.06-.12-.12,0-.02,0-.04,0-.06,0-.32,0-.65,0-.97,0-.48,0-.97,0-1.45,0-.04,0-.05-.04-.06-.03-.01-.07,0-.09.03,0,0,0,.02,0,.02,0,.17,0,.35,0,.52,0,.13,0,.25,0,.38,0,.05-.02.09-.07.11-.04.02-.1,0-.13-.03-.02-.02-.03-.05-.03-.08,0-.33,0-.65,0-.98,0-.09.02-.17.06-.24.08-.13.2-.2.35-.21.2,0,.39,0,.59,0,.2,0,.39.16.44.36.01.05.02.09.02.14,0,.3,0,.61,0,.91,0,.06-.03.1-.08.12-.07.02-.14-.02-.15-.1,0,0,0-.02,0-.03,0-.3,0-.59,0-.89,0-.04-.04-.06-.07-.06-.03,0-.04.02-.04.05v1.23Z"/><g class="cls-32"><rect class="cls-19" x="246.37" y="88.66" width="143.26" height="143.26"/><g class="cls-31"><rect class="cls-13" x="287.93" y="193.47" width="2.13" height="3.8"/></g></g><path class="cls-11" d="M288.98,193.08c.17,0,.31.14.31.31,0,.17-.13.31-.31.31s-.3-.13-.31-.31c0-.18.13-.31.31-.31"/><g class="cls-30"><rect class="cls-19" x="246.37" y="88.66" width="143.26" height="143.26"/><g class="cls-34"><rect class="cls-13" x="288.34" y="192.75" width="1.28" height="1.28"/></g></g><path class="cls-11" d="M139.99,217.24c0,.36,0,.73,0,1.09,0,.11-.04.2-.14.26-.1.06-.21.06-.32,0-.11-.05-.15-.15-.15-.26,0-.71,0-1.42,0-2.13,0-.02,0-.04,0-.06,0-.06-.05-.09-.1-.09-.06,0-.1.04-.1.1v2.15c0,.11-.02.2-.11.27-.11.08-.23.09-.35.03-.12-.05-.16-.16-.17-.28,0-.02,0-.04,0-.06v-2.13q0-.07-.07-.07c-.26,0-.51,0-.76,0-.05,0-.06,0-.04-.05.06-.21.13-.43.2-.64.1-.31.19-.63.29-.94.08-.26.16-.52.24-.79.08-.26.16-.53.24-.79.02-.07,0-.12-.06-.14-.06-.02-.12,0-.14.08-.05.14-.09.29-.14.43-.12.36-.23.71-.35,1.07-.05.15-.1.31-.15.46-.05.16-.18.22-.33.15-.11-.05-.16-.16-.12-.28.1-.34.21-.68.31-1.02.12-.4.24-.8.36-1.2.09-.31.36-.53.68-.57.05,0,.11,0,.16,0,.35,0,.7,0,1.05,0,.19,0,.37.05.52.17.15.12.23.27.28.45.13.47.26.94.38,1.41.07.26.14.53.21.79.03.13-.06.27-.2.28-.13.01-.22-.05-.26-.18-.11-.37-.21-.74-.31-1.11l-.2-.71c-.02-.06-.03-.12-.05-.17-.02-.06-.07-.08-.12-.07-.06.02-.08.06-.07.12.08.31.16.63.24.94.09.35.18.7.27,1.05.1.41.21.82.31,1.23.01.04-.01.04-.04.04-.27,0-.54,0-.81,0-.07,0-.07,0-.07.07v1.1Z"/><g class="cls-36"><rect class="cls-19" x="56.32" y="-17.43" width="312.32" height="312.32"/><g class="cls-35"><rect class="cls-13" x="136.61" y="211.11" width="5.42" height="8.25"/></g></g><path class="cls-11" d="M138.69,210.91c0-.36.28-.68.67-.68s.68.31.68.69c0,.37-.31.68-.68.67-.37,0-.68-.31-.67-.68"/><g class="cls-39"><rect class="cls-19" x="56.32" y="-17.43" width="312.32" height="312.32"/><g class="cls-37"><rect class="cls-13" x="137.97" y="209.51" width="2.8" height="2.81"/></g></g><g class="cls-28"><g class="cls-29"><rect class="cls-14" x="126.49" y="195.39" width="7.55" height="5.15"/></g></g><polyline class="cls-4" points="79.25 180.96 79.25 65.8 120.76 65.8"/><line class="cls-3" x1="138.22" y1="76.5" x2="138.64" y2="74.25"/><polyline class="cls-3" points="141.04 57.9 138.65 74.25 129.97 73.01 130.2 71.68"/><line class="cls-3" x1="127.58" y1="73.06" x2="129.97" y2="73.06"/><line class="cls-3" x1="130.43" y1="69.34" x2="130.57" y2="67.96"/><line class="cls-3" x1="113.84" y1="226" x2="117.14" y2="226"/><line class="cls-3" x1="119.48" y1="226" x2="122.17" y2="226"/><polyline class="cls-3" points="153.74 197.13 153.74 221.74 125.65 221.74 125.65 219.95"/><line class="cls-3" x1="125.65" y1="217.64" x2="125.65" y2="215.2"/><line class="cls-3" x1="125.65" y1="215.68" x2="134.89" y2="215.68"/><line class="cls-3" x1="125.65" y1="212.79" x2="125.65" y2="209.12"/><line class="cls-3" x1="125.65" y1="201.24" x2="134.89" y2="201.24"/><polyline class="cls-3" points="134.89 195.11 134.89 221.74 134.89 239.15"/><polyline class="cls-3" points="144.19 221.74 144.19 207.78 141.54 207.78 141.54 202.38"/><line class="cls-3" x1="138.44" y1="202.38" x2="142.71" y2="202.38"/><line class="cls-3" x1="144.88" y1="202.38" x2="150" y2="202.38"/><line class="cls-3" x1="146.71" y1="202.38" x2="146.71" y2="207.78"/><line class="cls-3" x1="141.27" y1="207.78" x2="146.97" y2="207.78"/><polyline class="cls-3" points="159.75 197.21 153.74 197.21 147.57 197.21 147.57 199.67"/><polyline class="cls-3" points="173.16 197.15 179.13 197.15 179.13 209.6 183.77 209.6"/><polyline class="cls-3" points="206.33 209.6 201.68 209.6 201.68 197.15 195.71 197.15"/><polyline class="cls-3" points="297.81 205.01 294 205.01 294 210.3"/><polyline class="cls-3" points="294 212.38 294 221.69 296.67 221.69 290.68 221.69"/><line class="cls-3" x1="307.55" y1="226.1" x2="304.22" y2="226.1"/><polyline class="cls-3" points="170.07 197.21 170.07 196.77 186.44 196.77 186.44 198.05"/><line class="cls-3" x1="191.26" y1="209.6" x2="191.26" y2="197.15"/><line class="cls-3" x1="170.07" y1="197.15" x2="170.07" y2="209.6"/><line class="cls-3" x1="280.44" y1="180.39" x2="286.92" y2="180.39"/><polyline class="cls-3" points="288.99 180.39 294.92 180.39 294.92 181.44"/><line class="cls-3" x1="290.96" y1="180.39" x2="290.96" y2="187.37"/><polyline class="cls-3" points="284.23 203.39 285.25 203.39 285.25 190.49"/><polyline class="cls-3" points="285.25 198.05 294.07 198.05 294.07 200.41"/><line class="cls-3" x1="294" y1="205.01" x2="294" y2="203.94"/><line class="cls-3" x1="294" y1="207.61" x2="284.23" y2="207.61"/><line class="cls-3" x1="132.41" y1="195.23" x2="135.26" y2="195.23"/><polyline class="cls-3" points="139.82 199.67 139.82 197.13 134.89 197.13"/><polyline class="cls-3" points="125.65 206.72 125.65 201.03 125.65 195.21 129.68 195.21"/><line class="cls-3" x1="292.57" y1="198.05" x2="292.57" y2="196.12"/><line class="cls-3" x1="292.57" y1="193.91" x2="292.57" y2="189.99"/><line class="cls-3" x1="292.57" y1="187.91" x2="292.57" y2="187.37"/><line class="cls-3" x1="292.57" y1="192.06" x2="285.25" y2="192.06"/><path class="cls-3" d="M96.37,189.02s6.72-1.76,7.2-1.72"/><path class="cls-3" d="M109.15,186.4s8.88-.59,9.94-.34"/><line class="cls-3" x1="105.74" y1="186.92" x2="107.11" y2="186.75"/><line class="cls-3" x1="106.42" y1="186.75" x2="107.47" y2="194.34"/><line class="cls-3" x1="96.37" y1="197.15" x2="96.37" y2="200.66"/><line class="cls-3" x1="93.26" y1="197.26" x2="96.37" y2="197.26"/><line class="cls-3" x1="178.26" y1="178.34" x2="144.88" y2="178.34"/><polyline class="cls-3" points="139.3 156.31 139.3 156.31 139.3 164.67 126.07 164.67 109.75 164.67 109.75 181.21 117.94 181.21 117.94 168.76"/><polyline class="cls-3" points="139.3 163.8 141.51 163.8 141.51 178.34"/><polyline class="cls-4" points="128.6 67.96 120.9 67.96 120.9 66.26 120.9 65.8 117.94 65.8"/><polyline class="cls-3" points="137.83 78.76 137.65 80.23 136.82 80.23 138.64 80.46"/><polyline class="cls-3" points="126.62 91.11 126.07 91.11 126.07 95.8 126.07 86.38"/><polyline class="cls-3" points="126.62 109.9 126.07 109.9 126.07 114.59 126.07 105.17"/><polyline class="cls-3" points="126.62 128.68 126.07 128.68 126.07 133.37 126.07 123.95"/><polyline class="cls-3" points="126.62 147.47 126.07 147.47 126.07 152.16 126.07 142.74"/><line class="cls-3" x1="96.37" y1="202.39" x2="96.37" y2="195.65"/><path class="cls-3" d="M116.8,186.02s.69,4.68.96,6.94"/><line class="cls-3" x1="276.86" y1="154.56" x2="274.61" y2="146.78"/><line class="cls-3" x1="281.2" y1="170" x2="281.68" y2="171.79"/><polyline class="cls-3" points="282.37 173.97 282.6 174.96 279.29 175.33 322.55 170.87"/><line class="cls-3" x1="319.56" y1="170.42" x2="319.79" y2="171.16"/><line class="cls-3" x1="319.04" y1="168.44" x2="313.04" y2="147.74"/><line class="cls-3" x1="318.36" y1="166.09" x2="326.16" y2="163.82"/><polyline class="cls-3" points="271.07 158.97 271.64 158.82 272.21 158.66"/><line class="cls-3" x1="271.64" y1="158.82" x2="274.61" y2="169.25"/><polyline class="cls-3" points="274.14 158.04 277.51 157.08 280.55 167.66 268.45 170.9 265.38 160.63 269 159.56"/><polyline class="cls-3" points="341.28 159.95 329.28 162.36 330.29 167.76"/><line class="cls-3" x1="328.17" y1="163.25" x2="329.38" y2="162.89"/><polyline class="cls-3" points="330.72 170.06 330.98 171.46 340.23 169.32"/><line class="cls-3" x1="181.04" y1="186.07" x2="187.32" y2="195.81"/><line class="cls-3" x1="210.2" y1="177.82" x2="210.2" y2="192.43"/><path class="cls-3" d="M184.18,190.94s10.02-8.23,26.02-7.19"/><polyline class="cls-4" points="340.17 180.38 342.1 180.38 342.1 222.38 307.55 222.38 307.55 226.24 309.53 226.24 309.53 239.15 232.25 239.15 111.73 239.15 111.73 226.14 77.41 226.14 77.41 180.13 79.25 180.13"/><polyline class="cls-4" points="127.86 67.97 130.62 67.97 132.92 50.97 142.2 52.16 141.46 58.52 154.79 59.98 156.48 60.15 153.31 82.39 139.25 80.41 139.25 164 141.44 164 141.44 178.2 155.43 178.2 208.42 178.2 206.36 171.38 256.6 157.11 255.7 154.7 291.88 140.16 293.47 145.19 310.56 138.44 313.2 147.58 330.75 140.41 336.45 160.63"/><polyline class="cls-4" points="340.65 171.1 340.65 180.38 342.1 180.38"/><polyline class="cls-4" points="350.51 157.95 336.45 160.92 335.93 158.77"/><polyline class="cls-4" points="347.61 158.56 350.79 157.88 351.33 160.33 352.72 166.5 340.65 169.32 340.65 172.66"/><path class="cls-3" d="M181.92,187.17s13.86-9.34,28.61-7.96"/><line class="cls-7" x1="205.71" y1="179.07" x2="205.96" y2="183.91"/><line class="cls-7" x1="205.06" y1="179.15" x2="205.23" y2="183.98"/><line class="cls-7" x1="204.23" y1="179.22" x2="204.47" y2="184.04"/><line class="cls-7" x1="203.46" y1="179.3" x2="203.82" y2="184.09"/><line class="cls-7" x1="182.7" y1="186.68" x2="185.35" y2="190.57"/><line class="cls-7" x1="183.4" y1="186.25" x2="185.94" y2="190.18"/><line class="cls-7" x1="184.02" y1="185.89" x2="186.46" y2="189.65"/><line class="cls-7" x1="184.8" y1="185.46" x2="187.16" y2="189.42"/><line class="cls-7" x1="185.44" y1="185.12" x2="187.77" y2="189.06"/><line class="cls-7" x1="186.12" y1="184.76" x2="188.38" y2="188.72"/><line class="cls-7" x1="186.8" y1="184.42" x2="188.97" y2="188.41"/><line class="cls-7" x1="189.52" y1="187.99" x2="187.48" y2="184.09"/><line class="cls-7" x1="190.16" y1="187.67" x2="188.26" y2="183.73"/><line class="cls-7" x1="190.87" y1="187.44" x2="188.97" y2="183.41"/><line class="cls-7" x1="191.49" y1="187.09" x2="189.73" y2="183.12"/><line class="cls-7" x1="190.36" y1="182.81" x2="192.03" y2="186.74"/><line class="cls-7" x1="191.09" y1="182.51" x2="192.67" y2="186.42"/><line class="cls-7" x1="191.79" y1="182.24" x2="193.41" y2="186.17"/><line class="cls-7" x1="194.58" y1="181.25" x2="195.01" y2="185.67"/><line class="cls-7" x1="202.64" y1="179.4" x2="203.13" y2="183.91"/><line class="cls-7" x1="201.89" y1="179.51" x2="202.45" y2="183.98"/><line class="cls-7" x1="201.06" y1="179.64" x2="201.76" y2="184.09"/><line class="cls-7" x1="200.25" y1="179.79" x2="201.06" y2="184.2"/><line class="cls-7" x1="199.46" y1="179.95" x2="200.36" y2="184.37"/><line class="cls-7" x1="198.71" y1="180.11" x2="199.66" y2="184.46"/><line class="cls-7" x1="197.93" y1="180.3" x2="198.98" y2="184.63"/><line class="cls-7" x1="197.08" y1="180.52" x2="198.32" y2="184.78"/><line class="cls-7" x1="196.46" y1="180.69" x2="197.58" y2="184.95"/><polyline class="cls-3" points="338.59 169.55 337.79 165.88 347.83 163.72 347.63 162.52 337.56 164.69"/><line class="cls-7" x1="338.59" y1="165.74" x2="339.4" y2="169.42"/><line class="cls-7" x1="339.17" y1="165.44" x2="339.97" y2="169.12"/><line class="cls-7" x1="339.97" y1="165.31" x2="340.78" y2="168.99"/><line class="cls-7" x1="340.6" y1="165.22" x2="341.4" y2="168.9"/><line class="cls-7" x1="341.22" y1="165.12" x2="342.03" y2="168.79"/><line class="cls-7" x1="341.93" y1="164.91" x2="342.73" y2="168.59"/><line class="cls-7" x1="342.59" y1="164.77" x2="343.4" y2="168.45"/><line class="cls-7" x1="343.4" y1="164.69" x2="344.2" y2="168.36"/><line class="cls-7" x1="344.2" y1="164.55" x2="345.01" y2="168.23"/><line class="cls-7" x1="344.78" y1="164.25" x2="345.58" y2="167.93"/><line class="cls-7" x1="345.58" y1="164.12" x2="346.38" y2="167.79"/><line class="cls-7" x1="346.2" y1="164.03" x2="347.01" y2="167.7"/><line class="cls-7" x1="346.83" y1="163.92" x2="347.63" y2="167.6"/><line class="cls-7" x1="337.56" y1="160.85" x2="338.32" y2="164.52"/><line class="cls-7" x1="338.23" y1="160.59" x2="339" y2="164.38"/><line class="cls-7" x1="338.82" y1="160.39" x2="339.68" y2="164.23"/><line class="cls-7" x1="339.57" y1="160.24" x2="340.38" y2="164.03"/><line class="cls-7" x1="340.22" y1="160.35" x2="340.98" y2="164.03"/><line class="cls-7" x1="340.88" y1="160.1" x2="341.65" y2="163.88"/><line class="cls-7" x1="341.48" y1="159.89" x2="342.34" y2="163.74"/><line class="cls-7" x1="342.23" y1="159.74" x2="343.03" y2="163.53"/><line class="cls-7" x1="342.99" y1="159.56" x2="343.76" y2="163.24"/><line class="cls-7" x1="343.66" y1="159.31" x2="344.43" y2="163.09"/><line class="cls-7" x1="344.26" y1="159.1" x2="345.12" y2="162.94"/><line class="cls-7" x1="345.01" y1="158.95" x2="345.81" y2="162.74"/><line class="cls-7" x1="345.65" y1="159.07" x2="346.41" y2="162.74"/><line class="cls-7" x1="346.32" y1="158.81" x2="347.09" y2="162.6"/><polyline class="cls-3" points="136.11 66.52 137.14 56.3 135.95 56.12 134.91 66.37"/><line class="cls-7" x1="136.23" y1="65.71" x2="139.98" y2="66.08"/><line class="cls-7" x1="136.12" y1="65.07" x2="139.87" y2="65.44"/><line class="cls-7" x1="136.24" y1="64.27" x2="139.99" y2="64.63"/><line class="cls-7" x1="136.35" y1="63.65" x2="140.09" y2="64.01"/><line class="cls-7" x1="136.44" y1="63.02" x2="140.19" y2="63.38"/><line class="cls-7" x1="136.47" y1="62.28" x2="140.45" y2="62.65"/><line class="cls-7" x1="136.54" y1="61.61" x2="140.45" y2="61.97"/><line class="cls-7" x1="136.7" y1="60.82" x2="140.45" y2="61.18"/><line class="cls-7" x1="136.82" y1="60.01" x2="140.57" y2="60.38"/><line class="cls-7" x1="136.71" y1="59.37" x2="140.89" y2="59.74"/><line class="cls-7" x1="136.83" y1="58.57" x2="140.89" y2="58.93"/><line class="cls-7" x1="136.94" y1="57.95" x2="140.89" y2="58.31"/><line class="cls-7" x1="137.03" y1="57.32" x2="140.99" y2="57.68"/><line class="cls-7" x1="131.25" y1="65.44" x2="134.98" y2="65.84"/><line class="cls-7" x1="131.21" y1="64.72" x2="135.05" y2="65.16"/><line class="cls-7" x1="131.2" y1="64.1" x2="135.12" y2="64.46"/><line class="cls-7" x1="131.29" y1="63.34" x2="135.14" y2="63.74"/><line class="cls-7" x1="131.59" y1="62.76" x2="135.32" y2="63.16"/><line class="cls-7" x1="131.56" y1="62.04" x2="135.39" y2="62.48"/><line class="cls-7" x1="131.54" y1="61.42" x2="135.47" y2="61.78"/><line class="cls-7" x1="131.63" y1="60.66" x2="135.49" y2="61.06"/><line class="cls-7" x1="131.7" y1="59.87" x2="135.43" y2="60.28"/><line class="cls-7" x1="131.66" y1="59.16" x2="135.5" y2="59.59"/><line class="cls-7" x1="131.65" y1="58.53" x2="135.57" y2="58.89"/><line class="cls-7" x1="131.73" y1="57.77" x2="135.59" y2="58.17"/><line class="cls-7" x1="132.04" y1="57.19" x2="135.77" y2="57.6"/><line class="cls-7" x1="132.01" y1="56.48" x2="135.84" y2="56.91"/><line class="cls-7" x1="137.15" y1="56.73" x2="141.22" y2="57.09"/><line class="cls-7" x1="111.34" y1="198.4" x2="111.75" y2="202.36"/><line class="cls-7" x1="110.62" y1="198.62" x2="111.01" y2="202.47"/><line class="cls-7" x1="109.91" y1="198.61" x2="110.32" y2="202.37"/><line class="cls-7" x1="109.24" y1="198.82" x2="109.75" y2="202.51"/><line class="cls-7" x1="108.55" y1="198.86" x2="108.93" y2="202.65"/><line class="cls-7" x1="107.91" y1="199.04" x2="108.25" y2="202.8"/><line class="cls-7" x1="106.42" y1="199.22" x2="106.77" y2="202.93"/><polygon class="cls-3" points="101.75 200.02 115.69 197.97 115.56 196.73 101.66 198.81 101.75 200.02"/><line class="cls-7" x1="107.14" y1="199.05" x2="107.54" y2="203.02"/><line class="cls-7" x1="106.42" y1="199.28" x2="106.81" y2="203.13"/><line class="cls-7" x1="105.7" y1="199.27" x2="106.12" y2="203.03"/><line class="cls-7" x1="105.05" y1="199.48" x2="105.53" y2="203.17"/><line class="cls-7" x1="104.29" y1="199.53" x2="104.78" y2="203.3"/><line class="cls-7" x1="103.63" y1="199.56" x2="104.12" y2="203.3"/><path class="cls-3" d="M98.67,204.26c7.15-1,14.3-2.01,21.46-3.01-.25-1.72-.51-3.45-.76-5.17"/><polyline class="cls-3" points="99.74 204.12 98.56 204.38 97.6 195.67"/><rect class="cls-16" x="285.52" y="198.35" width="8.24" height="8.97"/><path class="cls-18" d="M289.42,199.67c-.08,0-.15.04-.19.09l-1.84,2.45c-.06.09-.02.2.09.24.03.02.07.02.11.02h3.68s.02,0,.02,0c.13-.01.22-.1.21-.2,0-.02-.01-.05-.03-.07l-1.84-2.45c-.04-.06-.13-.09-.22-.09h0ZM289.43,200.2l1.44,1.91h-2.88l1.44-1.91ZM287.57,202.93c-.13,0-.22.1-.21.19,0,.03.01.05.03.07l1.84,2.45c.06.09.21.12.32.07.04-.02.07-.04.09-.07l1.84-2.45c.06-.09.03-.2-.08-.25-.03-.01-.06-.02-.09-.02,0,0-.02,0-.02,0h-3.68s-.01,0-.02,0h0ZM288,203.29h2.88l-1.44,1.91-1.44-1.91Z"/><rect class="cls-16" x="284.5" y="203.66" width="2.08" height="3.66"/><rect class="cls-16" x="126.03" y="195.48" width="8.41" height="5.33"/><path class="cls-18" d="M130.34,195.74c-.06,0-.12.03-.15.07l-1.43,1.9c-.05.07-.02.15.07.19.03.01.06.02.09.02h2.86s.01,0,.02,0c.1,0,.17-.08.16-.15,0-.02-.01-.04-.02-.05l-1.43-1.9s-.1-.07-.17-.07h0ZM130.35,196.16l1.12,1.49h-2.23l1.12-1.49ZM128.9,198.28c-.1,0-.17.07-.16.15,0,.02.01.04.02.06l1.43,1.9c.05.07.16.09.25.05.03-.01.05-.03.07-.05l1.43-1.9c.05-.07.02-.15-.07-.19-.02,0-.05-.02-.07-.02,0,0-.01,0-.02,0h-2.86s0,0-.01,0h0ZM129.23,198.56h2.23l-1.12,1.49-1.12-1.49Z"/><polyline class="cls-3" points="120.13 201.25 121.59 226 126.69 226"/><line class="cls-3" x1="307.55" y1="192.7" x2="341.28" y2="192.7"/><line class="cls-3" x1="307.55" y1="204.34" x2="307.55" y2="180.91"/><polyline class="cls-3" points="304.22 207.65 326.16 207.65 326.16 193.07 326.16 175.74 307.55 180.39"/><polyline class="cls-3" points="284.71 187.64 276.86 188.5 275.73 180.65"/><line class="cls-3" x1="275.73" y1="193.95" x2="275.73" y2="212.38"/><line class="cls-3" x1="284.25" y1="190.49" x2="284.5" y2="226.1"/><polyline class="cls-3" points="243.05 195.11 254.22 195.11 265.38 195.11"/><line class="cls-3" x1="251.41" y1="212.06" x2="251.41" y2="195.11"/><polyline class="cls-3" points="270.96 199.82 270.96 212.06 231.24 212.06 231.24 199.82"/><polygon class="cls-3" points="225.55 202.36 209.76 202.36 209.76 209.84 225.68 209.84 225.55 202.36"/><polyline class="cls-3" points="126.69 169.76 126.69 181.39 118.94 181.39"/><line class="cls-3" x1="141.44" y1="181.67" x2="129.61" y2="181.67"/><polyline class="cls-3" points="191.26 239.15 191.26 218.64 206.33 218.64 230.61 218.64 230.61 239.15"/><line class="cls-3" x1="204.07" y1="239.15" x2="204.07" y2="218.64"/><line class="cls-3" x1="217.72" y1="239.15" x2="217.72" y2="218.64"/><line class="cls-3" x1="270.96" y1="212.06" x2="270.96" y2="239.15"/><path class="cls-17" d="M163,223.22c0-2.05,1.1-3.22,2.57-3.22s2.57,1.17,2.57,3.22-1.1,3.22-2.57,3.22-2.57-1.17-2.57-3.22ZM167.24,223.22c0-1.61-.68-2.42-1.67-2.42s-1.67.81-1.67,2.42.68,2.42,1.67,2.42,1.67-.81,1.67-2.42Z"/><path class="cls-17" d="M173.43,225.59v.78h-4.53v-.61l2.57-2.48c.67-.65.79-1.04.79-1.44,0-.65-.46-1.04-1.34-1.04-.67,0-1.22.22-1.61.68l-.61-.53c.49-.6,1.32-.95,2.3-.95,1.31,0,2.16.68,2.16,1.76,0,.61-.18,1.16-1.04,1.98l-1.93,1.85h3.23Z"/><path class="cls-17" d="M176.12,220.07v6.3h-.89v-5.52h-1.42v-.78h2.31Z"/><path class="cls-17" d="M182.38,224.46c0,1.22-.98,1.99-2.23,1.99-1.69,0-2.65-1.13-2.65-3.14,0-2.15,1.22-3.3,2.98-3.3.59,0,1.16.12,1.57.37l-.34.7c-.32-.22-.76-.3-1.21-.3-1.28,0-2.1.8-2.1,2.38,0,.07,0,.14,0,.22.36-.54,1.03-.83,1.81-.83,1.25,0,2.16.75,2.16,1.91ZM181.51,224.49c0-.74-.56-1.21-1.44-1.21s-1.45.53-1.45,1.22c0,.65.52,1.22,1.49,1.22.82,0,1.4-.48,1.4-1.22Z"/></svg>