<?xml version="1.0" encoding="UTF-8"?><svg id="Layer_1" xmlns="http://www.w3.org/2000/svg" xmlns:xlink="http://www.w3.org/1999/xlink" viewBox="0 0 432 288"><defs><style>.cls-1,.cls-2,.cls-3,.cls-4,.cls-5,.cls-6{clip-rule:evenodd;}.cls-1,.cls-2,.cls-3,.cls-4,.cls-5,.cls-6,.cls-7,.cls-8,.cls-9,.cls-10,.cls-11,.cls-12,.cls-13,.cls-14,.cls-15,.cls-16,.cls-17,.cls-18,.cls-19,.cls-20,.cls-21,.cls-22{stroke-width:0px;}.cls-1,.cls-23,.cls-24,.cls-21{fill:#f4e982;}.cls-2,.cls-25,.cls-26,.cls-17{fill:#b8d7d7;}.cls-3,.cls-27,.cls-28,.cls-11{fill:#5b629c;}.cls-4,.cls-29,.cls-30,.cls-14{fill:#c8355a;}.cls-5,.cls-31,.cls-32,.cls-16{fill:#a977ab;}.cls-6,.cls-33,.cls-34,.cls-15{fill:#b2d689;}.cls-7{fill:none;}.cls-35,.cls-8,.cls-9,.cls-10,.cls-13,.cls-22{fill:#0e3f41;}.cls-8{clip-path:url(#clippath-2);}.cls-36{clip-path:url(#clippath-1);}.cls-37{clip-path:url(#clippath-4);}.cls-38{clip-path:url(#clippath-3);}.cls-39{clip-path:url(#clippath-7);}.cls-40{clip-path:url(#clippath-8);}.cls-41{clip-path:url(#clippath-6);}.cls-42{clip-path:url(#clippath-5);}.cls-43{clip-path:url(#clippath-9);}.cls-44{clip-path:url(#clippath-20);}.cls-45{clip-path:url(#clippath-21);}.cls-46{clip-path:url(#clippath-24);}.cls-47{clip-path:url(#clippath-23);}.cls-48{clip-path:url(#clippath-22);}.cls-49{clip-path:url(#clippath-25);}.cls-50{clip-path:url(#clippath-27);}.cls-51{clip-path:url(#clippath-28);}.cls-52{clip-path:url(#clippath-26);}.cls-53{clip-path:url(#clippath-29);}.cls-54{clip-path:url(#clippath-34);}.cls-55{clip-path:url(#clippath-35);}.cls-56{clip-path:url(#clippath-39);}.cls-57{clip-path:url(#clippath-33);}.cls-58{clip-path:url(#clippath-32);}.cls-59{clip-path:url(#clippath-30);}.cls-60{clip-path:url(#clippath-38);}.cls-61{clip-path:url(#clippath-31);}.cls-62{clip-path:url(#clippath-13);}.cls-63{clip-path:url(#clippath-10);}.cls-64{clip-path:url(#clippath-15);}.cls-65{clip-path:url(#clippath-17);}.cls-66{clip-path:url(#clippath-16);}.cls-67{clip-path:url(#clippath-19);}.cls-68{clip-path:url(#clippath-11);}.cls-69{clip-path:url(#clippath-18);}.cls-28,.cls-30,.cls-32,.cls-34,.cls-26,.cls-24{fill-rule:evenodd;}.cls-9{clip-path:url(#clippath-14);}.cls-10{clip-path:url(#clippath-12);}.cls-12{fill:#974d22;}.cls-18{fill:#fff;}.cls-19{fill:#fcb13f;}.cls-20{fill:#ecd2d2;}.cls-22{clip-path:url(#clippath);}</style><clipPath id="clippath"><polyline class="cls-6" points="218.03 191.54 218.03 212.15 248.22 212.15 248.22 194.02 243.19 194.02 242.98 191.54"/></clipPath><clipPath id="clippath-1"><polygon class="cls-22" points="248.72 212.65 217.53 212.65 217.53 191.54 218.53 191.54 218.53 211.65 247.72 211.65 247.72 194.52 242.73 194.52 242.48 191.58 243.48 191.5 243.65 193.52 248.72 193.52 248.72 212.65"/></clipPath><clipPath id="clippath-2"><rect class="cls-15" x="60.03" y="-26.97" width="311.94" height="311.94"/></clipPath><clipPath id="clippath-3"><path class="cls-8" d="M372.47,285.47H59.53V-27.47h312.94v312.94ZM60.53,284.47h310.94V-26.47H60.53v310.94Z"/></clipPath><clipPath id="clippath-4"><path class="cls-4" d="M185.09,169.81v21.29l21.09.29v2.58h5.34l64.57.37v-20.48s-10.48-.76-16.55.88c-6.07,1.64-16.64,5.48-22.61,5.48-9.93,0-15.44-6.57-15.44-6.57l-6.62-3.84h-29.78Z"/></clipPath><clipPath id="clippath-5"><rect class="cls-14" x="60.03" y="-25.68" width="311.94" height="309.9"/></clipPath><clipPath id="clippath-6"><rect class="cls-15" x="248.34" y="194.34" width="30.22" height="17.81"/></clipPath><clipPath id="clippath-7"><rect class="cls-15" x="93.91" y="-19.22" width="263.58" height="301.84"/></clipPath><clipPath id="clippath-8"><polyline class="cls-5" points="322.9 155.43 315.32 154.85 314.71 154.74 314.09 159.75 292.73 157.62 292.2 161.28 272.49 158.31 261.46 156.93 260.06 147.61 262.79 147.09 260.7 132.85 258.08 133.31 257.53 126.97 307.03 98.62 317.44 122.26 324.63 118.43"/></clipPath><clipPath id="clippath-9"><rect class="cls-16" x="60.03" y="-26.97" width="311.94" height="311.94"/></clipPath><clipPath id="clippath-10"><polygon class="cls-2" points="138.84 212.15 157.33 212.15 157.33 188.4 151.59 188.4 151.59 192.98 143.79 192.98 143.79 188.4 138.84 188.4 138.84 212.15"/></clipPath><clipPath id="clippath-11"><rect class="cls-17" x="60.03" y="-26.97" width="311.94" height="311.94"/></clipPath><clipPath id="clippath-12"><polygon class="cls-2" points="337.51 150.26 346.26 150.26 346.26 106.05 337.51 106.05 337.51 126.98 340.49 126.98 340.49 134.2 337.51 134.2 337.51 150.26"/></clipPath><clipPath id="clippath-13"><path class="cls-10" d="M346.76,150.76h-9.75v-17.06h2.98v-6.22h-2.98v-21.93h9.75v45.21ZM338.01,149.76h7.75v-43.21h-7.75v19.93h2.98v8.22h-2.98v15.06Z"/></clipPath><clipPath id="clippath-14"><rect class="cls-17" x="60.03" y="-26.97" width="311.94" height="311.94"/></clipPath><clipPath id="clippath-15"><path class="cls-9" d="M372.47,285.47H59.53V-27.47h312.94v312.94ZM60.53,284.47h310.94V-26.47H60.53v310.94Z"/></clipPath><clipPath id="clippath-16"><path class="cls-3" d="M342.86,120.22v2.63c0,.06,0,.12-.02.18-.07.18-.27.26-.46.19-.14-.05-.22-.17-.22-.33,0-.13,0-.25,0-.38,0-.57,0-1.15,0-1.72,0-.33,0-.66,0-1,0-.02,0-.05,0-.07-.01-.05-.05-.08-.1-.09-.06,0-.1.02-.12.07-.01.03-.01.06-.01.09,0,1.02,0,2.05,0,3.07,0,.1-.01.19-.08.26-.1.11-.22.14-.36.11-.14-.03-.23-.13-.27-.26-.01-.04-.02-.09-.02-.14,0-.71,0-1.42,0-2.13,0-1.05,0-2.11,0-3.16,0-.08-.02-.11-.08-.13-.07-.02-.15,0-.19.06-.01.02-.01.03-.01.05,0,.38,0,.75,0,1.13,0,.28,0,.55,0,.83,0,.11-.04.2-.15.25-.1.04-.21.02-.29-.05-.05-.05-.07-.1-.07-.17,0-.71,0-1.42,0-2.13,0-.19.04-.37.14-.53.18-.28.43-.44.77-.45.43-.01.86,0,1.28,0,.44,0,.86.35.96.78.02.1.04.2.04.3,0,.66,0,1.33,0,1.99,0,.14-.06.22-.18.26-.16.05-.31-.05-.32-.22,0-.02,0-.04,0-.06,0-.64,0-1.29,0-1.93,0-.1-.09-.14-.15-.12-.06.01-.09.04-.09.11v2.68Z"/></clipPath><clipPath id="clippath-17"><rect class="cls-11" x="60.03" y="-26.97" width="311.94" height="311.94"/></clipPath><clipPath id="clippath-18"><path class="cls-3" d="M341.98,114.85c.37,0,.67.3.67.67,0,.37-.29.67-.67.67s-.66-.28-.67-.67c0-.38.29-.67.67-.68"/></clipPath><clipPath id="clippath-19"><rect class="cls-11" x="60.03" y="-26.97" width="311.94" height="311.94"/></clipPath><clipPath id="clippath-20"><path class="cls-3" d="M342.63,144.72c0,.36,0,.73,0,1.09,0,.11-.04.2-.14.26-.1.06-.21.06-.32,0-.11-.05-.15-.15-.16-.26,0-.71,0-1.42,0-2.13,0-.02,0-.04,0-.06,0-.06-.05-.09-.1-.09-.06,0-.1.04-.1.1,0,.02,0,.03,0,.05v2.09c0,.11-.02.2-.11.27-.11.08-.23.09-.35.03-.12-.05-.16-.16-.17-.28,0-.02,0-.04,0-.06,0-.71,0-1.42,0-2.13q0-.07-.07-.07c-.25,0-.51,0-.76,0-.05,0-.06,0-.04-.05.06-.21.13-.43.2-.64.1-.31.19-.63.29-.94.08-.26.16-.53.24-.79.08-.26.16-.53.24-.79.02-.07,0-.12-.07-.14-.06-.02-.12,0-.14.08-.05.14-.09.29-.14.43-.12.36-.23.71-.35,1.07-.05.15-.1.31-.15.46-.05.16-.18.22-.33.15-.11-.05-.16-.16-.12-.28.1-.34.21-.68.31-1.02.12-.4.24-.8.37-1.2.09-.31.36-.53.68-.57.05,0,.11,0,.16,0,.35,0,.7,0,1.05,0,.19,0,.37.05.52.17.15.12.23.27.28.45.13.47.25.94.38,1.41.07.26.14.53.21.79.03.13-.06.27-.2.28-.13.01-.22-.05-.26-.18-.11-.37-.21-.74-.31-1.11-.07-.24-.13-.47-.2-.71-.02-.06-.03-.12-.05-.17-.02-.06-.07-.08-.12-.07-.06.02-.08.06-.07.12.08.31.16.63.24.94.09.35.18.7.27,1.05.1.41.21.82.31,1.22.01.04-.01.04-.04.04-.27,0-.54,0-.81,0-.07,0-.07,0-.07.07v1.1h0Z"/></clipPath><clipPath id="clippath-21"><rect class="cls-11" x="60.03" y="-26.97" width="311.94" height="311.94"/></clipPath><clipPath id="clippath-22"><path class="cls-3" d="M341.32,138.39c0-.37.28-.68.67-.68.38,0,.68.31.68.69,0,.37-.31.68-.68.67-.37,0-.68-.31-.67-.68"/></clipPath><clipPath id="clippath-23"><rect class="cls-11" x="60.03" y="-26.97" width="311.94" height="311.94"/></clipPath><clipPath id="clippath-24"><path class="cls-3" d="M153.9,206.03v2.63c0,.06,0,.12-.02.18-.07.18-.27.26-.46.19-.14-.05-.22-.17-.22-.33,0-.13,0-.25,0-.38,0-.57,0-1.15,0-1.72,0-.33,0-.66,0-1,0-.02,0-.05,0-.07-.01-.05-.05-.08-.1-.09-.06,0-.1.02-.12.07-.01.03-.01.06-.01.09,0,1.02,0,2.05,0,3.07,0,.1-.01.19-.08.26-.1.11-.22.15-.36.11-.14-.03-.23-.13-.27-.26-.01-.04-.02-.09-.02-.14,0-.71,0-1.42,0-2.12,0-1.05,0-2.11,0-3.16,0-.08-.02-.11-.08-.13-.07-.02-.15,0-.19.06-.01.02-.01.03-.01.05,0,.38,0,.75,0,1.13,0,.28,0,.55,0,.83,0,.11-.04.2-.15.25-.1.04-.21.02-.29-.06-.05-.05-.07-.1-.07-.17,0-.71,0-1.42,0-2.13,0-.19.04-.37.14-.53.18-.28.43-.44.77-.45.43-.01.86,0,1.28,0,.44,0,.86.35.96.78.02.1.04.2.04.3,0,.66,0,1.33,0,1.99,0,.14-.06.22-.18.26-.16.05-.31-.05-.32-.22,0-.02,0-.04,0-.06,0-.64,0-1.29,0-1.93,0-.1-.09-.14-.15-.12-.06.01-.09.05-.09.11v2.68Z"/></clipPath><clipPath id="clippath-25"><rect class="cls-11" x="60.03" y="-26.97" width="311.94" height="311.94"/></clipPath><clipPath id="clippath-26"><path class="cls-3" d="M153.02,200.67c.37,0,.67.3.67.67,0,.37-.29.67-.67.67s-.66-.28-.67-.67c0-.38.29-.67.67-.68"/></clipPath><clipPath id="clippath-27"><rect class="cls-11" x="60.03" y="-26.97" width="311.94" height="311.94"/></clipPath><clipPath id="clippath-28"><path class="cls-3" d="M143.78,207.67c0,.36,0,.73,0,1.09,0,.11-.04.2-.14.26-.1.06-.21.06-.32,0-.11-.05-.15-.15-.16-.26,0-.71,0-1.42,0-2.13,0-.02,0-.04,0-.06,0-.06-.05-.09-.1-.09-.06,0-.1.04-.1.1,0,.02,0,.03,0,.05v2.09c0,.11-.02.2-.11.27-.11.08-.23.09-.35.03-.12-.05-.16-.16-.17-.28,0-.02,0-.04,0-.06,0-.71,0-1.42,0-2.13q0-.07-.07-.07c-.25,0-.51,0-.76,0-.05,0-.06,0-.04-.05.06-.21.13-.43.2-.64.1-.31.19-.63.29-.94.08-.26.16-.53.24-.79.08-.26.16-.53.24-.79.02-.07,0-.12-.07-.14-.06-.02-.12,0-.14.08-.05.14-.09.29-.14.43-.12.36-.23.71-.35,1.07-.05.15-.1.31-.15.46-.05.16-.18.22-.33.15-.11-.05-.16-.16-.12-.28.1-.34.21-.68.31-1.02.12-.4.24-.8.37-1.2.09-.31.36-.53.68-.57.05,0,.11,0,.16,0,.35,0,.7,0,1.05,0,.19,0,.37.05.52.17.15.12.23.27.28.45.13.47.25.94.38,1.41.07.26.14.53.21.79.03.13-.06.27-.2.28-.13.01-.22-.05-.26-.18-.11-.37-.21-.74-.31-1.11-.07-.24-.13-.47-.2-.71-.02-.06-.03-.12-.05-.17-.02-.06-.07-.08-.12-.07-.06.02-.08.06-.07.12.08.31.16.63.24.94.09.35.18.7.27,1.05.1.41.21.82.31,1.22.01.04-.01.04-.04.04-.27,0-.54,0-.81,0-.07,0-.07,0-.07.07v1.1h0Z"/></clipPath><clipPath id="clippath-29"><rect class="cls-11" x="60.03" y="-26.97" width="311.94" height="311.94"/></clipPath><clipPath id="clippath-30"><path class="cls-3" d="M142.48,201.35c0-.37.28-.68.67-.68.38,0,.68.31.68.69,0,.37-.31.68-.68.67-.37,0-.68-.31-.67-.68"/></clipPath><clipPath id="clippath-31"><rect class="cls-11" x="60.03" y="-26.97" width="311.94" height="311.94"/></clipPath><clipPath id="clippath-32"><path class="cls-13" d="M135.58,190.75s-.02,0-.03,0c-.28,0-.55-.15-.77-.42-.2-.24-.41-.49-.61-.74l-.33-.4c-.12.03-.24.03-.34,0v.3c0,.18,0,.44-.13.7-.19.38-.56.59-.97.54-.48-.05-.81-.41-.86-.9-.02-.21-.03-.41-.04-.62-.22.03-.44-.03-.65-.19-.39-.3-.48-.8-.22-1.19.39-.58.82-1.1,1.29-1.55.23-.22.46-.26.62-.24.27.01.52.16.75.43l.96,1.14c.12-.02.23-.02.34,0v-.33c0-.28,0-1.14.91-1.23.34-.03.55.1.67.21.24.21.35.55.35,1.03v.31c.26-.05.52.02.74.21.38.33.44.84.14,1.21-.37.46-.76.96-1.2,1.42-.22.24-.47.29-.64.29ZM132.44,187.21l.05,1.04c0,.2.02.4.02.6,0,.06,0,.13,0,.19v-1.72s.51.37.51.37l-.47-.55s-.01-.01-.02-.02c-.03.03-.07.07-.1.1ZM134.29,188.97s0,0,0,0c0,0,0,0,0,0ZM136.64,188.42s0,0,0,0t0,0Z"/></clipPath><clipPath id="clippath-33"><path class="cls-13" d="M372.47,285.47H59.53V-27.47h312.94v312.94ZM60.53,284.47h310.94V-26.47H60.53v310.94Z"/></clipPath><clipPath id="clippath-34"><path class="cls-13" d="M295.04,194.86s-.02,0-.03,0c-.28,0-.55-.15-.77-.42-.2-.24-.41-.49-.61-.74l-.33-.4c-.12.03-.24.03-.34,0v.3c0,.18,0,.44-.13.7-.19.38-.54.58-.97.54-.48-.05-.81-.41-.86-.9-.02-.21-.03-.41-.04-.62-.22.03-.45-.03-.65-.19-.39-.3-.48-.8-.22-1.19.39-.58.82-1.1,1.29-1.55.23-.22.46-.26.62-.24.27.01.52.16.75.43l.96,1.14c.12-.02.24-.02.34,0v-.33c0-.28,0-1.14.91-1.23.34-.03.55.1.67.21.24.21.35.55.36,1.03v.31c.26-.05.52.02.74.21.38.33.44.84.14,1.21-.39.49-.77.97-1.2,1.42-.22.24-.47.29-.64.29ZM291.89,191.31l.05,1.04c0,.2.02.4.02.6,0,.06,0,.12,0,.18v-1.71l.51.37-.47-.56s-.01-.01-.02-.02c-.03.03-.07.07-.1.1ZM293.75,193.07s0,0,0,0c0,0,0,0,0,0Z"/></clipPath><clipPath id="clippath-35"><path class="cls-13" d="M372.47,285.47H59.53V-27.47h312.94v312.94ZM60.53,284.47h310.94V-26.47H60.53v310.94Z"/></clipPath><clipPath id="clippath-36"><path class="cls-7" d="M157.9,185.39h-30.37v-13.24l26.77.11s-.06-2.03-.02-2.64c.01-.15,3.62.09,3.61-.01v15.78Z"/></clipPath><clipPath id="clippath-38"><path class="cls-1" d="M157.9,185.39h-30.37v-13.24l26.77.11s-.06-2.03-.02-2.64c.01-.15,3.62.09,3.61-.01v15.78Z"/></clipPath><clipPath id="clippath-39"><rect class="cls-21" x="58.47" y="-26.79" width="318.06" height="311.94"/></clipPath><clipPath id="clippath-40"><path class="cls-7" d="M157.9,185.39h-30.37v-13.24l26.77.11s-.06-2.03-.02-2.64c.01-.15,3.62.09,3.61-.01v15.78Z"/></clipPath></defs><polyline class="cls-34" points="218.03 191.54 218.03 212.15 248.22 212.15 248.22 194.02 243.19 194.02 242.98 191.54"/><polygon class="cls-35" points="248.72 212.65 217.53 212.65 217.53 191.54 218.53 191.54 218.53 211.65 247.72 211.65 247.72 194.52 242.73 194.52 242.48 191.58 243.48 191.5 243.65 193.52 248.72 193.52 248.72 212.65"/><g class="cls-36"><rect class="cls-33" x="60.03" y="-26.97" width="311.94" height="311.94"/><path class="cls-35" d="M372.47,285.47H59.53V-27.47h312.94v312.94ZM60.53,284.47h310.94V-26.47H60.53v310.94Z"/><g class="cls-38"><rect class="cls-15" x="217.3" y="190.82" width="31.64" height="22.06"/><path class="cls-13" d="M249.44,213.37h-32.64v-23.06h32.64v23.06ZM217.8,212.37h30.64v-21.06h-30.64v21.06Z"/></g></g><path class="cls-30" d="M185.09,169.81v21.29l21.09.29v2.58h5.34l64.57.37v-20.48s-10.48-.76-16.55.88c-6.07,1.64-16.64,5.48-22.61,5.48-9.93,0-15.44-6.57-15.44-6.57l-6.62-3.84h-29.78Z"/><g class="cls-37"><rect class="cls-29" x="60.03" y="-25.68" width="311.94" height="309.9"/><g class="cls-42"><rect class="cls-14" x="184.37" y="169.1" width="92.44" height="25.96"/></g></g><rect class="cls-33" x="248.34" y="194.34" width="30.22" height="17.81"/><g class="cls-41"><rect class="cls-33" x="93.91" y="-19.22" width="263.58" height="301.84"/><g class="cls-39"><rect class="cls-15" x="247.73" y="193.64" width="31.44" height="19.21"/></g></g><polyline class="cls-32" points="322.9 155.43 315.32 154.85 314.71 154.74 314.09 159.75 292.73 157.62 292.2 161.28 272.49 158.31 261.46 156.93 260.06 147.61 262.79 147.09 260.7 132.85 258.08 133.31 257.53 126.97 307.03 98.62 317.44 122.26 324.63 118.43"/><g class="cls-40"><rect class="cls-31" x="60.03" y="-26.97" width="311.94" height="311.94"/><g class="cls-43"><rect class="cls-16" x="256.81" y="97.89" width="68.55" height="64.11"/></g></g><polygon class="cls-26" points="138.84 212.15 157.33 212.15 157.33 188.4 151.59 188.4 151.59 192.98 143.79 192.98 143.79 188.4 138.84 188.4 138.84 212.15"/><g class="cls-63"><rect class="cls-25" x="60.03" y="-26.97" width="311.94" height="311.94"/><g class="cls-68"><rect class="cls-17" x="138.12" y="187.68" width="19.93" height="25.19"/></g></g><polygon class="cls-26" points="337.51 150.26 346.26 150.26 346.26 106.05 337.51 106.05 337.51 126.98 340.49 126.98 340.49 134.2 337.51 134.2 337.51 150.26"/><path class="cls-35" d="M346.76,150.76h-9.75v-17.06h2.98v-6.22h-2.98v-21.93h9.75v45.21ZM338.01,149.76h7.75v-43.21h-7.75v19.93h2.98v8.22h-2.98v15.06Z"/><g class="cls-62"><rect class="cls-25" x="60.03" y="-26.97" width="311.94" height="311.94"/><path class="cls-35" d="M372.47,285.47H59.53V-27.47h312.94v312.94ZM60.53,284.47h310.94V-26.47H60.53v310.94Z"/><g class="cls-64"><rect class="cls-17" x="336.79" y="105.33" width="10.19" height="45.66"/><path class="cls-13" d="M347.48,151.48h-11.19v-46.66h11.19v46.66ZM337.29,150.48h9.19v-44.66h-9.19v44.66Z"/></g></g><path class="cls-28" d="M342.86,120.22v2.63c0,.06,0,.12-.02.18-.07.18-.27.26-.46.19-.14-.05-.22-.17-.22-.33,0-.13,0-.25,0-.38,0-.57,0-1.15,0-1.72,0-.33,0-.66,0-1,0-.02,0-.05,0-.07-.01-.05-.05-.08-.1-.09-.06,0-.1.02-.12.07-.01.03-.01.06-.01.09,0,1.02,0,2.05,0,3.07,0,.1-.01.19-.08.26-.1.11-.22.14-.36.11-.14-.03-.23-.13-.27-.26-.01-.04-.02-.09-.02-.14,0-.71,0-1.42,0-2.13,0-1.05,0-2.11,0-3.16,0-.08-.02-.11-.08-.13-.07-.02-.15,0-.19.06-.01.02-.01.03-.01.05,0,.38,0,.75,0,1.13,0,.28,0,.55,0,.83,0,.11-.04.2-.15.25-.1.04-.21.02-.29-.05-.05-.05-.07-.1-.07-.17,0-.71,0-1.42,0-2.13,0-.19.04-.37.14-.53.18-.28.43-.44.77-.45.43-.01.86,0,1.28,0,.44,0,.86.35.96.78.02.1.04.2.04.3,0,.66,0,1.33,0,1.99,0,.14-.06.22-.18.26-.16.05-.31-.05-.32-.22,0-.02,0-.04,0-.06,0-.64,0-1.29,0-1.93,0-.1-.09-.14-.15-.12-.06.01-.09.04-.09.11v2.68Z"/><g class="cls-66"><rect class="cls-27" x="60.03" y="-26.97" width="311.94" height="311.94"/><g class="cls-65"><rect class="cls-11" x="339.68" y="115.7" width="4.63" height="8.29"/></g></g><path class="cls-28" d="M341.98,114.85c.37,0,.67.3.67.67,0,.37-.29.67-.67.67s-.66-.28-.67-.67c0-.38.29-.67.67-.68"/><g class="cls-69"><rect class="cls-27" x="60.03" y="-26.97" width="311.94" height="311.94"/><g class="cls-67"><rect class="cls-11" x="340.59" y="114.13" width="2.78" height="2.79"/></g></g><path class="cls-28" d="M342.63,144.72c0,.36,0,.73,0,1.09,0,.11-.04.2-.14.26-.1.06-.21.06-.32,0-.11-.05-.15-.15-.16-.26,0-.71,0-1.42,0-2.13,0-.02,0-.04,0-.06,0-.06-.05-.09-.1-.09-.06,0-.1.04-.1.1,0,.02,0,.03,0,.05v2.09c0,.11-.02.2-.11.27-.11.08-.23.09-.35.03-.12-.05-.16-.16-.17-.28,0-.02,0-.04,0-.06,0-.71,0-1.42,0-2.13q0-.07-.07-.07c-.25,0-.51,0-.76,0-.05,0-.06,0-.04-.05.06-.21.13-.43.2-.64.1-.31.19-.63.29-.94.08-.26.16-.53.24-.79.08-.26.16-.53.24-.79.02-.07,0-.12-.07-.14-.06-.02-.12,0-.14.08-.05.14-.09.29-.14.43-.12.36-.23.71-.35,1.07-.05.15-.1.31-.15.46-.05.16-.18.22-.33.15-.11-.05-.16-.16-.12-.28.1-.34.21-.68.31-1.02.12-.4.24-.8.37-1.2.09-.31.36-.53.68-.57.05,0,.11,0,.16,0,.35,0,.7,0,1.05,0,.19,0,.37.05.52.17.15.12.23.27.28.45.13.47.25.94.38,1.41.07.26.14.53.21.79.03.13-.06.27-.2.28-.13.01-.22-.05-.26-.18-.11-.37-.21-.74-.31-1.11-.07-.24-.13-.47-.2-.71-.02-.06-.03-.12-.05-.17-.02-.06-.07-.08-.12-.07-.06.02-.08.06-.07.12.08.31.16.63.24.94.09.35.18.7.27,1.05.1.41.21.82.31,1.22.01.04-.01.04-.04.04-.27,0-.54,0-.81,0-.07,0-.07,0-.07.07v1.1h0Z"/><g class="cls-44"><rect class="cls-27" x="60.03" y="-26.97" width="311.94" height="311.94"/><g class="cls-45"><rect class="cls-11" x="339.24" y="138.59" width="5.42" height="8.25"/></g></g><path class="cls-28" d="M341.32,138.39c0-.37.28-.68.67-.68.38,0,.68.31.68.69,0,.37-.31.68-.68.67-.37,0-.68-.31-.67-.68"/><g class="cls-48"><rect class="cls-27" x="60.03" y="-26.97" width="311.94" height="311.94"/><g class="cls-47"><rect class="cls-11" x="340.6" y="136.99" width="2.8" height="2.81"/></g></g><path class="cls-28" d="M153.9,206.03v2.63c0,.06,0,.12-.02.18-.07.18-.27.26-.46.19-.14-.05-.22-.17-.22-.33,0-.13,0-.25,0-.38,0-.57,0-1.15,0-1.72,0-.33,0-.66,0-1,0-.02,0-.05,0-.07-.01-.05-.05-.08-.1-.09-.06,0-.1.02-.12.07-.01.03-.01.06-.01.09,0,1.02,0,2.05,0,3.07,0,.1-.01.19-.08.26-.1.11-.22.15-.36.11-.14-.03-.23-.13-.27-.26-.01-.04-.02-.09-.02-.14,0-.71,0-1.42,0-2.12,0-1.05,0-2.11,0-3.16,0-.08-.02-.11-.08-.13-.07-.02-.15,0-.19.06-.01.02-.01.03-.01.05,0,.38,0,.75,0,1.13,0,.28,0,.55,0,.83,0,.11-.04.2-.15.25-.1.04-.21.02-.29-.06-.05-.05-.07-.1-.07-.17,0-.71,0-1.42,0-2.13,0-.19.04-.37.14-.53.18-.28.43-.44.77-.45.43-.01.86,0,1.28,0,.44,0,.86.35.96.78.02.1.04.2.04.3,0,.66,0,1.33,0,1.99,0,.14-.06.22-.18.26-.16.05-.31-.05-.32-.22,0-.02,0-.04,0-.06,0-.64,0-1.29,0-1.93,0-.1-.09-.14-.15-.12-.06.01-.09.05-.09.11v2.68Z"/><g class="cls-46"><rect class="cls-27" x="60.03" y="-26.97" width="311.94" height="311.94"/><g class="cls-49"><rect class="cls-11" x="150.72" y="201.51" width="4.63" height="8.29"/></g></g><path class="cls-28" d="M153.02,200.67c.37,0,.67.3.67.67,0,.37-.29.67-.67.67s-.66-.28-.67-.67c0-.38.29-.67.67-.68"/><g class="cls-52"><rect class="cls-27" x="60.03" y="-26.97" width="311.94" height="311.94"/><g class="cls-50"><rect class="cls-11" x="151.63" y="199.94" width="2.78" height="2.79"/></g></g><path class="cls-28" d="M143.78,207.67c0,.36,0,.73,0,1.09,0,.11-.04.2-.14.26-.1.06-.21.06-.32,0-.11-.05-.15-.15-.16-.26,0-.71,0-1.42,0-2.13,0-.02,0-.04,0-.06,0-.06-.05-.09-.1-.09-.06,0-.1.04-.1.1,0,.02,0,.03,0,.05v2.09c0,.11-.02.2-.11.27-.11.08-.23.09-.35.03-.12-.05-.16-.16-.17-.28,0-.02,0-.04,0-.06,0-.71,0-1.42,0-2.13q0-.07-.07-.07c-.25,0-.51,0-.76,0-.05,0-.06,0-.04-.05.06-.21.13-.43.2-.64.1-.31.19-.63.29-.94.08-.26.16-.53.24-.79.08-.26.16-.53.24-.79.02-.07,0-.12-.07-.14-.06-.02-.12,0-.14.08-.05.14-.09.29-.14.43-.12.36-.23.71-.35,1.07-.05.15-.1.31-.15.46-.05.16-.18.22-.33.15-.11-.05-.16-.16-.12-.28.1-.34.21-.68.31-1.02.12-.4.24-.8.37-1.2.09-.31.36-.53.68-.57.05,0,.11,0,.16,0,.35,0,.7,0,1.05,0,.19,0,.37.05.52.17.15.12.23.27.28.45.13.47.25.94.38,1.41.07.26.14.53.21.79.03.13-.06.27-.2.28-.13.01-.22-.05-.26-.18-.11-.37-.21-.74-.31-1.11-.07-.24-.13-.47-.2-.71-.02-.06-.03-.12-.05-.17-.02-.06-.07-.08-.12-.07-.06.02-.08.06-.07.12.08.31.16.63.24.94.09.35.18.7.27,1.05.1.41.21.82.31,1.22.01.04-.01.04-.04.04-.27,0-.54,0-.81,0-.07,0-.07,0-.07.07v1.1h0Z"/><g class="cls-51"><rect class="cls-27" x="60.03" y="-26.97" width="311.94" height="311.94"/><g class="cls-53"><rect class="cls-11" x="140.4" y="201.55" width="5.42" height="8.25"/></g></g><path class="cls-28" d="M142.48,201.35c0-.37.28-.68.67-.68.38,0,.68.31.68.69,0,.37-.31.68-.68.67-.37,0-.68-.31-.67-.68"/><g class="cls-59"><rect class="cls-27" x="60.03" y="-26.97" width="311.94" height="311.94"/><g class="cls-61"><rect class="cls-11" x="141.76" y="199.94" width="2.8" height="2.81"/></g></g><path class="cls-13" d="M352.9,166.57v.35h-2.68v-3.79h2.6v.35h-2.2v1.35h1.96v.34h-1.96v1.41h2.28Z"/><path class="cls-13" d="M356.22,166.92l-1.22-1.67-1.22,1.67h-.46l1.44-1.95-1.35-1.84h.46l1.14,1.55,1.14-1.55h.43l-1.34,1.83,1.45,1.96h-.47Z"/><path class="cls-13" d="M357.4,163.13h.4v3.79h-.4v-3.79Z"/><path class="cls-13" d="M359.78,163.47h-1.33v-.35h3.07v.35h-1.33v3.45h-.4v-3.45Z"/><path class="cls-13" d="M71.29,178.05v.35h-2.68v-3.79h2.6v.35h-2.2v1.35h1.96v.34h-1.96v1.41h2.28Z"/><path class="cls-13" d="M75.4,174.6v3.79h-.33l-2.44-3.08v3.08h-.4v-3.79h.33l2.44,3.08v-3.08h.4Z"/><path class="cls-13" d="M77.38,174.95h-1.33v-.35h3.07v.35h-1.33v3.45h-.4v-3.45Z"/><path class="cls-13" d="M82.43,178.05v.35h-2.68v-3.79h2.6v.35h-2.2v1.35h1.96v.34h-1.96v1.41h2.28Z"/><path class="cls-13" d="M85.97,178.4l-.87-1.22c-.1.01-.19.02-.3.02h-1.02v1.2h-.4v-3.79h1.42c.96,0,1.55.49,1.55,1.3,0,.6-.31,1.01-.87,1.19l.93,1.3h-.44ZM85.95,175.9c0-.61-.4-.95-1.16-.95h-1.01v1.9h1.01c.76,0,1.16-.35,1.16-.95Z"/><path class="cls-13" d="M321.49,220.98v.35h-2.68v-3.79h2.6v.35h-2.2v1.35h1.96v.34h-1.96v1.41h2.28Z"/><path class="cls-13" d="M324.82,221.33l-1.22-1.67-1.22,1.67h-.46l1.44-1.95-1.35-1.84h.46l1.14,1.55,1.14-1.55h.43l-1.34,1.83,1.45,1.96h-.47Z"/><path class="cls-13" d="M325.99,217.54h.4v3.79h-.4v-3.79Z"/><path class="cls-13" d="M328.37,217.88h-1.33v-.35h3.07v.35h-1.33v3.45h-.4v-3.45Z"/><path class="cls-13" d="M321.87,103.92v.35h-2.68v-3.79h2.6v.35h-2.2v1.35h1.96v.34h-1.96v1.41h2.28Z"/><path class="cls-13" d="M325.98,100.47v3.79h-.33l-2.44-3.08v3.08h-.4v-3.79h.33l2.44,3.08v-3.08h.4Z"/><path class="cls-13" d="M327.96,100.82h-1.33v-.35h3.07v.35h-1.33v3.45h-.4v-3.45Z"/><path class="cls-13" d="M333.01,103.92v.35h-2.68v-3.79h2.6v.35h-2.2v1.35h1.96v.34h-1.96v1.41h2.28Z"/><path class="cls-13" d="M336.55,104.26l-.87-1.22c-.1.01-.19.02-.3.02h-1.02v1.2h-.4v-3.79h1.42c.96,0,1.55.49,1.55,1.3,0,.6-.31,1.01-.87,1.19l.93,1.3h-.44ZM336.53,101.77c0-.61-.4-.95-1.16-.95h-1.01v1.9h1.01c.76,0,1.16-.35,1.16-.95Z"/><path class="cls-13" d="M297.99,87.21v.35h-2.68v-3.79h2.6v.35h-2.2v1.35h1.96v.34h-1.96v1.41h2.28Z"/><path class="cls-13" d="M301.32,87.55l-1.22-1.67-1.22,1.67h-.46l1.44-1.95-1.35-1.84h.46l1.14,1.55,1.14-1.55h.43l-1.34,1.83,1.45,1.96h-.47Z"/><path class="cls-13" d="M302.49,83.76h.4v3.79h-.4v-3.79Z"/><path class="cls-13" d="M304.87,84.11h-1.33v-.35h3.07v.35h-1.33v3.45h-.4v-3.45Z"/><path class="cls-13" d="M164.21,157.26v.35h-2.68v-3.79h2.6v.35h-2.2v1.35h1.96v.34h-1.96v1.41h2.28Z"/><path class="cls-13" d="M167.54,157.6l-1.22-1.67-1.22,1.67h-.46l1.44-1.95-1.35-1.84h.46l1.14,1.55,1.14-1.55h.43l-1.34,1.83,1.45,1.96h-.47Z"/><path class="cls-13" d="M168.71,153.81h.4v3.79h-.4v-3.79Z"/><path class="cls-13" d="M171.09,154.16h-1.33v-.35h3.07v.35h-1.33v3.45h-.4v-3.45Z"/><path class="cls-13" d="M122.62,51.66v.35h-2.68v-3.79h2.6v.35h-2.2v1.35h1.96v.34h-1.96v1.41h2.28Z"/><path class="cls-13" d="M125.95,52.01l-1.22-1.67-1.22,1.67h-.46l1.44-1.95-1.35-1.84h.46l1.14,1.55,1.14-1.55h.43l-1.34,1.83,1.45,1.96h-.47Z"/><path class="cls-13" d="M127.12,48.21h.4v3.79h-.4v-3.79Z"/><path class="cls-13" d="M129.5,48.56h-1.33v-.35h3.07v.35h-1.33v3.45h-.4v-3.45Z"/><path class="cls-13" d="M86.09,194.3v.35h-2.68v-3.79h2.6v.35h-2.2v1.35h1.96v.34h-1.96v1.41h2.28Z"/><path class="cls-13" d="M89.41,194.64l-1.22-1.67-1.22,1.67h-.46l1.44-1.95-1.35-1.84h.46l1.14,1.55,1.14-1.55h.43l-1.34,1.83,1.45,1.96h-.47Z"/><path class="cls-13" d="M90.59,190.85h.4v3.79h-.4v-3.79Z"/><path class="cls-13" d="M92.96,191.2h-1.33v-.35h3.07v.35h-1.33v3.45h-.4v-3.45Z"/><path class="cls-35" d="M135.58,190.75s-.02,0-.03,0c-.28,0-.55-.15-.77-.42-.2-.24-.41-.49-.61-.74l-.33-.4c-.12.03-.24.03-.34,0v.3c0,.18,0,.44-.13.7-.19.38-.56.59-.97.54-.48-.05-.81-.41-.86-.9-.02-.21-.03-.41-.04-.62-.22.03-.44-.03-.65-.19-.39-.3-.48-.8-.22-1.19.39-.58.82-1.1,1.29-1.55.23-.22.46-.26.62-.24.27.01.52.16.75.43l.96,1.14c.12-.02.23-.02.34,0v-.33c0-.28,0-1.14.91-1.23.34-.03.55.1.67.21.24.21.35.55.35,1.03v.31c.26-.05.52.02.74.21.38.33.44.84.14,1.21-.37.46-.76.96-1.2,1.42-.22.24-.47.29-.64.29ZM132.44,187.21l.05,1.04c0,.2.02.4.02.6,0,.06,0,.13,0,.19v-1.72s.51.37.51.37l-.47-.55s-.01-.01-.02-.02c-.03.03-.07.07-.1.1ZM134.29,188.97s0,0,0,0c0,0,0,0,0,0ZM136.64,188.42s0,0,0,0t0,0Z"/><g class="cls-58"><path class="cls-35" d="M372.47,285.47H59.53V-27.47h312.94v312.94ZM60.53,284.47h310.94V-26.47H60.53v310.94Z"/><g class="cls-57"><rect class="cls-18" x="130.28" y="185.83" width="7.55" height="5.15"/><path class="cls-13" d="M138.33,191.48h-8.55v-6.15h8.55v6.15ZM130.78,190.48h6.55v-4.15h-6.55v4.15Z"/></g></g><path class="cls-35" d="M295.04,194.86s-.02,0-.03,0c-.28,0-.55-.15-.77-.42-.2-.24-.41-.49-.61-.74l-.33-.4c-.12.03-.24.03-.34,0v.3c0,.18,0,.44-.13.7-.19.38-.54.58-.97.54-.48-.05-.81-.41-.86-.9-.02-.21-.03-.41-.04-.62-.22.03-.45-.03-.65-.19-.39-.3-.48-.8-.22-1.19.39-.58.82-1.1,1.29-1.55.23-.22.46-.26.62-.24.27.01.52.16.75.43l.96,1.14c.12-.02.24-.02.34,0v-.33c0-.28,0-1.14.91-1.23.34-.03.55.1.67.21.24.21.35.55.36,1.03v.31c.26-.05.52.02.74.21.38.33.44.84.14,1.21-.39.49-.77.97-1.2,1.42-.22.24-.47.29-.64.29ZM291.89,191.31l.05,1.04c0,.2.02.4.02.6,0,.06,0,.12,0,.18v-1.71l.51.37-.47-.56s-.01-.01-.02-.02c-.03.03-.07.07-.1.1ZM293.75,193.07s0,0,0,0c0,0,0,0,0,0Z"/><g class="cls-54"><path class="cls-35" d="M372.47,285.47H59.53V-27.47h312.94v312.94ZM60.53,284.47h310.94V-26.47H60.53v310.94Z"/><g class="cls-55"><rect class="cls-18" x="289.74" y="189.93" width="7.55" height="5.15"/><path class="cls-13" d="M297.79,195.58h-8.55v-6.15h8.55v6.15ZM290.24,194.58h6.55v-4.15h-6.55v4.15Z"/></g></g><rect class="cls-13" x="177.05" y="206.97" width="6.78" height=".75"/><rect class="cls-13" x="174.02" y="206.97" width=".87" height=".75"/><rect class="cls-13" x="177.05" y="191.16" width="6.78" height=".75"/><polygon class="cls-13" points="174.39 212.19 173.64 212.19 173.64 191.3 174.89 191.3 174.89 192.05 174.39 192.05 174.39 212.19"/><rect class="cls-13" x="168.37" y="191.3" width="5.65" height=".75"/><rect class="cls-13" x="157.53" y="191.3" width="6.29" height=".75"/><polygon class="cls-13" points="346.56 150.76 337.26 150.76 337.26 133.81 340.61 133.81 340.61 134.56 338.01 134.56 338.01 150.01 345.81 150.01 345.81 130.98 340.98 130.98 340.98 131.5 340.23 131.5 340.23 130.23 346.56 130.23 346.56 150.76"/><polygon class="cls-13" points="346.56 130.98 340.23 130.98 340.23 129.71 340.98 129.71 340.98 130.23 345.81 130.23 345.81 111.19 338.01 111.19 338.01 126.64 340.61 126.64 340.61 127.39 337.26 127.39 337.26 110.44 346.56 110.44 346.56 130.98"/><rect class="cls-13" x="135.96" y="146.49" width="13.97" height=".75"/><polygon class="cls-13" points="154.45 146.87 153.7 146.87 153.7 97.34 136.34 97.34 136.34 118.84 135.59 118.84 135.59 96.59 154.45 96.59 154.45 146.87"/><rect class="cls-13" x="135.96" y="122.09" width="13.97" height=".75"/><rect class="cls-13" x="135.59" y="121" width=".75" height="2.62"/><rect class="cls-13" x="152.37" y="122.09" width="1.7" height=".75"/><rect class="cls-13" x="275.56" y="190.99" width=".75" height="3.03"/><polygon class="cls-13" points="276.31 188.71 275.56 188.71 275.56 173.1 278.55 173.1 278.55 173.85 276.31 173.85 276.31 188.71"/><polygon class="cls-13" points="289.1 194.4 278.18 194.4 278.18 170.41 282.55 170.41 282.55 171.16 278.93 171.16 278.93 193.65 289.1 193.65 289.1 194.4"/><rect class="cls-13" x="284.92" y="170.41" width="5.47" height=".75"/><polygon class="cls-13" points="298.3 172.01 297.55 172.01 297.55 171.16 292.73 171.16 292.73 170.41 298.3 170.41 298.3 172.01"/><rect class="cls-13" x="297.55" y="174.31" width=".75" height="8.1"/><rect class="cls-13" x="293.65" y="170.79" width=".75" height="10.31"/><rect class="cls-13" x="278.55" y="180.46" width="19.37" height=".75"/><polygon class="cls-13" points="298.3 188.83 289.1 188.83 289.1 188.08 297.55 188.08 297.55 186.99 298.3 186.99 298.3 188.83"/><polygon class="cls-13" points="298.3 204.19 288.73 203.94 288.73 180.83 289.48 180.83 289.48 203.21 297.55 203.42 297.55 203.3 298.3 203.3 298.3 204.19"/><polygon class="cls-13" points="298.3 212.52 278.55 212.52 278.55 211.77 297.55 211.77 297.55 208.77 298.3 208.77 298.3 212.52"/><rect class="cls-13" x="297.55" y="198.25" width=".75" height="2.48"/><rect class="cls-13" x="303.57" y="194.94" width=".75" height="9.05"/><rect class="cls-13" x="303.95" y="198.1" width="8.23" height=".75"/><polygon class="cls-13" points="324.73 202.06 323.98 202.06 323.98 198.85 316.68 198.85 316.68 198.1 324.73 198.1 324.73 202.06"/><polygon class="cls-13" points="310.75 212.87 303.57 212.87 303.57 208.77 304.32 208.77 304.32 212.12 310.75 212.12 310.75 212.87"/><polygon class="cls-13" points="128.43 164.72 127.69 164.66 129.13 148 127.09 148 127.09 147.25 129.95 147.25 128.43 164.72"/><polygon class="cls-13" points="127.86 172.27 123.82 172.27 123.82 163.54 124.57 163.54 124.57 171.52 127.16 171.52 127.51 166.85 128.26 166.9 127.86 172.27"/><polygon class="cls-13" points="128.13 164.2 105 164.2 105 142.63 127.54 142.63 127.54 144.94 126.79 144.94 126.79 143.38 105.75 143.38 105.75 163.45 128.13 163.45 128.13 164.2"/><polygon class="cls-13" points="127.19 138.6 105 138.6 105 82.2 127.19 82.2 127.19 82.95 105.75 82.95 105.75 137.85 127.19 137.85 127.19 138.6"/><polygon class="cls-13" points="129.86 133.23 127.19 133.23 127.19 132.48 129.11 132.48 129.11 88.6 127.19 88.6 127.19 87.85 129.86 87.85 129.86 133.23"/><rect class="cls-13" x="105.38" y="110.03" width="24.11" height=".75"/><polygon class="cls-13" points="121.17 77.67 102.96 77.67 102.96 56.2 103.71 56.2 103.71 76.92 121.17 76.92 121.17 77.67"/><rect class="cls-13" x="83.02" y="146.49" width="19.39" height=".75"/><rect class="cls-13" x="100.71" y="141.95" width=".75" height="4.92"/><polygon class="cls-13" points="101.46 139.65 100.71 139.65 100.71 138.97 83.02 138.97 83.02 138.22 100.71 138.22 100.71 137.82 101.46 137.82 101.46 139.65"/><rect class="cls-13" x="100.71" y="125.55" width=".75" height="9.88"/><rect class="cls-13" x="83.02" y="130.21" width="18.06" height=".55"/><polygon class="cls-13" points="101.46 123.39 100.71 123.39 100.71 122.75 83.02 122.75 83.02 122 100.71 122 100.71 121.41 101.46 121.41 101.46 123.39"/><rect class="cls-13" x="100.71" y="109.14" width=".75" height="9.88"/><rect class="cls-13" x="83.02" y="113.91" width="18.06" height=".75"/><polygon class="cls-13" points="101.46 106.92 100.71 106.92 100.71 106.37 83.02 106.37 83.02 105.62 101.46 105.62 101.46 106.92"/><rect class="cls-13" x="100.71" y="105.09" width=".75" height=".9"/><polygon class="cls-13" points="101.46 102.82 100.71 102.82 100.71 98.33 83.02 98.33 83.02 97.58 101.46 97.58 101.46 102.82"/><rect class="cls-13" x="100.71" y="92.93" width=".75" height="5.03"/><polygon class="cls-13" points="101.46 90.62 100.71 90.62 100.71 90.13 83.02 90.13 83.02 89.38 101.46 89.38 101.46 90.62"/><rect class="cls-13" x="100.71" y="88.9" width=".75" height=".86"/><polygon class="cls-13" points="101.46 86.52 100.71 86.52 100.71 81.41 83.02 81.41 83.02 80.66 101.46 80.66 101.46 86.52"/><polygon class="cls-13" points="101.46 78.31 100.71 78.31 100.71 76.92 103.33 76.92 103.33 77.67 101.46 77.67 101.46 78.31"/><polygon class="cls-13" points="90.25 175.04 90.04 172.82 82.02 172.82 82.02 55.2 125.54 55.2 125.54 57.43 126.82 57.43 126.82 59.43 123.54 59.43 123.54 57.2 84.02 57.2 84.02 170.82 91.86 170.82 92.24 174.85 90.25 175.04"/><polygon class="cls-13" points="314.44 230.87 114.42 230.87 114.42 215.45 116.63 215.45 116.63 213.77 93.94 213.77 97.15 193.28 99.13 193.6 96.28 211.77 118.63 211.77 118.63 217.45 116.42 217.45 116.42 228.87 312.44 228.87 312.44 221.59 314.44 221.59 314.44 230.87"/><polygon class="cls-13" points="345.46 163.76 343.46 163.76 343.46 158.97 355.33 156.19 353.84 149.53 345.18 151.66 345.18 107.43 337.64 107.43 337.64 105.43 347.18 105.43 347.18 149.11 355.35 147.1 357.72 157.68 345.46 160.55 345.46 163.76"/><polygon class="cls-13" points="314.44 218.88 312.44 218.88 312.44 217.81 310.58 217.81 310.58 211.97 324.02 211.78 324.02 201.71 345.18 201.71 345.18 171.86 343.39 171.86 343.39 168.72 345.39 168.72 345.39 169.86 347.18 169.86 347.18 203.71 326.02 203.71 326.02 213.76 312.58 213.94 312.58 215.81 314.44 215.81 314.44 218.88"/><polygon class="cls-13" points="99.58 190.81 97.62 190.43 98.41 186.42 91.27 187.38 90.9 184.79 92.88 184.5 92.97 185.13 100.91 184.07 99.58 190.81"/><polygon class="cls-13" points="161.84 169.79 153.07 169.79 153.07 105.13 159.45 105.13 164.09 71.56 154.64 70.34 157.39 51.24 144.09 49.79 144.83 43.41 137.51 42.47 135.23 59.36 131.6 59.36 131.6 57.36 133.48 57.36 135.8 40.24 147.04 41.68 146.31 48.02 159.67 49.48 156.91 68.62 166.35 69.83 161.19 107.13 155.07 107.13 155.07 167.79 161.84 167.79 161.84 169.79"/><polygon class="cls-13" points="163.07 169.62 161.07 169.62 161.07 160.67 163.54 160.67 163.54 162.67 163.07 162.67 163.07 169.62"/><polygon class="cls-13" points="170.42 169.62 168.42 169.62 168.42 162.67 167.95 162.67 167.95 160.67 170.42 160.67 170.42 169.62"/><polygon class="cls-13" points="177.64 169.79 169.42 169.79 169.42 167.79 175.64 167.79 175.64 164.21 211.06 154.71 213.53 163.21 254.89 150.91 251.05 126.8 284.48 108.44 281.57 102.46 304.73 90.42 305.65 92.19 284.22 103.34 287.11 109.28 253.25 127.88 257.14 152.32 212.18 165.7 209.69 157.15 177.64 165.74 177.64 169.79"/><polygon class="cls-13" points="325.82 119.84 320.31 119.84 307.17 89.64 309 88.84 321.62 117.84 325.82 117.84 325.82 119.84"/><polygon class="cls-13" points="338.22 119.84 336.03 119.84 336.03 117.84 336.22 117.84 336.22 105.43 339.96 105.43 339.96 107.43 338.22 107.43 338.22 119.84"/><rect class="cls-13" x="142.85" y="70.31" width=".75" height="26.65"/><polygon class="cls-13" points="124.92 77.67 123.51 77.67 123.51 76.92 124.17 76.92 124.17 58.43 124.92 58.43 124.92 77.67"/><polygon class="cls-13" points="155.67 72.43 137.84 69.9 137.95 69.15 155.05 71.58 155.4 69.42 156.14 69.54 155.67 72.43"/><rect class="cls-13" x="137.69" y="64.94" width="2.29" height=".75" transform="translate(49.49 190.06) rotate(-79.58)"/><polygon class="cls-13" points="142.76 65.08 133.32 63.73 133.62 62.02 134.36 62.14 134.19 63.1 142.13 64.23 144.46 48.24 145.21 48.35 142.76 65.08"/><rect class="cls-13" x="124.54" y="63.08" width="2.27" height=".75"/><rect class="cls-13" x="131.37" y="63.08" width="2.39" height=".75"/><rect class="cls-13" x="133.59" y="58.67" width="1.39" height=".75" transform="translate(62.07 186.74) rotate(-84.24)"/><rect class="cls-13" x="91.35" y="171.52" width="35.16" height=".75"/><rect class="cls-13" x="105" y="163.54" width=".75" height="8.52"/><rect class="cls-13" x="117.63" y="216.07" width="3.3" height=".75"/><rect class="cls-13" x="123.27" y="216.07" width="2.69" height=".75"/><rect class="cls-13" x="128.16" y="216.07" width="9.69" height=".75"/><rect class="cls-13" x="124.24" y="216.45" width=".75" height="13.59"/><rect class="cls-13" x="132.63" y="216.45" width=".75" height="13.42"/><polygon class="cls-13" points="141.74 229.87 140.99 229.87 140.99 216.82 140.05 216.82 140.05 216.07 141.74 216.07 141.74 229.87"/><polygon class="cls-13" points="153.63 220.87 141.37 220.87 141.37 220.12 152.88 220.12 152.88 216.15 153.63 216.15 153.63 220.87"/><rect class="cls-13" x="153.26" y="220.12" width="1.52" height=".75"/><rect class="cls-13" x="157.01" y="220.12" width=".69" height=".75"/><polygon class="cls-13" points="158.08 229.87 157.33 229.87 157.33 216.07 162.18 216.07 162.18 216.82 158.08 216.82 158.08 229.87"/><rect class="cls-13" x="164.53" y="216.07" width="2.65" height=".75"/><polygon class="cls-13" points="174.39 229.87 173.64 229.87 173.64 216.82 169.46 216.82 169.46 216.07 174.39 216.07 174.39 229.87"/><rect class="cls-13" x="174.02" y="220.12" width=".87" height=".75"/><rect class="cls-13" x="177.08" y="220.12" width="13.27" height=".75"/><rect class="cls-13" x="178.04" y="216.18" width=".75" height="4.45"/><rect class="cls-13" x="189.97" y="216.18" width=".75" height="13.42"/><rect class="cls-13" x="190.48" y="216.07" width=".62" height=".75"/><rect class="cls-13" x="193.48" y="216.07" width="8" height=".75"/><rect class="cls-13" x="198.17" y="216.45" width=".75" height="13.42"/><rect class="cls-13" x="203.79" y="216.07" width="9.93" height=".75"/><rect class="cls-13" x="206.31" y="215.18" width=".75" height="14.68"/><rect class="cls-13" x="206.31" y="212.15" width=".75" height=".97"/><rect class="cls-13" x="215.99" y="216.07" width="12.37" height=".75"/><rect class="cls-13" x="222.61" y="216.45" width=".75" height="13.42"/><polygon class="cls-13" points="231.53 229.87 230.78 229.87 230.78 216.82 230.57 216.82 230.57 216.07 231.81 216.07 231.81 216.82 231.53 216.82 231.53 229.87"/><rect class="cls-13" x="234.02" y="216.07" width="18.1" height=".75"/><rect class="cls-13" x="238.92" y="216.45" width=".75" height="13.42"/><rect class="cls-13" x="254.29" y="216.07" width="2.69" height=".75"/><rect class="cls-13" x="255.26" y="216.45" width=".75" height="13.42"/><rect class="cls-13" x="259.29" y="216.07" width="25.4" height=".75"/><rect class="cls-13" x="271.61" y="216.6" width=".75" height="13.27"/><rect class="cls-13" x="286.96" y="216.22" width="2.83" height=".75"/><rect class="cls-13" x="287.87" y="216.6" width=".75" height="13.27"/><rect class="cls-13" x="291.89" y="216.22" width="13.62" height=".75"/><rect class="cls-13" x="304.24" y="216.6" width=".75" height="13.27"/><rect class="cls-13" x="307.72" y="216.22" width="3.86" height=".75"/><rect class="cls-13" x="304.61" y="222.49" width=".69" height=".75"/><rect class="cls-13" x="307.35" y="222.49" width="6.09" height=".75"/><polygon class="cls-13" points="298.44 198.39 289.1 198.39 289.1 197.64 297.69 197.64 297.69 194.76 298.44 194.76 298.44 198.39"/><rect class="cls-13" x="297.55" y="188.46" width=".75" height="2.37"/><rect class="cls-13" x="303.57" y="175.03" width=".75" height="15.34"/><polygon class="cls-13" points="315.09 182.51 314.34 182.51 314.34 169.34 304.32 169.34 304.32 172.75 303.57 172.75 303.57 168.59 315.09 168.59 315.09 182.51"/><polygon class="cls-13" points="315.09 188.12 303.95 188.12 303.95 187.37 314.34 187.37 314.34 184.85 315.09 184.85 315.09 188.12"/><rect class="cls-13" x="314.71" y="187.37" width=".66" height=".75"/><rect class="cls-13" x="317.5" y="187.37" width="28.68" height=".75"/><rect class="cls-13" x="328.68" y="184.85" width=".75" height="2.9"/><rect class="cls-13" x="328.68" y="175.41" width=".75" height="7.31"/><rect class="cls-13" x="338.92" y="159.92" width="5.6" height=".75" transform="translate(-24.48 68.82) rotate(-11.11)"/><polygon class="cls-13" points="334.49 162.35 332.65 152.5 345.01 150.02 345.16 150.75 333.52 153.09 335.08 161.44 336.5 161.12 336.66 161.85 334.49 162.35"/><rect class="cls-13" x="334.95" y="161.77" width=".75" height="2.17"/><rect class="cls-13" x="334.95" y="168.52" width=".75" height="2.6"/><rect class="cls-13" x="333.57" y="170.74" width="10.55" height=".75"/><rect class="cls-13" x="333.4" y="170.88" width=".75" height=".8"/><polygon class="cls-13" points="334.15 175.78 323.37 175.78 323.37 169.34 314.71 169.34 314.71 168.59 324.12 168.59 324.12 175.03 333.4 175.03 333.4 174.24 334.15 174.24 334.15 175.78"/><polygon class="cls-13" points="323.06 155.55 320.33 155.31 320.4 154.56 322.36 154.73 324.25 118.82 325 118.86 323.06 155.55"/><polygon class="cls-13" points="257.58 168.55 256.85 162.91 257.59 162.81 258.23 167.72 270.79 166.11 272.18 157.89 291.89 160.85 292.41 157.21 313.86 159.35 314.34 154.62 315.09 154.7 314.53 160.17 293.05 158.03 292.52 161.7 272.8 158.74 271.43 166.78 257.58 168.55"/><rect class="cls-13" x="256.35" y="155.47" width=".75" height="6.42" transform="translate(-21.16 40.92) rotate(-8.75)"/><rect class="cls-13" x="255.41" y="151.71" width=".75" height="1.56" transform="translate(-22.98 47.75) rotate(-10.21)"/><polygon class="cls-13" points="272.44 158.68 261.13 157.27 259.63 147.28 262.39 146.92 260.38 133.29 257.74 133.75 257.13 126.76 307.2 98.08 317.62 121.76 323.55 118.96 323.87 119.63 317.25 122.76 317.09 122.41 306.85 99.15 257.92 127.18 258.42 132.87 261.01 132.42 263.24 147.56 260.48 147.93 261.79 156.6 272.54 157.94 272.44 158.68"/><rect class="cls-13" x="324.24" y="125.86" width="1.75" height=".75"/><rect class="cls-13" x="335.27" y="125.86" width="2.46" height=".75"/><polygon class="cls-13" points="316.18 155.23 314.17 155.08 314.04 146.37 316.23 146.42 316.21 147.17 314.8 147.14 314.91 154.38 316.24 154.48 316.18 155.23"/><polygon class="cls-13" points="323.11 147.58 320.75 147.41 320.81 146.66 323.17 146.83 323.11 147.58"/><polygon class="cls-13" points="215.6 170.44 184.54 170.44 184.54 169.69 214.56 169.69 212.59 163.87 213.3 163.63 215.6 170.44"/><polygon class="cls-13" points="125.75 212.52 117.63 212.52 117.63 211.77 125 211.77 125 209.57 125.75 209.57 125.75 212.52"/><polygon class="cls-13" points="125.75 207.29 125 207.29 125 199.81 97.2 199.81 97.2 199.06 125.75 199.06 125.75 207.29"/><polygon class="cls-13" points="97.91 195.59 97.81 194.84 123.39 191.25 122.69 186.46 123.43 186.35 124.25 191.89 97.91 195.59"/><polygon class="cls-13" points="125.75 199.43 125 199.43 125 188.01 123.24 188.01 123.24 187.26 125.75 187.26 125.75 199.43"/><rect class="cls-13" x="108.49" y="172.06" width=".75" height="1.42" transform="translate(-16.24 11.37) rotate(-5.56)"/><rect class="cls-13" x="99.58" y="184.37" width="23.32" height=".75" transform="translate(-20.43 13.96) rotate(-6.58)"/><rect class="cls-13" x="109.53" y="182.89" width=".75" height="2.01" transform="translate(-2.93 1.78) rotate(-.92)"/><polygon class="cls-13" points="157.91 212.56 129.06 212.56 129.06 210.39 129.81 210.39 129.81 211.81 157.16 211.81 157.16 185.54 157.91 185.54 157.91 212.56"/><rect class="cls-13" x="129.06" y="205.64" width=".75" height="2.45"/><rect class="cls-13" x="129.44" y="205.74" width="9.24" height=".75"/><rect class="cls-13" x="129.06" y="199.56" width=".75" height="3.66"/><rect class="cls-13" x="129.44" y="191.4" width="9.24" height=".55"/><rect class="cls-13" x="138.3" y="185.54" width=".75" height="26.64"/><rect class="cls-13" x="138.68" y="188.03" width="5.1" height=".75"/><polygon class="cls-13" points="148.36 212.18 147.61 212.18 147.61 198.59 144.95 198.59 144.95 192.81 145.7 192.81 145.7 197.84 148.36 197.84 148.36 212.18"/><rect class="cls-13" x="142.23" y="192.44" width="4.27" height=".75"/><rect class="cls-13" x="148.67" y="192.44" width="5.12" height=".75"/><rect class="cls-13" x="150.12" y="192.81" width=".75" height="5.41"/><rect class="cls-13" x="145.06" y="197.84" width="5.7" height=".75"/><path class="cls-13" d="M223.65,171.86l-.48-.57c.15-.13,15.2-12.62,34.41-9.7l-.11.74c-18.87-2.86-33.67,9.41-33.82,9.54Z"/><polygon class="cls-13" points="231.64 179.84 225.35 170.1 225.99 169.7 232.27 179.43 231.64 179.84"/><rect class="cls-13" x="254.46" y="161.64" width=".75" height="14.62"/><path class="cls-13" d="M236.07,180.36c-3.54,0-5.84-.34-5.9-.35l.12-.74c.14.02,14.16,2.11,26.38-4.24l.35.67c-7.48,3.88-15.61,4.66-20.94,4.66Z"/><path class="cls-13" d="M228.91,174.88l-.19-.23c.1-.08,10.27-8.25,26.13-7.23l-.02.3c-15.76-1.03-25.82,7.08-25.92,7.16Z"/><path class="cls-13" d="M226.65,171.21l-.42-.62c.14-.09,14.15-9.4,28.87-8.02l-.07.75c-14.44-1.35-28.24,7.81-28.38,7.9Z"/><rect class="cls-13" x="250.22" y="162.8" width=".3" height="4.85" transform="translate(-7.91 12.67) rotate(-2.85)"/><polygon class="cls-13" points="249.61 167.72 249.44 162.89 249.74 162.88 249.91 167.71 249.61 167.72"/><rect class="cls-13" x="248.73" y="162.95" width=".3" height="4.82" transform="translate(-7.87 12.5) rotate(-2.83)"/><rect class="cls-13" x="248.02" y="163.02" width=".3" height="4.81" transform="translate(-11.67 19.02) rotate(-4.29)"/><polygon class="cls-13" points="229.75 174.39 227.09 170.49 227.34 170.33 230 174.22 229.75 174.39"/><rect class="cls-13" x="229.04" y="169.61" width=".3" height="4.67" transform="translate(-56.64 152.05) rotate(-32.9)"/><polygon class="cls-13" points="230.86 173.46 228.42 169.71 228.67 169.55 231.11 173.3 230.86 173.46"/><rect class="cls-13" x="230.35" y="168.87" width=".3" height="4.6" transform="translate(-55.16 142.42) rotate(-30.85)"/><rect class="cls-13" x="230.98" y="168.53" width=".3" height="4.58" transform="translate(-54.76 141.38) rotate(-30.59)"/><rect class="cls-13" x="231.63" y="168.2" width=".3" height="4.56" transform="translate(-53.98 136.88) rotate(-29.63)"/><polygon class="cls-13" points="233.36 172.22 231.2 168.23 231.46 168.08 233.63 172.07 233.36 172.22"/><rect class="cls-13" x="232.88" y="167.58" width=".3" height="4.4" transform="translate(-52.1 127.02) rotate(-27.55)"/><rect class="cls-13" x="233.59" y="167.24" width=".3" height="4.38" transform="translate(-50.4 118.38) rotate(-25.75)"/><rect class="cls-13" x="234.3" y="166.92" width=".3" height="4.46" transform="translate(-49.79 116.34) rotate(-25.28)"/><polygon class="cls-13" points="235.88 170.89 234.12 166.91 234.39 166.79 236.16 170.76 235.88 170.89"/><rect class="cls-13" x="235.57" y="166.37" width=".3" height="4.28" transform="translate(-47.14 105.66) rotate(-23.03)"/><rect class="cls-13" x="236.26" y="166.09" width=".3" height="4.21" transform="translate(-45.8 100.84) rotate(-22.01)"/><rect class="cls-13" x="236.98" y="165.81" width=".3" height="4.25" transform="translate(-46.08 102.91) rotate(-22.38)"/><polygon class="cls-13" points="239.38 169.42 238.96 165 239.26 164.97 239.68 169.39 239.38 169.42"/><rect class="cls-13" x="247.26" y="163.12" width=".3" height="4.53" transform="translate(-16.31 27.49) rotate(-6.16)"/><rect class="cls-13" x="246.55" y="163.22" width=".3" height="4.51" transform="translate(-18.7 32.03) rotate(-7.16)"/><rect class="cls-13" x="245.79" y="163.34" width=".3" height="4.51" transform="translate(-22.88 40.51) rotate(-9)"/><rect class="cls-13" x="245.04" y="163.48" width=".3" height="4.49" transform="translate(-25.74 46.65) rotate(-10.33)"/><polygon class="cls-13" points="244.74 168.13 243.84 163.71 244.14 163.65 245.04 168.07 244.74 168.13"/><rect class="cls-13" x="243.57" y="163.79" width=".3" height="4.46" transform="translate(-29.89 56.02) rotate(-12.36)"/><polygon class="cls-13" points="243.36 168.4 242.31 164.07 242.6 164 243.66 168.33 243.36 168.4"/><rect class="cls-13" x="242.08" y="164.16" width=".3" height="4.44" transform="translate(-36.78 74.13) rotate(-16.19)"/><rect class="cls-13" x="241.39" y="164.35" width=".3" height="4.41" transform="translate(-34.38 66.79) rotate(-14.71)"/><path class="cls-13" d="M223.65,173.91l-.49-.57c.11-.09,2.59-2.23,3.07-2.56l.42.62c-.37.25-2.29,1.89-3,2.5Z"/><polygon class="cls-13" points="226.39 177.21 225.92 176.62 229.2 174.01 229.66 174.6 226.39 177.21"/><polygon class="cls-13" points="228.43 175.21 225.81 171.66 226.05 171.48 228.67 175.03 228.43 175.21"/><polygon class="cls-13" points="227.9 175.7 225.14 172.15 225.37 171.96 228.14 175.52 227.9 175.7"/><rect class="cls-13" x="225.84" y="172.1" width=".3" height="4.34" transform="translate(-59.32 180.35) rotate(-38.86)"/><rect class="cls-13" x="225.32" y="172.55" width=".3" height="4.32" transform="translate(-59.61 184.22) rotate(-39.68)"/><rect class="cls-13" x="224.78" y="173.13" width=".3" height="4.32" transform="translate(-60.1 184.01) rotate(-39.68)"/><path class="cls-13" d="M221.56,173.89l-.54-.52c.63-.65,2.73-2.78,3.34-2.98l.24.71c-.32.12-1.83,1.54-3.04,2.79Z"/><polygon class="cls-13" points="341.91 160.15 341.02 156.11 351.09 153.94 351.01 153.49 341.32 155.57 341.16 154.84 351.62 152.59 351.94 154.53 341.92 156.68 342.64 159.99 341.91 160.15"/><polygon class="cls-13" points="342.93 159.97 342.13 156.29 342.42 156.23 343.23 159.91 342.93 159.97"/><polygon class="cls-13" points="343.51 159.67 342.71 155.99 343 155.93 343.8 159.61 343.51 159.67"/><polygon class="cls-13" points="344.31 159.54 343.51 155.86 343.8 155.8 344.61 159.47 344.31 159.54"/><polygon class="cls-13" points="344.94 159.45 344.13 155.77 344.42 155.7 345.23 159.38 344.94 159.45"/><polygon class="cls-13" points="345.56 159.34 344.76 155.67 345.05 155.6 345.86 159.28 345.56 159.34"/><polygon class="cls-13" points="346.27 159.14 345.46 155.46 345.76 155.4 346.56 159.07 346.27 159.14"/><polygon class="cls-13" points="346.93 159 346.13 155.32 346.42 155.26 347.23 158.93 346.93 159"/><polygon class="cls-13" points="347.74 158.91 346.93 155.23 347.23 155.17 348.03 158.85 347.74 158.91"/><polygon class="cls-13" points="348.54 158.78 347.74 155.1 348.03 155.04 348.84 158.71 348.54 158.78"/><polygon class="cls-13" points="349.12 158.48 348.31 154.8 348.61 154.74 349.41 158.41 349.12 158.48"/><polygon class="cls-13" points="349.92 158.34 349.12 154.67 349.41 154.6 350.22 158.28 349.92 158.34"/><polygon class="cls-13" points="350.54 158.25 349.74 154.58 350.03 154.51 350.84 158.19 350.54 158.25"/><polygon class="cls-13" points="351.17 158.15 350.37 154.47 350.66 154.41 351.46 158.08 351.17 158.15"/><rect class="cls-13" x="341.47" y="151.32" width=".3" height="3.75" transform="translate(-23.98 72.49) rotate(-11.7)"/><polygon class="cls-13" points="342.53 154.92 341.76 151.14 342.06 151.08 342.83 154.86 342.53 154.92"/><rect class="cls-13" x="342.78" y="150.86" width=".3" height="3.94" transform="translate(-25.12 78.69) rotate(-12.63)"/><polygon class="cls-13" points="343.91 154.58 343.11 150.78 343.4 150.72 344.21 154.51 343.91 154.58"/><rect class="cls-13" x="344.13" y="150.83" width=".3" height="3.75" transform="translate(-23.82 73.02) rotate(-11.7)"/><polygon class="cls-13" points="345.19 154.43 344.42 150.64 344.71 150.58 345.48 154.37 345.19 154.43"/><rect class="cls-13" x="345.44" y="150.36" width=".3" height="3.94" transform="translate(-24.95 79.25) rotate(-12.63)"/><polygon class="cls-13" points="346.57 154.08 345.76 150.29 346.06 150.23 346.86 154.02 346.57 154.08"/><rect class="cls-13" x="346.91" y="150.04" width=".3" height="3.75" transform="translate(-23.6 73.56) rotate(-11.7)"/><polygon class="cls-13" points="347.97 153.64 347.2 149.85 347.49 149.79 348.26 153.58 347.97 153.64"/><rect class="cls-13" x="348.22" y="149.57" width=".3" height="3.94" transform="translate(-24.72 79.93) rotate(-12.64)"/><polygon class="cls-13" points="349.35 153.29 348.54 149.5 348.84 149.44 349.64 153.23 349.35 153.29"/><rect class="cls-13" x="349.57" y="149.54" width=".3" height="3.75" transform="translate(-23.45 74.09) rotate(-11.7)"/><polygon class="cls-13" points="350.62 153.14 349.86 149.36 350.15 149.3 350.92 153.08 350.62 153.14"/><polygon class="cls-13" points="139.88 57.03 139.58 57 140.6 46.92 139.7 46.78 138.67 56.88 138.37 56.85 139.43 46.44 140.92 46.66 140.91 46.81 139.88 57.03"/><rect class="cls-13" x="141.57" y="54.5" width=".3" height="3.76" transform="translate(71.86 191.97) rotate(-84.44)"/><rect class="cls-13" x="141.46" y="53.86" width=".3" height="3.76" transform="translate(72.4 191.29) rotate(-84.44)"/><rect class="cls-13" x="141.58" y="53.06" width=".3" height="3.76" transform="translate(73.32 190.68) rotate(-84.44)"/><rect class="cls-13" x="141.69" y="52.44" width=".3" height="3.76" transform="translate(74.01 190.22) rotate(-84.43)"/><rect class="cls-13" x="141.78" y="51.81" width=".3" height="3.76" transform="translate(74.72 189.74) rotate(-84.43)"/><rect class="cls-13" x="141.92" y="50.96" width=".3" height="4" transform="translate(76.36 189.6) rotate(-84.76)"/><polygon class="cls-13" points="144.05 52.61 140.14 52.25 140.17 51.95 144.08 52.31 144.05 52.61"/><rect class="cls-13" x="142.04" y="49.61" width=".3" height="3.76" transform="translate(77.15 188.01) rotate(-84.43)"/><rect class="cls-13" x="142.16" y="48.8" width=".3" height="3.76" transform="translate(78.06 187.4) rotate(-84.43)"/><polygon class="cls-13" points="144.5 50.38 140.32 50.01 140.34 49.71 144.52 50.08 144.5 50.38"/><polygon class="cls-13" points="144.5 49.57 140.44 49.2 140.46 48.9 144.52 49.27 144.5 49.57"/><rect class="cls-13" x="142.38" y="46.63" width=".3" height="3.97" transform="translate(81.02 186.08) rotate(-84.73)"/><rect class="cls-13" x="142.47" y="46" width=".3" height="3.97" transform="translate(81.74 185.6) rotate(-84.73)"/><polygon class="cls-13" points="138.58 56.48 134.84 56.08 134.88 55.78 138.61 56.19 138.58 56.48"/><polygon class="cls-13" points="138.65 55.8 134.81 55.36 134.84 55.07 138.68 55.5 138.65 55.8"/><rect class="cls-13" x="136.62" y="52.8" width=".3" height="3.94" transform="translate(69.68 185.93) rotate(-84.73)"/><rect class="cls-13" x="136.68" y="52.09" width=".3" height="3.88" transform="translate(68.96 184.54) rotate(-84.07)"/><polygon class="cls-13" points="138.92 53.8 135.19 53.4 135.22 53.1 138.96 53.5 138.92 53.8"/><polygon class="cls-13" points="138.99 53.12 135.16 52.68 135.19 52.39 139.03 52.82 138.99 53.12"/><rect class="cls-13" x="136.97" y="50.12" width=".3" height="3.94" transform="translate(72.66 183.84) rotate(-84.73)"/><rect class="cls-13" x="137.02" y="49.41" width=".3" height="3.88" transform="translate(71.93 182.48) rotate(-84.07)"/><polygon class="cls-13" points="139.03 50.92 135.29 50.51 135.33 50.21 139.06 50.62 139.03 50.92"/><polygon class="cls-13" points="139.1 50.23 135.26 49.79 135.29 49.5 139.13 49.93 139.1 50.23"/><rect class="cls-13" x="137.07" y="47.23" width=".3" height="3.94" transform="translate(75.62 181.32) rotate(-84.73)"/><rect class="cls-13" x="137.13" y="46.52" width=".3" height="3.88" transform="translate(74.9 179.99) rotate(-84.07)"/><polygon class="cls-13" points="139.37 48.23 135.64 47.83 135.67 47.53 139.41 47.94 139.37 48.23"/><polygon class="cls-13" points="139.44 47.55 135.6 47.12 135.64 46.82 139.47 47.25 139.44 47.55"/><polygon class="cls-13" points="144.82 47.73 140.75 47.37 140.78 47.07 144.85 47.43 144.82 47.73"/><polygon class="cls-13" points="184.51 170.42 183.84 168.32 206.59 161.73 206.8 162.45 184.79 168.83 185.22 170.19 184.51 170.42"/><rect class="cls-13" x="204.36" y="157.59" width=".3" height="4.7" transform="translate(-36.9 64.42) rotate(-16.44)"/><rect class="cls-13" x="203.84" y="158.13" width=".3" height="4.79" transform="translate(-37.99 66.59) rotate(-16.99)"/><polygon class="cls-13" points="203.92 162.81 202.6 158.27 202.89 158.19 204.21 162.72 203.92 162.81"/><rect class="cls-13" x="202.67" y="158.7" width=".3" height="4.68" transform="translate(-35.96 60.78) rotate(-15.67)"/><polygon class="cls-13" points="202.77 163.4 201.49 158.82 201.78 158.74 203.06 163.32 202.77 163.4"/><rect class="cls-13" x="201.04" y="158.69" width=".3" height="4.73" transform="translate(-36.58 61.64) rotate(-15.99)"/><polygon class="cls-13" points="201.27 163.49 199.84 158.83 200.13 158.74 201.56 163.4 201.27 163.49"/><rect class="cls-13" x="199.99" y="159.23" width=".3" height="4.67" transform="translate(-39.34 67.7) rotate(-17.51)"/><rect class="cls-13" x="199.4" y="159.24" width=".3" height="4.75" transform="translate(-37.35 62.54) rotate(-16.31)"/><rect class="cls-13" x="198.34" y="159.23" width=".3" height="4.96" transform="translate(-38.1 63.86) rotate(-16.7)"/><rect class="cls-13" x="197.73" y="159.79" width=".3" height="4.75" transform="translate(-37.07 60.9) rotate(-16.02)"/><rect class="cls-13" x="197.17" y="159.8" width=".3" height="4.75" transform="translate(-36.79 60.07) rotate(-15.85)"/><rect class="cls-13" x="196.61" y="160.35" width=".3" height="4.8" transform="translate(-35.99 57.71) rotate(-15.31)"/><polygon class="cls-13" points="192.92 166.25 191.57 161.58 191.86 161.5 193.21 166.17 192.92 166.25"/><rect class="cls-13" x="191.69" y="161.45" width=".3" height="4.95" transform="translate(-37.74 59.2) rotate(-15.99)"/><rect class="cls-13" x="190.59" y="162" width=".3" height="4.92" transform="translate(-38.27 59.67) rotate(-16.18)"/><polygon class="cls-13" points="190.81 166.94 189.36 162.14 189.65 162.05 191.09 166.85 190.81 166.94"/><polygon class="cls-13" points="190.21 166.89 188.81 162.14 189.1 162.05 190.5 166.81 190.21 166.89"/><rect class="cls-13" x="188.91" y="162" width=".3" height="4.9" transform="translate(-37.33 57.04) rotate(-15.63)"/><rect class="cls-13" x="187.85" y="162.54" width=".3" height="4.83" transform="translate(-39.66 61.39) rotate(-16.8)"/><polygon class="cls-13" points="188.03 167.47 186.6 162.69 186.89 162.6 188.32 167.38 188.03 167.47"/><rect class="cls-13" x="186.7" y="162.56" width=".3" height="4.96" transform="translate(-36.95 55.2) rotate(-15.31)"/><rect class="cls-13" x="186.18" y="163.1" width=".3" height="4.97" transform="translate(-38.39 57.71) rotate(-15.98)"/><rect class="cls-13" x="185.1" y="163.09" width=".3" height="4.99" transform="translate(-39.41 59.45) rotate(-16.5)"/><polygon class="cls-13" points="118.43 192.34 118.21 188.57 118.51 188.56 118.73 192.32 118.43 192.34"/><rect class="cls-13" x="117.83" y="188.56" width=".3" height="3.9" transform="translate(-16.42 11.21) rotate(-5.09)"/><rect class="cls-13" x="117.27" y="188.56" width=".3" height="3.93" transform="translate(-15.3 10.33) rotate(-4.73)"/><polygon class="cls-13" points="116.3 193.02 116 189.13 116.3 189.1 116.6 192.99 116.3 193.02"/><polygon class="cls-13" points="115.77 193.07 115.45 189.13 115.75 189.1 116.07 193.05 115.77 193.07"/><rect class="cls-13" x="115.02" y="189.11" width=".3" height="3.99" transform="translate(-11.49 7.41) rotate(-3.51)"/><rect class="cls-13" x="114.54" y="189.11" width=".3" height="3.87" transform="translate(-18.55 12.44) rotate(-5.75)"/><rect class="cls-13" x="113.46" y="189.1" width=".3" height="3.78" transform="translate(-20.42 13.73) rotate(-6.35)"/><polygon class="cls-13" points="113.21 192.83 112.7 189.14 112.99 189.09 113.51 192.79 113.21 192.83"/><rect class="cls-13" x="112.39" y="189.65" width=".3" height="3.81" transform="translate(-24.05 16.33) rotate(-7.5)"/><polygon class="cls-13" points="111.93 193.44 111.59 189.68 111.89 189.65 112.23 193.41 111.93 193.44"/><rect class="cls-13" x="110.11" y="189.66" width=".3" height="3.73" transform="translate(-17.64 11.3) rotate(-5.43)"/><path class="cls-13" d="M104.84,191.04l-.15-1.97,14.63-2.19.22,1.99-14.71,2.17ZM105.5,189.72l.04.47,13.19-1.94-.05-.49-13.17,1.97Z"/><polygon class="cls-13" points="110.88 193.65 110.49 189.68 110.79 189.65 111.18 193.62 110.88 193.65"/><rect class="cls-13" x="110.13" y="189.66" width=".3" height="3.87" transform="translate(-18.63 12) rotate(-5.75)"/><rect class="cls-13" x="109.59" y="189.65" width=".3" height="3.78" transform="translate(-20.5 13.31) rotate(-6.35)"/><polygon class="cls-13" points="108.8 193.93 108.28 190.24 108.58 190.2 109.1 193.89 108.8 193.93"/><rect class="cls-13" x="107.98" y="190.2" width=".3" height="3.81" transform="translate(-24.16 15.76) rotate(-7.5)"/><rect class="cls-13" x="107.43" y="190.2" width=".3" height="3.77" transform="translate(-24.1 15.65) rotate(-7.48)"/><rect class="cls-13" x="106.83" y="190.21" width=".3" height="3.79" transform="translate(-19.56 12.28) rotate(-6.02)"/><rect class="cls-13" x="105.7" y="190.21" width=".3" height="3.73" transform="translate(-17.71 10.89) rotate(-5.43)"/><path class="cls-12" d="M70.36,242.03v8.4h-1.2v-3.74h-4.82v3.74h-1.2v-8.4h1.2v3.61h4.82v-3.61h1.2Z"/><path class="cls-12" d="M78.44,247.63h-5.16c.14,1.12,1.04,1.86,2.3,1.86.74,0,1.37-.25,1.83-.77l.64.74c-.58.67-1.45,1.03-2.51,1.03-2.05,0-3.42-1.36-3.42-3.25s1.36-3.24,3.19-3.24,3.14,1.32,3.14,3.27c0,.1-.01.24-.02.35ZM73.28,246.8h4.08c-.12-1.07-.92-1.82-2.04-1.82s-1.92.74-2.04,1.82Z"/><path class="cls-12" d="M80.06,241.52h1.15v8.9h-1.15v-8.9Z"/><path class="cls-12" d="M89.99,247.24c0,1.96-1.36,3.25-3.21,3.25-.9,0-1.69-.35-2.22-1.03v3.29h-1.15v-8.68h1.1v1.01c.52-.71,1.33-1.07,2.27-1.07,1.86,0,3.21,1.29,3.21,3.24ZM88.83,247.24c0-1.34-.92-2.23-2.15-2.23s-2.13.89-2.13,2.23.92,2.24,2.13,2.24,2.15-.89,2.15-2.24Z"/><path class="cls-12" d="M97.59,241.52v8.9h-1.1v-1.01c-.52.72-1.33,1.08-2.27,1.08-1.86,0-3.21-1.31-3.21-3.25s1.36-3.24,3.21-3.24c.9,0,1.69.33,2.22,1.02v-3.5h1.15ZM96.45,247.24c0-1.35-.92-2.23-2.13-2.23s-2.15.88-2.15,2.23.92,2.24,2.15,2.24,2.13-.89,2.13-2.24Z"/><path class="cls-12" d="M105.5,247.63h-5.16c.14,1.12,1.04,1.86,2.3,1.86.74,0,1.37-.25,1.83-.77l.64.74c-.58.67-1.45,1.03-2.51,1.03-2.05,0-3.42-1.36-3.42-3.25s1.36-3.24,3.19-3.24,3.14,1.32,3.14,3.27c0,.1-.01.24-.02.35ZM100.34,246.8h4.08c-.12-1.07-.92-1.82-2.04-1.82s-1.92.74-2.04,1.82Z"/><path class="cls-12" d="M106.32,249.75l.48-.91c.54.38,1.4.66,2.23.66,1.07,0,1.51-.32,1.51-.86,0-1.43-4.02-.19-4.02-2.72,0-1.14,1.02-1.91,2.65-1.91.83,0,1.76.22,2.31.58l-.49.91c-.58-.37-1.21-.5-1.83-.5-1.01,0-1.5.37-1.5.88,0,1.5,4.03.28,4.03,2.75,0,1.15-1.06,1.88-2.75,1.88-1.05,0-2.1-.32-2.63-.74Z"/><path class="cls-12" d="M115.6,247.46l-1.32,1.22v1.74h-1.15v-8.9h1.15v5.71l3.47-3.17h1.39l-2.67,2.63,2.94,3.73h-1.42l-2.39-2.96Z"/><path class="cls-12" d="M62.31,257.63c0-1.86,1.42-3.22,3.34-3.22.97,0,1.82.33,2.39.98l-.58.57c-.49-.51-1.08-.75-1.77-.75-1.42,0-2.48,1.03-2.48,2.42s1.05,2.42,2.48,2.42c.69,0,1.29-.24,1.77-.76l.58.57c-.58.65-1.42.99-2.4.99-1.91,0-3.33-1.36-3.33-3.22Z"/><path class="cls-12" d="M70.77,254.48v6.3h-.89v-5.52h-1.42v-.78h2.31Z"/><path class="cls-12" d="M76.58,260v.78h-4.53v-.61l2.57-2.48c.67-.65.79-1.04.79-1.44,0-.65-.46-1.04-1.34-1.04-.67,0-1.22.22-1.61.68l-.61-.53c.49-.6,1.32-.95,2.3-.95,1.31,0,2.16.68,2.16,1.76,0,.61-.18,1.16-1.04,1.98l-1.93,1.85h3.23Z"/><path class="cls-12" d="M77.32,257.63c0-2.05,1.1-3.22,2.57-3.22s2.57,1.17,2.57,3.22-1.1,3.22-2.57,3.22-2.57-1.17-2.57-3.22ZM81.56,257.63c0-1.61-.68-2.42-1.67-2.42s-1.67.81-1.67,2.42.68,2.42,1.67,2.42,1.67-.81,1.67-2.42Z"/><path class="cls-12" d="M83.32,257.63c0-2.05,1.1-3.22,2.58-3.22s2.57,1.17,2.57,3.22-1.1,3.22-2.57,3.22-2.58-1.17-2.58-3.22ZM87.56,257.63c0-1.61-.68-2.42-1.67-2.42s-1.67.81-1.67,2.42.68,2.42,1.67,2.42,1.67-.81,1.67-2.42Z"/><path class="cls-12" d="M95.25,259.08c0,1.08-.82,1.7-2.41,1.7h-3.01v-6.3h2.83c1.45,0,2.26.61,2.26,1.63,0,.68-.35,1.16-.85,1.41.71.2,1.18.73,1.18,1.57ZM90.73,255.21v2.02h1.85c.92,0,1.44-.34,1.44-1.01s-.52-1.01-1.44-1.01h-1.85ZM94.34,259.01c0-.73-.54-1.05-1.54-1.05h-2.07v2.1h2.07c1,0,1.54-.31,1.54-1.04Z"/><path class="cls-13" d="M255.23,200.76v6.3h-.89v-5.52h-1.42v-.78h2.31Z"/><path class="cls-13" d="M260.92,205.2c0,1.06-.78,1.93-2.39,1.93-.9,0-1.78-.29-2.31-.77l.41-.71c.42.4,1.12.67,1.9.67.95,0,1.49-.43,1.49-1.12s-.48-1.1-1.56-1.1h-.5v-.63l1.58-1.94h-3.03v-.78h4.16v.61l-1.65,2.03c1.26.12,1.9.83,1.9,1.8Z"/><path class="cls-13" d="M261.75,203.91c0-2.05,1.1-3.22,2.57-3.22s2.57,1.17,2.57,3.22-1.1,3.22-2.57,3.22-2.57-1.17-2.57-3.22ZM266,203.91c0-1.61-.68-2.42-1.67-2.42s-1.67.81-1.67,2.42.68,2.42,1.67,2.42,1.67-.81,1.67-2.42Z"/><path class="cls-13" d="M273.24,205.51h-1.2v1.55h-.87v-1.55h-3.5v-.63l3.22-4.12h.97l-3.09,3.98h2.42v-1.37h.85v1.37h1.2v.77Z"/><path class="cls-20" d="M282.89,131.3v6.3h-.89v-5.52h-1.42v-.78h2.31Z"/><path class="cls-20" d="M289.75,136.05h-1.2v1.55h-.87v-1.55h-3.5v-.63l3.22-4.12h.97l-3.09,3.98h2.42v-1.37h.85v1.37h1.2v.77Z"/><path class="cls-20" d="M290.29,134.45c0-2.05,1.1-3.22,2.58-3.22s2.57,1.17,2.57,3.22-1.1,3.22-2.57,3.22-2.58-1.17-2.58-3.22ZM294.53,134.45c0-1.61-.68-2.42-1.67-2.42s-1.67.81-1.67,2.42.68,2.42,1.67,2.42,1.67-.81,1.67-2.42Z"/><path class="cls-20" d="M301.77,136.05h-1.2v1.55h-.87v-1.55h-3.5v-.63l3.22-4.12h.97l-3.09,3.98h2.42v-1.37h.85v1.37h1.2v.77Z"/><polygon class="cls-12" points="75.98 237.51 74.98 237.51 74.98 180.42 136.28 180.42 136.28 181.42 75.98 181.42 75.98 237.51"/><rect class="cls-19" x="289.31" y="188.77" width="8.43" height="8.99"/><path class="cls-13" d="M298.24,198.26h-9.43v-9.99h9.43v9.99ZM289.81,197.26h7.43v-7.99h-7.43v7.99Z"/><path class="cls-13" d="M293.49,190.09c-.09,0-.16.04-.21.1l-2,2.67c-.07.09-.03.21.09.27.04.02.08.03.12.03h4.01s.02,0,.03,0c.14-.01.24-.11.23-.22,0-.03-.01-.05-.03-.08l-2-2.67c-.05-.06-.14-.1-.23-.1h0ZM293.5,190.68l1.57,2.09h-3.14l1.57-2.09ZM291.47,193.66c-.14,0-.24.1-.23.21,0,.03.01.06.03.08l2,2.67c.07.09.22.13.35.07.04-.02.07-.04.09-.07l2-2.67c.07-.09.03-.21-.09-.27-.03-.01-.06-.02-.1-.03,0,0-.02,0-.03,0h-4.01s-.01,0-.02,0h0ZM291.93,194.05h3.14l-1.57,2.09-1.57-2.09Z"/><rect class="cls-19" x="129.68" y="185.36" width="8.79" height="8.89"/><path class="cls-13" d="M138.98,194.74h-9.79v-9.89h9.79v9.89ZM130.18,193.74h7.79v-7.89h-7.79v7.89Z"/><path class="cls-13" d="M134.27,187.15c-.08,0-.15.04-.19.09l-1.84,2.45c-.06.09-.02.2.09.24.03.02.07.02.11.02h3.68s.02,0,.02,0c.13-.01.22-.1.21-.2,0-.02-.01-.05-.03-.07l-1.84-2.45c-.04-.06-.13-.09-.22-.09h0ZM134.28,187.68l1.44,1.91h-2.88l1.44-1.91ZM132.42,190.42c-.13,0-.22.1-.21.19,0,.03.01.05.03.07l1.84,2.45c.06.09.21.12.32.07.04-.02.07-.04.09-.07l1.84-2.45c.06-.09.03-.2-.08-.25-.03-.01-.06-.02-.09-.02,0,0-.02,0-.02,0h-3.68s-.01,0-.02,0h0ZM132.84,190.77h2.88l-1.44,1.91-1.44-1.91Z"/><polygon class="cls-13" points="278.93 212.53 247.85 212.53 247.85 194.02 248.6 194.02 248.6 211.78 278.18 211.78 278.18 194.4 253.46 194.4 253.46 193.65 278.93 193.65 278.93 212.53"/><path class="cls-13" d="M225.11,200.67v6.3h-.89v-5.52h-1.42v-.78h2.31Z"/><path class="cls-13" d="M230.8,205.12c0,1.06-.78,1.93-2.39,1.93-.9,0-1.78-.29-2.31-.77l.41-.71c.42.4,1.13.67,1.9.67.95,0,1.49-.43,1.49-1.12s-.48-1.1-1.56-1.1h-.5v-.63l1.58-1.94h-3.03v-.78h4.16v.61l-1.65,2.03c1.26.12,1.9.83,1.9,1.8Z"/><path class="cls-13" d="M231.64,203.82c0-2.05,1.1-3.22,2.58-3.22s2.57,1.17,2.57,3.22-1.1,3.22-2.57,3.22-2.58-1.17-2.58-3.22ZM235.88,203.82c0-1.61-.68-2.42-1.67-2.42s-1.67.81-1.67,2.42.68,2.42,1.67,2.42,1.67-.81,1.67-2.42Z"/><path class="cls-13" d="M242.07,206.19v.78h-4.53v-.61l2.57-2.48c.67-.65.79-1.04.79-1.44,0-.65-.46-1.04-1.34-1.04-.67,0-1.22.22-1.61.68l-.61-.53c.49-.6,1.32-.95,2.3-.95,1.31,0,2.16.68,2.16,1.76,0,.61-.18,1.16-1.04,1.98l-1.93,1.85h3.23Z"/><polygon class="cls-13" points="211.92 212.52 183.46 212.52 183.46 191.16 206.54 191.16 206.54 194.02 205.79 194.02 205.79 191.91 184.21 191.91 184.21 211.77 211.17 211.77 211.17 194.02 211.92 194.02 211.92 212.52"/><polygon class="cls-13" points="129.81 197.16 129.06 197.16 129.06 185.27 133.47 185.27 133.47 186.02 129.81 186.02 129.81 197.16"/><path class="cls-24" d="M157.9,185.39h-30.37v-13.24l26.77.11s-.06-2.03-.02-2.64c.01-.15,3.62.09,3.61-.01v15.78Z"/><g class="cls-60"><rect class="cls-23" x="58.47" y="-26.79" width="318.06" height="311.94"/><g class="cls-56"><rect class="cls-21" x="126.8" y="168.75" width="31.84" height="17.36"/></g></g><polygon class="cls-13" points="144.15 190.13 143.4 190.13 143.4 185.92 136.23 185.92 136.23 185.17 144.15 185.17 144.15 190.13"/><polygon class="cls-13" points="147.09 172.75 135.59 172.75 135.59 125.96 136.34 125.96 136.34 172 147.09 172 147.09 172.75"/><polygon class="cls-13" points="154.45 172.75 151.73 172.75 151.73 172 153.7 172 153.7 147.24 152.42 147.24 152.42 146.49 154.45 146.49 154.45 172.75"/><polygon class="cls-13" points="151.94 190.13 151.19 190.13 151.19 185.17 157.91 185.17 157.91 187.3 157.16 187.3 157.16 185.92 151.94 185.92 151.94 190.13"/><rect class="cls-15" x="218.03" y="191.54" width="24.89" height="5.09"/><path class="cls-13" d="M243.41,197.13h-25.89v-6.09h25.89v6.09ZM218.53,196.13h23.89v-4.09h-23.89v4.09Z"/><polygon class="cls-13" points="248 212.39 217.43 212.39 217.43 191.03 243.14 191.03 243.14 193.89 242.39 193.89 242.39 191.78 218.18 191.78 218.18 211.64 248 211.64 248 212.39"/><rect class="cls-14" x="186.32" y="209.66" width="1" height="28.94"/><path class="cls-14" d="M142.17,243.76v2.93h4.21v1.03h-4.21v3.39h-1.2v-8.4h5.92v1.04h-4.72Z"/><path class="cls-14" d="M148.21,242.79c0-.42.34-.76.78-.76s.78.32.78.73c0,.43-.32.77-.78.77s-.78-.32-.78-.74ZM148.42,244.76h1.15v6.36h-1.15v-6.36Z"/><path class="cls-14" d="M155.18,244.7v1.12c-.1-.01-.18-.01-.26-.01-1.24,0-2,.76-2,2.15v3.17h-1.15v-6.36h1.1v1.07c.41-.74,1.2-1.13,2.32-1.13Z"/><path class="cls-14" d="M155.88,250.44l.48-.91c.54.38,1.4.66,2.23.66,1.07,0,1.51-.32,1.51-.86,0-1.43-4.02-.19-4.02-2.72,0-1.14,1.02-1.91,2.65-1.91.83,0,1.76.22,2.31.58l-.49.91c-.58-.37-1.21-.5-1.83-.5-1.01,0-1.5.37-1.5.88,0,1.5,4.03.28,4.03,2.75,0,1.15-1.06,1.88-2.75,1.88-1.05,0-2.1-.32-2.63-.74Z"/><path class="cls-14" d="M166.27,250.74c-.35.3-.88.44-1.39.44-1.28,0-2.01-.71-2.01-1.99v-3.49h-1.08v-.95h1.08v-1.39h1.15v1.39h1.82v.95h-1.82v3.44c0,.68.36,1.07,1,1.07.34,0,.66-.11.9-.3l.36.83Z"/><path class="cls-14" d="M172.26,243.76v2.93h4.21v1.03h-4.21v3.39h-1.2v-8.4h5.92v1.04h-4.72Z"/><path class="cls-14" d="M178.51,242.21h1.15v8.9h-1.15v-8.9Z"/><path class="cls-14" d="M181.27,247.94c0-1.89,1.4-3.24,3.31-3.24s3.3,1.34,3.3,3.24-1.39,3.25-3.3,3.25-3.31-1.36-3.31-3.25ZM186.72,247.94c0-1.35-.91-2.23-2.13-2.23s-2.15.88-2.15,2.23.92,2.24,2.15,2.24,2.13-.89,2.13-2.24Z"/><path class="cls-14" d="M188.89,247.94c0-1.89,1.4-3.24,3.31-3.24s3.3,1.34,3.3,3.24-1.39,3.25-3.3,3.25-3.31-1.36-3.31-3.25ZM194.34,247.94c0-1.35-.91-2.23-2.14-2.23s-2.15.88-2.15,2.23.92,2.24,2.15,2.24,2.14-.89,2.14-2.24Z"/><path class="cls-14" d="M200.52,244.7v1.12c-.1-.01-.18-.01-.26-.01-1.24,0-2,.76-2,2.15v3.17h-1.15v-6.36h1.1v1.07c.41-.74,1.2-1.13,2.32-1.13Z"/><path class="cls-14" d="M210.77,249.02h-4.46l-.92,2.1h-1.24l3.8-8.4h1.19l3.81,8.4h-1.26l-.92-2.1ZM210.35,248.06l-1.81-4.11-1.81,4.11h3.62Z"/><path class="cls-14" d="M217.61,250.74c-.35.3-.88.44-1.39.44-1.28,0-2.01-.71-2.01-1.99v-3.49h-1.08v-.95h1.08v-1.39h1.15v1.39h1.82v.95h-1.82v3.44c0,.68.36,1.07,1,1.07.34,0,.66-.11.9-.3l.36.83Z"/><path class="cls-14" d="M222.42,244.7v1.12c-.1-.01-.18-.01-.26-.01-1.24,0-2,.76-2,2.15v3.17h-1.15v-6.36h1.1v1.07c.41-.74,1.2-1.13,2.32-1.13Z"/><path class="cls-14" d="M223.72,242.79c0-.42.34-.76.78-.76s.78.32.78.73c0,.43-.32.77-.78.77s-.78-.32-.78-.74ZM223.92,244.76h1.15v6.36h-1.15v-6.36Z"/><path class="cls-14" d="M233.19,244.76v6.36h-1.09v-.96c-.47.66-1.26,1.03-2.16,1.03-1.64,0-2.73-.9-2.73-2.77v-3.66h1.15v3.53c0,1.25.62,1.87,1.71,1.87,1.2,0,1.97-.74,1.97-2.11v-3.29h1.15Z"/><path class="cls-14" d="M245.95,247.46v3.66h-1.15v-3.53c0-1.25-.6-1.86-1.64-1.86-1.15,0-1.91.73-1.91,2.11v3.27h-1.15v-3.53c0-1.25-.6-1.86-1.64-1.86-1.15,0-1.91.73-1.91,2.11v3.27h-1.15v-6.36h1.1v.95c.46-.65,1.24-1.01,2.2-1.01s1.79.38,2.21,1.17c.48-.72,1.37-1.17,2.45-1.17,1.55,0,2.6.89,2.6,2.76Z"/></svg>