<svg width="145" height="171" viewBox="0 0 145 171" fill="none" xmlns="http://www.w3.org/2000/svg">
<path d="M67.2082 15.0053C67.9947 13.2883 70.4344 13.2883 71.2209 15.0053L88.1519 51.9689C88.8214 53.4306 87.7533 55.0947 86.1455 55.0947H52.2835C50.6758 55.0947 49.6077 53.4306 50.2772 51.9689L67.2082 15.0053Z" fill="#914E8D"/>
<path d="M85.7976 18.0507C87.614 18.5696 87.9812 20.9823 86.4014 22.0181L77.0835 28.1272L69.7596 13.4693L85.7976 18.0507Z" fill="#914E8D"/>
<path d="M56.2113 37.8969C56.3148 37.6097 56.5518 37.3909 56.8464 37.3109C64.8143 35.1457 73.2132 35.1276 81.1903 37.2584L81.3829 37.3098C81.6848 37.3905 81.9278 37.6143 82.0329 37.9086L85.3656 47.245C85.6506 48.0434 85.0587 48.8831 84.211 48.8831H54.0007C53.1516 48.8831 52.5596 48.0408 52.8472 47.2419L56.2113 37.8969Z" fill="#004042"/>
<ellipse cx="70.6353" cy="61.1661" rx="40.2578" ry="19.6913" fill="#B274AE"/>
<ellipse cx="70.6365" cy="64.2292" rx="27.5679" ry="12.2524" fill="#004042"/>
<path d="M31.4731 57.7047C40.9376 54.7953 51.14 60.0565 54.0494 69.521C54.0785 69.6156 54.0253 69.716 53.9307 69.745C44.4662 72.6545 34.3825 67.1692 31.4731 57.7047Z" fill="#E28EAE"/>
<path d="M113.521 57.7047C104.056 54.7953 93.8537 60.0565 90.9443 69.521C90.9152 69.6156 90.9683 69.716 91.063 69.745C100.527 72.6545 110.611 67.1692 113.521 57.7047Z" fill="#E28EAE"/>
<path d="M33.0027 93.3219C42.4671 96.2313 52.6695 90.9701 55.5789 81.5056C55.608 81.411 55.5549 81.3107 55.4602 81.2816C45.9958 78.3722 35.9121 83.8574 33.0027 93.3219Z" fill="#E28EAE"/>
<path d="M111.987 93.3219C102.523 96.2313 92.3205 90.9701 89.4111 81.5056C89.382 81.411 89.4351 81.3107 89.5298 81.2816C98.9942 78.3722 109.078 83.8574 111.987 93.3219Z" fill="#E28EAE"/>
<path d="M25.99 76.6978C32.5967 69.3226 44.0508 68.5662 51.4259 75.1728C51.4996 75.2389 51.5059 75.3523 51.4398 75.426C44.8331 82.8011 33.3651 83.3044 25.99 76.6978Z" fill="#E28EAE"/>
<path d="M119.001 76.6978C112.394 69.3226 100.94 68.5662 93.5648 75.1728C93.4911 75.2389 93.4848 75.3523 93.5509 75.426C100.158 82.8011 111.626 83.3044 119.001 76.6978Z" fill="#E28EAE"/>
<rect x="34.7307" y="61.0452" width="3.02247" height="22.9352" rx="1.51124" transform="rotate(-62.0876 34.7307 61.0452)" fill="#EAD1D0"/>
<rect width="3.02247" height="22.9352" rx="1.51124" transform="matrix(-0.468121 -0.883664 -0.883664 0.468121 110.256 61.0452)" fill="#EAD1D0"/>
<rect width="3.02247" height="22.9352" rx="1.51124" transform="matrix(0.468121 0.883664 0.883664 -0.468121 36.2639 89.9814)" fill="#EAD1D0"/>
<rect x="108.726" y="89.9814" width="3.02247" height="22.9352" rx="1.51124" transform="rotate(117.912 108.726 89.9814)" fill="#EAD1D0"/>
<path d="M48.5378 121.522H95.797C90.0436 126.463 82.7104 129.18 75.1265 129.18H69.2084C61.6244 129.18 54.2913 126.463 48.5378 121.522Z" fill="#914E8D"/>
<rect x="30.5083" y="77.8772" width="3.02247" height="22.9352" rx="1.51124" transform="rotate(-93.1458 30.5083 77.8772)" fill="#EAD1D0"/>
<rect width="3.02247" height="22.9352" rx="1.51124" transform="matrix(0.0548769 -0.998493 -0.998493 -0.0548769 114.482 77.8772)" fill="#EAD1D0"/>
<path d="M46.9244 71.3957C49.2993 62.7513 57.1585 56.76 66.1232 56.76H76.5064C85.8556 56.76 93.9455 63.265 95.9524 72.3963C98.6825 84.8183 89.2248 96.5803 76.5064 96.5803H66.1232C52.9797 96.5803 43.4426 84.0697 46.9244 71.3957Z" fill="#EAD1D0"/>
<path d="M50.5046 72.2942V72.2942C56.6813 74.9944 63.837 74.1282 69.191 70.0323L70.1529 69.2964C70.3725 69.1284 70.677 69.1268 70.8984 69.2925L71.8468 70.0025C77.3581 74.1286 84.6515 75.0021 90.9813 72.2942V72.2942" stroke="#A53459" stroke-width="0.735599" stroke-linecap="round"/>
<ellipse cx="68.5572" cy="67.1527" rx="0.546981" ry="0.546981" fill="#A53459"/>
<ellipse cx="72.4945" cy="67.1527" rx="0.546981" ry="0.546981" fill="#A53459"/>
<ellipse cx="60.7904" cy="65.9491" rx="4.37585" ry="4.37585" fill="#E28EAE"/>
<path d="M64.9921 64.7545C65.1431 65.3119 65.1828 65.8936 65.109 66.4664C65.0351 67.0392 64.8492 67.5918 64.5618 68.0927C64.2744 68.5936 63.8912 69.0331 63.434 69.3859C62.9767 69.7387 62.4545 69.998 61.8971 70.149C61.3396 70.3 60.7579 70.3397 60.1852 70.2659C59.6124 70.192 59.0597 70.0061 58.5588 69.7187C58.0579 69.4313 57.6185 69.0481 57.2657 68.5909C56.9128 68.1336 56.6535 67.6114 56.5025 67.054L60.7473 65.9042L64.9921 64.7545Z" fill="#0D3F41"/>
<path d="M64.2024 64.9742C64.2456 65.1335 64.2569 65.2997 64.2358 65.4634C64.2147 65.627 64.1616 65.785 64.0795 65.9281C63.9974 66.0712 63.8878 66.1968 63.7572 66.2976C63.6265 66.3984 63.4773 66.4725 63.318 66.5157C63.1587 66.5588 62.9925 66.5702 62.8288 66.5491C62.6652 66.528 62.5073 66.4749 62.3641 66.3927C62.221 66.3106 62.0954 66.2011 61.9946 66.0704C61.8938 65.9398 61.8197 65.7906 61.7765 65.6313L62.9895 65.3027L64.2024 64.9742Z" fill="#FFFACC"/>
<path d="M59.9175 67.4588C59.9639 67.3736 60.0863 67.3736 60.1327 67.4588L60.3039 67.7728C60.3216 67.8051 60.3528 67.8278 60.389 67.8346L60.7405 67.9004C60.8359 67.9183 60.8737 68.0346 60.807 68.1051L60.5614 68.365C60.5361 68.3918 60.5241 68.4285 60.5289 68.465L60.5749 68.8196C60.5874 68.9159 60.4884 68.9878 60.4007 68.9462L60.0777 68.7928C60.0444 68.777 60.0058 68.777 59.9725 68.7928L59.6495 68.9462C59.5618 68.9878 59.4628 68.9159 59.4753 68.8196L59.5213 68.465C59.5261 68.4285 59.5141 68.3918 59.4888 68.365L59.2432 68.1051C59.1765 68.0346 59.2143 67.9183 59.3097 67.9004L59.6612 67.8346C59.6974 67.8278 59.7286 67.8051 59.7462 67.7728L59.9175 67.4588Z" fill="#FFFACC"/>
<ellipse cx="4.37585" cy="4.37585" rx="4.37585" ry="4.37585" transform="matrix(-1 0 0 1 84.7363 61.5734)" fill="#E28EAE"/>
<path d="M76.1588 64.7546C76.0078 65.312 75.9681 65.8937 76.0419 66.4665C76.1157 67.0393 76.3017 67.5919 76.5891 68.0928C76.8765 68.5938 77.2597 69.0332 77.7169 69.386C78.1741 69.7388 78.6964 69.9981 79.2538 70.1491C79.8112 70.3001 80.3929 70.3398 80.9657 70.266C81.5385 70.1922 82.0911 70.0062 82.5921 69.7188C83.093 69.4314 83.5324 69.0482 83.8852 68.591C84.238 68.1338 84.4973 67.6115 84.6483 67.0541L80.4036 65.9043L76.1588 64.7546Z" fill="#0D3F41"/>
<path d="M76.9521 64.9742C76.909 65.1335 76.8976 65.2997 76.9187 65.4634C76.9398 65.627 76.9929 65.785 77.0751 65.9281C77.1572 66.0712 77.2667 66.1968 77.3973 66.2976C77.528 66.3984 77.6772 66.4725 77.8365 66.5157C77.9958 66.5588 78.162 66.5702 78.3257 66.5491C78.4894 66.528 78.6473 66.4749 78.7904 66.3927C78.9336 66.3106 79.0591 66.2011 79.1599 66.0704C79.2608 65.9398 79.3349 65.7906 79.378 65.6313L78.1651 65.3027L76.9521 64.9742Z" fill="#FFFACC"/>
<path d="M81.2371 67.459C81.1906 67.3738 81.0683 67.3738 81.0218 67.459L80.8506 67.7729C80.833 67.8052 80.8017 67.8279 80.7655 67.8347L80.414 67.9005C80.3186 67.9184 80.2808 68.0347 80.3475 68.1053L80.5932 68.3651C80.6185 68.3919 80.6304 68.4286 80.6257 68.4651L80.5797 68.8198C80.5672 68.916 80.6661 68.9879 80.7538 68.9463L81.0769 68.7929C81.1101 68.7771 81.1488 68.7771 81.182 68.7929L81.5051 68.9463C81.5927 68.9879 81.6917 68.916 81.6792 68.8198L81.6332 68.4651C81.6285 68.4286 81.6404 68.3919 81.6657 68.3651L81.9114 68.1053C81.9781 68.0347 81.9403 67.9184 81.8449 67.9005L81.4934 67.8347C81.4572 67.8279 81.4259 67.8052 81.4083 67.7729L81.2371 67.459Z" fill="#FFFACC"/>
<path d="M90.7762 93.1966L104.377 107.124C104.869 107.627 104.836 108.44 104.307 108.903L94.8354 117.183C94.2386 117.705 93.311 117.532 92.9428 116.83L83.7634 99.3273L90.7762 93.1966Z" fill="#B274AE"/>
<path d="M57.1994 98.6355C56.0428 95.4447 52.6351 93.6714 49.3582 94.5551L37.6576 97.7102C37.6019 97.7252 37.5709 97.7847 37.5906 97.839L43.6094 114.443C43.6385 114.524 43.7373 114.553 43.8057 114.502L54.9884 106.079C57.2801 104.353 58.1771 101.333 57.1994 98.6355Z" fill="#B274AE"/>
<path d="M74.2484 20.3104C74.1597 20.1276 73.9396 20.0514 73.7569 20.1401C73.5742 20.2287 73.4979 20.4488 73.5866 20.6315L74.2484 20.3104ZM73.5866 20.6315L77.1967 28.0705L77.8585 27.7493L74.2484 20.3104L73.5866 20.6315Z" fill="#B274AE"/>
<path d="M56.4155 88.7032H87.4841V99.8617C87.4841 108.441 80.5291 115.396 71.9498 115.396C63.3705 115.396 56.4155 108.441 56.4155 99.8617V88.7032Z" fill="#EAD1D0"/>
<path d="M66.6956 100.081L72.3842 104.347L78.0728 100.081V116.49H66.6956V100.081Z" fill="#0D3F41"/>
<rect x="61.0078" y="113.865" width="23.4108" height="3.71947" fill="#964C1A"/>
<path d="M55.3196 117.365H88.7948C88.7948 121.715 85.2684 125.242 80.9183 125.242H63.1961C58.846 125.242 55.3196 121.715 55.3196 117.365Z" fill="#0D3F41"/>
<path d="M53.1327 95.4861L68.4492 97.7834V112.59C68.4492 118.006 64.058 122.398 58.6412 122.398H50.5659C49.0116 122.398 47.8495 120.97 48.165 119.448L53.1327 95.4861Z" fill="#B274AE"/>
<path d="M91.2355 95.4861L75.9189 98.768V112.59C75.9189 118.006 80.3101 122.398 85.7269 122.398H93.8022C95.3566 122.398 96.5187 120.97 96.2032 119.448L91.2355 95.4861Z" fill="#B274AE"/>
<path d="M92.2229 92.8933C91.7383 91.7314 90.4036 91.1824 89.2418 91.667L75.3001 97.4823C74.5791 97.7831 74.2354 98.6089 74.5301 99.3324C74.8048 100.007 75.5443 100.365 76.2437 100.162L90.7533 95.9601C92.0605 95.5816 92.7469 94.1493 92.2229 92.8933Z" fill="#FFB23E"/>
<path d="M52.1457 92.8933C52.6303 91.7314 53.9651 91.1824 55.1269 91.667L69.0686 97.4823C69.7896 97.7831 70.1333 98.6089 69.8385 99.3324C69.5638 100.007 68.8244 100.365 68.125 100.162L53.6153 95.9601C52.3081 95.5816 51.6218 94.1493 52.1457 92.8933Z" fill="#FFB23E"/>
<path d="M58.6256 109.474L60.1725 110.887L62.2632 110.758L61.3979 112.666L62.1663 114.614L60.0847 114.381L58.4689 115.714L58.0477 113.662L56.2807 112.537L58.1019 111.502L58.6256 109.474Z" fill="#FFB23E"/>
<path d="M86.4093 99.4302L87.761 99.7733L88.9478 99.0409L89.0392 100.433L90.1024 101.335L88.8072 101.852L88.2775 103.142L87.3856 102.07L85.995 101.965L86.739 100.785L86.4093 99.4302Z" fill="#FFB23E"/>
<path d="M94.5245 98.4409L95.1419 98.5767L95.669 98.2277L95.7306 98.8569L96.2254 99.2503L95.6461 99.5033L95.4248 100.095L95.0052 99.6227L94.3736 99.5952L94.6936 99.05L94.5245 98.4409Z" fill="#FFB23E"/>
<path d="M54.4956 97.2094L53.7774 97.3659L53.1654 96.9588L53.0923 97.6902L52.516 98.1464L53.189 98.442L53.4448 99.131L53.9339 98.5823L54.6682 98.5519L54.2975 97.9173L54.4956 97.2094Z" fill="#FFB23E"/>
<rect width="1.96913" height="8.53291" rx="0.984566" transform="matrix(-0.345301 -0.938492 -0.938492 0.345301 40.6445 103.874)" fill="#EAD1D0"/>
<rect width="1.96913" height="8.53291" rx="0.984566" transform="matrix(-0.345301 -0.938492 -0.938492 0.345301 39.9656 102.026)" fill="#EAD1D0"/>
<rect width="1.96913" height="8.53291" rx="0.984566" transform="matrix(-0.345301 -0.938492 -0.938492 0.345301 39.2866 100.178)" fill="#EAD1D0"/>
<path d="M98.2303 104.347L99.4554 104.617L100.501 103.924L100.624 105.172L101.605 105.953L100.456 106.455L100.017 107.63L99.184 106.692L97.9308 106.638L98.5658 105.556L98.2303 104.347Z" fill="#FFB23E"/>
<path d="M50.171 104.068L48.7459 104.378L47.5315 103.571L47.3864 105.022L46.2429 105.927L47.5783 106.514L48.0859 107.881L49.0564 106.792L50.5136 106.732L49.778 105.472L50.171 104.068Z" fill="#FFB23E"/>
<path d="M56.3186 100.631L57.2363 101.475L58.4806 101.402L57.962 102.535L58.4156 103.696L57.1774 103.554L56.2134 104.344L55.9667 103.122L54.9174 102.449L56.0031 101.837L56.3186 100.631Z" fill="#FFB23E"/>
<path d="M63.233 105.625L63.3805 106.256L63.9358 106.588L63.3822 106.923L63.2377 107.554L62.748 107.131L62.1035 107.188L62.3544 106.592L62.1005 105.997L62.7453 106.051L63.233 105.625Z" fill="#FFB23E"/>
<path d="M80.8505 106.268L81.0751 106.875L81.6673 107.136L81.1595 107.537L81.0944 108.181L80.556 107.822L79.9236 107.959L80.0986 107.336L79.7728 106.777L80.4194 106.751L80.8505 106.268Z" fill="#FFB23E"/>
<path d="M51.8374 117.799L52.3994 118.005L52.9385 117.745L52.916 118.343L53.3302 118.775L52.7543 118.939L52.4712 119.466L52.1377 118.969L51.5486 118.863L51.9184 118.392L51.8374 117.799Z" fill="#FFB23E"/>
<path d="M53.5239 109.146L53.4868 109.511L53.7233 109.792L53.3644 109.869L53.1704 110.181L52.9858 109.864L52.6294 109.776L52.8742 109.502L52.8479 109.136L53.1838 109.284L53.5239 109.146Z" fill="#FFB23E"/>
<path d="M80.4392 112.59L82.9383 113.175L85.097 111.786L85.313 114.344L87.3005 115.968L84.9349 116.964L84.0045 119.356L82.3265 117.414L79.764 117.268L81.0926 115.072L80.4392 112.59Z" fill="#FFB23E"/>
<path d="M94.0356 118.959L86.8806 104.854" stroke="#914E8D" stroke-width="0.735599" stroke-linecap="round"/>
<path d="M49.915 111.567L52.4312 100.956" stroke="#914E8D" stroke-width="0.735599" stroke-linecap="round"/>
<path d="M103.588 106.599C103.783 106.444 104.064 106.46 104.24 106.637L106.754 109.153C106.963 109.362 106.941 109.708 106.706 109.888L94.756 119.062C94.527 119.237 94.1964 119.178 94.0425 118.934L92.2855 116.146C92.1522 115.934 92.1995 115.656 92.3952 115.5L103.588 106.599Z" fill="#FFB23E"/>
<path d="M40.0631 97.1495C39.9673 96.9192 39.7139 96.7975 39.4742 96.8667L35.3452 98.0592C35.0606 98.1413 34.9133 98.455 35.0318 98.7264L42.1082 114.944C42.2236 115.208 42.5416 115.317 42.7944 115.177L46.2893 113.25C46.5083 113.13 46.6014 112.863 46.5053 112.632L40.0631 97.1495Z" fill="#FFB23E"/>
<rect x="26.4402" y="91.5942" width="2.43454" height="17.5034" rx="1.21727" transform="rotate(-27.9303 26.4402 91.5942)" fill="#964C1A"/>
<rect width="1.96913" height="2.60746" rx="0.984566" transform="matrix(-0.345301 -0.938492 -0.938492 0.345301 36.1299 102.224)" fill="#EAD1D0"/>
<path d="M31.0672 86.8804C31.1668 86.5244 30.8517 86.1904 30.4906 86.2691L27.9103 86.8312C27.7806 86.8594 27.6449 86.8339 27.5344 86.7603L25.3356 85.2978C25.0279 85.0931 24.6128 85.2895 24.5761 85.6573L24.3133 88.2849C24.3001 88.4171 24.2338 88.5382 24.1297 88.6206L22.0593 90.2598C21.7695 90.4892 21.8281 90.9446 22.1665 91.0933L24.5843 92.1552C24.7059 92.2086 24.8007 92.309 24.8469 92.4335L25.766 94.9091C25.8947 95.2556 26.3459 95.3406 26.5919 95.0647L28.3489 93.0933C28.4373 92.9942 28.5621 92.9351 28.6947 92.9297L31.3332 92.8205C31.7025 92.8052 31.9228 92.4024 31.7364 92.0832L30.4045 89.8029C30.3375 89.6883 30.3199 89.5513 30.3557 89.4235L31.0672 86.8804Z" fill="#FFB23E"/>
<path d="M29.4622 88.4711C29.5617 88.1152 29.2467 87.7812 28.8855 87.8598L27.7157 88.1147C27.586 88.1429 27.4503 88.1174 27.3398 88.0438L26.3429 87.3808C26.0352 87.176 25.6202 87.3725 25.5834 87.7403L25.4642 88.9315C25.451 89.0637 25.3848 89.1848 25.2807 89.2672L24.342 90.0104C24.0522 90.2398 24.1108 90.6952 24.4493 90.8438L25.5454 91.3253C25.667 91.3787 25.7617 91.4791 25.8079 91.6036L26.2246 92.7259C26.3533 93.0724 26.8045 93.1575 27.0505 92.8815L27.847 91.9878C27.9354 91.8887 28.0602 91.8296 28.1929 91.8241L29.389 91.7746C29.7584 91.7593 29.9786 91.3565 29.7922 91.0373L29.1884 90.0035C29.1214 89.8889 29.1038 89.7519 29.1396 89.6241L29.4622 88.4711Z" fill="#FFFACC"/>
<rect x="61.6663" y="123.054" width="5.03223" height="9.18929" fill="#0D3F41"/>
<path d="M60.5536 130.37C60.5075 130.213 60.6252 130.056 60.7889 130.056H66.9986C67.134 130.056 67.2438 130.165 67.2438 130.301V137.494H59.1045C58.6711 137.494 58.4507 136.974 58.7525 136.663L61.5551 133.775L60.5536 130.37Z" fill="#964C1A"/>
<rect width="5.03223" height="9.18929" transform="matrix(-1 0 0 1 82.1238 123.054)" fill="#0D3F41"/>
<path d="M83.2337 130.37C83.2799 130.213 83.1622 130.056 82.9985 130.056H76.7888C76.6534 130.056 76.5436 130.165 76.5436 130.301V137.494H84.6829C85.1163 137.494 85.3366 136.974 85.0348 136.663L82.2322 133.775L83.2337 130.37Z" fill="#964C1A"/>
<ellipse cx="72.0584" cy="100.19" rx="4.26646" ry="4.26646" fill="#FCDC8F"/>
<ellipse cx="72.0567" cy="100.19" rx="2.9537" ry="2.9537" fill="#A53459"/>
<circle cx="70.9622" cy="99.0965" r="1.42215" fill="#EAD1D0"/>
<path d="M27 125C28.6569 125 30 123.209 30 121C30 118.791 28.6569 117 27 117C25.3432 117 24 118.791 24 121C24 123.209 25.3432 125 27 125Z" fill="#FCB13F"/>
<path d="M25.6149 118C25.1212 118.636 24.7984 119.692 24.7984 120.886C24.7984 122.831 25.6523 124.408 26.7067 124.408C26.8063 124.408 26.9037 124.393 27 124.367C26.6908 124.765 26.3148 125 25.9083 125C24.855 125 24 123.424 24 121.479C24 119.718 24.6999 118.259 25.6149 118Z" fill="#DC8927"/>
<path d="M27.0002 124L32 130.827L26.5002 135L27.0002 124Z" fill="#FCB13F"/>
<path d="M25.2263 124L27 124.141L26.7587 135L25 134.195L25.2263 124Z" fill="#DC8927"/>
<path d="M116.5 127C117.881 127 119 125.433 119 123.5C119 121.567 117.881 120 116.5 120C115.119 120 114 121.567 114 123.5C114 125.433 115.119 127 116.5 127Z" fill="#FCB13F"/>
<path d="M117.385 120C117.879 120.636 118.202 121.692 118.202 122.886C118.202 124.831 117.348 126.408 116.293 126.408C116.194 126.408 116.096 126.393 116 126.367C116.309 126.765 116.685 127 117.092 127C118.145 127 119 125.424 119 123.479C119 121.718 118.3 120.259 117.385 120Z" fill="#DC8927"/>
<path d="M116.765 125L111 132.174L117 136L116.765 125Z" fill="#FCB13F"/>
<path d="M118.774 126L117 126.128L117.241 136L119 135.268L118.774 126Z" fill="#DC8927"/>
<path d="M72.5 145C112.541 145 145 112.541 145 72.5C145 32.4594 112.541 0 72.5 0C32.4593 0 0 32.4594 0 72.5C0 112.541 32.4593 145 72.5 145Z" fill="url(#paint0_radial_2464_26923)" fill-opacity="0.97"/>
<path d="M72.5 134L57 146H88L72.5 134Z" fill="#FCB13F"/>
<path d="M72 141C74.7614 141 77 138.761 77 136C77 133.239 74.7614 131 72 131C69.2386 131 67 133.239 67 136C67 138.761 69.2386 141 72 141Z" fill="#FCB13F"/>
<path d="M72.5 134L69 129.827L72.5 118L76 129.827L72.5 134Z" fill="#FCB13F"/>
<path d="M72 139C73.6569 139 75 137.881 75 136.5C75 135.119 73.6569 134 72 134C70.3431 134 69 135.119 69 136.5C69 137.881 70.3431 139 72 139Z" fill="#C9375B"/>
<path d="M71 134C71.5523 134 72 133.552 72 133C72 132.448 71.5523 132 71 132C70.4477 132 70 132.448 70 133C70 133.552 70.4477 134 71 134Z" fill="#C9375B"/>
<path d="M72 146C72.5523 146 73 145.328 73 144.5C73 143.672 72.5523 143 72 143C71.4477 143 71 143.672 71 144.5C71 145.328 71.4477 146 72 146Z" fill="#C9375B"/>
<path d="M10.2012 148.87L17 129C62.6431 154.616 104.355 138.173 122.5 127.5L130.5 149.5C77.405 181.636 28.3459 162.26 10.2012 148.87Z" fill="#675383"/>
<path d="M17.0002 130C13.0414 125.575 15.9625 121.955 18.0001 120.5C54.0001 158.5 106.5 139.5 123 124.5C125.096 127.76 126 130.5 125.5 132C124 135 112.859 140.137 107.716 142.174C65.1003 157.544 28.5002 139 17.0002 130Z" fill="#594773"/>
<path d="M9.14177 156.147C4.71413 151.743 8.16503 150.318 10.444 148.87C60.5607 180.308 107.551 160.644 130 149C133.5 150.5 133.832 155.085 132.204 156.147C129.599 157.77 117.445 161.942 111.694 163.97C64.0313 179.269 23.4664 165.129 9.14177 156.147Z" fill="#594773"/>
<defs>
<radialGradient id="paint0_radial_2464_26923" cx="0" cy="0" r="1" gradientUnits="userSpaceOnUse" gradientTransform="translate(72.5 72.5) scale(72.5)">
<stop stop-color="white" stop-opacity="0"/>
<stop offset="0.12" stop-color="#FDFEFE" stop-opacity="0.02"/>
<stop offset="0.26" stop-color="#F9FBFB" stop-opacity="0.08"/>
<stop offset="0.4" stop-color="#F1F7F7" stop-opacity="0.19"/>
<stop offset="0.55" stop-color="#E7F1F1" stop-opacity="0.33"/>
<stop offset="0.7" stop-color="#DAE9E9" stop-opacity="0.52"/>
<stop offset="0.85" stop-color="#CAE0E0" stop-opacity="0.74"/>
<stop offset="1" stop-color="#B8D6D6"/>
</radialGradient>
</defs>
</svg>
