<svg width="145" height="171" viewBox="0 0 145 171" fill="none" xmlns="http://www.w3.org/2000/svg">
<path d="M29.9407 96.0381C34.6933 97.8743 44.1769 104.107 44.0905 114.346" stroke="#AAD37F" stroke-width="1.10712" stroke-linecap="round" stroke-linejoin="round"/>
<path d="M83.5328 123.47C83.5328 120.905 81.4534 118.826 78.8882 118.826C76.3231 118.826 74.2437 120.905 74.2437 123.47V131.355C74.2437 133.921 76.3231 136 78.8882 136C81.4534 136 83.5328 133.921 83.5328 131.355V123.47Z" fill="#F0D1D1"/>
<path d="M56.278 102.632C54.3923 107.524 50.3307 113.289 43.3345 107.542" stroke="#F0D1D1" stroke-width="5.53561" stroke-linecap="round" stroke-linejoin="round"/>
<path d="M87.5121 103.383C89.5644 104.895 102.148 106.03 90.8066 115.049" stroke="#F0D1D1" stroke-width="5.53561" stroke-linecap="round" stroke-linejoin="round"/>
<path d="M68.7955 123.47C68.7955 120.905 66.7161 118.826 64.1509 118.826C61.5858 118.826 59.5063 120.905 59.5063 123.47V131.355C59.5063 133.921 61.5858 136 64.1509 136C66.7161 136 68.7955 133.921 68.7955 131.355V123.47Z" fill="#F0D1D1"/>
<path d="M95.06 124.658H47.979V125.485C47.979 126.666 48.9371 127.625 50.1188 127.625C51.3004 127.625 52.2585 126.666 52.2585 125.485H52.2639C52.2628 125.517 52.2585 125.55 52.2585 125.582C52.2585 126.764 53.2166 127.722 54.3983 127.722C55.5799 127.722 56.538 126.764 56.538 125.582C56.538 125.55 56.5348 125.517 56.5326 125.485H56.538C56.538 126.666 57.4961 127.625 58.6778 127.625C59.8594 127.625 60.8175 126.666 60.8175 125.485H60.8229C60.8218 125.517 60.8175 125.55 60.8175 125.582C60.8175 126.764 61.7756 127.722 62.9573 127.722C64.1389 127.722 65.097 126.764 65.097 125.582C65.097 125.55 65.0938 125.517 65.0916 125.485H65.097C65.097 126.666 66.0551 127.625 67.2368 127.625C68.4184 127.625 69.3765 126.666 69.3765 125.485H69.3819C69.3808 125.517 69.3765 125.55 69.3765 125.582C69.3765 126.764 70.3346 127.722 71.5163 127.722C72.6979 127.722 73.656 126.764 73.656 125.582C73.656 125.55 73.6528 125.517 73.6506 125.485H73.656C73.656 126.666 74.6141 127.625 75.7958 127.625C76.9774 127.625 77.9355 126.666 77.9355 125.485H77.9409C77.9398 125.517 77.9355 125.55 77.9355 125.582C77.9355 126.764 78.8936 127.722 80.0753 127.722C81.2569 127.722 82.215 126.764 82.215 125.582C82.215 125.55 82.2118 125.517 82.2096 125.485H82.215C82.215 126.666 83.1731 127.625 84.3548 127.625C85.5364 127.625 86.4945 126.666 86.4945 125.485H86.4999C86.4988 125.517 86.4945 125.55 86.4945 125.582C86.4945 126.764 87.4526 127.722 88.6343 127.722C89.8159 127.722 90.774 126.764 90.774 125.582C90.774 125.55 90.7708 125.517 90.7686 125.485H90.7762C90.7762 125.501 90.774 125.517 90.774 125.533C90.774 126.715 91.7321 127.673 92.9138 127.673C94.0954 127.673 95.0535 126.715 95.0535 125.533C95.0535 125.517 95.0514 125.501 95.0514 125.485H95.0535V124.658H95.06Z" fill="#F6E972"/>
<path d="M95.073 124.659L95.0601 124.607V124.659H95.073Z" fill="#AAD37F"/>
<path d="M94.4227 122.176L88.4452 99.3834H54.6067L48.6292 122.176L47.979 124.659H95.06V124.607L94.4227 122.176Z" fill="#AAD37F"/>
<path d="M80.8747 97.9803C80.8963 97.7308 80.9093 97.478 80.9093 97.2231C80.9093 92.3906 76.9927 88.474 72.1602 88.474C67.3277 88.474 63.4111 92.3906 63.4111 97.2231C63.4111 97.4802 63.424 97.734 63.4467 97.9857C62.4627 98.0516 61.6829 98.8682 61.6829 99.8694C61.6829 100.871 62.5286 101.76 63.5731 101.76C63.8669 101.76 64.1445 101.691 64.3929 101.571C63.9911 101.917 63.7351 102.429 63.7351 103.002C63.7351 104.045 64.5809 104.892 65.6254 104.892C66.0283 104.892 66.4009 104.765 66.7077 104.551C66.672 104.695 66.6515 104.846 66.6515 105C66.6515 106.043 67.4972 106.89 68.5417 106.89C69.3129 106.89 69.9751 106.428 70.2689 105.765C70.2699 105.765 70.271 105.765 70.2732 105.765C70.3067 106.779 71.1373 107.591 72.1602 107.591C73.1831 107.591 74.0137 106.779 74.0472 105.765C74.0483 105.765 74.0493 105.765 74.0515 105.765C74.3453 106.427 75.0074 106.89 75.7786 106.89C76.8231 106.89 77.6689 106.043 77.6689 105C77.6689 104.845 77.6484 104.694 77.6127 104.551C77.9195 104.766 78.2921 104.892 78.695 104.892C79.7395 104.892 80.5853 104.045 80.5853 103.002C80.5853 102.374 80.2774 101.819 79.8065 101.476C79.8108 101.467 79.8162 101.459 79.8205 101.451C80.1176 101.646 80.4729 101.76 80.8553 101.76C81.8998 101.76 82.7455 100.913 82.7455 99.8694C82.7455 98.826 81.9095 97.9911 80.8747 97.9803Z" fill="#F6E972"/>
<path d="M72.1601 103.002C75.3516 103.002 77.9388 100.415 77.9388 97.2231C77.9388 94.0316 75.3516 91.4443 72.1601 91.4443C68.9686 91.4443 66.3813 94.0316 66.3813 97.2231C66.3813 100.415 68.9686 103.002 72.1601 103.002Z" fill="#F0D1D1"/>
<path d="M50.0886 21.1222C51.7607 16.78 56.7466 15.2862 61.2842 16.3091C66.5002 17.4853 70.1835 21.8772 69.0634 27.105C66.5985 38.6117 60.9613 54.669 68.2057 63.1438H58.7783C50.0681 52.4731 45.1578 33.9239 50.0886 21.1211V21.1222Z" fill="#F0D1D1"/>
<path d="M53.3807 27.1621C54.4133 23.7403 57.4917 22.5629 60.2947 23.3698C63.5156 24.2965 65.7904 27.7584 65.098 31.8791C63.5761 40.9479 60.0948 53.6039 64.5688 60.2835H58.7468C53.3688 51.8735 50.3358 37.2539 53.3807 27.1632V27.1621Z" fill="#D96892"/>
<path d="M85.57 63.1989H76.1425C83.387 54.7242 77.7498 38.6669 75.2849 27.1602C74.1648 21.9312 77.8481 17.5405 83.0641 16.3642C87.6028 15.3402 92.5876 16.8351 94.2597 21.1762C99.1905 33.9801 94.2802 52.5282 85.57 63.1989Z" fill="#F0D1D1"/>
<path d="M85.6012 60.2825H79.7793C84.2521 53.6029 80.7719 40.9481 79.25 31.8781C78.5587 27.7574 80.8324 24.2967 84.0534 23.3688C86.8563 22.562 89.9347 23.7404 90.9673 27.1612C94.0122 37.2518 90.9803 51.8715 85.6012 60.2814V60.2825Z" fill="#D96892"/>
<path d="M87.35 54.6117H56.9982C44.262 54.6117 33.9373 64.9364 33.9373 77.6726C33.9373 90.4088 44.262 100.734 56.9982 100.734H87.35C100.086 100.734 110.411 90.4088 110.411 77.6726C110.411 64.9364 100.086 54.6117 87.35 54.6117Z" fill="#F0D1D1"/>
<path d="M104.146 82.1551C104.146 71.8949 95.8281 63.5768 85.5679 63.5768H58.7805C48.5203 63.5768 40.2021 71.8949 40.2021 82.1551C40.2021 85.3318 41.0004 88.3206 42.4045 90.9356C43.6327 89.4644 45.4808 88.5279 47.5471 88.5279C51.2455 88.5279 54.2439 91.5264 54.2439 95.2248C54.2439 96.9282 53.6066 98.4825 52.5589 99.6641C54.5042 100.355 56.5986 100.733 58.7805 100.733H85.5679C87.7508 100.733 89.8441 100.355 91.7895 99.6641C90.7417 98.4825 90.1045 96.9282 90.1045 95.2248C90.1045 91.5264 93.1029 88.5279 96.8013 88.5279C98.8676 88.5279 100.715 89.4644 101.944 90.9356C103.349 88.3206 104.146 85.3307 104.146 82.1551Z" fill="#FFF9C8"/>
<path d="M47.5468 88.528C45.4805 88.528 43.6335 89.4644 42.4043 90.9356C44.5721 94.971 48.1884 98.112 52.5587 99.6642C53.6064 98.4825 54.2437 96.9282 54.2437 95.2248C54.2437 91.5264 51.2452 88.528 47.5468 88.528Z" fill="#D96892"/>
<path d="M96.8013 88.528C93.103 88.528 90.1045 91.5264 90.1045 95.2248C90.1045 96.9282 90.7418 98.4825 91.7895 99.6642C96.1587 98.112 99.775 94.971 101.944 90.9356C100.716 89.4644 98.8676 88.528 96.8013 88.528Z" fill="#D96892"/>
<path d="M88.5998 88.934C88.2833 88.6175 87.7702 88.6175 87.4538 88.934C85.0321 91.3557 81.7042 92.3343 78.5513 91.8688C76.9786 91.6365 75.4491 91.0435 74.0968 90.093C73.6107 89.7517 73.1474 89.3672 72.7131 88.934C72.5414 88.7623 72.3113 88.6845 72.0867 88.6996C71.862 88.6845 71.6319 88.7623 71.4602 88.934C71.026 89.3682 70.5626 89.7528 70.0765 90.093C68.7242 91.0435 67.1947 91.6365 65.6221 91.8688C62.4681 92.3332 59.1412 91.3557 56.7196 88.934C56.4031 88.6175 55.89 88.6175 55.5735 88.934C55.2571 89.2505 55.2571 89.7636 55.5735 90.08C57.9218 92.4283 61.0055 93.6024 64.0893 93.6024C64.8109 93.6024 65.5324 93.5376 66.2453 93.409C68.357 93.0277 70.3865 92.0815 72.0867 90.5693C73.7868 92.0815 75.8153 93.0277 77.928 93.409C78.6399 93.5376 79.3625 93.6024 80.084 93.6024C83.1678 93.6024 86.2527 92.4283 88.5998 90.08C88.9163 89.7636 88.9163 89.2505 88.5998 88.934Z" fill="#D96892"/>
<path d="M66.2454 93.4081C67.3374 95.4182 69.3108 96.8137 71.6007 96.9876V90.9756C70.0053 92.2501 68.1604 93.0624 66.2454 93.4081Z" fill="white"/>
<path d="M77.9281 93.4081C76.013 93.0624 74.1681 92.2512 72.5728 90.9756V96.9876C74.8626 96.8137 76.8361 95.4182 77.9281 93.4081Z" fill="white"/>
<path d="M72.0866 90.5684C71.9279 90.7099 71.7648 90.8449 71.6006 90.9756V96.9876C71.7615 96.9995 71.9235 97.006 72.0866 97.006C72.2497 97.006 72.4118 96.9995 72.5727 96.9876V90.9756C72.4085 90.8438 72.2454 90.7099 72.0866 90.5684Z" fill="#EBEBEB"/>
<path d="M72.0866 89.5337C70.5517 89.5337 69.0169 88.9494 67.8482 87.7806C67.0672 87.0008 67.0672 85.7349 67.8482 84.955C68.628 84.1752 69.8939 84.1752 70.6738 84.955C71.4526 85.7338 72.7206 85.7338 73.4994 84.955C74.2793 84.1752 75.5452 84.1752 76.3251 84.955C77.106 85.7349 77.106 87.0008 76.3251 87.7806C75.1564 88.9494 73.6215 89.5337 72.0866 89.5337Z" fill="#D96892"/>
<path d="M59.9685 85.9897C62.8021 85.9897 65.0992 83.6926 65.0992 80.859C65.0992 78.0255 62.8021 75.7284 59.9685 75.7284C57.135 75.7284 54.8379 78.0255 54.8379 80.859C54.8379 83.6926 57.135 85.9897 59.9685 85.9897Z" fill="#004042"/>
<path d="M84.3797 85.9897C87.2133 85.9897 89.5103 83.6926 89.5103 80.859C89.5103 78.0255 87.2133 75.7284 84.3797 75.7284C81.5461 75.7284 79.249 78.0255 79.249 80.859C79.249 83.6926 81.5461 85.9897 84.3797 85.9897Z" fill="#004042"/>
<path d="M90.3421 74.3501C89.8323 76.7404 87.7098 78.5345 85.1661 78.5345C85.1553 78.5345 85.1456 78.5345 85.1348 78.5345V80.59C88.0576 80.59 90.4274 78.2202 90.4274 75.2974C90.4274 74.9744 90.3972 74.6579 90.341 74.3512L90.3421 74.3501Z" fill="#004042"/>
<path d="M54.0062 74.3501C54.5161 76.7404 56.6385 78.5345 59.1822 78.5345C59.193 78.5345 59.2028 78.5345 59.2136 78.5345V80.59C56.2907 80.59 53.9209 78.2202 53.9209 75.2974C53.9209 74.9744 53.9511 74.6579 54.0073 74.3512L54.0062 74.3501Z" fill="#004042"/>
<path d="M59.7957 80.5932C60.8325 80.5932 61.673 79.7527 61.673 78.7159C61.673 77.6791 60.8325 76.8386 59.7957 76.8386C58.7589 76.8386 57.9185 77.6791 57.9185 78.7159C57.9185 79.7527 58.7589 80.5932 59.7957 80.5932Z" fill="white"/>
<path d="M84.5523 80.5932C85.5891 80.5932 86.4296 79.7527 86.4296 78.7159C86.4296 77.6791 85.5891 76.8386 84.5523 76.8386C83.5155 76.8386 82.675 77.6791 82.675 78.7159C82.675 79.7527 83.5155 80.5932 84.5523 80.5932Z" fill="white"/>
<path d="M100.781 50.2696L98.7488 50.5634L100.393 49.3353C101.241 48.6073 101.139 47.174 100.17 46.2051C99.2013 45.2362 97.768 45.1347 97.04 45.9826L95.8119 47.6265L96.1057 45.5948C96.191 44.4801 95.1044 43.5393 93.7348 43.5393C92.3652 43.5393 91.2796 44.4812 91.3639 45.5948L91.6577 47.6265L90.4296 45.9826C89.7015 45.1347 88.2682 45.2362 87.2993 46.2051C86.3304 47.174 86.2289 48.6073 87.0768 49.3353L88.7208 50.5634L86.689 50.2696C85.5743 50.1843 84.6335 51.2709 84.6335 52.6405C84.6335 54.0101 85.5754 55.0957 86.689 55.0114L88.7208 54.7176L87.0768 55.9458C86.2289 56.6738 86.3304 58.1071 87.2993 59.076C88.2682 60.0449 89.7015 60.1464 90.4296 59.2985L91.6577 57.6545L91.3639 59.6863C91.2785 60.801 92.3652 61.7418 93.7348 61.7418C95.1044 61.7418 96.1899 60.7999 96.1057 59.6863L95.8119 57.6545L97.04 59.2985C97.768 60.1464 99.2013 60.0449 100.17 59.076C101.139 58.1071 101.241 56.6738 100.393 55.9458L98.7488 54.7176L100.781 55.0114C101.895 55.0968 102.836 54.0101 102.836 52.6405C102.836 51.2709 101.894 50.1854 100.781 50.2696ZM93.6905 52.6589V52.6211L93.7175 52.5941H93.7553L93.7823 52.6211V52.6589L93.7553 52.6859H93.7175L93.6905 52.6589Z" fill="white"/>
<path d="M93.7359 55.9661C95.5726 55.9661 97.0616 54.4771 97.0616 52.6403C97.0616 50.8036 95.5726 49.3146 93.7359 49.3146C91.8991 49.3146 90.4102 50.8036 90.4102 52.6403C90.4102 54.4771 91.8991 55.9661 93.7359 55.9661Z" fill="#F6E972"/>
<path d="M71.5196 113.749C72.4144 113.749 73.1398 113.024 73.1398 112.129C73.1398 111.234 72.4144 110.509 71.5196 110.509C70.6248 110.509 69.8994 111.234 69.8994 112.129C69.8994 113.024 70.6248 113.749 71.5196 113.749Z" fill="#688C3C"/>
<path d="M40.4817 104.271C38.9848 101.882 39.708 98.732 42.097 97.2351C43.5938 99.6241 42.8706 102.774 40.4817 104.271Z" fill="#AAD37F"/>
<path d="M71.5196 120.554C72.4144 120.554 73.1398 119.829 73.1398 118.934C73.1398 118.039 72.4144 117.314 71.5196 117.314C70.6248 117.314 69.8994 118.039 69.8994 118.934C69.8994 119.829 70.6248 120.554 71.5196 120.554Z" fill="#688C3C"/>
<circle cx="43.4955" cy="107.865" r="4.91462" transform="rotate(-3.90243 43.4955 107.865)" fill="#F0D1D1"/>
<path d="M32.0297 96.3567L38.0377 94.7395C38.8954 94.5086 39.6621 95.3311 39.3717 96.1706L38.8928 97.5547L38.8744 99.0192C38.8633 99.9074 37.8633 100.421 37.1345 99.9136L32.0297 96.3567Z" fill="#D96892"/>
<path d="M32.3347 95.8751L35.7157 101.098C36.1984 101.844 35.6505 102.826 34.7624 102.807L33.2982 102.775L31.8985 103.207C31.0497 103.468 30.2538 102.674 30.5138 101.824L32.3347 95.8751Z" fill="#D96892"/>
<path d="M32.2664 95.9164L28.773 101.065C28.2743 101.8 27.1565 101.678 26.8282 100.852L26.2868 99.4916L25.3443 98.3705C24.7726 97.6907 25.1941 96.6482 26.0777 96.5568L32.2664 95.9164Z" fill="#D96892"/>
<path d="M32.2515 96.208L26.2357 94.6202C25.3768 94.3935 25.1212 93.2985 25.791 92.715L26.8952 91.7529L27.6401 90.4918C28.0919 89.727 29.2151 89.7789 29.5944 90.5821L32.2515 96.208Z" fill="#D96892"/>
<path d="M32.2213 96.5693L37.075 92.6768C37.7679 92.121 37.5572 91.0165 36.7083 90.755L35.3086 90.3238L34.116 89.4736C33.3927 88.9579 32.3872 89.4612 32.3665 90.3492L32.2213 96.5693Z" fill="#D96892"/>
<circle cx="31.939" cy="96.0921" r="2.86236" fill="#F6E972"/>
<path d="M27 125C28.6569 125 30 123.209 30 121C30 118.791 28.6569 117 27 117C25.3432 117 24 118.791 24 121C24 123.209 25.3432 125 27 125Z" fill="#FCB13F"/>
<path d="M25.6149 118C25.1212 118.636 24.7984 119.692 24.7984 120.886C24.7984 122.831 25.6523 124.408 26.7067 124.408C26.8063 124.408 26.9037 124.393 27 124.367C26.6908 124.765 26.3148 125 25.9083 125C24.855 125 24 123.424 24 121.479C24 119.718 24.6999 118.259 25.6149 118Z" fill="#DC8927"/>
<path d="M27.0002 124L32 130.827L26.5002 135L27.0002 124Z" fill="#FCB13F"/>
<path d="M25.2263 124L27 124.141L26.7587 135L25 134.195L25.2263 124Z" fill="#DC8927"/>
<path d="M116.5 127C117.881 127 119 125.433 119 123.5C119 121.567 117.881 120 116.5 120C115.119 120 114 121.567 114 123.5C114 125.433 115.119 127 116.5 127Z" fill="#FCB13F"/>
<path d="M117.385 120C117.879 120.636 118.202 121.692 118.202 122.886C118.202 124.831 117.348 126.408 116.293 126.408C116.194 126.408 116.096 126.393 116 126.367C116.309 126.765 116.685 127 117.092 127C118.145 127 119 125.424 119 123.479C119 121.718 118.3 120.259 117.385 120Z" fill="#DC8927"/>
<path d="M116.765 125L111 132.174L117 136L116.765 125Z" fill="#FCB13F"/>
<path d="M118.774 126L117 126.128L117.241 136L119 135.268L118.774 126Z" fill="#DC8927"/>
<path d="M72.5 145C112.541 145 145 112.541 145 72.5C145 32.4594 112.541 0 72.5 0C32.4593 0 0 32.4594 0 72.5C0 112.541 32.4593 145 72.5 145Z" fill="url(#paint0_radial_2464_25707)" fill-opacity="0.97"/>
<path d="M72.5 134L57 146H88L72.5 134Z" fill="#FCB13F"/>
<path d="M72 141C74.7614 141 77 138.761 77 136C77 133.239 74.7614 131 72 131C69.2386 131 67 133.239 67 136C67 138.761 69.2386 141 72 141Z" fill="#FCB13F"/>
<path d="M72.5 134L69 129.827L72.5 118L76 129.827L72.5 134Z" fill="#FCB13F"/>
<path d="M72 139C73.6569 139 75 137.881 75 136.5C75 135.119 73.6569 134 72 134C70.3431 134 69 135.119 69 136.5C69 137.881 70.3431 139 72 139Z" fill="#C9375B"/>
<path d="M71 134C71.5523 134 72 133.552 72 133C72 132.448 71.5523 132 71 132C70.4477 132 70 132.448 70 133C70 133.552 70.4477 134 71 134Z" fill="#C9375B"/>
<path d="M72 146C72.5523 146 73 145.328 73 144.5C73 143.672 72.5523 143 72 143C71.4477 143 71 143.672 71 144.5C71 145.328 71.4477 146 72 146Z" fill="#C9375B"/>
<path d="M10.2012 148.87L17 129C62.6431 154.616 104.355 138.173 122.5 127.5L130.5 149.5C77.405 181.636 28.3459 162.26 10.2012 148.87Z" fill="#675383"/>
<path d="M17.0002 130C13.0414 125.575 15.9625 121.955 18.0001 120.5C54.0001 158.5 106.5 139.5 123 124.5C125.096 127.76 126 130.5 125.5 132C124 135 112.859 140.137 107.716 142.174C65.1003 157.544 28.5002 139 17.0002 130Z" fill="#594773"/>
<path d="M9.14177 156.147C4.71413 151.743 8.16503 150.318 10.444 148.87C60.5607 180.308 107.551 160.644 130 149C133.5 150.5 133.832 155.085 132.204 156.147C129.599 157.77 117.445 161.942 111.694 163.97C64.0313 179.269 23.4664 165.129 9.14177 156.147Z" fill="#594773"/>
<defs>
<radialGradient id="paint0_radial_2464_25707" cx="0" cy="0" r="1" gradientUnits="userSpaceOnUse" gradientTransform="translate(72.5 72.5) scale(72.5)">
<stop stop-color="white" stop-opacity="0"/>
<stop offset="0.12" stop-color="#FDFEFE" stop-opacity="0.02"/>
<stop offset="0.26" stop-color="#F9FBFB" stop-opacity="0.08"/>
<stop offset="0.4" stop-color="#F1F7F7" stop-opacity="0.19"/>
<stop offset="0.55" stop-color="#E7F1F1" stop-opacity="0.33"/>
<stop offset="0.7" stop-color="#DAE9E9" stop-opacity="0.52"/>
<stop offset="0.85" stop-color="#CAE0E0" stop-opacity="0.74"/>
<stop offset="1" stop-color="#B8D6D6"/>
</radialGradient>
</defs>
</svg>
