<svg width="145" height="171" viewBox="0 0 145 171" fill="none" xmlns="http://www.w3.org/2000/svg">
<ellipse cx="71.2316" cy="44.5279" rx="29.393" ry="16.5547" fill="#C45C84"/>
<path d="M64.2888 32.0457C70.646 37.7969 68.4004 55.0294 60.794 63.9022C53.1876 72.775 41.8679 75.3055 35.5107 69.5542C29.1535 63.8029 30.1662 51.9478 37.7726 43.075C45.379 34.2022 57.9317 26.2944 64.2888 32.0457Z" fill="#C45C84"/>
<path d="M73.1829 31.2203C66.2323 37.275 72.5709 55.0418 80.5204 63.9705C88.47 72.8992 100.549 75.2291 107.5 69.1744C114.45 63.1198 113.64 50.9734 105.691 42.0447C97.7413 33.116 80.1336 25.1657 73.1829 31.2203Z" fill="#C45C84"/>
<path d="M84.5239 47.1291C85.2232 45.0834 91.1451 44.4851 96.8279 47.5787C102.511 50.6722 106.204 56.1247 105.505 58.1704C104.806 60.2161 100.113 59.9219 94.4304 56.8284C88.7477 53.7348 83.8247 49.1748 84.5239 47.1291Z" fill="#EF7BA2"/>
<path d="M56.5257 46.6251C56.3508 45.223 58.1656 42.5667 60.6296 42.0388C63.0937 41.5109 65.3734 43.0644 65.5482 44.4665C65.7231 45.8685 64.1336 47.5501 61.6696 48.078C59.2055 48.6059 56.7005 48.0271 56.5257 46.6251Z" fill="#D9D9D9"/>
<path d="M65.2059 31.5723C65.3686 32.5861 64.1136 34.5998 62.3319 35.091C60.5502 35.5823 58.8503 34.5493 58.6876 33.5355C58.5249 32.5217 59.6404 31.2279 61.4221 30.7367C63.2037 30.2454 65.0432 30.5585 65.2059 31.5723Z" fill="#D9D9D9"/>
<path d="M96.2843 51.2737C96.0192 52.1893 94.5096 52.7836 92.9287 51.9971C91.3478 51.2105 90.1712 49.4441 90.4363 48.5284C90.7015 47.6128 92.3149 47.3531 93.8959 48.1397C95.4768 48.9262 96.5495 50.358 96.2843 51.2737Z" fill="#D9D9D9"/>
<path d="M107.111 68.9707C107.111 73.5609 84.9548 75.002 69.3344 75.002C53.7141 75.002 34.4058 72.8043 34.4058 68.2142C34.4058 63.6241 53.7141 58.3798 69.3344 58.3798C84.9548 58.3798 107.111 64.3806 107.111 68.9707Z" fill="#671430"/>
<path d="M98.5974 65.6013C98.5974 69.1465 81.8769 71.2181 69.7111 71.2181C57.5454 71.2181 41.7034 68.3441 41.7034 64.7989C41.7034 61.2537 57.5454 58.3798 69.7111 58.3798C81.8769 58.3798 98.5974 62.0561 98.5974 65.6013Z" fill="#992049"/>
<path d="M73.8722 32.2993C74.3066 29.0217 78.9326 28.8502 84.3567 30.0853C89.1007 31.1655 92.7429 34.6652 92.3085 37.9428C91.874 41.2203 88.2287 44.1889 83.4846 43.1087C78.7406 42.0284 73.4377 35.5768 73.8722 32.2993Z" fill="#EF7BA2"/>
<path d="M62.8253 54.9567C62.4643 57.848 65.1872 59.509 68.6515 60.252C71.6814 60.9019 74.5125 59.1613 74.8735 56.27C75.2345 53.3787 73.6246 49.6934 70.5947 49.0436C67.5648 48.3937 63.1863 52.0654 62.8253 54.9567Z" fill="#EF7BA2"/>
<path d="M45.2255 46.9028C45.8341 49.3222 49.3318 48.7839 53.3097 47.0651C56.7888 45.5619 59.2306 42.3854 58.622 39.966C58.0135 37.5466 55.0139 35.825 51.5348 37.3283C48.0556 38.8315 44.617 44.4834 45.2255 46.9028Z" fill="#EF7BA2"/>
<path d="M100.926 49.9998C102.055 47.6444 104.946 47.3613 107.384 49.3676C109.822 51.3738 110.884 54.9097 109.756 57.2652C108.628 59.6206 107.002 56.7697 104.563 54.7634C102.125 52.7571 99.7982 52.3553 100.926 49.9998Z" fill="#D9D9D9"/>
<path d="M87.6173 37.1712C88.1546 34.9138 90.818 33.9946 93.5663 35.1182C96.3146 36.2418 98.1071 38.9826 97.5698 41.24C97.0326 43.4974 94.5995 45.2895 91.8512 44.1659C89.1029 43.0424 87.0801 39.4287 87.6173 37.1712Z" fill="#D9D9D9"/>
<path d="M77.0418 41.3793C77.2408 39.8712 79.8137 36.5854 82.1929 37.1248C84.572 37.6641 85.8565 41.8244 85.6575 43.3326C85.4585 44.8407 83.4141 44.922 81.0349 44.3826C78.6558 43.8432 76.8427 42.8874 77.0418 41.3793Z" fill="#D9D9D9"/>
<path d="M65.5927 36.8766C65.622 34.8935 67.968 30.0114 70.5714 30.0776C73.1748 30.1438 76.2206 33.1237 76.1912 35.1068C76.1619 37.0899 73.6094 37.58 71.006 37.5138C68.4026 37.4476 65.5633 38.8598 65.5927 36.8766Z" fill="#D9D9D9"/>
<path d="M52.1807 34.3028C52.7341 36.1489 51.5884 41.422 49.1648 42.67C46.7413 43.9181 41.9944 43.3595 41.441 41.5134C40.4384 40.1851 45.7165 36.3873 48.0444 34.7572C50.4748 33.3311 51.6273 32.4566 52.1807 34.3028Z" fill="#D9D9D9"/>
<path d="M41.5444 50.1522C40.7033 48.2731 38.6208 47.8269 36.893 49.1555C35.1652 50.4841 34.4465 53.0844 35.2877 54.9635C36.1288 56.8426 37.1613 55.0412 38.8891 53.7126C40.6168 52.384 42.3856 52.0313 41.5444 50.1522Z" fill="#D9D9D9"/>
<path d="M69.1976 58.3245L74.1005 58.4413L76.0643 73.9515L69.4258 73.4L69.1976 58.3245Z" fill="#280410"/>
<path d="M69.1976 58.3246L64.2945 58.4415L62.7934 73.8761L69.3993 72.8172L69.1976 58.3246Z" fill="#280410"/>
<path d="M78.5073 52.8429C78.8043 50.4612 77.182 46.2618 74.718 45.7339C72.2539 45.206 69.8009 48.149 69.5039 50.5307C69.2069 52.9123 70.6825 55.5065 73.1466 56.0344C75.6106 56.5623 78.2103 55.2245 78.5073 52.8429Z" fill="#D9D9D9"/>
<ellipse cx="71.2316" cy="44.5279" rx="29.393" ry="16.5547" fill="#C45C84"/>
<path d="M64.2888 32.0457C70.646 37.7969 68.4004 55.0294 60.794 63.9022C53.1876 72.775 41.8679 75.3055 35.5107 69.5542C29.1535 63.8029 30.1662 51.9478 37.7726 43.075C45.379 34.2022 57.9317 26.2944 64.2888 32.0457Z" fill="#C45C84"/>
<path d="M91.0466 32.8091C97.4038 38.5603 95.1582 55.7928 87.5518 64.6656C79.9454 73.5384 68.6257 76.0689 62.2685 70.3176C55.9113 64.5664 56.924 52.7112 64.5304 43.8384C72.1368 34.9656 84.6895 27.0578 91.0466 32.8091Z" fill="#C45C84"/>
<path d="M73.1829 31.2203C66.2323 37.275 72.5709 55.0418 80.5204 63.9705C88.47 72.8992 100.549 75.2291 107.5 69.1744C114.45 63.1198 113.64 50.9734 105.691 42.0447C97.7413 33.116 80.1336 25.1657 73.1829 31.2203Z" fill="#C45C84"/>
<path d="M107.111 69.1207C107.111 73.9052 84.9548 75.4074 69.3344 75.4074C53.7141 75.4074 34.4058 73.1167 34.4058 68.3322C34.4058 63.5477 53.7141 64.548 69.3344 64.548C84.9548 64.548 107.111 64.3362 107.111 69.1207Z" fill="#671430"/>
<ellipse cx="71.7424" cy="47.8389" rx="17.0952" ry="12.2978" fill="black"/>
<path d="M40.3947 27.1772C40.1696 26.659 40.6902 26.1305 41.2117 26.3477L55.2628 32.2001C55.5715 32.3287 55.7252 32.6766 55.6123 32.9914L55.2552 33.9869L54.5119 35.541L53.6335 36.8924L52.6723 38.174C52.6376 38.2203 52.5966 38.2616 52.5506 38.2967L51.201 39.3249L49.8234 40.2433C49.7958 40.2617 49.7669 40.2778 49.7368 40.2916L47.2801 41.4182C46.9605 41.5647 46.5829 41.4202 46.4428 41.0978L40.3947 27.1772Z" fill="black"/>
<path d="M43.0563 30.4495C42.7949 29.747 43.578 28.9489 44.2854 29.1971L54.6702 32.8399C55.0932 32.9883 55.5174 33.3308 55.3186 33.7875L54.8662 34.8225L54.6447 35.2771L54.4445 35.6007C54.3886 35.6911 54.3265 35.7776 54.2711 35.8683L53.8597 36.5875L53.4151 37.1789L52.69 38.143C52.6301 38.2227 52.5593 38.2942 52.4801 38.3548L51.2803 39.2734L50.0357 40.124C49.9915 40.1541 49.9455 40.1808 49.898 40.2037L47.9982 41.1195C47.5414 41.3398 47.0466 41.1738 46.8878 40.7469L43.0563 30.4495Z" fill="#EF7BA2" fill-opacity="0.5"/>
<path d="M102.975 27.1371C103.2 26.619 102.679 26.0904 102.158 26.3076L88.1068 32.1601C87.7981 32.2886 87.6445 32.6366 87.7573 32.9513L88.1144 33.9468L88.8577 35.501L89.7361 36.8524L90.6973 38.134C90.732 38.1803 90.773 38.2215 90.8191 38.2566L92.1686 39.2849L93.5463 40.2033C93.5738 40.2216 93.6027 40.2378 93.6328 40.2516L96.0896 41.3781C96.4091 41.5247 96.7867 41.3802 96.9268 41.0577L102.975 27.1371Z" fill="black"/>
<path d="M100.314 30.4093C100.575 29.7068 99.7921 28.9088 99.0847 29.1569L88.7 32.7997C88.277 32.9481 87.8528 33.2906 88.0515 33.7473L88.5039 34.7823L88.7254 35.2369L88.9256 35.5605C88.9815 35.6509 89.0436 35.7374 89.099 35.8281L89.5105 36.5473L89.955 37.1388L90.6801 38.1029C90.74 38.1826 90.8109 38.254 90.89 38.3146L92.0899 39.2332L93.3344 40.0838C93.3786 40.114 93.4246 40.1406 93.4722 40.1635L95.3719 41.0794C95.8288 41.2996 96.3235 41.1336 96.4823 40.7067L100.314 30.4093Z" fill="#EF7BA2" fill-opacity="0.5"/>
<path d="M67.1191 46.9083C66.932 48.0499 64.7033 48.6348 63.0462 48.3631C61.389 48.0914 59.6639 46.8582 59.851 45.7166C60.0382 44.575 62.0668 43.9573 63.724 44.229C65.3812 44.5007 67.3063 45.7666 67.1191 46.9083Z" fill="#D9D9D9"/>
<circle cx="63.4318" cy="46.3523" r="2.16224" fill="#280410"/>
<path d="M76.8792 46.9083C77.0663 48.0499 79.295 48.6348 80.9521 48.3631C82.6093 48.0914 84.3344 46.8582 84.1473 45.7166C83.9601 44.575 81.9315 43.9573 80.2743 44.229C78.6171 44.5007 76.692 45.7666 76.8792 46.9083Z" fill="#D9D9D9"/>
<circle cx="80.4591" cy="46.3523" r="2.16224" fill="#280410"/>
<ellipse cx="66.2019" cy="42.0952" rx="1.28383" ry="0.743271" transform="rotate(16.1777 66.2019 42.0952)" fill="#EAD1D0" fill-opacity="0.7"/>
<ellipse cx="80.7292" cy="50.4741" rx="1.75682" ry="0.878411" fill="#BA597E"/>
<path d="M71.9226 51.2622C71.8569 51.3149 71.7634 51.3149 71.6978 51.2622L70.5685 50.354C70.4365 50.2479 70.5116 50.0349 70.6808 50.0349H72.9395C73.1088 50.0349 73.1838 50.2479 73.0519 50.354L71.9226 51.2622Z" fill="#EAD1D0" fill-opacity="0.7"/>
<ellipse cx="63.4316" cy="50.4741" rx="1.75682" ry="0.878411" fill="#BA597E"/>
<path d="M47.7168 64.4202C49.9466 64.0148 60.7241 64.4202 69.9423 64.4202C79.1606 64.4202 89.0021 64.7314 92.1104 65.0017C92.1104 66.9795 79.1606 68.542 69.9423 68.542C60.7241 68.542 47.7168 66.3981 47.7168 64.4202Z" fill="#992049"/>
<ellipse cx="1.28383" cy="0.743271" rx="1.28383" ry="0.743271" transform="matrix(-0.960402 0.278618 0.278618 0.960402 78.6003 41.0819)" fill="#EAD1D0" fill-opacity="0.7"/>
<path d="M71.9301 61.7765L87.6549 62.2306L93.9711 84.2592L72.6842 83.4498L71.9301 61.7765Z" fill="black"/>
<path d="M71.9788 61.7663L56.1066 61.9353L51.2471 84.2573L72.6317 82.7259L71.9788 61.7663Z" fill="black"/>
<path d="M71.9115 123.421L86.8993 127.099L94.2505 99.0321L72.7603 99.8295L71.9115 123.421Z" fill="black"/>
<path d="M72.0779 123.599L56.905 126.64L51.2884 99.1413L72.673 100.673L72.0779 123.599Z" fill="black"/>
<path d="M51.1316 83.8066C51.1316 80.3123 55.627 78.5472 61.5885 78.5472H83.1768C89.1383 78.5472 93.971 80.6682 93.971 84.1625V97.9239C93.971 101.418 89.1383 104.251 83.1768 104.251H61.5885C55.627 104.251 51.2665 102.13 51.2665 98.6356L51.1316 83.8066Z" fill="black"/>
<rect x="82.3806" y="99.23" width="24.3252" height="9.05439" rx="4.5272" transform="rotate(-45 82.3806 99.23)" fill="black"/>
<rect width="24.3252" height="9.05439" rx="4.5272" transform="matrix(-0.707107 -0.707107 -0.707107 0.707107 62.063 99.0947)" fill="black"/>
<rect width="24.3252" height="9.05439" rx="4.5272" transform="matrix(0 -1 -1 0 65.8977 140)" fill="black"/>
<rect width="24.3252" height="9.05439" rx="4.5272" transform="matrix(0 -1 -1 0 87.9255 140)" fill="black"/>
<rect x="56.8435" y="108.535" width="31.3525" height="22.2981" rx="3.58646" fill="black"/>
<path d="M96.5043 47.747C96.226 48.5458 94.6417 49.0642 92.9826 48.378C91.3235 47.6919 90.0886 46.1508 90.3669 45.352C90.6453 44.5532 92.3385 44.3267 93.9976 45.0129C95.6568 45.6991 96.7826 46.9482 96.5043 47.747Z" fill="#D9D9D9"/>
<path d="M89.0856 44.7083C89.5416 41.849 94.3964 41.6994 100.089 42.7769C105.068 43.7193 108.89 46.7723 108.434 49.6316C107.978 52.4909 104.152 55.0807 99.1736 54.1383C94.1949 53.1959 88.6297 47.5676 89.0856 44.7083Z" fill="#EF7BA2"/>
<path d="M85.0592 58.8735C84.6804 61.3959 87.538 62.8449 91.1736 63.4931C94.3534 64.06 97.3246 62.5416 97.7035 60.0192C98.0823 57.4969 96.3928 54.2819 93.213 53.715C90.0331 53.1481 85.4381 56.3512 85.0592 58.8735Z" fill="#EF7BA2"/>
<path d="M69.4066 31.7424C69.2087 33.0598 72.4801 34.1338 76.5382 34.8573C80.0876 35.4902 83.2261 34.9799 83.424 33.6625C83.6219 32.3451 81.4828 30.4418 77.9335 29.809C74.3841 29.1762 69.6045 30.4249 69.4066 31.7424Z" fill="#EF7BA2"/>
<path d="M36.6266 57.265C37.5828 60.4252 41.9062 60.1433 46.7333 58.4095C50.9552 56.8931 53.746 53.1198 52.7898 49.9596C51.8336 46.7995 47.9486 44.2531 43.7268 45.7695C39.5049 47.2859 35.6703 54.1048 36.6266 57.265Z" fill="#EF7BA2"/>
<path d="M101.377 46.6357C102.561 44.5808 105.595 44.3339 108.154 46.0841C110.713 47.8344 111.827 50.919 110.643 52.9739C109.459 55.0288 107.753 52.5416 105.194 50.7914C102.635 49.0411 100.193 48.6906 101.377 46.6357Z" fill="#D9D9D9"/>
<path d="M77.0404 31.2574C77.4528 29.8168 79.4976 29.2302 81.6075 29.9472C83.7175 30.6642 85.0936 32.4134 84.6811 33.854C84.2687 35.2946 82.4008 36.4383 80.2908 35.7213C78.1809 35.0042 76.6279 32.698 77.0404 31.2574Z" fill="#D9D9D9"/>
<path d="M82.122 60.6755C82.3309 59.3598 85.031 56.4933 87.5279 56.9639C90.0248 57.4344 91.3728 61.0638 91.164 62.3795C90.9551 63.6952 88.8096 63.7661 86.3127 63.2955C83.8158 62.825 81.9131 61.9912 82.122 60.6755Z" fill="#D9D9D9"/>
<path d="M67.4907 29.9621C67.5859 31.2991 65.9791 34.7545 63.867 34.8978C61.755 35.0411 59.11 33.2551 59.0148 31.9181C58.9196 30.5811 60.9571 30.0671 63.0691 29.9238C65.1812 29.7805 67.3956 28.6251 67.4907 29.9621Z" fill="#D9D9D9"/>
<path d="M43.4063 60.715C43.5526 59.0092 46.5694 55.3341 49.3351 55.4094C52.1007 55.4846 56.4215 58.0115 56.2752 59.7174C56.7461 61.2101 50.3288 61.9017 47.5149 62.1712C44.6777 62.234 43.26 62.4208 43.4063 60.715Z" fill="#D9D9D9"/>
<path d="M41.084 52.2936C40.2012 50.6543 38.0157 50.265 36.2024 51.424C34.3892 52.5831 33.6349 54.8516 34.5177 56.4909C35.4004 58.1302 36.484 56.5586 38.2972 55.3996C40.1105 54.2405 41.9668 53.9329 41.084 52.2936Z" fill="#D9D9D9"/>
<path d="M104.189 58.1243C104.5 56.0465 102.798 52.383 100.212 51.9225C97.6259 51.462 95.0515 54.0294 94.7398 56.1071C94.4281 58.1848 95.9767 60.448 98.5627 60.9085C101.149 61.369 103.877 60.202 104.189 58.1243Z" fill="#D9D9D9"/>
<path d="M43.6625 45.788C43.479 44.5649 45.3835 42.2475 47.9694 41.787C50.5554 41.3265 52.9479 42.6817 53.1314 43.9048C53.3149 45.128 51.6468 46.595 49.0609 47.0555C46.4749 47.516 43.846 47.0111 43.6625 45.788Z" fill="#D9D9D9"/>
<path d="M96.5786 44.949C96.7493 45.8334 95.4322 47.5901 93.5624 48.0187C91.6925 48.4473 89.9086 47.5461 89.7378 46.6617C89.567 45.7773 90.7377 44.6486 92.6075 44.22C94.4774 43.7915 96.4078 44.0646 96.5786 44.949Z" fill="#D9D9D9"/>
<circle cx="63.3934" cy="45.6091" r="1.01355" fill="#D9D9D9"/>
<circle cx="80.421" cy="45.6091" r="1.01355" fill="#D9D9D9"/>
<path d="M27 125C28.6569 125 30 123.209 30 121C30 118.791 28.6569 117 27 117C25.3432 117 24 118.791 24 121C24 123.209 25.3432 125 27 125Z" fill="#FCB13F"/>
<path d="M25.6149 118C25.1212 118.636 24.7984 119.692 24.7984 120.886C24.7984 122.831 25.6523 124.408 26.7067 124.408C26.8063 124.408 26.9037 124.393 27 124.367C26.6908 124.765 26.3148 125 25.9083 125C24.855 125 24 123.424 24 121.479C24 119.718 24.6999 118.259 25.6149 118Z" fill="#DC8927"/>
<path d="M27.0002 124L32 130.827L26.5002 135L27.0002 124Z" fill="#FCB13F"/>
<path d="M25.2263 124L27 124.141L26.7587 135L25 134.195L25.2263 124Z" fill="#DC8927"/>
<path d="M116.5 127C117.881 127 119 125.433 119 123.5C119 121.567 117.881 120 116.5 120C115.119 120 114 121.567 114 123.5C114 125.433 115.119 127 116.5 127Z" fill="#FCB13F"/>
<path d="M117.385 120C117.879 120.636 118.202 121.692 118.202 122.886C118.202 124.831 117.348 126.408 116.293 126.408C116.194 126.408 116.096 126.393 116 126.367C116.309 126.765 116.685 127 117.092 127C118.145 127 119 125.424 119 123.479C119 121.718 118.3 120.259 117.385 120Z" fill="#DC8927"/>
<path d="M116.765 125L111 132.174L117 136L116.765 125Z" fill="#FCB13F"/>
<path d="M118.774 126L117 126.128L117.241 136L119 135.268L118.774 126Z" fill="#DC8927"/>
<path d="M72.5 145C112.541 145 145 112.541 145 72.5C145 32.4594 112.541 0 72.5 0C32.4593 0 0 32.4594 0 72.5C0 112.541 32.4593 145 72.5 145Z" fill="url(#paint0_radial_2464_26945)" fill-opacity="0.97"/>
<path d="M72.5 134L57 146H88L72.5 134Z" fill="#FCB13F"/>
<path d="M72 141C74.7614 141 77 138.761 77 136C77 133.239 74.7614 131 72 131C69.2386 131 67 133.239 67 136C67 138.761 69.2386 141 72 141Z" fill="#FCB13F"/>
<path d="M72.5 134L69 129.827L72.5 118L76 129.827L72.5 134Z" fill="#FCB13F"/>
<path d="M72 139C73.6569 139 75 137.881 75 136.5C75 135.119 73.6569 134 72 134C70.3431 134 69 135.119 69 136.5C69 137.881 70.3431 139 72 139Z" fill="#C9375B"/>
<path d="M71 134C71.5523 134 72 133.552 72 133C72 132.448 71.5523 132 71 132C70.4477 132 70 132.448 70 133C70 133.552 70.4477 134 71 134Z" fill="#C9375B"/>
<path d="M72 146C72.5523 146 73 145.328 73 144.5C73 143.672 72.5523 143 72 143C71.4477 143 71 143.672 71 144.5C71 145.328 71.4477 146 72 146Z" fill="#C9375B"/>
<path d="M10.2012 148.87L17 129C62.6431 154.616 104.355 138.173 122.5 127.5L130.5 149.5C77.405 181.636 28.3459 162.26 10.2012 148.87Z" fill="#675383"/>
<path d="M17.0002 130C13.0414 125.575 15.9625 121.955 18.0001 120.5C54.0001 158.5 106.5 139.5 123 124.5C125.096 127.76 126 130.5 125.5 132C124 135 112.859 140.137 107.716 142.174C65.1003 157.544 28.5002 139 17.0002 130Z" fill="#594773"/>
<path d="M9.14177 156.147C4.71413 151.743 8.16503 150.318 10.444 148.87C60.5607 180.308 107.551 160.644 130 149C133.5 150.5 133.832 155.085 132.204 156.147C129.599 157.77 117.445 161.942 111.694 163.97C64.0313 179.269 23.4664 165.129 9.14177 156.147Z" fill="#594773"/>
<defs>
<radialGradient id="paint0_radial_2464_26945" cx="0" cy="0" r="1" gradientUnits="userSpaceOnUse" gradientTransform="translate(72.5 72.5) scale(72.5)">
<stop stop-color="white" stop-opacity="0"/>
<stop offset="0.12" stop-color="#FDFEFE" stop-opacity="0.02"/>
<stop offset="0.26" stop-color="#F9FBFB" stop-opacity="0.08"/>
<stop offset="0.4" stop-color="#F1F7F7" stop-opacity="0.19"/>
<stop offset="0.55" stop-color="#E7F1F1" stop-opacity="0.33"/>
<stop offset="0.7" stop-color="#DAE9E9" stop-opacity="0.52"/>
<stop offset="0.85" stop-color="#CAE0E0" stop-opacity="0.74"/>
<stop offset="1" stop-color="#B8D6D6"/>
</radialGradient>
</defs>
</svg>
