<svg width="149" height="171" viewBox="0 0 149 171" fill="none" xmlns="http://www.w3.org/2000/svg">
<g filter="url(#filter0_d_1630_37280)">
<path d="M94.0176 118.985C93.3317 117.734 92.7506 116.551 92.3161 115.602L61.1555 109.457C57.9376 110.686 52.7861 113.882 53.4327 116.492C53.6225 117.259 53.4106 118.265 52.9507 119.366C51.1708 123.627 52.1024 128.025 56.7199 128.092C61.6703 128.165 67.0046 127.893 68.9681 127.893C72.5152 127.893 71.9315 125.519 77.2746 127.893C79.5256 128.892 84.8175 128.519 90.121 127.959C93.3529 127.618 95.5794 121.835 94.0176 118.985Z" fill="#5B619B"/>
<path d="M126.529 77.5447C126.529 88.5454 103.391 91.6996 74.849 91.6996C46.3069 91.6996 23.1689 88.5454 23.1689 77.5447C23.1689 63.1354 57.1134 57.626 74.849 57.626C95.4581 57.626 126.529 62.5845 126.529 77.5447Z" fill="#C9345A"/>
<path d="M71.3627 22.6065C73.7801 17.4663 81.1737 17.7116 83.2451 23.0008L103.314 74.2436C104.976 78.4883 101.846 83.0754 97.2875 83.0754H53.1192C48.376 83.0754 45.2442 78.1416 47.2629 73.8494L71.3627 22.6065Z" fill="#C9345A"/>
<mask id="mask0_1630_37280" style="mask-type:alpha" maskUnits="userSpaceOnUse" x="23" y="57" width="104" height="35">
<path d="M126.528 77.4595C126.528 88.4602 103.39 91.6144 74.8475 91.6144C46.3054 91.6144 23.1675 88.4602 23.1675 77.4595C23.1675 63.0502 57.112 57.5408 74.8475 57.5408C95.4566 57.5408 126.528 62.4993 126.528 77.4595Z" fill="#C9345A"/>
</mask>
<g mask="url(#mask0_1630_37280)">
<ellipse cx="5.77597" cy="5.48081" rx="5.77597" ry="5.48081" transform="matrix(0.979266 -0.20258 0.226184 0.974085 30.6216 60.0819)" fill="#FFDDDD"/>
<ellipse cx="8.11321" cy="7.57687" rx="8.11321" ry="7.57687" transform="matrix(0.979266 -0.20258 0.226184 0.974085 101.988 59.217)" fill="#FFDDDD"/>
</g>
<path d="M116.561 80.799C116.561 87.1991 97.8854 89.6656 74.8484 89.6656C51.8114 89.6656 33.1362 87.1991 33.1362 80.799C33.1362 74.3989 51.8114 71.2726 74.8484 71.2726C97.8854 71.2726 116.561 74.3989 116.561 80.799Z" fill="#E28EAE"/>
<path d="M44.8559 40.6697C37.3769 41.033 34.9855 30.746 41.9666 28.2409L73.6474 16.8728C77.1363 15.6208 81.0612 17.5296 82.2392 21.0513L85.4746 30.7233C86.8087 34.7115 84.0049 38.7679 79.772 38.9736L44.8559 40.6697Z" fill="#C9345A"/>
<path d="M60.3918 39.6989C61.2 37.4106 64.2532 31.096 59.8081 31.7743" stroke="#B1294C" stroke-width="1.84906" stroke-linecap="round" stroke-linejoin="round"/>
<path d="M59.8112 57.5594C67.6174 56.5138 81.885 56.1864 92.3646 58.1995" stroke="#F1698B" stroke-width="1.84906" stroke-linecap="round" stroke-linejoin="round"/>
<path d="M49.749 25.7137C58.9535 21.8995 79.7386 10.9767 82.3746 19.8734" stroke="#F1698B" stroke-width="1.84906" stroke-linecap="round" stroke-linejoin="round"/>
<ellipse cx="3.76217" cy="3.56991" rx="3.76217" ry="3.56991" transform="matrix(0.979266 -0.20258 0.226184 0.974085 74.085 39.3147)" fill="#FFDDDD"/>
<ellipse cx="2.10427" cy="1.99674" rx="2.10427" ry="1.99674" transform="matrix(0.979266 -0.20258 0.226184 0.974085 65.1055 24.7377)" fill="#FFDDDD"/>
<ellipse cx="2.00985" cy="2.89036" rx="2.00985" ry="2.89036" transform="matrix(0.52147 -0.85327 0.878259 0.478185 46.9673 37.8313)" fill="#FFDDDD"/>
<path d="M53.0732 96.3941C53.0732 84.3921 62.8028 74.6625 74.8049 74.6625C86.8069 74.6625 96.5365 84.3921 96.5365 96.3941V104.159H53.0732V96.3941Z" fill="#FFD9E7"/>
<path d="M86.7954 108.925C88.2053 109.832 93.7061 113.822 101.07 111.195" stroke="#FFD9E7" stroke-width="1.84906"/>
<path d="M62 110.292C59.7961 110.46 54.9539 111.811 53.2159 115.87" stroke="#E28EAE" stroke-width="1.84906"/>
<path d="M60.9688 107.954C61.9832 102.323 66.8839 98.2267 72.6055 98.2267H76.375C82.0966 98.2267 86.9974 102.323 88.0118 107.954C89.3184 115.207 83.7444 121.875 76.3751 121.875H72.6055C65.2362 121.875 59.6622 115.207 60.9688 107.954Z" fill="#FFD9E7"/>
<path d="M93.2604 117.509C94.0925 119.365 69.5474 113.541 58.5945 109.89C58.1141 109.73 58.2267 109.06 58.7328 109.044L89.6669 108.07C89.8789 108.063 90.0676 108.2 90.1268 108.403C90.8454 110.877 92.3184 115.407 93.2604 117.509Z" fill="#9096D1"/>
<path d="M47.8647 96.4891C47.8647 89.5843 53.4622 83.9869 60.3669 83.9869H89.3325C96.2373 83.9869 101.835 89.5843 101.835 96.4891C101.835 103.394 96.2373 108.991 89.3325 108.991H74.3406H60.3669C53.4621 108.991 47.8647 103.394 47.8647 96.4891Z" fill="#FFD9E7"/>
<ellipse cx="4.45188" cy="6.8073" rx="4.45188" ry="6.8073" transform="matrix(0.970917 0.239416 -0.266754 0.963765 50.8354 86.6548)" fill="#F1698B"/>
<ellipse cx="4.45188" cy="6.8073" rx="4.45188" ry="6.8073" transform="matrix(-0.970917 0.239416 0.266754 0.963765 98.8057 86.6548)" fill="#F1698B"/>
<path d="M59.9883 90.0897V90.0897C64.2435 93.7653 70.5501 93.7653 74.8053 90.0897V90.0897V90.0897C79.0605 93.7653 85.3672 93.7653 89.6223 90.0897V90.0897" stroke="#E28EAE" stroke-width="0.924528" stroke-linecap="round" stroke-linejoin="round"/>
<path d="M72.5009 79.1273C72.6625 80.1599 71.1826 80.5024 70.8277 79.5145C70.651 79.0226 70.9479 78.498 71.4594 78.3982C71.9474 78.303 72.4241 78.6367 72.5009 79.1273Z" fill="#E28EAE"/>
<path d="M77.0626 79.1273C76.9009 80.1599 78.3809 80.5024 78.7358 79.5145C78.9125 79.0226 78.6156 78.498 78.1041 78.3982C77.6161 78.303 77.1394 78.6367 77.0626 79.1273Z" fill="#E28EAE"/>
<path d="M72.5601 86.402C72.5601 88.3681 70.5499 89.9619 68.0701 89.9619C65.5903 89.9619 63.5801 88.3681 63.5801 86.402C63.5801 84.4359 65.5903 83.3082 68.0701 83.3082C70.5499 83.3082 72.5601 84.4359 72.5601 86.402Z" fill="white"/>
<path d="M71.0327 86.5288C71.0327 87.6057 69.907 88.4788 68.5183 88.4788C67.1296 88.4788 66.0039 87.6057 66.0039 86.5288C66.0039 85.4518 67.1296 84.8341 68.5183 84.8341C69.907 84.8341 71.0327 85.4518 71.0327 86.5288Z" fill="#C9345A"/>
<path d="M77.1401 86.402C77.1401 88.3681 79.1503 89.9619 81.6301 89.9619C84.1099 89.9619 86.1201 88.3681 86.1201 86.402C86.1201 84.4359 84.1099 83.3082 81.6301 83.3082C79.1503 83.3082 77.1401 84.4359 77.1401 86.402Z" fill="white"/>
<ellipse cx="3.97213" cy="3.79708" rx="3.97213" ry="3.79708" transform="matrix(0.949262 0.314486 -0.348545 0.937292 49.8833 112.296)" fill="#E28EAE"/>
<path d="M78.5771 86.5288C78.5771 87.6057 79.7029 88.4788 81.0916 88.4788C82.4802 88.4788 83.606 87.6057 83.606 86.5288C83.606 85.4518 82.4802 84.8341 81.0916 84.8341C79.7029 84.8341 78.5771 85.4518 78.5771 86.5288Z" fill="#C9345A"/>
<ellipse cx="101.027" cy="111.957" rx="4.75941" ry="4.4923" fill="#FFD9E7"/>
<path fill-rule="evenodd" clip-rule="evenodd" d="M104.62 91.7437C104.163 91.6332 103.693 91.9111 103.57 92.3646C103.447 92.818 103.717 93.2752 104.174 93.3858L104.217 93.3963L102.439 99.9385C98.8209 100.046 95.5621 102.384 94.6175 105.861C93.4717 110.078 96.4769 113.224 100.945 114.305C105.412 115.387 109.651 113.995 110.797 109.778C111.741 106.302 110.078 102.773 106.963 101.034L108.74 94.4913L108.87 94.5226C109.326 94.6332 109.796 94.3552 109.92 93.9017C110.043 93.4483 109.773 92.9911 109.316 92.8805L104.62 91.7437Z" fill="#B7D6D6" fill-opacity="0.5"/>
<g style="mix-blend-mode:multiply">
<path d="M109.445 108.957C108.54 112.286 105.194 113.385 101.667 112.531C98.1398 111.678 95.7673 109.194 96.6719 105.865C97.5765 102.536 100.31 106.787 104.799 104.922C106.955 104.287 110.349 105.628 109.445 108.957Z" fill="#A977AB" fill-opacity="0.8"/>
</g>
<ellipse cx="105.652" cy="105.135" rx="1.7511" ry="1.65283" fill="#CDABD9"/>
<ellipse cx="99.9946" cy="108.186" rx="1.0327" ry="0.974744" fill="#CDABD9"/>
<path d="M98.1519 103.727C99.1696 102.54 101.564 101.235 105.111 102.591" stroke="#FFF2F7" stroke-width="1.84906" stroke-linecap="round"/>
<path d="M68.5185 118.314C64.896 121.356 64.4775 122.855 64.4775 126.112" stroke="#FFD9E7" stroke-width="1.84906"/>
<path d="M80.3716 118.314C83.9941 121.356 84.4126 122.855 84.4126 126.112" stroke="#FFD9E7" stroke-width="1.84906"/>
<path d="M54.0591 127.68C54.0591 126.439 55.0647 125.434 56.3052 125.434H65.8229V128.857C65.8229 129.447 65.3441 129.926 64.7535 129.926H56.3052C55.0647 129.926 54.0591 128.921 54.0591 127.68Z" fill="#E28EAE"/>
<path d="M94.8311 127.68C94.8311 126.439 93.8254 125.434 92.5849 125.434H83.0672V128.857C83.0672 129.447 83.546 129.926 84.1367 129.926H92.5849C93.8254 129.926 94.8311 128.921 94.8311 127.68Z" fill="#E28EAE"/>
</g>
<path d="M31 125C32.6569 125 34 123.209 34 121C34 118.791 32.6569 117 31 117C29.3432 117 28 118.791 28 121C28 123.209 29.3432 125 31 125Z" fill="#FCB13F"/>
<path d="M29.6149 118C29.1212 118.636 28.7984 119.692 28.7984 120.886C28.7984 122.831 29.6523 124.408 30.7067 124.408C30.8063 124.408 30.9037 124.393 31 124.367C30.6908 124.765 30.3148 125 29.9083 125C28.855 125 28 123.424 28 121.479C28 119.718 28.6999 118.259 29.6149 118Z" fill="#DC8927"/>
<path d="M31 124L35.9998 130.827L30.5 135L31 124Z" fill="#FCB13F"/>
<path d="M29.2263 124L31 124.141L30.7587 135L29 134.195L29.2263 124Z" fill="#DC8927"/>
<path d="M120.5 127C121.881 127 123 125.433 123 123.5C123 121.567 121.881 120 120.5 120C119.119 120 118 121.567 118 123.5C118 125.433 119.119 127 120.5 127Z" fill="#FCB13F"/>
<path d="M121.385 120C121.879 120.636 122.202 121.692 122.202 122.886C122.202 124.831 121.348 126.408 120.293 126.408C120.194 126.408 120.096 126.393 120 126.367C120.309 126.765 120.685 127 121.092 127C122.145 127 123 125.424 123 123.479C123 121.718 122.3 120.259 121.385 120Z" fill="#DC8927"/>
<path d="M120.765 125L115 132.174L121 136L120.765 125Z" fill="#FCB13F"/>
<path d="M122.774 126L121 126.128L121.241 136L123 135.268L122.774 126Z" fill="#DC8927"/>
<path d="M76.5 145C116.541 145 149 112.541 149 72.5C149 32.4594 116.541 0 76.5 0C36.4593 0 4 32.4594 4 72.5C4 112.541 36.4593 145 76.5 145Z" fill="url(#paint0_radial_1630_37280)" fill-opacity="0.97"/>
<path d="M76.5 134L61 146H92L76.5 134Z" fill="#FCB13F"/>
<path d="M76 141C78.7614 141 81 138.761 81 136C81 133.239 78.7614 131 76 131C73.2386 131 71 133.239 71 136C71 138.761 73.2386 141 76 141Z" fill="#FCB13F"/>
<path d="M76.5 134L73 129.827L76.5 118L80 129.827L76.5 134Z" fill="#FCB13F"/>
<path d="M76 139C77.6569 139 79 137.881 79 136.5C79 135.119 77.6569 134 76 134C74.3431 134 73 135.119 73 136.5C73 137.881 74.3431 139 76 139Z" fill="#C9375B"/>
<path d="M75 134C75.5523 134 76 133.552 76 133C76 132.448 75.5523 132 75 132C74.4477 132 74 132.448 74 133C74 133.552 74.4477 134 75 134Z" fill="#C9375B"/>
<path d="M76 146C76.5523 146 77 145.328 77 144.5C77 143.672 76.5523 143 76 143C75.4477 143 75 143.672 75 144.5C75 145.328 75.4477 146 76 146Z" fill="#C9375B"/>
<path d="M14.2012 148.87L21 129C66.6431 154.616 108.355 138.173 126.5 127.5L134.5 149.5C81.405 181.636 32.3459 162.26 14.2012 148.87Z" fill="#675383"/>
<path d="M21.0004 130C17.0416 125.575 19.9627 121.955 22.0004 120.5C58.0004 158.5 110.5 139.5 127 124.5C129.096 127.76 130 130.5 129.5 132C128 135 116.859 140.137 111.716 142.174C69.1006 157.544 32.5005 139 21.0004 130Z" fill="#594773"/>
<path d="M13.1418 156.147C8.71413 151.743 12.165 150.318 14.444 148.87C64.5607 180.308 111.551 160.644 134 149C137.5 150.5 137.832 155.085 136.204 156.147C133.599 157.77 121.445 161.942 115.694 163.97C68.0313 179.269 27.4664 165.129 13.1418 156.147Z" fill="#594773"/>
<defs>
<filter id="filter0_d_1630_37280" x="19.1689" y="15.5457" width="111.36" height="122.38" filterUnits="userSpaceOnUse" color-interpolation-filters="sRGB">
<feFlood flood-opacity="0" result="BackgroundImageFix"/>
<feColorMatrix in="SourceAlpha" type="matrix" values="0 0 0 0 0 0 0 0 0 0 0 0 0 0 0 0 0 0 127 0" result="hardAlpha"/>
<feOffset dy="4"/>
<feGaussianBlur stdDeviation="2"/>
<feComposite in2="hardAlpha" operator="out"/>
<feColorMatrix type="matrix" values="0 0 0 0 0 0 0 0 0 0 0 0 0 0 0 0 0 0 0.25 0"/>
<feBlend mode="normal" in2="BackgroundImageFix" result="effect1_dropShadow_1630_37280"/>
<feBlend mode="normal" in="SourceGraphic" in2="effect1_dropShadow_1630_37280" result="shape"/>
</filter>
<radialGradient id="paint0_radial_1630_37280" cx="0" cy="0" r="1" gradientUnits="userSpaceOnUse" gradientTransform="translate(76.5 72.5) scale(72.5)">
<stop stop-color="white" stop-opacity="0"/>
<stop offset="0.12" stop-color="#FDFEFE" stop-opacity="0.02"/>
<stop offset="0.26" stop-color="#F9FBFB" stop-opacity="0.08"/>
<stop offset="0.4" stop-color="#F1F7F7" stop-opacity="0.19"/>
<stop offset="0.55" stop-color="#E7F1F1" stop-opacity="0.33"/>
<stop offset="0.7" stop-color="#DAE9E9" stop-opacity="0.52"/>
<stop offset="0.85" stop-color="#CAE0E0" stop-opacity="0.74"/>
<stop offset="1" stop-color="#B8D6D6"/>
</radialGradient>
</defs>
</svg>
