<svg width="153" height="179" viewBox="0 0 153 179" fill="none" xmlns="http://www.w3.org/2000/svg">
<g filter="url(#filter0_d_2464_25774)">
<path d="M68.6824 124.713H65.2395C63.873 124.713 62.7651 125.821 62.7651 127.187V135.279C62.7651 136.645 63.873 137.753 65.2395 137.753H68.6824C70.049 137.753 71.1568 136.645 71.1568 135.279V127.187C71.1568 125.821 70.049 124.713 68.6824 124.713Z" fill="#FFC259"/>
<path d="M86.9124 124.96H83.4695C82.1029 124.96 80.9951 126.068 80.9951 127.434V135.526C80.9951 136.892 82.1029 138 83.4695 138H86.9124C88.279 138 89.3868 136.892 89.3868 135.526V127.434C89.3868 126.068 88.279 124.96 86.9124 124.96Z" fill="#FFC259"/>
<path d="M96.5667 118.001L93.8033 98.6441C93.2091 94.4852 89.6476 91.396 85.4462 91.396H66.8296C62.6282 91.396 59.0667 94.4852 58.4725 98.6441L55.709 118.001C55.6374 118.501 55.6127 118.997 55.6287 119.482H96.6458C96.6619 118.995 96.6371 118.501 96.5655 118.001H96.5667Z" fill="#B274AE"/>
<path d="M44.5332 116.563L44.534 116.564C46.0879 118.282 48.7408 118.415 50.4594 116.862L57.1045 110.854C58.8231 109.3 58.9565 106.647 57.4026 104.929L57.4017 104.928C55.8478 103.21 53.1949 103.076 51.4763 104.63L44.8313 110.638C43.1127 112.192 42.9792 114.844 44.5332 116.563Z" fill="#FFC259"/>
<path d="M47.0742 108.611L52.7024 114.835L65.571 103.2L59.9428 96.9765L47.0742 108.611Z" fill="#B274AE"/>
<path d="M66.7712 103.003L72.3772 104.127L69.3655 97.908L66.7712 103.003Z" fill="#F0D1D1"/>
<path d="M69.5471 105.942L73.6336 106.762L71.4384 102.229L69.5471 105.942Z" fill="#F0D1D1"/>
<path d="M85.2793 103.003L79.6733 104.127L82.6851 97.908L85.2793 103.003Z" fill="#F0D1D1"/>
<path d="M82.5035 105.942L78.4182 106.762L80.6122 102.229L82.5035 105.942Z" fill="#F0D1D1"/>
<path d="M77.2027 102.066L77.9254 108.558L82.5567 98.9777H69.719L74.3503 108.558L75.073 102.066H77.2027Z" fill="white"/>
<path d="M76.7764 97.2953H75.4978C74.8641 97.2953 74.2785 97.6337 73.9623 98.1822L73.3236 99.2889C73.0074 99.8373 73.0074 100.513 73.3236 101.061L73.9623 102.168C74.2785 102.717 74.8641 103.055 75.4978 103.055H76.7764C77.4101 103.055 77.9957 102.717 78.3119 102.168L78.9506 101.061C79.2668 100.513 79.2668 99.8373 78.9506 99.2889L78.3119 98.1822C77.9957 97.6337 77.4101 97.2953 76.7764 97.2953Z" fill="#004042"/>
<path d="M77.2027 102.066H75.073L74.3503 108.558L75.5709 111.083L76.1379 112.256L76.7049 111.083L77.9254 108.558L77.2027 102.066Z" fill="#004042"/>
<path d="M79.5843 120.964H76.3848V127.634H79.5843V120.964Z" fill="#004042"/>
<path d="M87.4658 120.964V132.575H89.3868V127.551C89.8253 127.491 90.2515 127.395 90.6654 127.269V120.964H87.4658Z" fill="#004042"/>
<path d="M86.9718 120.964H83.7722V132.575H86.9718V120.964Z" fill="#004042"/>
<path d="M61.6101 120.964V127.271C61.9844 127.385 62.3698 127.474 62.7652 127.534V132.575H64.8096V120.964H61.6101Z" fill="#004042"/>
<path d="M68.9976 120.964V132.575H71.1569V127.634H72.1971V120.964H68.9976Z" fill="#004042"/>
<path d="M80.0786 120.964V127.634H80.9952V132.575H83.2781V120.964H80.0786Z" fill="#004042"/>
<path d="M75.8907 120.964H72.6912V127.634H75.8907V120.964Z" fill="#004042"/>
<path d="M68.5032 120.964H65.3037V132.575H68.5032V120.964Z" fill="#004042"/>
<path d="M55.8115 120.964C56.0833 122.231 56.6429 123.401 57.4224 124.396V120.964H55.8115Z" fill="#004042"/>
<path d="M57.9165 120.964V124.972C58.7936 125.907 59.8844 126.645 61.116 127.103V120.964H57.9165Z" fill="#004042"/>
<path d="M94.8533 124.396C95.6328 123.401 96.1911 122.231 96.4629 120.964H94.8533V124.396Z" fill="#004042"/>
<path d="M91.1594 120.964V127.103C92.3911 126.644 93.4806 125.906 94.359 124.971V120.964H91.1594Z" fill="#004042"/>
<path d="M57.4224 120.964V124.396C57.578 124.595 57.7436 124.787 57.9165 124.971V120.963H57.4224V120.964Z" fill="#F6E972"/>
<path d="M61.116 120.964V127.103C61.279 127.164 61.4433 127.22 61.6101 127.271V120.964H61.116Z" fill="#F6E972"/>
<path d="M65.304 120.964H64.8098V132.575H65.304V120.964Z" fill="#F6E972"/>
<path d="M68.9976 120.964H68.5034V132.575H68.9976V120.964Z" fill="#F6E972"/>
<path d="M72.6912 120.964H72.197V127.634H72.6912V120.964Z" fill="#F6E972"/>
<path d="M76.3848 120.964H75.8906V127.634H76.3848V120.964Z" fill="#F6E972"/>
<path d="M83.7722 120.964H83.2781V132.575H83.7722V120.964Z" fill="#F6E972"/>
<path d="M87.4661 120.964H86.9719V132.575H87.4661V120.964Z" fill="#F6E972"/>
<path d="M80.0786 120.964H79.5845V127.634H80.0786V120.964Z" fill="#F6E972"/>
<path d="M90.6653 120.964V127.269C90.8321 127.218 90.9976 127.164 91.1594 127.103V120.964H90.6653Z" fill="#F6E972"/>
<path d="M94.3591 120.964V124.971C94.5321 124.787 94.6976 124.594 94.8533 124.396V120.964H94.3591Z" fill="#F6E972"/>
<path d="M79.5843 119.482H76.3848V120.964H79.5843V119.482Z" fill="#F6E972"/>
<path d="M90.6654 119.482H87.4658V120.964H90.6654V119.482Z" fill="#F6E972"/>
<path d="M86.9718 119.482H83.7722V120.964H86.9718V119.482Z" fill="#F6E972"/>
<path d="M64.8096 119.482H61.6101V120.964H64.8096V119.482Z" fill="#F6E972"/>
<path d="M72.1971 119.482H68.9976V120.964H72.1971V119.482Z" fill="#F6E972"/>
<path d="M83.2781 119.482H80.0786V120.964H83.2781V119.482Z" fill="#F6E972"/>
<path d="M75.8907 119.482H72.6912V120.964H75.8907V119.482Z" fill="#F6E972"/>
<path d="M68.5032 119.482H65.3037V120.964H68.5032V119.482Z" fill="#F6E972"/>
<path d="M57.4221 119.482H55.6284C55.6445 119.987 55.7075 120.482 55.8112 120.964H57.4221V119.482Z" fill="#F6E972"/>
<path d="M61.116 119.482H57.9165V120.964H61.116V119.482Z" fill="#F6E972"/>
<path d="M94.853 119.482V120.964H96.4627C96.5665 120.482 96.6295 119.987 96.6455 119.482H94.8518H94.853Z" fill="#F6E972"/>
<path d="M94.359 119.482H91.1594V120.964H94.359V119.482Z" fill="#F6E972"/>
<path d="M57.9165 119.482H57.4224V120.964H57.9165V119.482Z" fill="#F6E972"/>
<path d="M61.6101 119.482H61.116V120.964H61.6101V119.482Z" fill="#F6E972"/>
<path d="M65.304 119.482H64.8098V120.964H65.304V119.482Z" fill="#F6E972"/>
<path d="M68.9976 119.482H68.5034V120.964H68.9976V119.482Z" fill="#F6E972"/>
<path d="M72.6912 119.482H72.197V120.964H72.6912V119.482Z" fill="#F6E972"/>
<path d="M76.3848 119.482H75.8906V120.964H76.3848V119.482Z" fill="#F6E972"/>
<path d="M83.7722 119.482H83.2781V120.964H83.7722V119.482Z" fill="#F6E972"/>
<path d="M87.4661 119.482H86.9719V120.964H87.4661V119.482Z" fill="#F6E972"/>
<path d="M80.0786 119.482H79.5845V120.964H80.0786V119.482Z" fill="#F6E972"/>
<path d="M91.1594 119.482H90.6653V120.964H91.1594V119.482Z" fill="#F6E972"/>
<path d="M94.8533 119.482H94.3591V120.964H94.8533V119.482Z" fill="#F6E972"/>
<path d="M76.1377 115.035C76.6835 115.035 77.126 114.593 77.126 114.047C77.126 113.501 76.6835 113.059 76.1377 113.059C75.5919 113.059 75.1494 113.501 75.1494 114.047C75.1494 114.593 75.5919 115.035 76.1377 115.035Z" fill="#004042"/>
<path d="M76.1377 118.247C76.6835 118.247 77.126 117.804 77.126 117.259C77.126 116.713 76.6835 116.27 76.1377 116.27C75.5919 116.27 75.1494 116.713 75.1494 117.259C75.1494 117.804 75.5919 118.247 76.1377 118.247Z" fill="#004042"/>
<path d="M85.6499 107.341H92.4443V110.65C92.4443 112.525 90.9223 114.047 89.0471 114.047C87.1718 114.047 85.6499 112.525 85.6499 110.65V107.341Z" fill="#A6499B"/>
<path d="M47.074 108.61L52.7021 114.834L54.3478 113.346L48.7197 107.122L47.074 108.61Z" fill="#A6499B"/>
<path d="M52.509 45.4214C53.3277 45.4214 53.9914 44.7578 53.9914 43.9391C53.9914 43.1205 53.3277 42.4569 52.509 42.4569C51.6903 42.4569 51.0266 43.1205 51.0266 43.9391C51.0266 44.7578 51.6903 45.4214 52.509 45.4214Z" fill="#D96892"/>
<path d="M94.3279 53.4502H58.7451L56.4993 24.528C56.4993 20.9225 59.4221 18 63.0281 18H90.045C93.651 18 96.5738 20.9225 96.5738 24.528L94.3279 53.4502Z" fill="#B274AE"/>
<path fill-rule="evenodd" clip-rule="evenodd" d="M97.8333 41.1293L97.8347 41.1261L99.0037 42.6291L98.5823 39.296C99.5544 36.6154 100.055 33.7901 100.066 30.9457C100.483 31.442 100.993 32.1053 101.183 32.5494C100.96 31.8109 100.489 30.4865 100.046 29.8509C100.015 29.0766 99.9468 28.3022 99.8423 27.53L99.8211 27.3733L100.032 27.5584C102.617 29.83 104.335 32.8285 105.04 36.0657C104.843 36.9974 104.505 38.1677 104.016 38.8696C104.324 38.7344 104.869 38.2828 105.271 37.3966C105.535 39.436 105.403 41.5414 104.839 43.597L103.799 47.392C103.409 47.8123 102.951 48.2507 102.545 48.5135C102.768 48.5337 103.148 48.5246 103.517 48.4223L103.436 48.7173C102.384 52.5547 98.8963 55.2151 94.9174 55.2151C93.8699 52.8908 93.8182 50.2462 94.7611 47.8911L95.8981 50.8018L95.2296 46.8387L97.8333 41.1293Z" fill="#A61E00"/>
<path d="M102.481 34.4563V35.0594C102.481 37.1214 102.26 39.1774 101.822 41.1924V41.1924C101.355 43.3418 100.633 45.454 99.6912 47.4419V47.4419C98.6931 49.5489 97.4358 51.554 95.9689 53.3661L95.4016 54.0669C95.3994 54.0695 95.3977 54.0724 95.3963 54.0756L93.6003 58.2662" stroke="#CA6E91" stroke-width="1.66068" stroke-linecap="round"/>
<path d="M93.4985 29.7971L82.9043 33.5566L88.2343 48.573L98.8285 44.8136L93.4985 29.7971Z" fill="#FFF9C8"/>
<path d="M89.5508 42.0678C90.5407 42.0678 91.3433 41.2654 91.3433 40.2756C91.3433 39.2857 90.5407 38.4833 89.5508 38.4833C88.5608 38.4833 87.7583 39.2857 87.7583 40.2756C87.7583 41.2654 88.5608 42.0678 89.5508 42.0678Z" fill="#004042"/>
<path d="M92.5762 40.9932C93.5661 40.9932 94.3687 40.1908 94.3687 39.201C94.3687 38.2111 93.5661 37.4087 92.5762 37.4087C91.5862 37.4087 90.7837 38.2111 90.7837 39.201C90.7837 40.1908 91.5862 40.9932 92.5762 40.9932Z" fill="#004042"/>
<path d="M90.1721 39.1788C91.1621 39.1788 91.9646 38.3764 91.9646 37.3865C91.9646 36.3967 91.1621 35.5942 90.1721 35.5942C89.1822 35.5942 88.3796 36.3967 88.3796 37.3865C88.3796 38.3764 89.1822 39.1788 90.1721 39.1788Z" fill="#004042"/>
<path d="M91.0936 39.9828L90.8577 43.1313L93.2616 42.279L91.0936 39.9828Z" fill="#004042"/>
<path d="M95.5098 53.0796H57.5626L56.7708 46.9148C56.7708 46.1576 57.3847 45.5449 58.1407 45.5449H94.9317C95.689 45.5449 96.3017 46.1588 96.3017 46.9148L95.5098 53.0796Z" fill="#004042"/>
<path d="M62.5856 40.9314L55.5713 53.0796H73.3392L66.3249 40.9314C65.4936 39.4924 63.4169 39.4924 62.5856 40.9314Z" fill="#FBAA1F"/>
<path d="M86.7477 40.9314L79.7334 53.0796H97.5013L90.4871 40.9314C89.6557 39.4924 87.5791 39.4924 86.7477 40.9314Z" fill="#FBAA1F"/>
<path d="M52.7559 44.9087L49.5984 46.7318C49.796 46.9838 49.9146 47.3 49.9146 47.6447C49.9146 47.951 49.822 48.2351 49.6626 48.471L52.7559 50.2571V44.9087Z" fill="#AFD7D7"/>
<path d="M58.5622 47.6448C59.381 47.6448 60.0447 46.9812 60.0447 46.1625C60.0447 45.3439 59.381 44.6803 58.5622 44.6803C57.7435 44.6803 57.0798 45.3439 57.0798 46.1625C57.0798 46.9812 57.7435 47.6448 58.5622 47.6448Z" fill="#D96892"/>
<path d="M54.7486 44.5569H54.1309C52.2294 44.5569 50.688 46.0981 50.688 47.9994V52.3547C50.688 54.2559 52.2294 55.7972 54.1309 55.7972H54.7486C56.65 55.7972 58.1915 54.2559 58.1915 52.3547V47.9994C58.1915 46.0981 56.65 44.5569 54.7486 44.5569Z" fill="#AFD7D7"/>
<path d="M49.5986 46.7319L48.9303 47.1186C48.5721 47.3248 48.5721 47.8424 48.9303 48.0487L49.6641 48.4723C49.8235 48.2364 49.9161 47.9511 49.9161 47.646C49.9161 47.3014 49.7975 46.9851 49.5999 46.7332L49.5986 46.7319Z" fill="#D96892"/>
<path d="M53.2551 47.8943C53.835 47.8943 54.3052 47.4242 54.3052 46.8444C54.3052 46.2645 53.835 45.7944 53.2551 45.7944C52.6752 45.7944 52.2051 46.2645 52.2051 46.8444C52.2051 47.4242 52.6752 47.8943 53.2551 47.8943Z" fill="white"/>
<path d="M53.2551 47.5856C53.6645 47.5856 53.9963 47.2538 53.9963 46.8445C53.9963 46.4352 53.6645 46.1034 53.2551 46.1034C52.8458 46.1034 52.5139 46.4352 52.5139 46.8445C52.5139 47.2538 52.8458 47.5856 53.2551 47.5856Z" fill="#004042"/>
<path d="M55.5591 48.6924C56.139 48.6924 56.6091 48.2223 56.6091 47.6424C56.6091 47.0626 56.139 46.5925 55.5591 46.5925C54.9792 46.5925 54.509 47.0626 54.509 47.6424C54.509 48.2223 54.9792 48.6924 55.5591 48.6924Z" fill="white"/>
<path d="M55.5591 48.3834C55.9684 48.3834 56.3003 48.0516 56.3003 47.6422C56.3003 47.2329 55.9684 46.9011 55.5591 46.9011C55.1497 46.9011 54.8179 47.2329 54.8179 47.6422C54.8179 48.0516 55.1497 48.3834 55.5591 48.3834Z" fill="#004042"/>
<path d="M104.529 52.9808H48.5435C45.3437 52.9808 42.7498 55.5745 42.7498 58.7739C42.7498 61.9734 45.3437 64.567 48.5435 64.567H104.529C107.729 64.567 110.323 61.9734 110.323 58.7739C110.323 55.5745 107.729 52.9808 104.529 52.9808Z" fill="#B274AE"/>
<path d="M91.2518 57.0323H61.6974C50.346 57.0323 41.1438 66.2335 41.1438 77.5836V79.9601C41.1438 91.3103 50.346 100.511 61.6974 100.511H91.2518C102.603 100.511 111.805 91.3103 111.805 79.9601V77.5836C111.805 66.2335 102.603 57.0323 91.2518 57.0323Z" fill="#FBAA1F"/>
<path d="M93.7649 101.009L93.7659 101.008C95.6827 99.7068 96.1814 97.0981 94.8798 95.1814L89.8471 87.7705C88.5455 85.8539 85.9365 85.3551 84.0197 86.6565L84.0186 86.6572C82.1019 87.9585 81.6032 90.5672 82.9048 92.4839L87.9375 99.8948C89.2391 101.811 91.8481 102.31 93.7649 101.009Z" fill="#FFC259"/>
<path d="M84.6039 94.9858L94.3502 109.338C98.1843 106.734 99.1819 101.516 96.5783 97.6824L91.5462 90.2724L84.6039 94.9858Z" fill="#B274AE"/>
<path d="M85.8507 96.7552L92.793 92.0419L91.5466 90.2065L84.6043 94.9199L85.8507 96.7552Z" fill="#A6499B"/>
<path d="M72.7328 70.7443C72.7328 70.1679 72.4853 69.5972 72.0043 69.0646C71.5234 68.5321 70.8184 68.0482 69.9297 67.6406C69.0411 67.233 67.986 66.9097 66.8249 66.6891C65.6638 66.4685 64.4193 66.355 63.1625 66.355C61.9058 66.355 60.6613 66.4685 59.5002 66.6891C58.339 66.9097 57.284 67.233 56.3953 67.6406C55.5067 68.0482 54.8017 68.5321 54.3208 69.0646C53.8398 69.5972 53.5923 70.1679 53.5923 70.7443L63.1625 70.7443H72.7328Z" fill="#FFF9C8"/>
<path d="M59.5647 70.0248C59.5647 67.998 61.2077 66.355 63.2345 66.355C65.2613 66.355 66.9043 67.998 66.9043 70.0248V70.7443H59.5647V70.0248Z" fill="#0D3F41"/>
<path d="M99.5727 70.7443C99.5727 70.1679 99.3261 69.5972 98.847 69.0646C98.3678 68.5321 97.6655 68.0482 96.7802 67.6406C95.8948 67.233 94.8438 66.9097 93.687 66.6891C92.5303 66.4685 91.2905 66.355 90.0384 66.355C88.7864 66.355 87.5466 66.4685 86.3898 66.6891C85.2331 66.9097 84.182 67.233 83.2967 67.6406C82.4113 68.0482 81.709 68.5321 81.2299 69.0646C80.7508 69.5972 80.5042 70.1679 80.5042 70.7443L90.0384 70.7443H99.5727Z" fill="#FFF9C8"/>
<path d="M86.4048 70.0608C86.4048 68.0141 88.0639 66.355 90.1106 66.355C92.1572 66.355 93.8163 68.0141 93.8163 70.0608V70.7443H86.4048V70.0608Z" fill="#0D3F41"/>
<path d="M84.8936 76.6808C84.8936 77.3763 81.4396 79.775 76.4746 79.775C72.1826 79.775 67.6599 77.3763 67.6599 76.6808C67.6599 76.6808 72.1826 75.9253 76.4746 75.9253C80.7666 75.9253 85.3973 76.6808 84.8936 76.6808Z" fill="#A57421"/>
<path d="M68.8472 63.8364C68.8472 62.7634 69.717 61.8936 70.79 61.8936C71.863 61.8936 72.7328 62.7634 72.7328 63.8364V65.7792H70.79C69.717 65.7792 68.8472 64.9094 68.8472 63.8364Z" fill="#FFF9C8"/>
<path d="M84.246 76.3929C84.246 77.0884 80.7667 78.9834 76.4747 78.9834C72.1827 78.9834 68.7034 77.0884 68.7034 76.3929C68.7034 76.3929 72.1827 75.1337 76.4747 75.1337C80.7667 75.1337 84.7497 76.3929 84.246 76.3929Z" fill="white"/>
<path d="M84.3899 63.8364C84.3899 62.7634 83.5201 61.8936 82.4471 61.8936C81.3741 61.8936 80.5042 62.7634 80.5042 63.8364V65.7792H82.4471C83.5201 65.7792 84.3899 64.9094 84.3899 63.8364Z" fill="#FFF9C8"/>
<path d="M58.4136 74.3422L62.9334 75.7453C65.8773 76.6592 69.029 76.6592 71.9729 75.7453V75.7453C74.9168 74.8314 78.0686 74.8314 81.0125 75.7453V75.7453C83.9564 76.6592 87.1082 76.6592 90.0521 75.7453L94.5719 74.3422" stroke="#A57421" stroke-width="1.10712" stroke-linecap="round"/>
<path d="M77.9858 71.5719C77.9858 72.4064 77.3093 73.083 76.4747 73.083C75.6402 73.083 74.9636 72.4064 74.9636 71.5719C74.9636 70.7373 75.6402 70.7444 76.4747 70.7444C77.3093 70.7444 77.9858 70.7373 77.9858 71.5719Z" fill="#FECACA"/>
<ellipse cx="48.6236" cy="83.8065" rx="5.79252" ry="7.33959" transform="rotate(-16.3414 48.6236 83.8065)" fill="#E37815"/>
<ellipse cx="5.79252" cy="7.33959" rx="5.79252" ry="7.33959" transform="matrix(-0.959602 -0.281361 -0.281361 0.959602 111.726 78.3932)" fill="#E37815"/>
<circle cx="62.731" cy="68.5856" r="9.24934" transform="rotate(33.2901 62.731 68.5856)" fill="#AFD7D7" fill-opacity="0.5"/>
<circle cx="54.4337" cy="68.4337" r="9.32661" stroke="#FCE699" stroke-width="2.21425"/>
<circle cx="57.4062" cy="78.6596" r="0.647611" fill="#FCE699"/>
<circle cx="56.3268" cy="80.3865" r="0.647611" fill="#FCE699"/>
<circle cx="55.0314" cy="82.0415" r="0.647611" fill="#FCE699"/>
<circle cx="53.4484" cy="83.4807" r="0.647611" fill="#FCE699"/>
<circle cx="51.5775" cy="84.4881" r="0.647611" fill="#FCE699"/>
<circle cx="49.5629" cy="85.1357" r="0.647611" fill="#FCE699"/>
<circle cx="47.4042" cy="85.7834" r="0.647611" fill="#FCE699"/>
<circle cx="45.2453" cy="85.2796" r="0.647611" fill="#FCE699"/>
<circle cx="43.5902" cy="84.2722" r="0.647611" fill="#FCE699"/>
<path d="M31 125C32.6569 125 34 123.209 34 121C34 118.791 32.6569 117 31 117C29.3432 117 28 118.791 28 121C28 123.209 29.3432 125 31 125Z" fill="#FCB13F"/>
<path d="M29.6149 118C29.1212 118.636 28.7984 119.692 28.7984 120.886C28.7984 122.831 29.6523 124.408 30.7067 124.408C30.8063 124.408 30.9037 124.393 31 124.367C30.6908 124.765 30.3148 125 29.9083 125C28.855 125 28 123.424 28 121.479C28 119.718 28.6999 118.259 29.6149 118Z" fill="#DC8927"/>
<path d="M31.0002 124L36 130.827L30.5002 135L31.0002 124Z" fill="#FCB13F"/>
<path d="M29.2263 124L31 124.141L30.7587 135L29 134.195L29.2263 124Z" fill="#DC8927"/>
<path d="M120.5 127C121.881 127 123 125.433 123 123.5C123 121.567 121.881 120 120.5 120C119.119 120 118 121.567 118 123.5C118 125.433 119.119 127 120.5 127Z" fill="#FCB13F"/>
<path d="M121.385 120C121.879 120.636 122.202 121.692 122.202 122.886C122.202 124.831 121.348 126.408 120.293 126.408C120.194 126.408 120.096 126.393 120 126.367C120.309 126.765 120.685 127 121.092 127C122.145 127 123 125.424 123 123.479C123 121.718 122.3 120.259 121.385 120Z" fill="#DC8927"/>
<path d="M120.765 125L115 132.174L121 136L120.765 125Z" fill="#FCB13F"/>
<path d="M122.774 126L121 126.128L121.241 136L123 135.268L122.774 126Z" fill="#DC8927"/>
<path d="M76.5 145C116.541 145 149 112.541 149 72.5C149 32.4594 116.541 0 76.5 0C36.4593 0 4 32.4594 4 72.5C4 112.541 36.4593 145 76.5 145Z" fill="url(#paint0_radial_2464_25774)" fill-opacity="0.97"/>
<path d="M76.5 134L61 146H92L76.5 134Z" fill="#FCB13F"/>
<path d="M76 141C78.7614 141 81 138.761 81 136C81 133.239 78.7614 131 76 131C73.2386 131 71 133.239 71 136C71 138.761 73.2386 141 76 141Z" fill="#FCB13F"/>
<path d="M76.5 134L73 129.827L76.5 118L80 129.827L76.5 134Z" fill="#FCB13F"/>
<path d="M76 139C77.6569 139 79 137.881 79 136.5C79 135.119 77.6569 134 76 134C74.3431 134 73 135.119 73 136.5C73 137.881 74.3431 139 76 139Z" fill="#C9375B"/>
<path d="M75 134C75.5523 134 76 133.552 76 133C76 132.448 75.5523 132 75 132C74.4477 132 74 132.448 74 133C74 133.552 74.4477 134 75 134Z" fill="#C9375B"/>
<path d="M76 146C76.5523 146 77 145.328 77 144.5C77 143.672 76.5523 143 76 143C75.4477 143 75 143.672 75 144.5C75 145.328 75.4477 146 76 146Z" fill="#C9375B"/>
<path d="M14.2012 148.87L21 129C66.6431 154.616 108.355 138.173 126.5 127.5L134.5 149.5C81.405 181.636 32.3459 162.26 14.2012 148.87Z" fill="#675383"/>
<path d="M21.0002 130C17.0414 125.575 19.9625 121.955 22.0001 120.5C58.0001 158.5 110.5 139.5 127 124.5C129.096 127.76 130 130.5 129.5 132C128 135 116.859 140.137 111.716 142.174C69.1003 157.544 32.5002 139 21.0002 130Z" fill="#594773"/>
<path d="M13.1418 156.147C8.71413 151.743 12.165 150.318 14.444 148.87C64.5607 180.308 111.551 160.644 134 149C137.5 150.5 137.832 155.085 136.204 156.147C133.599 157.77 121.445 161.942 115.694 163.97C68.0313 179.269 27.4664 165.129 13.1418 156.147Z" fill="#594773"/>
</g>
<defs>
<filter id="filter0_d_2464_25774" x="0" y="0" width="153" height="178.747" filterUnits="userSpaceOnUse" color-interpolation-filters="sRGB">
<feFlood flood-opacity="0" result="BackgroundImageFix"/>
<feColorMatrix in="SourceAlpha" type="matrix" values="0 0 0 0 0 0 0 0 0 0 0 0 0 0 0 0 0 0 127 0" result="hardAlpha"/>
<feOffset dy="4"/>
<feGaussianBlur stdDeviation="2"/>
<feComposite in2="hardAlpha" operator="out"/>
<feColorMatrix type="matrix" values="0 0 0 0 0 0 0 0 0 0 0 0 0 0 0 0 0 0 0.25 0"/>
<feBlend mode="normal" in2="BackgroundImageFix" result="effect1_dropShadow_2464_25774"/>
<feBlend mode="normal" in="SourceGraphic" in2="effect1_dropShadow_2464_25774" result="shape"/>
</filter>
<radialGradient id="paint0_radial_2464_25774" cx="0" cy="0" r="1" gradientUnits="userSpaceOnUse" gradientTransform="translate(76.5 72.5) scale(72.5)">
<stop stop-color="white" stop-opacity="0"/>
<stop offset="0.12" stop-color="#FDFEFE" stop-opacity="0.02"/>
<stop offset="0.26" stop-color="#F9FBFB" stop-opacity="0.08"/>
<stop offset="0.4" stop-color="#F1F7F7" stop-opacity="0.19"/>
<stop offset="0.55" stop-color="#E7F1F1" stop-opacity="0.33"/>
<stop offset="0.7" stop-color="#DAE9E9" stop-opacity="0.52"/>
<stop offset="0.85" stop-color="#CAE0E0" stop-opacity="0.74"/>
<stop offset="1" stop-color="#B8D6D6"/>
</radialGradient>
</defs>
</svg>
