<svg width="145" height="171" viewBox="0 0 145 171" fill="none" xmlns="http://www.w3.org/2000/svg">
<path d="M119.349 22.8939C118.279 33.0857 110.684 53.6941 88.8608 54.5933" stroke="#0D3F41" stroke-width="0.806955"/>
<path d="M119.955 20L38.7337 100.845L33.0412 105.731C32.708 108.337 34.4759 108.791 35.4015 108.692L119.955 22.6652V20Z" fill="#633A14"/>
<path fill-rule="evenodd" clip-rule="evenodd" d="M68.2232 71.4189V73.7786C68.414 74.7149 69.3222 77.0821 71.4284 79.0597C71.9245 78.6102 73.0768 76.9248 73.7179 73.7786V71.4189H68.2232Z" fill="#F5EA83"/>
<path d="M94.2452 52.2218C94.2452 63.1586 83.8797 72.0246 71.0932 72.0246C58.3067 72.0246 47.9412 63.1586 47.9412 52.2218C47.9412 41.285 58.3067 32.419 71.0932 32.419C83.8797 32.419 94.2452 41.285 94.2452 52.2218Z" fill="#F5EA83"/>
<path d="M54.674 26.1728C51.6796 28.7432 50.2399 39.1842 49.8943 44.0834C59.2018 43.7354 67.3825 38.3185 70.3094 35.6535C66.3453 31.4222 57.6685 23.6023 54.674 26.1728Z" fill="#F5EA83"/>
<path d="M87.7231 26.067C90.4001 28.8303 91.2511 39.3313 91.342 44.2364C82.6591 43.262 75.2696 37.3127 72.6602 34.4599C76.5657 30.5109 85.0461 23.3037 87.7231 26.067Z" fill="#F5EA83"/>
<path d="M55.4719 28.6427C53.849 28.8966 52.3676 35.0527 53.231 37.895C56.0056 38.0355 62.0626 34.9028 63.197 32.7926C60.6522 29.9913 57.4435 28.3343 55.4719 28.6427Z" fill="#B7D6D6"/>
<path d="M85.9078 28.4222C87.462 28.671 88.9645 35.3994 88.1797 38.5344C85.5306 38.7396 79.6991 35.4132 78.5854 33.1184C80.9773 29.9975 84.0197 28.12 85.9078 28.4222Z" fill="#B7D6D6"/>
<path d="M41.1484 81.7181H44.2394V84.6583H41.1484C40.1963 86.0689 39.0877 87.0331 37.2559 87.0331C35.4242 87.0331 33.1345 85.7407 33.1345 82.6228C33.1345 79.5048 35.8821 78.5918 37.8283 78.7779C39.7746 78.964 40.6324 80.7192 41.1484 81.7181Z" fill="#F5EA83"/>
<path d="M103.647 81.7181H100.706V84.6583H103.647C104.553 86.0689 105.608 87.0331 107.351 87.0331C109.094 87.0331 111.272 85.7407 111.272 82.6228C111.272 79.5048 108.658 78.5918 106.806 78.7779C104.954 78.964 104.138 80.7192 103.647 81.7181Z" fill="#F5EA83"/>
<path d="M66.5837 119.54V110.252H69.8143V119.54H66.5837Z" fill="#F5EA83"/>
<path d="M74.4583 119.54V110.252H77.4869V119.54H74.4583Z" fill="#F5EA83"/>
<path d="M62.503 119.54H71.9008C71.6716 124.047 71.2819 133.33 71.557 134.412C71.8012 135.372 71.872 136.731 71.8925 137.679C71.9008 138.066 71.9008 138.385 71.9008 138.581V139.933H46.8016C46.6074 139.389 46.4073 138.571 46.3454 137.679C46.2489 136.291 46.4873 134.724 47.6039 133.736C49.896 131.708 56.5433 131.032 59.5231 130.581L62.503 130.356V119.54Z" fill="#0D3F41"/>
<path fill-rule="evenodd" clip-rule="evenodd" d="M71.9008 138.581C71.9008 138.385 71.9008 138.066 71.8925 137.679H46.3454C46.4073 138.571 46.6074 139.389 46.8016 139.933H71.9008V138.581Z" fill="#B7D6D6"/>
<ellipse cx="3.15002" cy="4.9752" rx="3.15002" ry="4.9752" transform="matrix(0.867064 -0.498197 0.510413 0.859929 49.4836 57.3296)" fill="#FFB23E"/>
<ellipse cx="3.14689" cy="4.98022" rx="3.14689" ry="4.98022" transform="matrix(0.831285 0.555846 -0.568337 0.822796 87.8589 54.2213)" fill="#FFB23E"/>
<path d="M70.26 38.1104C56.2751 38.3816 54.6832 50.199 55.6353 56.0738C65.4232 57.6555 85.9129 57.5426 86.4842 56.0738C88.2873 51.4377 87.741 37.7715 70.26 38.1104Z" fill="#0D3F41"/>
<ellipse cx="61.8391" cy="55.6029" rx="6.15817" ry="5.85531" fill="#FFFACC"/>
<ellipse cx="80.3809" cy="55.6029" rx="6.12452" ry="5.85531" fill="#FFFACC"/>
<ellipse cx="61.9401" cy="55.9057" rx="3.97084" ry="3.93719" fill="#0D3F41"/>
<ellipse cx="80.5489" cy="55.9057" rx="4.00449" ry="3.93719" fill="#0D3F41"/>
<path d="M71.932 59.0353H70.1305C70.0562 59.0353 70.0142 59.1205 70.0593 59.1794L71.0075 60.4179C71.0445 60.4663 71.1179 60.4645 71.1525 60.4143L72.0058 59.1758C72.0468 59.1163 72.0042 59.0353 71.932 59.0353Z" fill="#FFB23E"/>
<path d="M60.2573 63.0339C62.0487 64.0783 66.6378 64.5888 71.1201 61.5254C73.9788 63.7301 78.7355 65.169 82.669 63.0339" stroke="#FFB23E" stroke-width="1.1656"/>
<rect x="65.9109" y="121.828" width="4.64386" height="1.74986" fill="#B7D6D6"/>
<rect x="65.9109" y="124.453" width="4.64386" height="1.81716" fill="#B7D6D6"/>
<rect x="65.9109" y="127.145" width="4.64386" height="1.74986" fill="#B7D6D6"/>
<ellipse cx="45.9891" cy="100.258" rx="3.43242" ry="3.53337" fill="#FFFACC"/>
<path d="M81.2669 119.54H71.968C72.1948 124.062 72.5804 133.376 72.3082 134.461C72.0665 135.425 71.9965 136.787 71.9763 137.739C71.968 138.127 71.968 138.447 71.968 138.643V140H96.803C96.9952 139.455 97.1932 138.634 97.2544 137.739C97.3499 136.346 97.114 134.774 96.0092 133.783C93.7411 131.748 87.1638 131.07 84.2154 130.618L81.2669 130.392V119.54Z" fill="#0D3F41"/>
<path fill-rule="evenodd" clip-rule="evenodd" d="M71.968 138.643C71.968 138.447 71.968 138.127 71.9763 137.739H97.2544C97.1932 138.634 96.9952 139.455 96.803 140H71.968V138.643Z" fill="#B7D6D6"/>
<rect width="4.64386" height="1.74986" transform="matrix(-1 0 0 1 77.6887 121.828)" fill="#B7D6D6"/>
<rect width="4.64386" height="1.81716" transform="matrix(-1 0 0 1 77.6887 124.453)" fill="#B7D6D6"/>
<rect width="4.64386" height="1.74986" transform="matrix(-1 0 0 1 77.6887 127.145)" fill="#B7D6D6"/>
<path fill-rule="evenodd" clip-rule="evenodd" d="M76.3167 74.5494C75.9922 74.5233 75.682 74.4984 75.3429 74.4261C74.893 74.3301 74.3921 74.1508 73.7392 73.7747C73.0977 76.9156 71.9446 78.5983 71.4482 79.047C69.3405 77.0727 68.4317 74.7095 68.2408 73.7747C68.0781 73.9021 67.577 74.236 66.7516 74.6653C66.6086 74.7397 66.4559 74.8169 66.2934 74.8964C65.9557 75.0618 65.625 75.1662 65.3028 75.2679C64.3136 75.5802 63.4055 75.8668 62.6278 77.813C62.1718 78.9542 60.4833 78.7128 58.0183 78.3604C54.91 77.9161 50.5671 77.2953 45.9035 79.047C45.3274 79.2634 44.8308 79.5662 44.409 79.9444C38.7076 85.0546 46.6395 103.914 55.984 108.998C66.2934 114.607 75.1801 115.749 84.1632 110.905C94.3582 105.409 100.773 96.3222 101.804 85.7776C102.462 79.047 100.177 78.2352 97.1074 77.5887C96.1562 77.3883 94.2905 77.3764 93.0981 77.5887C88.59 78.3913 81.2995 78.5983 80.3831 77.813C79.982 77.4693 79.7125 76.9321 79.4499 76.4085C79.1125 75.7359 78.7863 75.0856 78.2066 74.8964C77.4133 74.6375 76.8459 74.5919 76.3167 74.5494Z" fill="#B7D6D6"/>
<path d="M92.7705 115.019C92.0363 115.109 91.8528 114.68 91.8528 114.454C89.9526 114.653 88.5466 114.172 87.5388 113.437C86.2588 112.503 85.621 111.159 85.4285 110.274L92.7705 104.061C94.1545 104.47 94.8706 105.741 95.221 106.885C95.4516 107.637 95.5238 108.334 95.5238 108.692C95.5238 109.596 94.1472 112.533 94.8355 112.985C95.5238 113.437 95.0649 115.019 94.1472 114.454C93.612 114.124 93.3694 113.815 93.2772 113.613C93.3989 114.134 93.4249 114.938 92.7705 115.019Z" fill="#FFB23E"/>
<path fill-rule="evenodd" clip-rule="evenodd" d="M85.4285 110.312C85.621 111.19 86.2588 112.523 87.5388 113.45C88.0101 111.321 90.2064 107.04 95.221 106.95C95.013 106.277 94.6761 105.559 94.1472 105.001C93.7851 104.62 93.333 104.313 92.7705 104.149L85.4285 110.312ZM93.2772 113.624C93.2429 113.55 93.2294 113.49 93.2294 113.45C93.2461 113.503 93.2623 113.561 93.2772 113.624Z" fill="#F5EA83"/>
<path d="M92.7705 104.149C93.333 104.313 93.7851 104.62 94.1472 105.001C94.8961 104.53 96.0822 103.387 94.8355 102.58L92.7705 104.149Z" fill="#F5EA83"/>
<path d="M57.2277 35.945C67.4289 28.826 68.8475 22.9698 71.1459 22.9698C73.4443 22.705 74.977 28.6947 85.225 36.0505C94.8542 42.9622 95.6097 42.234 100.801 42.9622C104.574 43.4915 107.154 45.63 103.081 46.0922C97.2595 46.7528 82.6965 47.9948 71.0182 47.6777C59.5772 47.9954 45.4377 46.6694 39.7343 46.0074C36.159 45.5924 36.3001 43.7535 39.7343 42.9622C43.1684 42.1709 48.0852 42.3251 57.2277 35.945Z" fill="#DE8E45"/>
<path d="M68.6703 35.9506C75.8312 36.0583 81.3904 35.2551 83.2749 34.8401L86.0343 36.5226C85.6417 36.9152 84.2709 37.9091 81.9288 38.7436C79.0012 39.7868 59.719 35.816 68.6703 35.9506Z" fill="#F9C494"/>
<path d="M67.244 40.3244C77.6577 40.383 86.457 39.3399 89.1975 39.1139L91.3511 40.3244C91.3511 40.3244 89.931 41.3909 86.525 41.8454C82.2675 42.4135 54.2268 40.2511 67.244 40.3244Z" fill="#F9C494"/>
<ellipse cx="92.5624" cy="110.69" rx="1.54795" ry="1.58161" fill="#FFFACC"/>
<ellipse cx="92.5962" cy="110.791" rx="0.84128" ry="0.740326" fill="#DE8E45"/>
<path d="M66.6511 75.419L52.5176 68.6595C56.1946 69.2003 68.6811 68.8849 69.4088 68.6595L71.3622 79.0241L66.6511 75.419Z" fill="#B7D6D6"/>
<path d="M75.8455 75.4419L91.8894 67.7174C88.4428 68.2548 73.9426 68.9488 73.2605 68.7249L71.4295 79.0242L75.8455 75.4419Z" fill="#B7D6D6"/>
<rect x="67.3242" y="75.7936" width="2.55749" height="2.55749" fill="#633A14"/>
<rect x="73.0447" y="75.7936" width="2.55749" height="2.55749" fill="#633A14"/>
<rect x="73.5159" y="76.5339" width="1.34605" height="1.27874" fill="#FFB23E"/>
<rect x="67.7278" y="76.5339" width="1.41335" height="1.27874" fill="#FFB23E"/>
<path d="M73.1794 77.4639L69.4778 76.8031V77.2436L73.0672 78.0145L73.1794 77.4639Z" fill="#633A14"/>
<path d="M58.7095 68.9787C57.8808 69.0676 54.2973 68.7936 52.6091 68.6456C50.192 68.3124 55.4866 66.7577 55.832 67.0908C56.1082 67.3573 57.8654 68.4605 58.7095 68.9787Z" fill="#829C9C"/>
<path d="M91.7614 67.579C90.9478 67.8393 86.7517 68.0489 84.7554 68.1212C85.117 68.0345 86.7894 66.7839 87.5804 66.1694C89.313 66.5309 92.575 67.3188 91.7614 67.579Z" fill="#829C9C"/>
<path d="M77.5057 74.7168C79.6425 81.0107 81.6265 93.8681 72.4692 94.9471M72.4692 94.9471C63.3118 96.026 54.2308 84.0827 50.835 77.9761M72.4692 94.9471C73.1942 92.3996 74.2091 87.5743 72.4692 88.6532C70.7782 89.7018 71.6893 93.1001 72.4074 94.8036M72.4692 94.9471C68.4629 96.8203 61.4804 101.713 65.6012 106.299C69.722 110.884 71.8969 100.642 72.4692 94.9471ZM72.4692 94.9471C73.9954 96.8577 76.9563 101.218 76.59 103.376M72.4692 94.9471C72.4488 94.9007 72.4282 94.8529 72.4074 94.8036M72.4074 94.8036C71.2452 95.1511 69.3328 98.4986 70.9811 109.108" stroke="#0D3F41" stroke-width="1.07594"/>
<path d="M46.618 100.771C46.2495 99.6017 45.543 100.059 45.2359 100.433L43.1626 105.829L46.618 107.628C47.7238 107.268 47.3091 106.653 46.9636 106.391L45.0055 105.604L46.618 100.771Z" fill="#F5EA83"/>
<path d="M27 125C28.6569 125 30 123.209 30 121C30 118.791 28.6569 117 27 117C25.3432 117 24 118.791 24 121C24 123.209 25.3432 125 27 125Z" fill="#FCB13F"/>
<path d="M25.6149 118C25.1212 118.636 24.7984 119.692 24.7984 120.886C24.7984 122.831 25.6523 124.408 26.7067 124.408C26.8063 124.408 26.9037 124.393 27 124.367C26.6908 124.765 26.3148 125 25.9083 125C24.855 125 24 123.424 24 121.479C24 119.718 24.6999 118.259 25.6149 118Z" fill="#DC8927"/>
<path d="M27.0002 124L32 130.827L26.5002 135L27.0002 124Z" fill="#FCB13F"/>
<path d="M25.2263 124L27 124.141L26.7587 135L25 134.195L25.2263 124Z" fill="#DC8927"/>
<path d="M116.5 127C117.881 127 119 125.433 119 123.5C119 121.567 117.881 120 116.5 120C115.119 120 114 121.567 114 123.5C114 125.433 115.119 127 116.5 127Z" fill="#FCB13F"/>
<path d="M117.385 120C117.879 120.636 118.202 121.692 118.202 122.886C118.202 124.831 117.348 126.408 116.293 126.408C116.194 126.408 116.096 126.393 116 126.367C116.309 126.765 116.685 127 117.092 127C118.145 127 119 125.424 119 123.479C119 121.718 118.3 120.259 117.385 120Z" fill="#DC8927"/>
<path d="M116.765 125L111 132.174L117 136L116.765 125Z" fill="#FCB13F"/>
<path d="M118.774 126L117 126.128L117.241 136L119 135.268L118.774 126Z" fill="#DC8927"/>
<path d="M72.5 145C112.541 145 145 112.541 145 72.5C145 32.4594 112.541 0 72.5 0C32.4593 0 0 32.4594 0 72.5C0 112.541 32.4593 145 72.5 145Z" fill="url(#paint0_radial_2459_30889)" fill-opacity="0.97"/>
<path d="M72.5 134L57 146H88L72.5 134Z" fill="#FCB13F"/>
<path d="M72 141C74.7614 141 77 138.761 77 136C77 133.239 74.7614 131 72 131C69.2386 131 67 133.239 67 136C67 138.761 69.2386 141 72 141Z" fill="#FCB13F"/>
<path d="M72.5 134L69 129.827L72.5 118L76 129.827L72.5 134Z" fill="#FCB13F"/>
<path d="M72 139C73.6569 139 75 137.881 75 136.5C75 135.119 73.6569 134 72 134C70.3431 134 69 135.119 69 136.5C69 137.881 70.3431 139 72 139Z" fill="#C9375B"/>
<path d="M71 134C71.5523 134 72 133.552 72 133C72 132.448 71.5523 132 71 132C70.4477 132 70 132.448 70 133C70 133.552 70.4477 134 71 134Z" fill="#C9375B"/>
<path d="M72 146C72.5523 146 73 145.328 73 144.5C73 143.672 72.5523 143 72 143C71.4477 143 71 143.672 71 144.5C71 145.328 71.4477 146 72 146Z" fill="#C9375B"/>
<path d="M10.2012 148.87L17 129C62.6431 154.616 104.355 138.173 122.5 127.5L130.5 149.5C77.405 181.636 28.3459 162.26 10.2012 148.87Z" fill="#675383"/>
<path d="M17.0002 130C13.0414 125.575 15.9625 121.955 18.0001 120.5C54.0001 158.5 106.5 139.5 123 124.5C125.096 127.76 126 130.5 125.5 132C124 135 112.859 140.137 107.716 142.174C65.1003 157.544 28.5002 139 17.0002 130Z" fill="#594773"/>
<path d="M9.14177 156.147C4.71413 151.743 8.16503 150.318 10.444 148.87C60.5607 180.308 107.551 160.644 130 149C133.5 150.5 133.832 155.085 132.204 156.147C129.599 157.77 117.445 161.942 111.694 163.97C64.0313 179.269 23.4664 165.129 9.14177 156.147Z" fill="#594773"/>
<defs>
<radialGradient id="paint0_radial_2459_30889" cx="0" cy="0" r="1" gradientUnits="userSpaceOnUse" gradientTransform="translate(72.5 72.5) scale(72.5)">
<stop stop-color="white" stop-opacity="0"/>
<stop offset="0.12" stop-color="#FDFEFE" stop-opacity="0.02"/>
<stop offset="0.26" stop-color="#F9FBFB" stop-opacity="0.08"/>
<stop offset="0.4" stop-color="#F1F7F7" stop-opacity="0.19"/>
<stop offset="0.55" stop-color="#E7F1F1" stop-opacity="0.33"/>
<stop offset="0.7" stop-color="#DAE9E9" stop-opacity="0.52"/>
<stop offset="0.85" stop-color="#CAE0E0" stop-opacity="0.74"/>
<stop offset="1" stop-color="#B8D6D6"/>
</radialGradient>
</defs>
</svg>
