<svg width="145" height="171" viewBox="0 0 145 171" fill="none" xmlns="http://www.w3.org/2000/svg">
<path d="M100.902 112.471C101.946 113.515 101.946 115.209 100.902 116.255L99.6577 117.499C98.6133 118.543 96.9195 118.543 95.874 117.499L94.6602 116.285L99.687 111.258L100.901 112.472L100.902 112.471Z" fill="#AAD37E"/>
<path d="M90.0101 101.579L84.9829 106.606L94.6617 116.285L99.6889 111.258L90.0101 101.579Z" fill="#F6E972"/>
<path d="M42.7672 112.471C41.7228 113.515 41.7228 115.209 42.7672 116.255L44.0114 117.499C45.0559 118.543 46.7496 118.543 47.7951 117.499L49.009 116.285L43.9821 111.258L42.7683 112.472L42.7672 112.471Z" fill="#AAD37E"/>
<path d="M53.6593 101.579L43.9805 111.258L49.0076 116.285L58.6864 106.607L53.6593 101.579Z" fill="#F6E972"/>
<path d="M89.0185 96.8522H54.6503L52.186 111.071H91.4828L89.0185 96.8522Z" fill="#F6E972"/>
<path d="M91.4832 111.071H52.1864L50.6004 120.222C49.8957 124.289 53.027 128.009 57.1547 128.009H86.5149C90.6426 128.009 93.7739 124.289 93.0692 120.222L91.4832 111.071Z" fill="#79C0A9"/>
<path d="M63.4277 99.1556H57.3574V113.375H63.4277V99.1556Z" fill="#79C0A9"/>
<path d="M86.312 99.1556H80.2417V113.375H86.312V99.1556Z" fill="#79C0A9"/>
<path d="M120.679 49.0281C122.357 49.5707 123.367 51.1526 123.02 52.6247L124.068 52.9634C124.575 50.9874 123.227 48.8451 120.973 48.1164C120.811 48.0641 120.647 48.0213 120.485 47.9857L120.188 48.9037C120.352 48.934 120.515 48.9748 120.678 49.0271H120.679V49.0281Z" fill="#FBAA1E"/>
<path d="M122.137 44.6863C123.815 45.2289 124.825 46.8108 124.478 48.2829L125.526 48.6216C126.033 46.6456 124.685 44.5033 122.431 43.7746C122.269 43.7223 122.105 43.6795 121.943 43.6439L121.646 44.5619C121.81 44.5922 121.973 44.633 122.136 44.6853H122.137V44.6863Z" fill="#FBAA1E"/>
<path d="M90.7385 103.032H52.3681C42.466 103.032 34.9916 94.0503 36.7889 84.3134L38.4188 75.4882C40.8235 62.4642 52.181 53.0117 65.4255 53.0117H77.6811C90.9257 53.0117 102.283 62.4642 104.688 75.4882L106.318 84.3134C108.116 94.0503 100.641 103.032 90.7385 103.032Z" fill="#AAD37E"/>
<path d="M27.4692 61.8283C25.7911 62.3709 24.7812 63.9528 25.1283 65.4248L24.0796 65.7636C23.5725 63.7876 24.9213 61.6453 27.1754 60.9166C27.3374 60.8643 27.5005 60.8214 27.6626 60.7859L27.9595 61.7039C27.7964 61.7342 27.6333 61.7749 27.4702 61.8272H27.4692V61.8283Z" fill="#FBAA1E"/>
<path d="M117.334 59.4886L125.018 36.4779C125.093 36.2531 125.126 36.0147 125.097 35.7795C124.907 34.2373 123.022 33.4114 121.749 34.4903L83.8843 66.572L99.4928 69.7765C107.186 71.3563 114.847 66.939 117.334 59.4897V59.4886Z" fill="#AAD37E"/>
<path d="M25.7735 59.4886L18.09 36.4778C18.0147 36.2531 17.9813 36.0136 18.0105 35.7784C18.2008 34.2363 20.0859 33.4113 21.3593 34.4893L59.2237 66.5709L43.6152 69.7754C35.9223 71.3552 28.2608 66.9379 25.7735 59.4886Z" fill="#AAD37E"/>
<path d="M59.0363 76.3193C54.39 74.7238 49.2545 76.5399 45.6035 80.5411L53.3278 83.1925C53.4773 80.5547 55.6624 78.4616 58.3379 78.4616C61.0134 78.4616 63.3564 80.7084 63.3564 83.48C63.3564 84.5391 63.027 85.5209 62.4677 86.3301L67.0439 87.9015C66.6205 82.5014 63.6836 77.9147 59.0373 76.3193H59.0363Z" fill="white"/>
<path d="M58.3377 78.4615C55.6623 78.4615 53.4771 80.5547 53.3276 83.1925L62.4665 86.3301C63.0269 85.5209 63.3552 84.5381 63.3552 83.48C63.3552 80.7084 61.1084 78.4615 58.3367 78.4615H58.3377Z" fill="#014042"/>
<path d="M84.7699 78.4616C87.4454 78.4616 89.6305 80.5547 89.78 83.1925L97.5043 80.5411C93.8533 76.5399 88.7188 74.7238 84.0715 76.3193C79.4242 77.9147 76.4884 82.5014 76.0649 87.9015L80.6412 86.3301C80.0808 85.5209 79.7525 84.5381 79.7525 83.48C79.7525 80.7084 81.9993 78.4616 84.7709 78.4616H84.7699Z" fill="white"/>
<path d="M84.7699 78.4615C81.9983 78.4615 79.7515 80.7084 79.7515 83.48C79.7515 84.5391 80.0808 85.5209 80.6402 86.3301L89.779 83.1925C89.6305 80.5547 87.4444 78.4615 84.7689 78.4615H84.7699Z" fill="#014042"/>
<path d="M89.3179 91.7584C89.1549 91.5953 88.8893 91.5953 88.7262 91.7584C85.8343 94.6503 81.8132 95.7418 78.0682 95.034C75.8799 94.62 73.7858 93.5922 72.0669 91.9487C72.0011 91.8859 71.9352 91.8222 71.8704 91.7573L71.7481 91.635H71.3602L71.2379 91.7573C71.173 91.8222 71.1082 91.8859 71.0423 91.9487C69.3601 93.5577 67.2879 94.6189 65.0442 95.0423C64.3155 95.1804 63.568 95.2514 62.81 95.2514C59.6284 95.2514 56.6351 94.0104 54.3821 91.7573C54.219 91.5942 53.9534 91.5942 53.7903 91.7573C53.6272 91.9204 53.6272 92.185 53.7903 92.3491C56.9258 95.4846 61.3013 96.643 65.3537 95.8244C67.611 95.3685 69.7679 94.299 71.5546 92.6157C73.3404 94.299 75.4983 95.3675 77.7556 95.8233C78.5941 95.9927 79.4462 96.0785 80.2993 96.0785C83.5655 96.0785 86.8317 94.8353 89.319 92.3481C89.4821 92.185 89.4821 91.9204 89.319 91.7563V91.7584H89.3179Z" fill="#8EB75C"/>
<path d="M71.5538 92.6168C70.9485 93.1877 70.3003 93.6853 69.6196 94.115V98.9547H73.488V94.115C72.8084 93.6853 72.1592 93.1877 71.5538 92.6168Z" fill="white"/>
<path d="M65.3536 95.8255L65.983 97.4147C66.3521 98.3442 67.2501 98.9548 68.2507 98.9548H69.0965V94.4287C67.9161 95.0968 66.6511 95.5631 65.3525 95.8255H65.3536Z" fill="white"/>
<path d="M74.0112 94.4287V98.9548H74.8571C75.8576 98.9548 76.7557 98.3442 77.1248 97.4147L77.7552 95.8255C76.4567 95.5631 75.1916 95.0968 74.0112 94.4287Z" fill="white"/>
<path d="M69.0977 94.4286V98.9547H69.6204V94.115C69.4479 94.2237 69.2743 94.3283 69.0977 94.4286Z" fill="#E4EEC4"/>
<path d="M73.4888 94.115V98.9547H74.0115V94.4286C73.8348 94.3293 73.6613 94.2237 73.4888 94.115Z" fill="#E4EEC4"/>
<path d="M74.2708 90.2769H68.8372C67.431 90.2769 66.3259 89.0725 66.4482 87.6715L67.0138 81.1485C67.1613 79.4516 68.5821 78.1489 70.2853 78.1489H72.8238C74.5269 78.1489 75.9478 79.4516 76.0952 81.1485L76.6608 87.6715C76.7821 89.0725 75.678 90.2769 74.2718 90.2769H74.2708Z" fill="#79C0A9"/>
<path d="M69.8817 86.6699C69.8817 86.4963 69.7416 86.3562 69.568 86.3562C69.3945 86.3562 69.2544 86.4963 69.2544 86.6699V88.7609C69.2544 88.9344 69.3945 89.0745 69.568 89.0745C69.7416 89.0745 69.8817 88.9344 69.8817 88.7609V86.6699Z" fill="#50A889"/>
<path d="M73.8548 86.6699C73.8548 86.4963 73.7147 86.3562 73.5412 86.3562C73.3676 86.3562 73.2275 86.4963 73.2275 86.6699V88.7609C73.2275 88.9344 73.3676 89.0745 73.5412 89.0745C73.7147 89.0745 73.8548 88.9344 73.8548 88.7609V86.6699Z" fill="#50A889"/>
<path d="M124.478 48.2838C124.462 48.3518 124.445 48.4187 124.423 48.4856C123.929 50.0131 122.1 50.7941 120.345 50.2264C118.604 49.6639 117.582 47.9817 118.048 46.4626C118.106 46.3821 118.144 46.2859 118.154 46.1792C118.182 45.8624 117.949 45.5833 117.633 45.555C117.317 45.5268 117.037 45.76 117.009 46.0757C117.009 46.0862 117.009 46.0956 117.008 46.106C116.365 48.1312 117.726 50.3843 120.051 51.136C122.383 51.8898 124.814 50.8516 125.469 48.8223C125.491 48.7554 125.51 48.6885 125.527 48.6215L124.478 48.2828V48.2838Z" fill="#FBAA1E"/>
<path d="M123.02 52.6248C123.004 52.6927 122.987 52.7597 122.965 52.8266C122.471 54.3541 120.642 55.1351 118.887 54.5674C117.146 54.0049 116.124 52.3226 116.59 50.8035C116.648 50.723 116.686 50.6268 116.696 50.5202C116.724 50.2034 116.491 49.9242 116.175 49.896C115.859 49.8678 115.579 50.1009 115.551 50.4167C115.551 50.4271 115.551 50.4365 115.551 50.447C114.908 52.4721 116.269 54.7252 118.594 55.477C120.926 56.2308 123.357 55.1926 124.012 53.1632C124.034 53.0963 124.053 53.0294 124.07 52.9625L123.021 52.6237L123.02 52.6248Z" fill="#FBAA1E"/>
<path d="M25.1282 65.4252C25.1439 65.4932 25.1617 65.5601 25.1837 65.627C25.6771 67.1545 27.5068 67.9355 29.2612 67.3678C31.0019 66.8053 32.0245 65.123 31.5582 63.6039C31.5007 63.5234 31.462 63.4272 31.4526 63.3206C31.4243 63.0038 31.6575 62.7246 31.9732 62.6964C32.29 62.6682 32.5692 62.9013 32.5974 63.2171C32.5974 63.2275 32.5974 63.2369 32.5984 63.2474C33.2414 65.2726 31.8802 67.5256 29.555 68.2774C27.2235 69.0312 24.7926 67.993 24.1371 65.9636C24.1151 65.8967 24.0963 65.8298 24.0796 65.7629L25.1282 65.4242V65.4252Z" fill="#FBAA1E"/>
<path d="M43.6391 89.4927C44.0144 89.4927 44.3186 89.1885 44.3186 88.8131C44.3186 88.4378 44.0144 88.1335 43.6391 88.1335C43.2637 88.1335 42.9595 88.4378 42.9595 88.8131C42.9595 89.1885 43.2637 89.4927 43.6391 89.4927Z" fill="#E4EEC4"/>
<path d="M47.5077 89.5973C47.883 89.5973 48.1873 89.2931 48.1873 88.9177C48.1873 88.5424 47.883 88.2382 47.5077 88.2382C47.1324 88.2382 46.8281 88.5424 46.8281 88.9177C46.8281 89.2931 47.1324 89.5973 47.5077 89.5973Z" fill="#E4EEC4"/>
<path d="M45.1029 93.1521C45.4783 93.1521 45.7825 92.8479 45.7825 92.4726C45.7825 92.0972 45.4783 91.793 45.1029 91.793C44.7276 91.793 44.4233 92.0972 44.4233 92.4726C44.4233 92.8479 44.7276 93.1521 45.1029 93.1521Z" fill="#E4EEC4"/>
<path d="M99.4696 89.4927C99.845 89.4927 100.149 89.1885 100.149 88.8131C100.149 88.4378 99.845 88.1335 99.4696 88.1335C99.0943 88.1335 98.79 88.4378 98.79 88.8131C98.79 89.1885 99.0943 89.4927 99.4696 89.4927Z" fill="#E4EEC4"/>
<path d="M95.6015 89.5973C95.9768 89.5973 96.281 89.2931 96.281 88.9177C96.281 88.5424 95.9768 88.2382 95.6015 88.2382C95.2261 88.2382 94.9219 88.5424 94.9219 88.9177C94.9219 89.2931 95.2261 89.5973 95.6015 89.5973Z" fill="#E4EEC4"/>
<path d="M98.0058 93.1521C98.3811 93.1521 98.6853 92.8479 98.6853 92.4726C98.6853 92.0972 98.3811 91.793 98.0058 91.793C97.6304 91.793 97.3262 92.0972 97.3262 92.4726C97.3262 92.8479 97.6304 93.1521 98.0058 93.1521Z" fill="#E4EEC4"/>
<path d="M58.8527 71.4388C59.1945 70.0954 60.56 69.284 61.9024 69.6249C63.2459 69.9668 64.0572 71.3322 63.7164 72.6746L63.0985 75.1065L60.6666 74.4886C59.3231 74.1467 58.5118 72.7813 58.8527 71.4388Z" fill="#E4EEC4"/>
<path d="M84.4351 71.4388C84.0943 70.0954 82.7278 69.284 81.3854 69.6249C80.0419 69.9668 79.2306 71.3322 79.5714 72.6746L80.1893 75.1065L82.6212 74.4886C83.9647 74.1467 84.776 72.7813 84.4351 71.4388Z" fill="#E4EEC4"/>
<path d="M83.2766 115.776C84.7508 115.776 85.9458 114.581 85.9458 113.107C85.9458 111.633 84.7508 110.438 83.2766 110.438C81.8025 110.438 80.6074 111.633 80.6074 113.107C80.6074 114.581 81.8025 115.776 83.2766 115.776Z" fill="#014042"/>
<path d="M60.3928 115.776C61.867 115.776 63.062 114.581 63.062 113.107C63.062 111.633 61.867 110.438 60.3928 110.438C58.9187 110.438 57.7236 111.633 57.7236 113.107C57.7236 114.581 58.9187 115.776 60.3928 115.776Z" fill="#014042"/>
<path d="M59.7131 112.793C59.8863 112.793 60.0267 112.653 60.0267 112.479C60.0267 112.306 59.8863 112.166 59.7131 112.166C59.5398 112.166 59.3994 112.306 59.3994 112.479C59.3994 112.653 59.5398 112.793 59.7131 112.793Z" fill="#79C0A9"/>
<path d="M61.072 112.793C61.2452 112.793 61.3856 112.653 61.3856 112.479C61.3856 112.306 61.2452 112.166 61.072 112.166C60.8987 112.166 60.7583 112.306 60.7583 112.479C60.7583 112.653 60.8987 112.793 61.072 112.793Z" fill="#79C0A9"/>
<path d="M59.7131 114.048C59.8863 114.048 60.0267 113.907 60.0267 113.734C60.0267 113.561 59.8863 113.42 59.7131 113.42C59.5398 113.42 59.3994 113.561 59.3994 113.734C59.3994 113.907 59.5398 114.048 59.7131 114.048Z" fill="#79C0A9"/>
<path d="M61.072 114.048C61.2452 114.048 61.3856 113.907 61.3856 113.734C61.3856 113.561 61.2452 113.42 61.072 113.42C60.8987 113.42 60.7583 113.561 60.7583 113.734C60.7583 113.907 60.8987 114.048 61.072 114.048Z" fill="#79C0A9"/>
<path d="M82.5973 112.793C82.7706 112.793 82.911 112.653 82.911 112.479C82.911 112.306 82.7706 112.166 82.5973 112.166C82.4241 112.166 82.2837 112.306 82.2837 112.479C82.2837 112.653 82.4241 112.793 82.5973 112.793Z" fill="#79C0A9"/>
<path d="M83.9562 112.793C84.1295 112.793 84.2699 112.653 84.2699 112.479C84.2699 112.306 84.1295 112.166 83.9562 112.166C83.783 112.166 83.6426 112.306 83.6426 112.479C83.6426 112.653 83.783 112.793 83.9562 112.793Z" fill="#79C0A9"/>
<path d="M82.5973 114.048C82.7706 114.048 82.911 113.907 82.911 113.734C82.911 113.561 82.7706 113.42 82.5973 113.42C82.4241 113.42 82.2837 113.561 82.2837 113.734C82.2837 113.907 82.4241 114.048 82.5973 114.048Z" fill="#79C0A9"/>
<path d="M83.9562 114.048C84.1295 114.048 84.2699 113.907 84.2699 113.734C84.2699 113.561 84.1295 113.42 83.9562 113.42C83.783 113.42 83.6426 113.561 83.6426 113.734C83.6426 113.907 83.783 114.048 83.9562 114.048Z" fill="#79C0A9"/>
<path d="M58.5566 134.325C58.5566 135.802 59.7548 137 61.2321 137H62.9907C64.468 137 65.6661 135.802 65.6661 134.325V132.609H58.5566V134.325Z" fill="#AAD37E"/>
<path d="M65.6661 123.094H58.5566V132.609H65.6661V123.094Z" fill="#79C0A9"/>
<path d="M85.1129 123.094H78.0034V132.609H85.1129V123.094Z" fill="#79C0A9"/>
<path d="M78.0034 132.609V134.325C78.0034 135.802 79.2016 137 80.6789 137H82.4375C83.9148 137 85.1129 135.802 85.1129 134.325V132.609H78.0034Z" fill="#AAD37E"/>
<path d="M62.791 117.553H80.8784V122.845C80.8784 123.963 79.9699 124.872 78.8512 124.872H64.8183C63.6996 124.872 62.791 123.963 62.791 122.845V117.553Z" fill="#50A889"/>
<path d="M27 125C28.6569 125 30 123.209 30 121C30 118.791 28.6569 117 27 117C25.3432 117 24 118.791 24 121C24 123.209 25.3432 125 27 125Z" fill="#FCB13F"/>
<path d="M25.6149 118C25.1212 118.636 24.7984 119.692 24.7984 120.886C24.7984 122.831 25.6523 124.408 26.7067 124.408C26.8063 124.408 26.9037 124.393 27 124.367C26.6908 124.765 26.3148 125 25.9083 125C24.855 125 24 123.424 24 121.479C24 119.718 24.6999 118.259 25.6149 118Z" fill="#DC8927"/>
<path d="M27.0002 124L32 130.827L26.5002 135L27.0002 124Z" fill="#FCB13F"/>
<path d="M25.2263 124L27 124.141L26.7587 135L25 134.195L25.2263 124Z" fill="#DC8927"/>
<path d="M116.5 127C117.881 127 119 125.433 119 123.5C119 121.567 117.881 120 116.5 120C115.119 120 114 121.567 114 123.5C114 125.433 115.119 127 116.5 127Z" fill="#FCB13F"/>
<path d="M117.385 120C117.879 120.636 118.202 121.692 118.202 122.886C118.202 124.831 117.348 126.408 116.293 126.408C116.194 126.408 116.096 126.393 116 126.367C116.309 126.765 116.685 127 117.092 127C118.145 127 119 125.424 119 123.479C119 121.718 118.3 120.259 117.385 120Z" fill="#DC8927"/>
<path d="M116.765 125L111 132.174L117 136L116.765 125Z" fill="#FCB13F"/>
<path d="M118.774 126L117 126.128L117.241 136L119 135.268L118.774 126Z" fill="#DC8927"/>
<path d="M72.5 145C112.541 145 145 112.541 145 72.5C145 32.4594 112.541 0 72.5 0C32.4593 0 0 32.4594 0 72.5C0 112.541 32.4593 145 72.5 145Z" fill="url(#paint0_radial_2438_57175)" fill-opacity="0.97"/>
<path d="M72.5 134L57 146H88L72.5 134Z" fill="#FCB13F"/>
<path d="M72 141C74.7614 141 77 138.761 77 136C77 133.239 74.7614 131 72 131C69.2386 131 67 133.239 67 136C67 138.761 69.2386 141 72 141Z" fill="#FCB13F"/>
<path d="M72.5 134L69 129.827L72.5 118L76 129.827L72.5 134Z" fill="#FCB13F"/>
<path d="M72 139C73.6569 139 75 137.881 75 136.5C75 135.119 73.6569 134 72 134C70.3431 134 69 135.119 69 136.5C69 137.881 70.3431 139 72 139Z" fill="#C9375B"/>
<path d="M71 134C71.5523 134 72 133.552 72 133C72 132.448 71.5523 132 71 132C70.4477 132 70 132.448 70 133C70 133.552 70.4477 134 71 134Z" fill="#C9375B"/>
<path d="M72 146C72.5523 146 73 145.328 73 144.5C73 143.672 72.5523 143 72 143C71.4477 143 71 143.672 71 144.5C71 145.328 71.4477 146 72 146Z" fill="#C9375B"/>
<path d="M10.2012 148.87L17 129C62.6431 154.616 104.355 138.173 122.5 127.5L130.5 149.5C77.405 181.636 28.3459 162.26 10.2012 148.87Z" fill="#675383"/>
<path d="M17.0002 130C13.0414 125.575 15.9625 121.955 18.0001 120.5C54.0001 158.5 106.5 139.5 123 124.5C125.096 127.76 126 130.5 125.5 132C124 135 112.859 140.137 107.716 142.174C65.1003 157.544 28.5002 139 17.0002 130Z" fill="#594773"/>
<path d="M9.14177 156.147C4.71413 151.743 8.16503 150.318 10.444 148.87C60.5607 180.308 107.551 160.644 130 149C133.5 150.5 133.832 155.085 132.204 156.147C129.599 157.77 117.445 161.942 111.694 163.97C64.0313 179.269 23.4664 165.129 9.14177 156.147Z" fill="#594773"/>
<defs>
<radialGradient id="paint0_radial_2438_57175" cx="0" cy="0" r="1" gradientUnits="userSpaceOnUse" gradientTransform="translate(72.5 72.5) scale(72.5)">
<stop stop-color="white" stop-opacity="0"/>
<stop offset="0.12" stop-color="#FDFEFE" stop-opacity="0.02"/>
<stop offset="0.26" stop-color="#F9FBFB" stop-opacity="0.08"/>
<stop offset="0.4" stop-color="#F1F7F7" stop-opacity="0.19"/>
<stop offset="0.55" stop-color="#E7F1F1" stop-opacity="0.33"/>
<stop offset="0.7" stop-color="#DAE9E9" stop-opacity="0.52"/>
<stop offset="0.85" stop-color="#CAE0E0" stop-opacity="0.74"/>
<stop offset="1" stop-color="#B8D6D6"/>
</radialGradient>
</defs>
</svg>
