<svg width="148" height="171" viewBox="0 0 148 171" fill="none" xmlns="http://www.w3.org/2000/svg">
<path d="M93.9619 120.042C93.3002 118.837 92.7388 117.702 92.3161 116.786L61.1555 110.688C57.9376 111.907 52.7861 115.078 53.4327 117.669C53.6162 118.405 53.4241 119.363 52.9952 120.414C51.2421 124.708 52.1544 129.117 56.792 129.181C61.722 129.25 67.0141 128.982 68.9681 128.982C72.5152 128.982 71.9315 126.627 77.2746 128.982C79.5159 129.97 84.7719 129.607 90.0524 129.055C93.2915 128.717 95.5298 122.896 93.9619 120.042Z" fill="#5B619B"/>
<path d="M126.529 79.0197C126.529 89.9362 103.391 93.0663 74.849 93.0663C46.3069 93.0663 23.1689 89.9362 23.1689 79.0197C23.1689 64.7208 57.1134 59.2535 74.849 59.2535C95.4581 59.2535 126.529 64.174 126.529 79.0197Z" fill="#C9345A"/>
<path d="M71.3713 24.4836C73.7966 19.3662 81.1604 19.6118 83.2393 24.8795L103.28 75.6606C104.957 79.9076 101.826 84.5081 97.2606 84.5081H53.1525C48.4009 84.5081 45.2694 79.5585 47.3043 75.2647L71.3713 24.4836Z" fill="#C9345A"/>
<mask id="mask0_2459_30911" style="mask-type:alpha" maskUnits="userSpaceOnUse" x="23" y="59" width="104" height="34">
<path d="M126.528 78.9352C126.528 89.8517 103.39 92.9818 74.8475 92.9818C46.3054 92.9818 23.1675 89.8517 23.1675 78.9352C23.1675 64.6363 57.112 59.1691 74.8475 59.1691C95.4566 59.1691 126.528 64.0896 126.528 78.9352Z" fill="#C9345A"/>
</mask>
<g mask="url(#mask0_2459_30911)">
<ellipse cx="5.77416" cy="5.44099" rx="5.77416" ry="5.44099" transform="matrix(0.979572 -0.201092 0.227839 0.973699 30.6216 61.6907)" fill="#FFDDDD"/>
<ellipse cx="8.11067" cy="7.52182" rx="8.11067" ry="7.52182" transform="matrix(0.979572 -0.201092 0.227839 0.973699 101.988 60.8325)" fill="#FFDDDD"/>
</g>
<path d="M116.561 82.2491C116.561 88.6002 97.8854 91.0478 74.8484 91.0478C51.8114 91.0478 33.1362 88.6002 33.1362 82.2491C33.1362 75.898 51.8114 72.7957 74.8484 72.7957C97.8854 72.7957 116.561 75.898 116.561 82.2491Z" fill="#E28EAE"/>
<path d="M45.1678 42.4122C37.6746 42.7734 35.2517 32.4846 42.2437 29.9949L73.6454 18.8132C77.1358 17.5703 81.0676 19.4833 82.2535 23.0014L85.4604 32.5148C86.8025 36.4962 84.0095 40.5398 79.7764 40.7438L45.1678 42.4122Z" fill="#C9345A"/>
<path d="M60.3918 41.4637C61.2 39.193 64.2532 32.9267 59.8081 33.5999" stroke="#B1294C" stroke-width="1.84906" stroke-linecap="round" stroke-linejoin="round"/>
<path d="M59.8112 59.1875C67.6174 58.1499 81.885 57.825 92.3646 59.8227" stroke="#F1698B" stroke-width="1.84906" stroke-linecap="round" stroke-linejoin="round"/>
<path d="M49.749 27.5857C58.9535 23.8007 79.7386 12.9616 82.3746 21.79" stroke="#F1698B" stroke-width="1.84906" stroke-linecap="round" stroke-linejoin="round"/>
<ellipse cx="3.76099" cy="3.54398" rx="3.76099" ry="3.54398" transform="matrix(0.979572 -0.201092 0.227839 0.973699 74.085 41.0825)" fill="#FFDDDD"/>
<ellipse cx="2.10361" cy="1.98223" rx="2.10361" ry="1.98223" transform="matrix(0.979572 -0.201092 0.227839 0.973699 65.1055 26.6172)" fill="#FFDDDD"/>
<ellipse cx="1.99866" cy="2.88532" rx="1.99866" ry="2.88532" transform="matrix(0.524391 -0.851478 0.879795 0.475353 46.9673 39.6105)" fill="#FFDDDD"/>
<path d="M53.0732 97.8913C53.0732 85.8893 62.8028 76.1597 74.8049 76.1597C86.8069 76.1597 96.5365 85.8893 96.5365 97.8913V105.43H53.0732V97.8913Z" fill="#FFD9E7"/>
<path d="M86.7954 110.159C88.2053 111.06 93.7061 115.019 101.07 112.412" stroke="#FFD9E7" stroke-width="1.84906"/>
<path d="M62 111.516C59.7961 111.683 54.9539 113.024 53.2159 117.052" stroke="#E28EAE" stroke-width="1.84906"/>
<path d="M60.9716 109.181C61.9847 103.6 66.8446 99.5433 72.5164 99.5433H76.4642C82.136 99.5433 86.9958 103.6 88.009 109.181C89.3164 116.383 83.7835 123.01 76.4642 123.01H72.5164C65.1971 123.01 59.6642 116.383 60.9716 109.181Z" fill="#FFD9E7"/>
<path d="M93.2604 118.678C94.0921 120.519 69.5738 114.747 58.6122 111.123C58.1307 110.964 58.243 110.293 58.7499 110.277L89.6677 109.311C89.8794 109.304 90.0678 109.441 90.1273 109.644C90.8461 112.099 92.3186 116.593 93.2604 118.678Z" fill="#9096D1"/>
<path d="M47.8647 97.819C47.8647 90.9671 53.4193 85.4126 60.2712 85.4126H89.4283C96.2801 85.4126 101.835 90.9671 101.835 97.819C101.835 104.671 96.2801 110.225 89.4283 110.225H74.3406H60.2711C53.4193 110.225 47.8647 104.671 47.8647 97.819Z" fill="#FFD9E7"/>
<ellipse cx="4.44993" cy="6.75889" rx="4.44993" ry="6.75889" transform="matrix(0.971342 0.237687 -0.268665 0.963234 50.8354 88.0601)" fill="#F1698B"/>
<ellipse cx="4.44993" cy="6.75889" rx="4.44993" ry="6.75889" transform="matrix(-0.971342 0.237687 0.268665 0.963234 98.8057 88.0601)" fill="#F1698B"/>
<path d="M59.9883 91.4688V91.4688C64.2514 95.123 70.5422 95.123 74.8053 91.4688V91.4688V91.4688C79.0684 95.123 85.3592 95.123 89.6223 91.4688V91.4688" stroke="#E28EAE" stroke-width="0.924528" stroke-linecap="round" stroke-linejoin="round"/>
<path d="M72.5019 80.5963C72.6644 81.6269 71.187 81.9669 70.8301 80.9811C70.6522 80.4897 70.9482 79.9657 71.4596 79.8667C71.9474 79.7723 72.4246 80.1063 72.5019 80.5963Z" fill="#E28EAE"/>
<path d="M77.0616 80.5963C76.8991 81.6269 78.3765 81.9669 78.7334 80.9811C78.9113 80.4897 78.6153 79.9657 78.1039 79.8667C77.6161 79.7723 77.1389 80.1063 77.0616 80.5963Z" fill="#E28EAE"/>
<path d="M72.5601 87.8092C72.5601 89.7602 70.5499 91.3419 68.0701 91.3419C65.5903 91.3419 63.5801 89.7602 63.5801 87.8092C63.5801 85.8582 65.5903 84.7391 68.0701 84.7391C70.5499 84.7391 72.5601 85.8582 72.5601 87.8092Z" fill="white"/>
<path d="M71.0327 87.935C71.0327 89.0037 69.907 89.8701 68.5183 89.8701C67.1296 89.8701 66.0039 89.0037 66.0039 87.935C66.0039 86.8663 67.1296 86.2533 68.5183 86.2533C69.907 86.2533 71.0327 86.8663 71.0327 87.935Z" fill="#C9345A"/>
<path d="M77.1401 87.8092C77.1401 89.7602 79.1503 91.3419 81.6301 91.3419C84.1099 91.3419 86.1201 89.7602 86.1201 87.8092C86.1201 85.8582 84.1099 84.7391 81.6301 84.7391C79.1503 84.7391 77.1401 85.8582 77.1401 87.8092Z" fill="white"/>
<ellipse cx="3.96913" cy="3.77155" rx="3.96913" ry="3.77155" transform="matrix(0.949979 0.312313 -0.350905 0.936411 49.8833 113.504)" fill="#E28EAE"/>
<path d="M78.5771 87.935C78.5771 89.0037 79.7029 89.8701 81.0916 89.8701C82.4802 89.8701 83.606 89.0037 83.606 87.935C83.606 86.8663 82.4802 86.2533 81.0916 86.2533C79.7029 86.2533 78.5771 86.8663 78.5771 87.935Z" fill="#C9345A"/>
<ellipse cx="101.027" cy="113.169" rx="4.75941" ry="4.4579" fill="#FFD9E7"/>
<path fill-rule="evenodd" clip-rule="evenodd" d="M104.614 93.1086C104.16 92.9997 103.693 93.2761 103.57 93.7261C103.446 94.176 103.714 94.6291 104.168 94.7381L104.217 94.7499L102.439 101.242C98.8207 101.349 95.5619 103.669 94.6173 107.119C93.4714 111.304 96.4767 114.426 100.944 115.499C105.412 116.572 109.651 115.19 110.796 111.006C111.741 107.557 110.078 104.055 106.962 102.329L108.74 95.8365L108.875 95.8689C109.329 95.9778 109.796 95.7014 109.919 95.2514C110.043 94.8015 109.775 94.3484 109.321 94.2394L104.614 93.1086Z" fill="#B7D6D6" fill-opacity="0.5"/>
<g style="mix-blend-mode:multiply">
<path d="M109.445 110.191C108.54 113.495 105.194 114.586 101.667 113.739C98.1398 112.891 95.7673 110.427 96.6719 107.123C97.5765 103.819 100.31 108.038 104.799 106.188C106.955 105.557 110.349 106.888 109.445 110.191Z" fill="#A977AB" fill-opacity="0.8"/>
</g>
<ellipse cx="105.652" cy="106.398" rx="1.7511" ry="1.64017" fill="#CDABD9"/>
<ellipse cx="99.9946" cy="109.426" rx="1.0327" ry="0.967279" fill="#CDABD9"/>
<path d="M98.1519 105.001C99.1696 103.824 101.564 102.529 105.111 103.875" stroke="#FFF2F7" stroke-width="1.84906" stroke-linecap="round"/>
<path d="M68.5185 119.477C64.896 122.495 64.4775 123.983 64.4775 127.215" stroke="#FFD9E7" stroke-width="1.84906"/>
<path d="M80.3716 119.477C83.9941 122.495 84.4126 123.983 84.4126 127.215" stroke="#FFD9E7" stroke-width="1.84906"/>
<path d="M54.0591 128.771C54.0591 127.54 55.057 126.542 56.288 126.542H65.8229V129.931C65.8229 130.521 65.3441 131 64.7535 131H56.288C55.057 131 54.0591 130.002 54.0591 128.771Z" fill="#E28EAE"/>
<path d="M94.8311 128.771C94.8311 127.54 93.8331 126.542 92.6021 126.542H83.0672V129.931C83.0672 130.521 83.546 131 84.1367 131H92.6021C93.8331 131 94.8311 130.002 94.8311 128.771Z" fill="#E28EAE"/>
<path d="M30 125C31.6569 125 33 123.209 33 121C33 118.791 31.6569 117 30 117C28.3432 117 27 118.791 27 121C27 123.209 28.3432 125 30 125Z" fill="#FCB13F"/>
<path d="M28.6149 118C28.1212 118.636 27.7984 119.692 27.7984 120.886C27.7984 122.831 28.6523 124.408 29.7067 124.408C29.8063 124.408 29.9037 124.393 30 124.367C29.6908 124.765 29.3148 125 28.9083 125C27.855 125 27 123.424 27 121.479C27 119.718 27.6999 118.259 28.6149 118Z" fill="#DC8927"/>
<path d="M30.0002 124L35 130.827L29.5002 135L30.0002 124Z" fill="#FCB13F"/>
<path d="M28.2263 124L30 124.141L29.7587 135L28 134.195L28.2263 124Z" fill="#DC8927"/>
<path d="M119.5 127C120.881 127 122 125.433 122 123.5C122 121.567 120.881 120 119.5 120C118.119 120 117 121.567 117 123.5C117 125.433 118.119 127 119.5 127Z" fill="#FCB13F"/>
<path d="M120.385 120C120.879 120.636 121.202 121.692 121.202 122.886C121.202 124.831 120.348 126.408 119.293 126.408C119.194 126.408 119.096 126.393 119 126.367C119.309 126.765 119.685 127 120.092 127C121.145 127 122 125.424 122 123.479C122 121.718 121.3 120.259 120.385 120Z" fill="#DC8927"/>
<path d="M119.765 125L114 132.174L120 136L119.765 125Z" fill="#FCB13F"/>
<path d="M121.774 126L120 126.128L120.241 136L122 135.268L121.774 126Z" fill="#DC8927"/>
<path d="M75.5 145C115.541 145 148 112.541 148 72.5C148 32.4594 115.541 0 75.5 0C35.4593 0 3 32.4594 3 72.5C3 112.541 35.4593 145 75.5 145Z" fill="url(#paint0_radial_2459_30911)" fill-opacity="0.97"/>
<path d="M75.5 134L60 146H91L75.5 134Z" fill="#FCB13F"/>
<path d="M75 141C77.7614 141 80 138.761 80 136C80 133.239 77.7614 131 75 131C72.2386 131 70 133.239 70 136C70 138.761 72.2386 141 75 141Z" fill="#FCB13F"/>
<path d="M75.5 134L72 129.827L75.5 118L79 129.827L75.5 134Z" fill="#FCB13F"/>
<path d="M75 139C76.6569 139 78 137.881 78 136.5C78 135.119 76.6569 134 75 134C73.3431 134 72 135.119 72 136.5C72 137.881 73.3431 139 75 139Z" fill="#C9375B"/>
<path d="M74 134C74.5523 134 75 133.552 75 133C75 132.448 74.5523 132 74 132C73.4477 132 73 132.448 73 133C73 133.552 73.4477 134 74 134Z" fill="#C9375B"/>
<path d="M75 146C75.5523 146 76 145.328 76 144.5C76 143.672 75.5523 143 75 143C74.4477 143 74 143.672 74 144.5C74 145.328 74.4477 146 75 146Z" fill="#C9375B"/>
<path d="M13.2012 148.87L20 129C65.6431 154.616 107.355 138.173 125.5 127.5L133.5 149.5C80.405 181.636 31.3459 162.26 13.2012 148.87Z" fill="#675383"/>
<path d="M20.0002 130C16.0414 125.575 18.9625 121.955 21.0001 120.5C57.0001 158.5 109.5 139.5 126 124.5C128.096 127.76 129 130.5 128.5 132C127 135 115.859 140.137 110.716 142.174C68.1003 157.544 31.5002 139 20.0002 130Z" fill="#594773"/>
<path d="M12.1418 156.147C7.71413 151.743 11.165 150.318 13.444 148.87C63.5607 180.308 110.551 160.644 133 149C136.5 150.5 136.832 155.085 135.204 156.147C132.599 157.77 120.445 161.942 114.694 163.97C67.0313 179.269 26.4664 165.129 12.1418 156.147Z" fill="#594773"/>
<defs>
<radialGradient id="paint0_radial_2459_30911" cx="0" cy="0" r="1" gradientUnits="userSpaceOnUse" gradientTransform="translate(75.5 72.5) scale(72.5)">
<stop stop-color="white" stop-opacity="0"/>
<stop offset="0.12" stop-color="#FDFEFE" stop-opacity="0.02"/>
<stop offset="0.26" stop-color="#F9FBFB" stop-opacity="0.08"/>
<stop offset="0.4" stop-color="#F1F7F7" stop-opacity="0.19"/>
<stop offset="0.55" stop-color="#E7F1F1" stop-opacity="0.33"/>
<stop offset="0.7" stop-color="#DAE9E9" stop-opacity="0.52"/>
<stop offset="0.85" stop-color="#CAE0E0" stop-opacity="0.74"/>
<stop offset="1" stop-color="#B8D6D6"/>
</radialGradient>
</defs>
</svg>
