<svg width="153" height="179" viewBox="0 0 153 179" fill="none" xmlns="http://www.w3.org/2000/svg">
<g filter="url(#filter0_d_2464_26901)">
<path d="M108.093 114.421C108.981 111.633 107.439 108.654 104.65 107.767C101.861 106.88 98.8814 108.421 97.9941 111.209C97.9076 111.482 97.8446 111.756 97.8033 112.03C97.3925 113.624 96.3238 116.944 94.6196 116.523C94.5228 116.484 94.425 116.447 94.3244 116.414C92.1249 115.714 89.774 116.93 89.0737 119.129C88.3735 121.328 89.5898 123.678 91.7893 124.378L91.7987 124.388L91.8006 124.381C92.3044 124.54 92.8148 124.597 93.3121 124.566C101.941 125.22 106.26 118.237 107.613 115.496C107.803 115.172 107.962 114.823 108.083 114.451" fill="#C19863"/>
<path d="M73.4251 120.812H65.9053V130.02H73.4251V120.812Z" fill="#C19863"/>
<path d="M65.9052 132.921C65.9052 134.069 66.8368 135 67.9854 135H71.3439C72.4926 135 73.4241 134.069 73.4241 132.921V130.02H65.9043V132.921H65.9052Z" fill="#B41F24"/>
<path d="M86.0208 120.812H78.501V130.02H86.0208V120.812Z" fill="#C19863"/>
<path d="M78.5009 130.02V132.921C78.5009 134.069 79.4325 135 80.5811 135H83.9396C85.0883 135 86.0198 134.069 86.0198 132.921V130.02H78.5H78.5009Z" fill="#B41F24"/>
<path d="M66.1543 101.898C64.8186 100.11 62.2854 99.743 60.4975 101.079L50.687 108.406L55.6567 114.781L65.3365 107.552C67.1253 106.217 67.4919 103.685 66.1552 101.898H66.1543Z" fill="#79C0A9"/>
<path d="M47.0173 111.145C45.2286 112.48 44.862 115.013 46.1986 116.8C47.5343 118.588 50.0676 118.954 51.8554 117.618L53.6968 116.244L48.7272 109.868L47.0173 111.145Z" fill="#C19863"/>
<path d="M106.974 99.2535C108.072 97.4316 107.485 95.0638 105.662 93.9654C103.84 92.867 101.471 93.4542 100.372 95.2761C99.9971 95.8991 99.5619 96.4713 99.0769 96.99L105.213 101.69C105.86 100.935 106.45 100.122 106.974 99.2535Z" fill="#C19863"/>
<path d="M94.1203 99.8906C91.4902 100.542 88.7615 100.129 86.4369 98.7283C84.6143 97.6299 82.2456 98.2172 81.1468 100.039C80.0479 101.861 80.6354 104.229 82.458 105.327C85.2798 107.028 88.441 107.9 91.651 107.9C93.091 107.9 94.5414 107.724 95.9749 107.369C98.8023 106.668 101.36 105.319 103.484 103.444L97.1498 98.593C96.2296 99.1812 95.2107 99.621 94.1203 99.8906Z" fill="#79C0A9"/>
<path d="M105.213 101.691L99.0769 96.991C98.5016 97.6055 97.8559 98.1429 97.1509 98.593L103.485 103.444C104.099 102.903 104.677 102.318 105.214 101.691H105.213Z" fill="#B41F24"/>
<path d="M48.7283 109.868L53.697 116.243L55.6559 114.781L50.6862 108.405L48.7283 109.868Z" fill="#B41F24"/>
<path d="M90.681 100.892H61.2326L56.1558 123.971H95.7579L90.681 100.892Z" fill="#79C0A9"/>
<path d="M95.7578 123.971H56.1558C56.0796 124.316 55.5542 126.705 55.4658 127.107H96.4375C96.3679 126.646 95.8387 124.38 95.7588 123.971H95.7578Z" fill="#B41F24"/>
<path d="M68.0497 27.9381C67.5399 23.4163 70.7987 19.3312 75.3223 18.8216C79.846 18.312 83.9327 21.5695 84.4425 26.0914L85.2608 33.35C85.319 33.8663 84.9468 34.3319 84.4312 34.39L77.1698 35.208C72.6461 35.7176 68.5595 32.46 68.0497 27.9381Z" fill="#B5BF64"/>
<path d="M69.6096 21.9974L69.8734 21.6668C72.8089 17.9871 78.1799 17.382 81.8611 20.3164L70.9606 33.9805C67.2794 31.0461 66.6741 25.6772 69.6096 21.9974Z" fill="#626A2E"/>
<path d="M73.3668 24.0079C73.254 24.1488 73.0876 24.2475 72.8949 24.2691C71.6965 24.4044 70.5177 24.0652 69.5759 23.3144C68.634 22.5637 68.0409 21.4906 67.9056 20.2926C67.8623 19.9055 68.1405 19.5569 68.5269 19.5137C68.9141 19.4705 69.2629 19.7486 69.3061 20.1348C69.3992 20.9588 69.8071 21.6964 70.4538 22.2123C71.1015 22.7281 71.9117 22.9611 72.7361 22.8681C73.1234 22.8249 73.4721 23.103 73.5153 23.4892C73.5369 23.6827 73.4787 23.8669 73.3659 24.0079H73.3668Z" fill="#626A2E"/>
<path d="M80.1474 42.4266C78.7922 38.0825 81.2203 33.4555 85.5661 32.1008C89.912 30.7461 94.5407 33.1732 95.896 37.5174L98.0715 44.4907C98.2262 44.9867 97.9487 45.5142 97.4533 45.6686L90.4773 47.8432C86.1314 49.198 81.5027 46.7708 80.1474 42.4266Z" fill="#B8C13A"/>
<path d="M80.5583 36.294L80.7548 35.9196C82.942 31.7517 88.1019 30.1432 92.2714 32.3295L84.1497 47.8061C79.9802 45.6198 78.3711 40.4619 80.5583 36.294Z" fill="#585F29"/>
<path d="M84.6324 37.5635C84.5488 37.7232 84.404 37.851 84.2179 37.9092C83.0664 38.2682 81.8454 38.1573 80.7785 37.5982C79.7117 37.0392 78.9268 36.0967 78.5677 34.9457C78.4521 34.5736 78.6589 34.179 79.0311 34.0634C79.4024 33.9479 79.7981 34.1546 79.9138 34.5267C80.161 35.3178 80.7005 35.9661 81.4337 36.3504C82.1669 36.7347 83.0063 36.8108 83.7987 36.5637C84.17 36.4482 84.5657 36.6549 84.6813 37.0269C84.7396 37.213 84.7161 37.4047 84.6324 37.5644V37.5635Z" fill="#585F29"/>
<path d="M75.706 40.9339C75.3512 45.4705 71.3784 48.8659 66.84 48.5112C62.3015 48.1566 58.9049 44.1853 59.2596 39.6487L59.8292 32.3664C59.8697 31.8483 60.3233 31.4616 60.8405 31.502L68.1257 32.0713C72.6641 32.4259 76.0608 36.3972 75.706 40.9339Z" fill="#B8C13A"/>
<path d="M73.0494 46.4733L72.7279 46.7481C69.1492 49.8066 63.7606 49.3855 60.701 45.8083L73.9896 34.4511C77.0493 38.0283 76.628 43.4148 73.0494 46.4733Z" fill="#585F29"/>
<path d="M69.7393 43.7874C69.8766 43.67 70.058 43.6052 70.2526 43.6202C71.4548 43.7141 72.548 44.2695 73.331 45.1846C74.114 46.0998 74.4928 47.2659 74.3988 48.4676C74.3687 48.8557 74.0294 49.146 73.6412 49.115C73.253 49.085 72.9625 48.7458 72.9935 48.3577C73.0584 47.5308 72.7971 46.7294 72.2594 46.1008C71.7217 45.4722 70.9698 45.0897 70.1426 45.0249C69.7544 44.9948 69.4639 44.6556 69.4949 44.2676C69.51 44.074 69.6021 43.9039 69.7393 43.7865V43.7874Z" fill="#585F29"/>
<path d="M91.7636 37.9064C93.9427 33.9111 98.957 32.4359 102.954 34.6142C106.951 36.7925 108.426 41.8048 106.247 45.8001L102.749 52.2133C102.5 52.6695 101.928 52.8371 101.473 52.5888L95.057 49.0922C91.0602 46.9139 89.5844 41.9016 91.7636 37.9064Z" fill="#B5BF64"/>
<path d="M96.4559 33.9347L96.8617 33.8153C101.378 32.4864 106.124 35.0728 107.453 39.5878L90.6812 44.5222C89.3518 40.0072 91.9391 35.2635 96.4559 33.9347Z" fill="#626A2E"/>
<path d="M98.3785 37.7421C98.2056 37.7928 98.0129 37.7778 97.8418 37.6847C96.7834 37.1078 96.0126 36.1532 95.6723 34.9984C95.3321 33.8436 95.4627 32.624 96.0408 31.566C96.2269 31.224 96.6556 31.0981 96.9977 31.2851C97.3399 31.4711 97.4658 31.8996 97.2788 32.2416C96.8821 32.9698 96.7919 33.8079 97.025 34.6019C97.259 35.3959 97.7882 36.0517 98.5167 36.4482C98.8589 36.6343 98.9848 37.0627 98.7978 37.4047C98.7047 37.5757 98.5505 37.6923 98.3776 37.743L98.3785 37.7421Z" fill="#626A2E"/>
<path d="M76.1257 32.2199C80.4957 30.945 85.0792 33.4565 86.3545 37.8248C87.6299 42.1931 85.1175 46.7748 80.7475 48.0497L73.7327 50.0961C73.2338 50.2417 72.7113 49.9547 72.5659 49.4568L70.5186 42.4448C69.2432 38.0765 71.7557 33.4948 76.1257 32.2199Z" fill="#B5BF64"/>
<path d="M82.2477 32.7406L82.6186 32.9438C86.7474 35.2062 88.2617 40.3927 85.9984 44.5198L70.6672 36.1191C72.9304 31.992 78.119 30.4783 82.2477 32.7406Z" fill="#626A2E"/>
<path d="M80.9091 36.7856C80.7512 36.6992 80.6261 36.5517 80.5707 36.3647C80.2323 35.2071 80.3658 33.9884 80.9448 32.9323C81.5238 31.8762 82.4798 31.1085 83.6378 30.7712C84.0119 30.6622 84.403 30.8764 84.512 31.2504C84.621 31.6244 84.4067 32.0152 84.0326 32.1242C83.2365 32.3563 82.5785 32.8844 82.1809 33.6098C81.7833 34.3351 81.6921 35.1733 81.9242 35.9691C82.0333 36.3431 81.819 36.734 81.4449 36.843C81.2578 36.8974 81.067 36.8711 80.9081 36.7847L80.9091 36.7856Z" fill="#626A2E"/>
<path d="M46.8721 42.1134C47.2642 37.5798 51.2647 34.2172 55.8001 34.609C60.3355 35.0009 63.6994 38.9998 63.3074 43.5334L62.6782 50.8108C62.6334 51.3285 62.1767 51.7116 61.6597 51.6669L54.3795 51.0379C49.8441 50.646 46.4801 46.6471 46.8721 42.1134Z" fill="#B5BF64"/>
<path d="M49.575 36.595L49.8987 36.3229C53.5023 33.2939 58.8873 33.7591 61.9175 37.3613L48.5361 48.6092C45.5059 45.0069 45.9713 39.6241 49.575 36.595Z" fill="#626A2E"/>
<path d="M52.8631 39.3093C52.725 39.4258 52.5426 39.4888 52.349 39.4719C51.1477 39.3676 50.0592 38.8029 49.2837 37.8821C48.5082 36.9603 48.1388 35.7914 48.2432 34.5906C48.277 34.2026 48.6182 33.916 49.0064 33.9489C49.3946 33.9827 49.6813 34.3238 49.6484 34.7118C49.577 35.5377 49.8308 36.342 50.3637 36.9753C50.8967 37.6086 51.6449 37.9967 52.4712 38.0681C52.8594 38.1019 53.1461 38.443 53.1132 38.8311C53.0962 39.0246 53.0023 39.1938 52.8641 39.3093H52.8631Z" fill="#626A2E"/>
<path d="M114.679 56.3547C114.377 74.2881 105.723 96.0419 87.3517 101.967C84.7978 102.747 82.1273 103.108 79.4766 103.053C82.1273 102.986 84.7573 102.504 87.2379 101.62C97.2515 98.0489 104.168 88.9047 107.906 79.2755C110.726 71.9992 111.941 64.1291 111.765 56.3547H114.679Z" fill="#8E1A1F"/>
<path d="M40.0653 56.3547C39.7495 71.7014 44.8629 88.5269 57.6456 97.9615C61.9065 101.046 67.0586 102.945 72.3534 103.053C69.7027 103.108 67.0322 102.746 64.4783 101.966C54.0474 98.7705 46.5304 89.6761 42.2423 79.9737C38.9683 72.5498 37.3412 64.4673 37.1514 56.3547H40.0653Z" fill="#8E1A1F"/>
<path d="M75.915 64.6234C97.4071 64.6234 114.83 60.4376 114.83 55.2743C114.83 50.1109 97.4071 45.9252 75.915 45.9252C54.4228 45.9252 37 50.1109 37 55.2743C37 60.4376 54.4228 64.6234 75.915 64.6234Z" fill="#FBAA1F"/>
<path d="M75.915 64.6233C97.4071 64.6233 114.83 60.9213 114.83 56.3547C114.83 51.7881 97.4071 48.0862 75.915 48.0862C54.4228 48.0862 37 51.7881 37 56.3547C37 60.9213 54.4228 64.6233 75.915 64.6233Z" fill="#EB892E"/>
<path d="M71.7209 102.207L73.277 101.843C74.5905 101.537 75.906 102.354 76.2128 103.667C76.5197 104.98 75.7025 106.294 74.389 106.601L70.4531 107.52L69.8971 105.141C69.5902 103.829 70.4074 102.514 71.7209 102.207Z" fill="#B41F24"/>
<path d="M81.3926 107.523L77.4567 106.604C76.1432 106.297 75.326 104.982 75.6328 103.669C75.9397 102.356 77.2552 101.539 78.5687 101.846L80.1247 102.209C81.4382 102.516 82.2554 103.831 81.9486 105.144L81.3926 107.523Z" fill="#B41F24"/>
<path d="M75.9149 104.434C91.9006 104.434 104.86 92.6197 104.86 78.0455C104.86 63.4713 91.9006 51.6566 75.9149 51.6566C59.9292 51.6566 46.9702 63.4713 46.9702 78.0455C46.9702 92.6197 59.9292 104.434 75.9149 104.434Z" fill="#B41F24"/>
<path d="M53.2033 73.3617C58.0572 73.3617 61.9921 69.4284 61.9921 64.5764C61.9921 59.7243 58.0572 55.791 53.2033 55.791C48.3494 55.791 44.4146 59.7243 44.4146 64.5764C44.4146 69.4284 48.3494 73.3617 53.2033 73.3617Z" fill="#C19863"/>
<path d="M98.6982 72.422C103.552 72.422 107.487 68.4887 107.487 63.6367C107.487 58.7846 103.552 54.8513 98.6982 54.8513C93.8443 54.8513 89.9094 58.7846 89.9094 63.6367C89.9094 68.4887 93.8443 72.422 98.6982 72.422Z" fill="#C19863"/>
<path d="M76.7911 70.79L82.2034 57.8553C80.1994 57.4288 78.1061 57.2004 75.9507 57.2004C73.7954 57.2004 71.702 57.4288 69.698 57.8553L75.1104 70.79C75.4224 71.5351 76.479 71.5351 76.7911 70.79Z" fill="#BF773B"/>
<path d="M89.5784 60.5238L80.3592 67.9345C79.9785 68.2408 79.4389 67.8424 79.6203 67.3886L83.3191 58.1166C82.9507 58.0226 82.5794 57.9352 82.2043 57.8553L76.792 70.79C76.4799 71.5351 75.4234 71.5351 75.1113 70.79L69.6989 57.8553C69.3239 57.9352 68.9526 58.0226 68.5841 58.1166L72.2829 67.3886C72.4643 67.8424 71.9248 68.2408 71.5441 67.9345L62.3248 60.5238C54.7712 64.5313 49.7263 71.7681 49.7263 80.0329C49.7263 92.6434 61.4675 102.865 75.9516 102.865C90.4357 102.865 102.177 92.6434 102.177 80.0329C102.177 71.7681 97.1321 64.5313 89.5784 60.5238Z" fill="#C19863"/>
<path d="M72.283 67.3877L68.5842 58.1156C66.3612 58.6812 64.2603 59.4968 62.324 60.5238L71.5432 67.9345C71.9239 68.2408 72.4635 67.8424 72.2821 67.3886L72.283 67.3877Z" fill="#BF773B"/>
<path d="M80.3583 67.9345L89.5775 60.5238C87.6412 59.4968 85.5403 58.6812 83.3173 58.1156L79.6185 67.3877C79.4371 67.8415 79.9766 68.2399 80.3573 67.9336L80.3583 67.9345Z" fill="#BF773B"/>
<path d="M90.1106 91.2706C89.8352 90.9953 89.3887 90.9953 89.1133 91.2706C87.0058 93.3772 84.1098 94.2285 81.366 93.8235C79.9974 93.6215 78.6664 93.1056 77.4895 92.2788C77.0665 91.9819 76.6633 91.6473 76.2854 91.2706C76.136 91.1212 75.9357 91.0535 75.7402 91.0667C75.5447 91.0535 75.3445 91.1212 75.195 91.2706C74.8172 91.6483 74.4139 91.9828 73.9909 92.2788C72.8141 93.1056 71.4831 93.6215 70.1145 93.8235C67.3698 94.2275 64.4746 93.3772 62.3672 91.2706C62.0918 90.9953 61.6453 90.9953 61.3699 91.2706C61.0945 91.5459 61.0945 91.9922 61.3699 92.2675C63.4134 94.3102 66.097 95.3316 68.7807 95.3316C69.4086 95.3316 70.0365 95.2752 70.6568 95.1634C72.4945 94.8317 74.2607 94.0086 75.7402 92.6931C77.2198 94.0086 78.985 94.8317 80.8236 95.1634C81.4431 95.2752 82.0719 95.3316 82.6998 95.3316C85.3834 95.3316 88.068 94.3102 90.1106 92.2675C90.386 91.9922 90.386 91.5459 90.1106 91.2706Z" fill="#5B1111"/>
<path d="M70.6567 95.1625C71.6071 96.9111 73.3244 98.1251 75.3171 98.2764V93.0465C73.9288 94.1552 72.3233 94.8618 70.6567 95.1625Z" fill="white"/>
<path d="M80.8235 95.1625C79.1569 94.8618 77.5514 94.1562 76.1631 93.0465V98.2764C78.1558 98.1251 79.8732 96.9111 80.8235 95.1625Z" fill="white"/>
<path d="M75.7401 92.6923C75.602 92.8153 75.46 92.9328 75.3171 93.0465V98.2764C75.4572 98.2867 75.5982 98.2923 75.7401 98.2923C75.8821 98.2923 76.0231 98.2867 76.1631 98.2764V93.0465C76.0202 92.9319 75.8783 92.8153 75.7401 92.6923Z" fill="#EBEBEB"/>
<path d="M75.7402 91.7911C74.4045 91.7911 73.0687 91.2828 72.0517 90.2661C71.3721 89.5877 71.3721 88.4865 72.0517 87.8081C72.7304 87.1297 73.832 87.1297 74.5107 87.8081C75.1884 88.4856 76.2919 88.4856 76.9696 87.8081C77.6483 87.1297 78.75 87.1297 79.4286 87.8081C80.1082 88.4865 80.1082 89.5877 79.4286 90.2661C78.4116 91.2828 77.0759 91.7911 75.7402 91.7911Z" fill="#5B1111"/>
<path d="M65.7991 88.3954C68.1612 88.3954 70.076 86.4813 70.076 84.1202C70.076 81.7591 68.1612 79.845 65.7991 79.845C63.437 79.845 61.5222 81.7591 61.5222 84.1202C61.5222 86.4813 63.437 88.3954 65.7991 88.3954Z" fill="white"/>
<path d="M65.7991 87.4558C67.642 87.4558 69.136 85.9624 69.136 84.1202C69.136 82.2779 67.642 80.7845 65.7991 80.7845C63.9561 80.7845 62.4622 82.2779 62.4622 84.1202C62.4622 85.9624 63.9561 87.4558 65.7991 87.4558Z" fill="#5B1111"/>
<path d="M86.1026 88.3954C88.4646 88.3954 90.3795 86.4813 90.3795 84.1202C90.3795 81.7591 88.4646 79.845 86.1026 79.845C83.7405 79.845 81.8257 81.7591 81.8257 84.1202C81.8257 86.4813 83.7405 88.3954 86.1026 88.3954Z" fill="white"/>
<path d="M86.1025 87.4558C87.9455 87.4558 89.4394 85.9624 89.4394 84.1202C89.4394 82.2779 87.9455 80.7845 86.1025 80.7845C84.2596 80.7845 82.7656 82.2779 82.7656 84.1202C82.7656 85.9624 84.2596 87.4558 86.1025 87.4558Z" fill="#5B1111"/>
<path d="M75.9573 112.262C76.6841 112.262 77.2733 111.673 77.2733 110.946C77.2733 110.22 76.6841 109.631 75.9573 109.631C75.2305 109.631 74.6414 110.22 74.6414 110.946C74.6414 111.673 75.2305 112.262 75.9573 112.262Z" fill="#B41F24"/>
<path d="M75.9573 117.523C76.6841 117.523 77.2733 116.934 77.2733 116.208C77.2733 115.481 76.6841 114.892 75.9573 114.892C75.2305 114.892 74.6414 115.481 74.6414 116.208C74.6414 116.934 75.2305 117.523 75.9573 117.523Z" fill="#B41F24"/>
<path d="M31 125C32.6569 125 34 123.209 34 121C34 118.791 32.6569 117 31 117C29.3432 117 28 118.791 28 121C28 123.209 29.3432 125 31 125Z" fill="#FCB13F"/>
<path d="M29.6149 118C29.1212 118.636 28.7984 119.692 28.7984 120.886C28.7984 122.831 29.6523 124.408 30.7067 124.408C30.8063 124.408 30.9037 124.393 31 124.367C30.6908 124.765 30.3148 125 29.9083 125C28.855 125 28 123.424 28 121.479C28 119.718 28.6999 118.259 29.6149 118Z" fill="#DC8927"/>
<path d="M31.0002 124L36 130.827L30.5002 135L31.0002 124Z" fill="#FCB13F"/>
<path d="M29.2263 124L31 124.141L30.7587 135L29 134.195L29.2263 124Z" fill="#DC8927"/>
<path d="M120.5 127C121.881 127 123 125.433 123 123.5C123 121.567 121.881 120 120.5 120C119.119 120 118 121.567 118 123.5C118 125.433 119.119 127 120.5 127Z" fill="#FCB13F"/>
<path d="M121.385 120C121.879 120.636 122.202 121.692 122.202 122.886C122.202 124.831 121.348 126.408 120.293 126.408C120.194 126.408 120.096 126.393 120 126.367C120.309 126.765 120.685 127 121.092 127C122.145 127 123 125.424 123 123.479C123 121.718 122.3 120.259 121.385 120Z" fill="#DC8927"/>
<path d="M120.765 125L115 132.174L121 136L120.765 125Z" fill="#FCB13F"/>
<path d="M122.774 126L121 126.128L121.241 136L123 135.268L122.774 126Z" fill="#DC8927"/>
<path d="M76.5 145C116.541 145 149 112.541 149 72.5C149 32.4594 116.541 0 76.5 0C36.4593 0 4 32.4594 4 72.5C4 112.541 36.4593 145 76.5 145Z" fill="url(#paint0_radial_2464_26901)" fill-opacity="0.97"/>
<path d="M76.5 134L61 146H92L76.5 134Z" fill="#FCB13F"/>
<path d="M76 141C78.7614 141 81 138.761 81 136C81 133.239 78.7614 131 76 131C73.2386 131 71 133.239 71 136C71 138.761 73.2386 141 76 141Z" fill="#FCB13F"/>
<path d="M76.5 134L73 129.827L76.5 118L80 129.827L76.5 134Z" fill="#FCB13F"/>
<path d="M76 139C77.6569 139 79 137.881 79 136.5C79 135.119 77.6569 134 76 134C74.3431 134 73 135.119 73 136.5C73 137.881 74.3431 139 76 139Z" fill="#C9375B"/>
<path d="M75 134C75.5523 134 76 133.552 76 133C76 132.448 75.5523 132 75 132C74.4477 132 74 132.448 74 133C74 133.552 74.4477 134 75 134Z" fill="#C9375B"/>
<path d="M76 146C76.5523 146 77 145.328 77 144.5C77 143.672 76.5523 143 76 143C75.4477 143 75 143.672 75 144.5C75 145.328 75.4477 146 76 146Z" fill="#C9375B"/>
<path d="M14.2012 148.87L21 129C66.6431 154.616 108.355 138.173 126.5 127.5L134.5 149.5C81.405 181.636 32.3459 162.26 14.2012 148.87Z" fill="#675383"/>
<path d="M21.0002 130C17.0414 125.575 19.9625 121.955 22.0001 120.5C58.0001 158.5 110.5 139.5 127 124.5C129.096 127.76 130 130.5 129.5 132C128 135 116.859 140.137 111.716 142.174C69.1003 157.544 32.5002 139 21.0002 130Z" fill="#594773"/>
<path d="M13.1418 156.147C8.71413 151.743 12.165 150.318 14.444 148.87C64.5607 180.308 111.551 160.644 134 149C137.5 150.5 137.832 155.085 136.204 156.147C133.599 157.77 121.445 161.942 115.694 163.97C68.0313 179.269 27.4664 165.129 13.1418 156.147Z" fill="#594773"/>
</g>
<defs>
<filter id="filter0_d_2464_26901" x="0" y="0" width="153" height="178.747" filterUnits="userSpaceOnUse" color-interpolation-filters="sRGB">
<feFlood flood-opacity="0" result="BackgroundImageFix"/>
<feColorMatrix in="SourceAlpha" type="matrix" values="0 0 0 0 0 0 0 0 0 0 0 0 0 0 0 0 0 0 127 0" result="hardAlpha"/>
<feOffset dy="4"/>
<feGaussianBlur stdDeviation="2"/>
<feComposite in2="hardAlpha" operator="out"/>
<feColorMatrix type="matrix" values="0 0 0 0 0 0 0 0 0 0 0 0 0 0 0 0 0 0 0.25 0"/>
<feBlend mode="normal" in2="BackgroundImageFix" result="effect1_dropShadow_2464_26901"/>
<feBlend mode="normal" in="SourceGraphic" in2="effect1_dropShadow_2464_26901" result="shape"/>
</filter>
<radialGradient id="paint0_radial_2464_26901" cx="0" cy="0" r="1" gradientUnits="userSpaceOnUse" gradientTransform="translate(76.5 72.5) scale(72.5)">
<stop stop-color="white" stop-opacity="0"/>
<stop offset="0.12" stop-color="#FDFEFE" stop-opacity="0.02"/>
<stop offset="0.26" stop-color="#F9FBFB" stop-opacity="0.08"/>
<stop offset="0.4" stop-color="#F1F7F7" stop-opacity="0.19"/>
<stop offset="0.55" stop-color="#E7F1F1" stop-opacity="0.33"/>
<stop offset="0.7" stop-color="#DAE9E9" stop-opacity="0.52"/>
<stop offset="0.85" stop-color="#CAE0E0" stop-opacity="0.74"/>
<stop offset="1" stop-color="#B8D6D6"/>
</radialGradient>
</defs>
</svg>
